<?xml version="1.0" standalone="no"?>
<!DOCTYPE svg PUBLIC "-//W3C//DTD SVG 1.1//EN" "http://www.w3.org/Graphics/SVG/1.1/DTD/svg11.dtd" >
<svg xmlns="http://www.w3.org/2000/svg" xmlns:xlink="http://www.w3.org/1999/xlink" version="1.1">
<metadata>
Created by FontForge 20200314 at Thu Mar  5 04:26:51 2015
 By Unknown
Copyright (c) 2013 by Cultivated Mind. All rights reserved.
</metadata>
<defs>
<font id="PacificNorthwestLettersW01" horiz-adv-x="407" >
  <font-face 
    font-family="PacificNorthwestLettersW01"
    font-weight="400"
    font-stretch="normal"
    units-per-em="1000"
    panose-1="2 0 5 6 0 0 0 2 0 4"
    ascent="800"
    descent="-200"
    x-height="418"
    cap-height="769"
    bbox="-71.6154 -329.909 614 950"
    underline-thickness="50"
    underline-position="-175"
    unicode-range="U+000D-2122"
  />
<missing-glyph horiz-adv-x="237" 
 />
    <glyph glyph-name=".notdef" horiz-adv-x="237" 
 />
    <glyph glyph-name="glyph1" horiz-adv-x="0" 
 />
    <glyph glyph-name="glyph1" horiz-adv-x="0" 
 />
    <glyph glyph-name="uni000D" unicode="&#xd;" horiz-adv-x="237" 
 />
    <glyph glyph-name="space" unicode=" " horiz-adv-x="237" 
 />
    <glyph glyph-name="exclam" unicode="!" horiz-adv-x="234" 
d="M167 778q0 -11 -5 -17t-12 -9.5t-15 -6t-15 -6.5q-3 -10 -6.5 -22t1.5 -22q-8 -65 -9 -133.5t0 -138.5t1.5 -140.5t-3.5 -138.5q-1 -9 -2.5 -16t4.5 -15q11 -4 23.5 1t24.5 0q2 -7 -3 -12.5t-8 -10.5q-30 -2 -65.5 -6.5t-64.5 1.5q-11 -5 -23 -3.5t-11 12.5t14.5 12
t24.5 4q4 55 3.5 119t-1.5 132t-1.5 136.5t2.5 132.5q1 12 3 26t3.5 28t1 27t-4.5 23q-2 5 -9.5 9.5t-15 9.5t-13 11t-2.5 13q2 5 9.5 6t16.5 0.5t18 -2t15 -1.5q34 0 66.5 4.5t57.5 -7.5zM97 -21q3 -14 1.5 -28t-7 -26t-14.5 -19t-21 -6q-7 1 -13.5 6.5t-11 13.5t-7 17
t-1.5 16q2 11 10 19.5t19 13t23 3t22 -9.5z" />
    <glyph glyph-name="quotedbl" unicode="&#x22;" horiz-adv-x="162" 
d="M103 795q1 -7 1.5 -13t0.5 -12q0 -12 0.5 -25.5t0.5 -29.5v-25v-5q-1 -8 -4.5 -10t-5.5 -2h-1q-8 0 -11 6q-4 7 -4 13v23l1 8v10v21q0 9 -0.5 18t-1.5 17v3q0 9 4 11.5t6 3.5q12 0 14 -12zM30 795q1 -7 1.5 -13t0.5 -12q0 -12 0.5 -25.5t0.5 -29.5v-25v-5q-1 -8 -4.5 -10
t-5.5 -2h-1q-8 0 -11 6q-4 7 -4 13v23l1 8v10v21q0 9 -0.5 18t-1.5 17v3q0 9 4 11.5t6 3.5q12 0 14 -12z" />
    <glyph glyph-name="numbersign" unicode="#" horiz-adv-x="527" 
d="M58 276q7 0 7 6v5q-1 11 0 22t3 22q0 2 -1 3t0 3q-2 8 -2 15.5t3 15.5q2 7 3.5 13.5t3.5 13.5q2 8 3 17t3 17t2.5 16t2.5 16q1 8 -1 10t-10 0t-17 -3.5t-19 -2.5q-6 -1 -12 -1h-12h-6q-5 2 -2 8q4 6 10.5 9t14.5 3q5 -1 10.5 -0.5t10.5 1.5q8 1 14.5 1.5t14.5 1.5
q4 1 6 2.5t3 6.5q2 10 2 19v19q1 11 1.5 22.5t2.5 22.5v4q0 5 1 8t3 7q6 13 8 31q2 15 3.5 30t3.5 30q2 8 3 15.5t2 15.5q1 1 1 2t1 2q5 4 8.5 9t8.5 7q7 2 9 -2q2 -3 4.5 -3.5t4.5 -1.5q6 -1 12.5 -1.5t12.5 -1.5q4 -1 8 1q8 0 11 -9q2 -8 -1 -14q-2 -5 -2.5 -10.5
t-1.5 -11.5l-6 -42t-5 -42q-2 -17 -3 -34t-3 -34q-2 -11 -2.5 -20.5t-1.5 -20.5q-2 -6 5 -6h14t14 1q10 0 19.5 1t19.5 2q11 1 22.5 1.5t23.5 0.5q5 1 5 8q1 6 1.5 11.5t1.5 11.5l2 28t3 28q0 12 2.5 24t4.5 24q1 9 1 18.5t2 18.5q2 12 4.5 23.5t5.5 23.5v8q1 8 9 8
q2 0 3 -1q8 -3 20 -1q6 0 12.5 -0.5t13.5 -1.5q4 0 7.5 0.5t5.5 4.5q4 5 9 2q8 -6 15 -3q5 2 5 -6q1 -17 -7 -39q-1 -3 -2 -6.5t-2 -7.5q-2 -16 -5 -32t-5 -33l-9 -57q-2 -11 -3 -22t-3 -22q-1 -6 0.5 -7.5t6.5 -1.5q11 0 20.5 -0.5t19.5 -0.5q4 -1 6.5 -1.5t4.5 -4.5
q3 -8 -5 -10q-2 0 -5 -0.5t-5 0.5q-11 0 -20.5 0.5t-20.5 0.5q-5 0 -5 -6l-3 -33q-1 -11 -2.5 -22.5t-3.5 -22.5q-2 -13 -3.5 -25.5t-3.5 -25.5q-2 -10 -3 -19l-2 -18q-1 -8 -1.5 -16.5t-1.5 -18.5q3 0 5.5 -0.5t5.5 0.5l18 2t18 1q7 1 8 -7q1 0 1 -3q2 -9 -6 -9
q-6 -2 -12 -1.5t-12 0.5t-11.5 0.5t-10.5 -0.5q-5 0 -5.5 -1t-2.5 -6q-1 -7 -3 -14t-2 -14q-2 -21 -5.5 -41t-5.5 -40q-2 -9 -2.5 -17.5t-1.5 -17.5q-2 -19 -3.5 -37.5t-3.5 -37.5q0 -3 -0.5 -6t-0.5 -7q-1 -5 -6 -7l-4 -4l-4 -4q-4 -4 -9 -4h-15q-6 0 -12 -0.5t-11 -4.5
q-2 -1 -5 -1q-9 -2 -13 -8l-3 -3q-4 -4 -8 -2q-3 2 -3 8q-2 14 0.5 26t4.5 25q2 12 4.5 24t1.5 25t0.5 25t3.5 24q3 22 7 43.5t7 43.5q1 7 2 13.5t2 13.5v8q-3 0 -5 0.5t-4 0.5h-28q-16 0 -31.5 0.5t-31.5 0.5q-4 1 -8 1t-8 1q-6 0 -6 -6q-2 -13 -3 -26t-3 -26
q-2 -14 -3.5 -29t-3.5 -29q-2 -16 -3.5 -31.5t-3.5 -32.5q-2 -14 -3 -29t-3 -30q0 -5 -1 -9t-1 -9t-6 -5h-3q-11 3 -20 -3q-3 -2 -10 0q-3 0 -6 -1l-6 -2q-5 -2 -8.5 -5.5t-6.5 -8.5q-3 -3 -7 -4.5t-8 -3.5q-3 -1 -5.5 2t-1.5 7q0 5 2 15q0 1 0.5 2t0.5 2q1 8 1 14.5t1 14.5
q0 6 1 10q1 7 1 13.5v13.5q-1 17 -0.5 33t3.5 33q5 22 8.5 44t5.5 45q1 9 1.5 18.5t2.5 18.5v5q-2 0 -3 0.5t-3 0.5q-10 -1 -19 -2t-19 -1q-6 -1 -16 1q-6 0 -7 6q3 2 5.5 5t5.5 5q6 2 10 1q11 0 21 -0.5t21 -1.5zM158 337q-2 -12 -2.5 -24.5t-2.5 -25.5q0 -8 8 -9t17 -1.5
t17 -1.5q17 -1 34 -1.5t34 -0.5q9 0 11 2t3 12q0 1 -0.5 1.5t-0.5 2.5q1 4 1 8t1 8q2 8 3.5 16.5t2.5 17.5q2 18 3 36.5t3 36.5q2 11 2.5 22.5t1.5 23.5q1 4 1 7.5t1 8.5q-31 2 -61 0t-61 -3q-2 -8 -2 -10q-2 -6 -1.5 -12.5t-0.5 -12.5q-2 -14 -3 -27t-3 -26z" />
    <glyph glyph-name="dollar" unicode="$" horiz-adv-x="361" 
d="M303 305q11 -32 21.5 -72.5t7.5 -81.5q-1 -14 -4 -35t-8 -37q-2 -10 -4.5 -14.5t-6.5 -13.5q-11 -23 -23.5 -40t-30.5 -35q-13 -13 -32.5 -22t-44.5 -1q-7 -24 -1.5 -47t4.5 -48q-5 -4 -9 -8t-12 -2q-9 2 -10 13.5t0.5 26.5t2.5 30t-3 26q-11 5 -22.5 4t-21.5 2
q-5 1 -9.5 4.5t-9.5 6.5q-16 9 -24 17.5t-19 26.5q-16 26 -25 62.5t-16 71.5q-2 6 -7 9t-10.5 6t-10 6t-5.5 8q-2 11 5.5 17t19 8.5t24 1.5t21.5 -4q3 -8 2.5 -15t-3 -14.5t-5 -15.5t-2.5 -16q0 -22 8 -48q8 -27 15.5 -44.5t22.5 -36.5q8 -11 15.5 -15.5t23.5 -9.5
q15 -5 32 -6q3 32 3 68.5t-2 74.5t-5 75.5t-4 72.5q-1 17 1 37t-4 35q-4 10 -12 21t-14 21q-8 11 -15 15q-6 16 -17 33t-22.5 34.5t-22.5 36t-17 38.5q-3 10 -4.5 26t-0.5 32q1 13 1.5 25.5t2.5 23.5q2 16 8 26.5t12 23.5q6 14 10.5 29.5t15.5 28.5q17 11 33 22t39 15
q1 17 3.5 31t-1.5 30q-2 8 -7.5 13.5t-5.5 13.5q0 10 6.5 13.5t14.5 2t14.5 -7.5t6.5 -13t-4 -10t-5 -10q-3 -14 0 -29.5t0 -32.5q21 -2 46 -7.5t44 -13.5q2 4 1.5 12.5t3.5 13.5q17 5 23 -6q-3 -29 -1.5 -64t-6.5 -67q-5 -3 -17 -1q-6 6 -6 13.5t1.5 15t3.5 15t1 14.5
q0 7 -5 17.5t-10 14.5q-8 8 -28 15t-40 7q-13 -11 -13 -34t1 -48q1 -32 3.5 -73.5t4.5 -73.5v-23t2 -18.5t6.5 -14t14.5 -9.5q11 -23 29 -38.5t29 -38.5q2 -3 5.5 -4t5.5 -4q13 -19 23.5 -40.5t24.5 -39.5zM109 562q2 -5 5.5 -12.5t8 -15t9.5 -13.5t9 -7q-3 45 -4 101
t-2 110q0 2 -3 2q-17 -14 -25 -36t-10 -45t1.5 -45.5t10.5 -38.5zM224 64q3 32 1 64.5t-10 61.5q-5 20 -14.5 38.5t-17.5 35.5q-4 6 -5.5 12.5t-7.5 11.5q0 2 -3 2v-5q1 -32 1 -66.5t2 -63.5q1 -9 3.5 -17.5t3.5 -16.5q2 -35 -2 -69.5t2 -70.5q11 2 19 7.5t18 10.5
q-3 18 2.5 33t7.5 32z" />
    <glyph glyph-name="percent" unicode="%" horiz-adv-x="381" 
d="M4 639q-1 5 -1 11t-1 12q-2 11 1.5 19.5t9.5 16.5q2 3 3.5 5.5t3.5 5.5q16 20 44 23q18 1 37 -5q6 -2 5 -8q0 -3 2 -7l8 -14t7 -14q8 -19 5 -43q-3 -20 -11 -37q-17 -35 -55 -29h-3q-23 3 -37 25q-5 9 -10.5 18.5t-7.5 20.5zM66 705q-4 -10 -5 -19.5t-1 -20.5
q2 -29 13 -55q3 -10 11 -15q6 -3 10 2q8 8 10 12q5 11 8.5 22t3.5 20q1 17 -3.5 29.5t-12.5 23.5q-4 6 -11 9q-10 5 -14.5 3t-8.5 -11zM124 296q0 1 2 5q3 4 5 15q0 2 0.5 4t0.5 4q2 8 4 17t4 17l2 9l2 10l2 10l2 8q0 3 1 4q3 5 4 10t2 11q1 3 1.5 6.5t1.5 6.5q2 6 2.5 12
t2.5 12q0 4 2 12q0 2 0.5 4t0.5 4q1 1 1 4q2 5 2.5 10t2.5 10q2 11 5 23t5 24q2 6 2.5 12.5t1.5 12.5q1 7 2 13t2 13q2 6 3 12t3 12q1 5 2 9.5t3 9.5q5 23 10 43t10 38l1 1q0 2 1 3t1 3q5 9 13 6q9 -3 7 -13v-4l-1 -4q-1 -4 -3 -10q-1 -2 -1 -5q-1 -2 -1 -3t-1 -3
q-5 -15 -8.5 -30.5t-6.5 -29.5q-2 -8 -3 -15t-3 -15q-2 -9 -3.5 -18.5t-3.5 -18.5q-1 -5 -1 -10t-2 -10l-2 -14q-2 -13 -4.5 -26.5t-4.5 -26.5q-5 -25 -10 -49t-11 -48l-4 -17q-7 -29 -13.5 -58t-13.5 -58q-2 -11 -4.5 -20.5t-5.5 -20.5t-5.5 -22.5t-5.5 -23.5t-5.5 -24
t-4.5 -25q-1 -5 -1.5 -9t-2.5 -9v-6q-1 -2 -1 -6q-2 -8 -3 -14.5t-3 -13.5q-2 -8 -3.5 -16t-3.5 -16q-1 -4 -1 -14q-1 -4 -2 -8.5t-9 -4.5h-1q-5 0 -9 3.5t-5 8.5q0 6 1 8l2 12t3 12q1 7 2 13.5t3 12.5q2 7 2.5 14t2.5 14l12 57q2 10 4 19t4 17t4 15.5t4 15.5q0 3 0.5 6.5
t0.5 7.5q1 4 1 7.5t1 6.5q2 8 2 10q2 6 3 12t3 11q1 2 1 4.5t1 5.5v5v1zM204 112q7 19 27 30q8 5 16.5 7.5t16.5 1.5q17 1 28.5 -5.5t19.5 -17.5q9 -11 13 -22t6 -25q2 -13 -0.5 -24.5t-5.5 -23.5q-3 -11 -13 -20q-9 -7 -18.5 -12.5t-20.5 -7.5q-30 -6 -56 10
q-7 5 -12.5 11.5t-7.5 14.5q-4 9 -6.5 18t-1.5 19q0 10 2.5 18.5t6.5 17.5q2 2 3 5t3 5zM253 129q-15 -24 -7 -52q2 -8 6 -16.5t8 -16.5q2 -3 8 -9q7 -7 15 -8.5t18 -1.5q3 0 4 1q3 4 5.5 7t4.5 7q2 8 3 14.5t3 14.5q0 20 -10 43q-10 22 -31 25q-5 1 -11 0.5t-11 -0.5l-3 -3
q-1 -2 -1 -3t-1 -2z" />
    <glyph glyph-name="ampersand" unicode="&#x26;" horiz-adv-x="458" 
d="M30 36q-11 19 -16.5 39t-9.5 40q-3 16 -1 36q1 13 2.5 26t3.5 26q2 14 5 28.5t9 28.5q7 17 13.5 34t14.5 34q6 13 13 25.5t14 25.5q12 21 22 41q2 4 1 7q-2 5 -3.5 9t-4.5 9q-4 8 -8 15t-9 15q-4 10 -5 15q-2 11 -4.5 22t-9.5 22q-4 8 -5 15.5t-1 15.5q-1 11 -1 22.5
v22.5q0 13 1.5 25.5t6.5 23.5q4 11 8 21t9 20q3 5 7 9.5t8 9.5q18 18 45 24q5 1 9.5 2t9.5 2q9 1 19 -4q11 -5 20 -13t14 -21q4 -11 7 -22t4 -22q1 -8 0 -17t-3 -17t-3.5 -16t-4.5 -16q-5 -14 -9 -27t-11 -26q-2 -4 -3 -7.5t-3 -7.5q-4 -8 -7.5 -16.5t-8.5 -16.5
q-1 -2 -1.5 -2.5t-1.5 -2.5q-3 -5 -1 -11q5 -14 10.5 -27.5t10.5 -27.5q8 -18 15.5 -36t15.5 -36q10 -21 20.5 -42.5t21.5 -43.5l12 -24l4 -6q3 4 3 6q2 16 4.5 31t4.5 30q2 11 2.5 21.5t2.5 21.5q1 7 1 13.5v14.5q2 10 2 14q0 6 -7 7h-6q-12 0 -17 13q-3 6 4 9q10 3 20 2
q11 0 20.5 -1t20.5 -2h4q7 -3 3 -9q-3 -6 -10 -7q-3 -1 -6.5 -1.5t-6.5 -1.5q-6 0 -6 -7v-17v-29t-1 -29q0 -13 -1 -25.5t-2 -25.5q-2 -5 -1 -7q0 -12 -2.5 -23.5t-5.5 -22.5q-4 -9 2 -18q4 -8 8 -15t8 -15q8 -18 17.5 -35.5t18.5 -35.5q8 -14 14 -27t12 -27q5 -8 8.5 -15.5
t7.5 -15.5q0 -2 0.5 -3t0.5 -3q0 -5 6 -5h11l9 -3q3 -2 3 -6q0 -3 -4 -3q-5 -1 -10.5 -1.5t-10.5 -0.5h-35q-14 -1 -27 -1t-26 -1q-13 0 -24 8l-3.5 3.5t-0.5 3.5q2 6 9 4q2 0 3.5 -0.5t3.5 -0.5q4 0 6 1q6 1 3 8q-2 5 -4.5 9.5t-4.5 9.5l-16 30l-16 30l-4 6q-2 -3 -4 -7
q-20 -43 -50 -73q-2 -2 -2.5 -4t-2.5 -4q-4 -8 -15 -11l-12 -4t-12 -3q-14 -2 -22 -7q-7 -5 -13 -4.5t-12 2.5q-7 2 -14 3.5t-13 3.5t-11 4t-11 4q-4 2 -7 5q-14 15 -25 36zM139 717q-13 -19 -15 -43q0 -11 1 -22.5t3 -22.5q1 -10 3 -20t4 -21q3 -17 6.5 -34t7.5 -34
q0 -2 1 -4t2 -5q4 4 6 8l12 24q10 20 16.5 41t8.5 43q1 6 1.5 11.5t1.5 10.5q1 12 1.5 24t-1.5 23q-2 9 -5 12q-5 5 -10.5 9t-13.5 6q-8 3 -18 6q-4 -2 -5.5 -3t-6.5 -9zM20 165q-1 -13 -1.5 -25t1.5 -25q0 -2 0.5 -4.5t0.5 -5.5q0 -11 4 -20q4 -10 7.5 -19.5t8.5 -18.5
q5 -11 12.5 -19t18.5 -12q14 -5 27 -8.5t28 -1.5h3q9 -2 17 0.5t15 7.5q22 13 41 34q2 1 4 5q3 4 5.5 9t5.5 10q8 11 14.5 23.5t8.5 25.5q2 7 -1 11q-7 14 -13 28t-14 27q-8 11 -14 23t-11 24q-7 15 -13.5 29t-13.5 29q-3 6 -5.5 11.5t-4.5 11.5q-4 12 -9.5 21.5t-13.5 18.5
q-8 11 -15 26q-2 4 -3 8q-5 -5 -6 -7l-12 -18q-22 -33 -40 -73q-5 -11 -8.5 -23.5t-6.5 -24.5q-4 -14 -6.5 -26.5t-5.5 -26.5q-2 -6 -3.5 -12.5t-1.5 -12.5z" />
    <glyph glyph-name="quotesingle" unicode="'" horiz-adv-x="106" 
d="M30 795q1 -7 1.5 -13t0.5 -12q0 -12 0.5 -25.5t0.5 -29.5v-25v-5q-1 -8 -4.5 -10t-5.5 -2h-1q-8 0 -11 6q-4 7 -4 13v23l1 8v10v21q0 9 -0.5 18t-1.5 17v3q0 9 4 11.5t6 3.5q12 0 14 -12z" />
    <glyph glyph-name="parenleft" unicode="(" horiz-adv-x="307" 
d="M9 326q-1 11 -0.5 22t-1.5 22q-1 19 -1.5 37.5t1.5 37.5q2 15 3.5 29.5t3.5 28.5q5 37 15 70t24 65q6 14 12 27t14 24q11 15 22 29t23 26q5 4 9.5 7.5t9.5 7.5q3 2 6 3.5t6 3.5q13 8 28 10q7 1 13.5 2.5t13.5 3.5q5 1 12.5 -2.5t12.5 -7.5t5.5 -7.5t-7.5 -3.5
q-15 0 -26.5 1t-25.5 -9q-8 -6 -15 -14.5t-12 -17.5q-10 -16 -16 -34.5t-10.5 -38.5t-8.5 -40t-9 -39q-5 -20 -9 -40t-8 -41l-4 -28t-3 -28q-1 -11 -0.5 -23t-0.5 -24q-1 -21 0.5 -41.5t3.5 -42.5q2 -20 3.5 -41t2.5 -42q1 -10 3 -19.5t4 -18.5q5 -26 12 -50.5t14 -50.5
q2 -10 6 -19l8 -18q5 -10 8.5 -25.5t8.5 -25.5q5 -9 12 -19t16 -15q6 -3 11.5 -1t10 5.5t9 6t8.5 0.5q1 0 1.5 -0.5t1.5 -0.5q4 -5 2 -11t-6.5 -11t-9.5 -9.5t-8 -5.5q-26 -14 -53 -6q-11 3 -25 11q-13 9 -23.5 21.5t-20.5 26.5t-15.5 29.5t-11.5 31.5q-3 8 -6 15.5t-5 15.5
q-5 15 -9.5 29.5t-6.5 30.5q-2 15 -4.5 30t-5.5 30q0 4 -1 7.5t-1 7.5q-1 4 -1 7.5t-1 7.5q-2 9 -2.5 18t-1.5 19q0 6 -1 11.5t-1 11.5q-1 11 -1.5 20.5t-0.5 20.5z" />
    <glyph glyph-name="parenright" unicode=")" horiz-adv-x="321" 
d="M231 326q0 -11 -0.5 -20.5t-1.5 -20.5q0 -6 -1 -11.5t-1 -11.5q-1 -10 -1.5 -19t-2.5 -18q-1 -4 -1 -7.5t-1 -7.5q0 -4 -1 -7.5t-1 -7.5q-3 -15 -5.5 -30t-4.5 -30q-2 -16 -6.5 -30.5t-9.5 -29.5q-2 -8 -5 -15.5t-6 -15.5q-6 -16 -11.5 -31.5t-15.5 -29.5t-20.5 -26.5
t-23.5 -21.5q-14 -8 -25 -11q-27 -8 -53 6q-3 1 -8 5.5t-9.5 9.5t-6.5 11t2 11q1 0 1.5 0.5t1.5 0.5q4 2 8.5 -0.5t9 -6t10 -5.5t11.5 1q9 5 16 15t12 19q5 10 8.5 25.5t8.5 25.5l8 18t6 19q7 26 14 50.5t12 50.5q2 9 4 18.5t3 19.5q1 21 2.5 42t3.5 41q2 22 3.5 42.5
t0.5 41.5q-1 12 -0.5 24t-0.5 23q-1 14 -3 28l-4 28q-4 21 -8 41t-9 40q-5 19 -9 39t-8.5 40t-10.5 38.5t-16 34.5q-5 9 -12 17.5t-15 14.5q-14 10 -25.5 9t-26.5 -1q-8 0 -7.5 3.5t5.5 7.5t12 7.5t13 2.5q7 -2 13.5 -3.5t13.5 -2.5q15 -2 28 -10q3 -2 6 -3.5t6 -3.5
q5 -4 9.5 -7.5t9.5 -7.5q12 -12 23 -26t22 -29q8 -11 14 -24t12 -27q14 -32 24 -65t15 -70q2 -14 3.5 -28.5t3.5 -29.5q2 -19 1.5 -37.5t-1.5 -37.5q-2 -11 -1.5 -22t-0.5 -22z" />
    <glyph glyph-name="asterisk" unicode="*" horiz-adv-x="259" 
d="M106 604q7 -7 10 -8q8 -5 16.5 -8.5t16.5 -7.5q6 -3 12.5 -6t12.5 -6q3 -3 3 -2q2 -5 2 -6q0 -4 -5 -4q-3 1 -6.5 1t-6.5 2q-14 6 -27 12t-27 13q-3 0 -7 1v-16q1 -9 1.5 -17.5t0.5 -17.5q0 -10 -8 -10q-10 0 -12 10v6v18.5t-1 19.5q0 2 -3 7q-5 -4 -9 -7t-9 -6
q-8 -6 -16 -12.5t-17 -12.5q-4 -4 -11 -2q-2 0 -3.5 2t-2.5 4q0 5 4 7q9 5 16.5 12t15.5 13q7 5 17 13q2 2 4 3.5t4 3.5q-3 2 -5 4l-4 4l-16 8t-16 7q-16 8 -27 19q-2 4 -1 6q3 3 5 3q2 1 7 -1l24 -12t24 -13l7 -3.5l7 -3.5q5 3 4.5 6.5t-0.5 6.5q-1 8 -1.5 15.5t-0.5 15.5
v22v2q1 3 1 5.5t5 3.5q3 0 6 -2.5t3 -6.5q1 -7 1.5 -13.5t0.5 -13.5q1 -9 1.5 -18t0.5 -17l2 -4q3 2 6.5 3t5.5 3q11 9 21 17.5t21 16.5q5 4 9.5 6.5t9.5 5.5q4 2 8 1q5 -1 6 -4.5t-2 -7.5q-1 -1 -1.5 -1t-1.5 -1q-14 -11 -27 -21.5t-27 -21.5q-5 -4 -10 -7t-11 -8z" />
    <glyph glyph-name="plus" unicode="+" horiz-adv-x="283" 
d="M206 360q4 -8 -1 -14q-3 -3 -10.5 -4.5t-16.5 -1.5t-17 0.5t-11 0.5l-32 -1h-1v-16q1 -6 1 -12.5t1 -12.5q0 -7 0.5 -13.5t0.5 -13.5q0 -8 0.5 -14.5t0.5 -13.5v-5q0 -3 -0.5 -7t-6.5 -6q-2 0 -3 -0.5t-2 -0.5q-7 0 -12 5q-5 8 -5 15v34v14v2q-2 5 -2.5 9.5t-0.5 8.5v8
q0 8 1 12v5v1v-1h-6q-4 0 -12 -0.5t-16 -0.5t-15.5 -0.5t-11.5 -0.5h-3h-6q-8 0 -12 3.5t-4.5 8t3 8t11.5 4.5t27.5 1.5t27.5 1.5q4 1 8 1t8 1h3v3v21v20v8q0 2 0.5 4.5t0.5 4.5q-1 3 -1 11q0 2 -0.5 4t-0.5 4v9v4q0 5 5 5h1q16 0 18 -16q2 -13 2 -25.5v-24.5v-28v-3h3h9h29
t29 1h5q9 0 14 -7z" />
    <glyph glyph-name="comma" unicode="," horiz-adv-x="138" 
d="M62 -119q0 -9 -4.5 -12.5t-9.5 -3.5h-1q-4 0 -8.5 1t-7.5 5q-5 6 -6 15v14q0 5 1 7q1 14 -2 28.5t-8 28.5q0 2 -4 8q-1 1 -1.5 2t-1.5 2q-2 4 -3 7q-4 10 3 17q9 5 18 2q4 -1 6.5 -3.5l4.5 -4.5q10 -14 13 -26q2 -8 4 -16.5t4 -16.5q1 -8 1.5 -15.5t0.5 -15.5q1 -5 1 -9
v-8v-6z" />
    <glyph glyph-name="hyphen" unicode="-" horiz-adv-x="322" 
d="M234 328q2 0 5.5 -1t4.5 -5q2 -5 -2 -11q-3 -5 -7.5 -6t-8.5 -1h-1q-14 -2 -27 0q-10 2 -15 2h-14t-15 -1h-8q-7 0 -10 -1h-6.5t-7.5 -1h-40h-34h-9t-9 -1h-17q-8 0 -11 4t-1 12q2 5 5.5 6t5.5 2q4 0 8 0.5t8 0.5l7 1q2 0 3 -1h1q5 1 13 1q2 0 3 0.5t3 -0.5q5 -1 16 -1
t16 1h15q14 0 27 1l26 2h14q2 0 3 -0.5t3 -0.5h8q12 0 24 -0.5t24 -1.5z" />
    <glyph glyph-name="period" unicode="." horiz-adv-x="238" 
d="M75 -70q-8 1 -14.5 6.5t-11 13.5t-6.5 17t-1 16q2 11 10 19.5t18.5 13t22.5 3t23 -9.5q3 -14 1 -28t-7 -26t-14 -19t-21 -6z" />
    <glyph glyph-name="slash" unicode="/" horiz-adv-x="254" 
d="M183 718q1 -1 1 -4l-2 -4q-1 -4 -3 -10q0 -3 -1 -5q0 -2 -0.5 -3t-0.5 -3q-5 -15 -8.5 -30.5t-7.5 -30.5q-2 -8 -3.5 -15.5t-3.5 -15.5q-4 -18 -6 -37q-1 -5 -1.5 -10t-1.5 -10l-2 -14q-2 -14 -4.5 -27t-5.5 -27q-5 -25 -10.5 -49.5t-10.5 -47.5l-4 -18
q-6 -29 -12.5 -58.5t-14.5 -58.5q-2 -11 -4.5 -21t-5.5 -20q-3 -11 -6 -23t-5 -24q-3 -12 -5.5 -24.5t-4.5 -25.5q-2 -7 -4 -19q0 -3 -1 -5v-7l-6 -27q-2 -8 -3.5 -16.5t-3.5 -16.5q-1 -3 -1 -6t-1 -8q0 -3 -1.5 -7.5t-8.5 -5.5h-1q-12 0 -14 13q-1 2 -0.5 3.5t0.5 3.5
q2 6 2.5 12.5t2.5 12.5q2 7 3 13t2 13q2 7 3 13.5t3 14.5q2 14 5 29l6 30l9 36q2 8 3.5 15.5t3.5 15.5t2 13q1 4 1 7.5t1 7.5q2 8 2 10q2 6 3 11.5t3 11.5q1 2 1 4.5t1 5.5v5v1q0 3 2 5q2 3 3 7l2 8q0 2 0.5 4t0.5 4q2 8 4 17t4 17l2 10q2 12 4 20l2 9q0 2 1 4q4 5 4.5 10
t2.5 11q0 5 2 13q2 6 3 12l2 12q0 4 2 12q0 4 2 8q0 3 1 4l2 10l2 10q3 12 5.5 24t4.5 24q2 6 2 12.5t2 12.5q1 6 2 12.5t3 13.5q2 6 2.5 12t2.5 12q4 11 5 20q10 45 22 82v1q1 2 1 3t1 2q4 11 13 7q10 -3 7 -13z" />
    <glyph glyph-name="zero" unicode="0" horiz-adv-x="370" 
d="M145 772q2 0 7 1t11 0q7 -2 19.5 -10t21.5 -14t19 -14.5t17 -15.5q8 -8 17 -21t13 -24t6 -24l4 -26q5 -25 7.5 -50.5t4.5 -54.5q2 -34 4 -63t0 -67q-1 -29 -3.5 -58.5t-6.5 -58.5q-2 -15 -2 -30t-2 -29q-1 -14 -3.5 -27.5t-4.5 -26.5q-4 -27 -11 -50.5t-16 -46.5
q-8 -20 -20.5 -43.5t-22.5 -32.5q-20 -18 -50.5 -21t-53.5 11q-17 10 -31 29.5t-23 39.5q-20 45 -28 110.5t-11 140.5q-2 51 -0.5 103t4.5 102q2 30 5.5 54t7.5 51q4 32 11.5 62t21 53t34 37t51.5 14h3zM132 596q-5 -32 -7 -67t-2.5 -71t0 -71t0.5 -68q-1 -35 3 -73.5
t8 -76.5q1 -16 3.5 -35.5t5.5 -38t7 -35.5t9 -29q1 -3 4.5 -8.5t7.5 -11t7.5 -9t6.5 -3.5t7.5 4t9.5 10t9 13t7 12q39 78 48 182q4 50 8.5 106.5t6.5 113.5q1 20 -1 38t-4 35q-2 39 -4 72.5t-10 64.5q-9 40 -33.5 62t-54.5 38q-17 -26 -26 -67.5t-16 -86.5z" />
    <glyph glyph-name="one" unicode="1" horiz-adv-x="329" 
d="M198 756q-5 -28 -6 -60.5t-1 -66.5t1 -68.5t1 -67.5q0 -47 -1 -97t-1 -98q0 -49 -2.5 -97.5t-1.5 -95.5q0 -29 0.5 -56.5t6.5 -53.5q5 2 10 0.5t10 1.5q6 4 6 13.5t6 13.5q6 3 11 -0.5t10 -5.5q-1 -8 2.5 -17.5t0.5 -19.5q-8 -5 -19 -6t-22 -1q-40 1 -83 0t-78 -3
q-10 8 -21 3.5t-20 -3.5q-6 5 -7.5 14.5t0.5 18t7 13t13 -0.5q6 -4 5.5 -12t4.5 -12q11 0 19.5 0.5t19.5 -0.5q11 14 10.5 31t-0.5 34q2 74 3.5 150.5t3.5 154.5q2 91 -1.5 181t-2.5 181q-9 -3 -15 -10l-12 -14t-13.5 -11.5t-19.5 -2.5q-4 13 4 20.5t14 14.5q8 8 15.5 15
t12.5 15q20 14 52 14t57 -10q5 2 10.5 3.5t10.5 -2.5z" />
    <glyph glyph-name="two" unicode="2" 
d="M126 -25q38 3 81 9t84 11q4 1 7 8t6 14.5t6 14.5t7 8q10 2 10.5 -6.5t2.5 -19.5q1 -5 4 -11t1 -11q-1 -8 -6.5 -10.5t-7.5 -7.5q-35 1 -67.5 -2t-64.5 -6q-21 -2 -42 -7.5t-41 -6.5q-5 0 -8.5 2t-7.5 1q-4 0 -6.5 -2t-6.5 -2q-10 -1 -20 2t-20 2q-8 0 -14 -3.5t-14 -3.5
q-9 10 -5 17.5t6 15.5q5 17 9.5 34.5t9.5 34.5t9 34.5t9 34.5q8 28 19 54.5t20 54.5t16.5 56.5t16.5 56.5q16 48 31 97t26 104q6 29 11.5 65t4.5 71q0 9 -2 16.5t2 16.5q-3 14 -7 27t-11 23q-6 5 -13 8t-12 8q-34 8 -58 -3.5t-37.5 -35.5t-16.5 -56.5t6 -66.5q5 2 9 8.5
t12 6.5q22 -2 19 -36q-8 -13 -22.5 -12t-23.5 8q-12 9 -15.5 31t-1.5 46t7.5 46.5t12.5 33.5t20.5 25t22.5 19q16 7 39 8t45.5 -2.5t43 -10.5t32.5 -16q8 -5 17.5 -18.5t13.5 -21.5q11 -27 14.5 -68.5t1.5 -83.5q-2 -29 -8.5 -55.5t-11.5 -52.5q-2 -8 -1.5 -15t-1.5 -13
q-8 -39 -20.5 -74t-23.5 -74q-3 -13 -9 -24.5t-10 -25.5q-8 -26 -14 -54t-14 -55q-6 -20 -13 -38.5t-12 -41.5q-5 -19 -12.5 -39t-12.5 -41z" />
    <glyph glyph-name="three" unicode="3" horiz-adv-x="369" 
d="M220 423q8 -13 20 -20.5t22 -18.5q17 -20 26.5 -44.5t20.5 -50.5q0 -13 2.5 -23.5t6.5 -19.5q2 -42 1.5 -84t-13.5 -75q-11 -29 -31.5 -51t-32.5 -46q-9 -2 -13 -8t-11 -11q-11 -7 -24 -10t-27 -4.5t-28 -3.5t-26 -7q-24 1 -43.5 5.5t-33.5 13.5t-24 24.5t-14 38.5
q-2 10 -4 21.5t0 21.5q1 4 4.5 10.5t8 12.5t10 9t10.5 0t4.5 -7.5t-3.5 -10t-6.5 -11t-4.5 -10.5q-2 -14 1.5 -32t8.5 -30q4 -12 16 -20.5t27 -12.5t30.5 -1.5t28.5 11.5q10 -2 19 1t17 8q28 20 39.5 65.5t11.5 96.5q0 31 -3.5 63t-11.5 61t-21 53t-31 38q-3 2 -10.5 4
t-14.5 7q-3 2 -4 4.5t-4 4.5q-12 8 -28.5 9t-32.5 -1q-11 5 -11 24q7 6 14.5 6.5t15.5 2.5q26 8 50 26.5t34 43.5q9 23 15.5 54.5t8.5 60.5t-3.5 56.5t-16.5 48.5q-11 18 -27.5 35.5t-40.5 16.5q-8 -1 -14 -4t-11.5 -6.5t-11 -6t-13.5 -2.5q-8 -5 -9.5 -16t-2.5 -23t-4 -21
t-14 -9q-9 1 -11.5 11.5t-0.5 22.5q1 6 5 15t9 18t10.5 16.5t9.5 10.5q13 9 35 15t45 7q10 1 18 -2.5t18 -3.5q5 0 10.5 2.5t10.5 1.5q7 0 11.5 -5.5t11.5 -9.5q5 -3 11 -3.5t9 -2.5q5 -3 8.5 -9.5t9.5 -12.5q9 -11 20 -21.5t17 -24.5q4 -8 9 -26.5t7 -28.5q3 -21 0 -37.5
t-5 -40.5q-5 -47 -21.5 -83.5t-40.5 -65.5z" />
    <glyph glyph-name="four" unicode="4" horiz-adv-x="397" 
d="M263 776q-2 -99 -1.5 -201.5t-1.5 -203.5q7 -2 17.5 -3t22.5 1q5 1 11.5 3t12 2t9 -3t2.5 -12t-9.5 -11.5t-20.5 -2.5t-24.5 -0.5t-20.5 -4.5q-2 -79 -1.5 -161.5t6.5 -157.5q6 -1 8.5 1t4 4.5t3.5 5t7 2.5q11 1 15 -13.5t-1 -28.5q-15 -4 -32.5 -3.5t-35.5 1t-36.5 1
t-34.5 -3.5q-8 -2 -14.5 -4.5t-14.5 -4.5q-10 5 -20.5 2.5t-18.5 3.5q-7 13 -2 18t15 6.5t22 2.5t18 6q8 32 7 77t-1 86q0 43 4 83t2 77q-26 0 -56 4.5t-58 1.5q-5 -1 -14 -4t-18 -5t-16 0t-8 11q0 4 2.5 10t6.5 13t7.5 13.5t5.5 11.5q10 26 18 50t16 51q4 14 6 29t8 25
q3 5 7.5 7t7.5 7q5 8 6.5 19t4.5 21q6 19 12.5 37t12.5 39q3 9 5.5 19.5t6.5 17.5q3 5 8 7t7 6q6 9 7.5 17.5t9.5 16.5q13 10 31 9.5t35 1.5q8 1 20.5 5.5t21.5 -5.5zM27 366h63t68 -1q6 45 7 95t1 102q0 42 -1.5 85.5t-6.5 74.5q-39 -83 -68 -175.5t-63 -180.5z" />
    <glyph glyph-name="five" unicode="5" horiz-adv-x="383" 
d="M36 769q23 -6 47 -6.5t48.5 0.5t50 2t52.5 -1q15 -2 27.5 -5t18.5 -13q4 -7 5.5 -18t0 -21.5t-6 -17.5t-11.5 -7t-10 5t-4 13t-1 16.5v16.5q-13 3 -29 4.5t-33 1.5t-34 -1t-30 -2q-8 -71 -10.5 -144t-5.5 -145q23 -12 42.5 -11t36.5 -1q37 -3 65 -22.5t46.5 -48.5
t27 -66.5t8.5 -76.5q0 -23 -3.5 -49t-9 -50.5t-13.5 -46t-17 -36.5q-9 -16 -22.5 -27t-29.5 -22q-6 -5 -11 -8t-10 -5t-11.5 -3.5t-16.5 -3.5q-8 -2 -14 -4t-12 -3q-7 0 -14.5 1.5t-15.5 0.5q-20 -2 -38 -6t-32 -1q-14 2 -23.5 10.5t-20.5 11.5q-18 13 -22.5 36t-7.5 55
q-1 14 -2.5 30.5t0.5 28t9.5 15.5t23.5 -6q3 -12 -2.5 -16t-7.5 -11q2 -26 4 -51.5t9 -45t21.5 -30.5t42.5 -7q9 2 14 6.5t13 6.5q5 2 11.5 -0.5t14.5 -0.5q23 3 37 20.5t23 41.5q14 35 18.5 79t-0.5 96q-4 42 -10.5 81t-23.5 63q-8 10 -24 21.5t-27 13.5t-24 0.5t-27 -0.5
q-10 0 -19.5 1.5t-17.5 -0.5q-11 -2 -21 -7t-22 2q-9 26 -4.5 57t6.5 60q3 39 9 86t9 86q2 18 1 40t4 35q1 1 5 3z" />
    <glyph glyph-name="six" unicode="6" horiz-adv-x="375" 
d="M243 733q-8 -5 -15 -11.5t-14 -13.5q-20 -19 -31 -43t-25 -53q-23 -50 -38 -109.5t-20 -126.5q21 1 38 1.5t34 -4.5q6 -1 14 -5.5t17 -7.5q10 -3 19 -5t16 -6q19 -11 35.5 -33.5t23.5 -43.5q5 -14 8 -33t4 -40t0.5 -42.5t-1.5 -40.5q-2 -17 -7.5 -38t-14.5 -40
t-19.5 -34.5t-20.5 -22.5q-9 -6 -29 -14t-32 -12q-16 -5 -34 -3t-35 10q-10 5 -23.5 16.5t-22.5 20.5q-33 30 -50.5 73t-23.5 98q-6 54 -2 111t9 118q3 42 8 78.5t14 71.5q5 17 11 32.5t13 30.5q8 16 14 32t13 27q16 26 42.5 54t55.5 39q19 7 29.5 4t29.5 -9q11 -3 19.5 -6
t14.5 -7t11.5 -10.5t10.5 -16.5q4 -8 6 -18.5t1 -19.5t-5 -16t-13 -7q-11 0 -14.5 5t-2.5 13t3 17t1 15q-1 12 -7.5 15.5t-14.5 9.5zM123 69q3 -10 9.5 -23t15 -25t19 -20.5t21.5 -9.5q6 -1 13.5 0.5t15 4.5t14.5 6.5t10 7.5q7 7 14.5 20t13.5 28.5t10 32.5t5 33
q3 31 1.5 61.5t-7.5 57.5t-17.5 48.5t-27.5 33.5q-10 7 -28 14.5t-37.5 11t-38.5 2t-32 -11.5q-2 -34 -2 -70.5t3 -72.5t9.5 -69t15.5 -60z" />
    <glyph glyph-name="seven" unicode="7" horiz-adv-x="339" 
d="M294 744q-18 -106 -47 -210.5t-52 -207.5q-14 -59 -30 -121.5t-28 -122.5q-4 -21 -4.5 -36t16.5 -23q9 4 17 1t12 -8.5t1.5 -11t-14.5 -5.5q-8 -1 -19 2t-19 5q-14 2 -31.5 1.5t-35.5 -0.5q-14 0 -26.5 2t-21.5 1q-6 -1 -13.5 -2.5t-13.5 -1t-9.5 4t-1.5 12.5q6 6 17.5 6
t20.5 3q6 17 22 27q38 170 77.5 337t84.5 329q-9 7 -20.5 4t-23.5 -5q-11 -2 -28.5 -1.5t-35.5 1.5t-34.5 2t-25.5 1q-3 -7 -2.5 -20.5t0 -26.5t-3.5 -23.5t-12 -11.5q-13 -2 -15 9.5t0 27t4.5 32.5t-1.5 27q14 6 29 6.5t30 -1.5q20 -2 46 1t53 5.5t52.5 3t43.5 -5.5
q5 1 8.5 3t7.5 4q8 -2 15 -4t11 -9z" />
    <glyph glyph-name="eight" unicode="8" horiz-adv-x="330" 
d="M183 415q2 -6 5 -11.5t6 -12.5q3 -5 7.5 -10t6.5 -11q2 -4 2 -8.5t2 -9.5q5 -10 11.5 -21t11.5 -23q13 -31 24.5 -64.5t21.5 -68.5q8 -29 12 -58t-4 -60q-2 -9 -9.5 -26.5t-15.5 -25.5q-10 -11 -27 -17.5t-32 -14.5q-15 2 -31 0t-31.5 -3.5t-31.5 -1t-31 6.5
q-14 6 -26 19.5t-18 26.5q-20 46 -17 98q1 18 5 38t10.5 39.5t14 36.5t14.5 30q2 4 4 8.5t4 8.5q6 8 14.5 16.5t9.5 16.5t-8 23t-16 29q-23 45 -43 92.5t-28 107.5q-5 38 4 70.5t24 56.5q9 15 25 31t32 24q17 8 51 5q20 -2 37 -5.5t31 -13.5q10 -7 18.5 -18t12.5 -19
q9 -17 13.5 -50t0.5 -63q-2 -23 -12 -44.5t-18 -43.5q-8 -23 -17.5 -42.5t-18.5 -37.5zM232 656q-3 20 -12.5 33.5t-22.5 26.5q-19 12 -45 14.5t-40 -15.5q-12 -17 -13.5 -37t2.5 -40.5t10.5 -40.5t10.5 -35q3 -13 6.5 -23.5t8.5 -21.5q10 -23 17 -45.5t21 -35.5
q10 22 22 47t21.5 53t14 58t-0.5 62zM184 120q-15 46 -36.5 91t-39.5 84h-3q-12 -15 -25.5 -36.5t-24.5 -47t-17.5 -53.5t-5.5 -56q1 -24 6 -47t16 -40q9 -14 26 -22.5t37.5 -11t41.5 1t39 13.5q7 31 1.5 63.5t-15.5 60.5z" />
    <glyph glyph-name="nine" unicode="9" horiz-adv-x="357" 
d="M213 740q39 -13 59 -50.5t17 -98.5q-1 -18 -3 -36.5t-3 -36.5q-2 -19 -5.5 -36t-5.5 -33q-4 -29 -5 -58.5t-6 -58.5q-8 -57 -17 -112.5t-17 -109.5q-5 -29 -8.5 -57t-5.5 -54q9 -4 20.5 -4t12.5 -11q0 -8 -6.5 -9t-12.5 -6q-38 2 -71 -0.5t-65 -0.5q-6 -2 -13 -2.5
t-12.5 0.5t-9 4.5t-2.5 9.5q2 11 15.5 13.5t25.5 4.5q5 4 3.5 10t-0.5 11q1 4 3.5 7.5t3.5 7.5q2 8 1.5 16t1.5 16q16 76 28.5 163.5t23.5 168.5q-20 -2 -37 -6.5t-37 3.5q-8 3 -17.5 9t-18.5 13.5t-17 16t-12 15.5q-11 18 -16.5 40t-6.5 46t2 47t10 43t11.5 34t18.5 28
q9 9 19.5 18t21.5 16q9 5 19 7.5t18 7.5q4 2 8.5 5t7.5 4q5 2 13.5 2h13.5q8 0 14 -2t11.5 -3.5t12 -2.5t14.5 1zM168 441q1 29 5 63.5t5.5 69.5t-0.5 68t-12 59q-5 11 -10 16t-17 5q-7 -5 -12.5 -4t-11.5 0q-12 -2 -25.5 -9.5t-24.5 -15.5q-25 -20 -38 -54.5t-14.5 -72
t8.5 -73t33 -57.5q8 -8 21.5 -15t25.5 -9t21.5 0.5t17 7t14.5 10.5t14 11z" />
    <glyph glyph-name="colon" unicode=":" horiz-adv-x="238" 
d="M75 222q-8 1 -14 6.5t-10.5 13.5t-6.5 17t-1 16q2 11 9.5 19.5t18 12.5t22.5 3t23 -10q3 -13 1 -27.5t-7 -26t-14 -18.5t-21 -6zM75 -94q-8 1 -14 6.5t-10.5 13t-6.5 16.5t-1 16q1 11 9 19.5t18.5 12.5t22.5 3t23 -9q3 -14 1 -28t-7 -25.5t-14 -18.5t-21 -6z" />
    <glyph glyph-name="semicolon" unicode=";" horiz-adv-x="238" 
d="M25 222q-8 1 -14 6.5t-10.5 13.5t-6.5 17t-1 16q2 11 9.5 19.5t18 12.5t22.5 3t23 -10q3 -13 1 -27.5t-7 -26t-14 -18.5t-21 -6zM25 -94q0 5 1 7q1 14 -2 28t-8 28q0 2 -4 8q-1 1 -1.5 2t-1.5 2l-3 6q-4 10 3 17q9 5 18 2q4 -1 6.5 -3.5l4.5 -4.5q11 -14 13 -25
q2 -8 4 -16.5t4 -16.5q1 -8 1.5 -15.5t0.5 -14.5q1 -5 1 -9v-8v-6q0 -9 -4.5 -12.5t-9.5 -3.5h-1q-4 0 -8.5 1t-7.5 5q-5 6 -6 15v14z" />
    <glyph glyph-name="less" unicode="&#x3c;" horiz-adv-x="294" 
d="M187 208l2 -4t1 -4q-1 -3 -4 -6q-4 -2 -9 -2h-1q-3 0 -7 4q-5 5 -8 7l-21 21q-5 7 -11 13t-12 13q-5 5 -9.5 10.5t-9.5 10.5q-8 9 -15 15l-4 4l-4 4q-6 6 -8 9l-16 16q-21 20 -40 37q-13 13 -2 27q8 10 17.5 18.5t18.5 16.5l7.5 7.5t8.5 7.5l3 3q1 1 1 1.5t1 1.5l17 17
q11 11 21 21.5t21 21.5q8 8 15 14.5t15 14.5l6 5q6 6 11 6q6 0 9 -3q6 -4 5.5 -8t-2.5 -6q-2 -4 -8 -10q-5 -5 -8 -7q-2 -1 -6 -5q-3 -2 -6 -5l-5 -5q-3 -4 -6.5 -8t-7.5 -8q-6 -7 -11.5 -13t-11.5 -13q-4 -4 -7.5 -7t-7.5 -7l-9 -9l-36 -36q-3 -4 -6.5 -7.5t-6.5 -7.5
l-3 -3l2 -2q2 -2 4.5 -5t5.5 -5l18 -21q9 -10 17.5 -20t18.5 -20l11 -11q15 -15 28.5 -31t29.5 -31q4 -4 10 -12q1 -2 4 -5z" />
    <glyph glyph-name="equal" unicode="=" horiz-adv-x="322" 
d="M234 328q2 0 5.5 -1t4.5 -5q2 -5 -2 -11q-3 -5 -7.5 -6t-8.5 -1h-1q-14 -2 -27 0q-10 2 -15 2h-14t-15 -1h-8q-7 0 -10 -1h-6.5t-7.5 -1h-40h-34h-9t-9 -1h-17q-8 0 -11 4t-1 12q2 5 5.5 6t5.5 2q4 0 8 0.5t8 0.5l7 1q2 0 3 -1h1q5 1 13 1q2 0 3 0.5t3 -0.5q5 -1 16 -1
t16 1h15q14 0 27 1l26 2h14q2 0 3 -0.5t3 -0.5h8q12 0 24 -0.5t24 -1.5zM13 397q-8 0 -11 5q-3 4 -1 12q2 5 5.5 6t5.5 1q4 1 8 1t8 1h7h3h1q9 0 13 1h6q5 -1 16 -1h16q4 0 7.5 0.5t7.5 0.5q14 0 27 0.5t26 1.5q4 1 7.5 0.5t6.5 -0.5h6h7q13 0 25 -0.5t24 -1.5q3 0 5 -1
q3 -2 5 -5q1 -6 -2 -11t-7.5 -6t-8.5 -2h-1q-7 -1 -14 -0.5t-13 1.5q-5 1 -15 1q-7 1 -14 0.5t-15 -0.5q-2 0 -4 -0.5t-4 -0.5h-10q-4 -1 -14 -1h-40q-9 0 -17.5 -0.5t-16.5 -0.5h-18q-4 0 -8 -0.5t-9 -0.5z" />
    <glyph glyph-name="greater" unicode="&#x3e;" horiz-adv-x="277" 
d="M12 208q3 3 4 5q6 8 10 12q16 15 29.5 31t28.5 31l11 11q10 10 18.5 20t17.5 20l18 21q3 2 5.5 5t4.5 5l2 2l-3 3q-3 4 -6.5 7.5t-6.5 7.5l-36 36l-9 9q-4 4 -7.5 7t-7.5 7q-6 7 -11.5 13t-11.5 13q-4 4 -7.5 8t-6.5 8l-5 5t-6 5q-4 4 -6 5q-3 2 -8 7q-6 6 -8 10
q-2 2 -2.5 6t5.5 8q3 3 8 3q6 0 12 -6l6 -5q8 -8 15 -14.5t15 -14.5q11 -11 21 -21.5t21 -21.5l17 -17q0 -1 2 -3l3 -3q5 -4 8.5 -7.5l7.5 -7.5q9 -8 18.5 -16.5t17.5 -18.5q11 -14 -2 -27q-20 -17 -40 -37l-16 -16q-2 -3 -8 -9l-4 -4l-4 -4q-8 -6 -15 -15q-5 -5 -9.5 -10.5
t-9.5 -10.5q-6 -7 -12 -13t-12 -13l-10.5 -10.5l-10.5 -10.5l-7 -7q-4 -4 -7 -4h-1q-5 0 -9 2q-3 3 -4 6q0 2 1 4z" />
    <glyph glyph-name="question" unicode="?" horiz-adv-x="291" 
d="M11 577q-4 6 -4 10q-2 9 -4 19t0 21q1 9 2 17.5t6 15.5q2 4 3.5 7.5t3.5 7.5q14 24 37 36q5 2 11 4.5t11 4.5q5 1 9 2t9 2q15 2 29 -3.5t27 -13.5q10 -7 19.5 -15t17.5 -18q6 -8 11 -16t8 -18q2 -9 4.5 -18.5t4.5 -19.5q1 -4 1 -8t1 -8q0 -4 0.5 -7t0.5 -6
q0 -5 -0.5 -8.5t-0.5 -7.5v-8q-1 -4 -1 -7.5t-1 -6.5q-2 -5 -3 -8.5t-3 -7.5q-2 -7 -5 -13t-5 -13q-4 -11 -10 -21t-13 -19q-5 -5 -9 -10.5t-9 -10.5q-5 -4 -9.5 -7.5t-10.5 -5.5q-1 0 -2 -1q-6 -5 -17 -5q-1 -3 -1 -6q0 -6 0.5 -11.5t0.5 -11.5v-48q1 -8 0.5 -14.5
t-0.5 -12.5q0 -15 0.5 -30.5t0.5 -30.5v-21v-51q0 -2 0.5 -3t0.5 -3q4 -8 -5 -8q-2 -1 -4.5 -0.5t-5.5 0.5q-1 0 -1.5 0.5t-2.5 0.5q-8 -2 -17 -1t-18 -2q-9 -2 -16 2q-4 2 -3 6q2 2 0 5q-2 5 -1.5 9.5t0.5 9.5v5q-3 10 -2 19t1 19q1 5 0.5 11t-0.5 12v6q-1 14 -1 28t-1 28
q0 8 -0.5 14.5t-0.5 14.5q-1 17 -1.5 34t-1.5 34v10.5t-2 10.5q-1 7 0.5 9t8.5 2q17 1 30 7.5t24 17.5q16 14 25.5 31t14.5 37t5 38q0 5 -0.5 9.5t-1.5 9.5q-2 12 -5 24.5t-8 23.5q-3 5 -7 8.5t-7 7.5q-4 2 -5 4q-10 13 -26 18q-13 5 -24 6q-20 2 -30 -16q-6 -8 -10 -16.5
t-6 -19.5q-3 -15 -2 -28q0 -5 3 -9q3 -5 5 -10.5t1 -11.5q0 -7 -5 -8q-6 -1 -8 5zM116 71q0 -3 -0.5 -5.5t-0.5 -5.5v-10q0 -5 1 -7q3 -6 -1 -10q-3 -3 -5 -3q-2 -2 -3 -4t-3 -4q-7 -16 -25 -16q-5 0 -8.5 1t-8.5 3q-6 2 -9 7l-6 10q-3 7 -3 14t2 15q2 17 11 33q4 8 10.5 15
t15.5 9q9 4 18 -5q8 -7 11 -16.5t4 -20.5z" />
    <glyph glyph-name="at" unicode="@" horiz-adv-x="480" 
d="M9 258q-1 9 -1 18v18q1 5 0 11t-1 11q0 9 1 18.5t1 20.5q1 11 1 21.5v20.5q0 18 1.5 36t6.5 35q4 14 7 27t8 27q11 34 25.5 65t36.5 59q10 12 19.5 23t20.5 22q15 14 31 26t33 21q10 7 25 13q5 2 9 2.5t8 2.5q18 7 37 7q9 0 18 1t18 1q7 0 10 -1q17 -5 31.5 -13t25.5 -21
q10 -10 15 -30q7 -39 9 -78q1 -14 2 -27t1 -27q0 -13 -1.5 -26t-1.5 -25q-1 -12 -1 -24t-1 -24l-2 -30t-2 -31q-1 -9 -1.5 -18t-2.5 -19l-4 -22l-4 -22t-5 -22t-7 -22q-4 -10 -6 -19t-5 -17q-4 -11 -6.5 -22t-10.5 -21q-6 -9 -15 -14.5t-20 -3.5q-22 4 -30 30q0 2 -1 5t-2 7
q-2 -3 -3 -5t-3 -4q-8 -11 -19 -19t-22 -15q-10 -5 -20.5 -6.5t-21.5 -0.5q-20 2 -34 14q-17 15 -22 34q-7 17 -8.5 35t0.5 37q1 8 0.5 15.5t0.5 15.5q0 4 1 7.5t2 6.5q2 10 4 19.5t4 18.5q2 5 4.5 11t4.5 12q4 9 7.5 18.5t8.5 18.5q12 23 31 39l3.5 3.5l3.5 3.5
q11 11 23 21t28 16q8 2 15 3.5t14 3.5q8 1 15 1.5t15 0.5q14 0 22 -8t10 -20q3 -26 -2 -46q-5 -15 -7 -31t-5 -33q-2 -15 -4.5 -30.5t-4.5 -31.5q-3 -16 -5 -31.5t-5 -31.5q-2 -9 -3 -18t0 -18q0 -16 11 -24q4 -4 8 0q6 6 8 9q5 9 8 18.5t5 18.5q5 18 9.5 36.5t8.5 35.5
q4 14 5.5 29t2.5 29t3 27t4 27q1 11 1.5 20.5t2.5 19.5q1 5 1.5 8.5t1.5 7.5q2 10 2 15q0 6 -0.5 11.5t-0.5 11.5v33.5t-1 33.5v18t-1 17v4q-2 12 -4.5 24t-4.5 25q-2 4 -3 7q-3 4 -5.5 7.5t-4.5 8.5q-4 11 -13 17t-19 9q-11 4 -20.5 2t-18.5 -7q-11 -6 -20 -14.5t-17 -16.5
q-59 -56 -92 -128q-8 -18 -16 -36.5t-14 -37.5q-8 -24 -15 -52q-2 -11 -3 -22t-3 -22q-4 -20 -4 -40.5t1 -40.5q0 -20 0.5 -39.5t0.5 -38.5q0 -10 1.5 -19t3.5 -19q6 -24 11.5 -48.5t12.5 -49.5q6 -18 15 -36q5 -10 10.5 -19.5t11.5 -18.5q13 -20 35 -34q1 -1 1.5 -1t1.5 -1
q8 -7 15.5 -5.5t15.5 4.5q2 0 2.5 1t2.5 1q11 1 23 10q11 7 16 16q5 8 9 15t8 15t6 11q4 7 6.5 13.5t3.5 14.5q2 6 4 11.5t4 12.5q1 2 1 5t1 5q2 1 5 1q11 0 8 -11q-1 -9 -2.5 -18.5t-2.5 -19.5q-1 -5 -1.5 -10t-5.5 -9q-2 -1 -2 -2.5t-1 -3.5q-2 -5 -5 -10l-6 -10
q-4 -8 -6 -11q-4 -9 -10 -15.5t-13 -12.5q-5 -5 -10.5 -8t-10.5 -8q-10 -7 -20.5 -11.5t-21.5 -8.5q-5 0 -6 -3q-9 -7 -21 -5q-11 2 -21 3t-21 4q-16 3 -31 13q-16 10 -29 22.5t-25 27.5q-11 14 -16 29.5t-12 31.5q-4 8 -6.5 15t-5.5 14q-6 15 -9.5 29.5t-5.5 30.5
q-2 14 -4 28.5t-4 28.5q0 4 -0.5 7.5t-0.5 7.5v5.5t-1 7.5zM300 424q2 14 5.5 27t5.5 27q2 6 2.5 12.5t1.5 12.5q1 5 -1 13q-2 9 -9 5q-10 -5 -15 -10q-14 -14 -22 -29q-10 -17 -17.5 -33.5t-14.5 -34.5q-3 -9 -7 -18.5t-8 -17.5q-4 -14 -6.5 -27t-4.5 -27q-2 -12 -3.5 -25
t-3.5 -27q0 -14 3.5 -27t8.5 -27q2 -10 11 -4q6 4 8 4q9 1 14 10q4 6 7 8q9 9 13.5 21t9.5 24q1 2 1 7v11t1 12l4 22l4 22z" />
    <glyph glyph-name="A" unicode="A" 
d="M330 -37q4 0 11 0.5t12.5 -0.5t8.5 -4.5t0 -11.5q-3 -7 -15 -10t-27 -4t-31 -1.5t-26 -1.5q-14 -2 -27.5 -8t-22.5 -1q-11 7 -8 20.5t14 14.5q-8 57 -17 110t-17 108q-16 2 -33 1t-34 -2.5t-34.5 -2.5t-34.5 1q-10 -39 -16 -82.5t-13 -87.5q7 -3 14 -3t8 -8t-4 -11.5
t-13 -4t-18 0t-18 -0.5q-8 0 -15.5 -0.5t-8.5 7.5q-1 7 2.5 10.5t8.5 5t11 2t11 1.5q9 29 13.5 60.5t10.5 63.5q5 31 10.5 63.5t8.5 64.5q3 33 9.5 65.5t11.5 64.5q4 24 8.5 47t9.5 49q2 17 5 36.5t6 40.5q3 22 6.5 39.5t8.5 43.5q2 11 4 23.5t0 18.5q-1 3 -5.5 6t-9 5.5
t-8 5.5t-2.5 8q1 6 13.5 8t28 2t30 -0.5t20.5 0.5q5 1 13.5 1.5t9.5 -8.5q2 -8 -4.5 -11t-8.5 -8q-1 -6 3 -23t6 -28q6 -36 15.5 -69t15.5 -69q5 -25 7.5 -50t6.5 -50q3 -25 8.5 -48t10.5 -46q5 -26 9.5 -52t10.5 -52t11 -51.5t10 -50.5q6 -36 11.5 -70.5t17.5 -66.5z
M103 516q-12 -78 -28 -161.5t-23 -161.5q14 -4 29.5 -4t32 2t33.5 4.5t32 4.5q-18 103 -29 209.5t-31 205.5q-7 -20 -9.5 -47t-6.5 -52z" />
    <glyph glyph-name="B" unicode="B" horiz-adv-x="402" 
d="M66 781l2 -8t0 -9q12 -9 31.5 -12.5t40.5 -3.5q10 0 19.5 2t19.5 2q26 0 46 -10t42 -15q12 -12 26 -16q2 -5 4.5 -10t7.5 -7q1 -11 5 -20.5t8.5 -19t8.5 -20t5 -22.5q2 -35 -11 -66t-30 -52q-22 -11 -42 -23t-42 -23q29 -13 57.5 -35t46.5 -47q2 -3 2.5 -7t4.5 -5
q10 -26 16.5 -58.5t8.5 -72.5q1 -17 0 -37t-3 -38q-2 -20 -3.5 -39t-7.5 -30q-8 -15 -17.5 -25.5t-11.5 -27.5q-5 -5 -9 -11t-8 -13q-35 -20 -80 -30t-90 -19q-6 -4 -7.5 -8.5t-7.5 -5.5q-4 0 -8 2.5t-8.5 5t-9.5 3.5t-11 -2q-6 -8 -6.5 -22t-8.5 -20q-12 -2 -15.5 3.5
t-4 13.5t-1 15.5t-6.5 9.5q-5 2 -9.5 -2t-9.5 -4t-7.5 3t-6.5 5t-9 1.5t-5 5.5q0 7 5 6t9 -3q6 5 15 7.5t15 7.5q2 33 3.5 67t3.5 72q3 68 1.5 132t1.5 130q4 85 -0.5 169.5t-7.5 168.5q-14 -5 -28.5 -1.5t-12.5 17.5q14 1 24.5 4.5t19.5 8.5q0 7 1 13t0 14q8 8 19.5 14
t24.5 -3zM109 719q-6 -29 -7 -61.5t-0.5 -66t2.5 -68t2 -65.5q22 -2 37 3.5t30 11.5q23 10 35 22.5t19 37.5q5 19 6.5 43t0.5 48t-3.5 47.5t-5.5 43.5q-11 6 -25.5 7.5t-30.5 1t-31.5 -2t-28.5 -2.5zM248 59q1 9 4 18.5t3 19.5q0 16 1.5 28t2.5 26q2 35 -1 73t-5 72
q-2 28 -9 55.5t-19 44.5q-10 13 -22 19.5t-26.5 9.5t-30.5 4t-34 5q-2 0 -4 -2q-2 -108 -4.5 -224.5t5.5 -228.5q14 9 32.5 11.5t37 5.5t36 8t29.5 19q3 8 3 17t1 19z" />
    <glyph glyph-name="C" unicode="C" horiz-adv-x="363" 
d="M263 766q3 6 1 16.5t3 15.5q14 -2 18 -12.5t4.5 -24.5t-0.5 -28.5t3 -24.5q-4 -5 -4.5 -12t-0.5 -14v-14t-3 -13q-12 0 -15 9.5t-3 22.5t0.5 27t-2.5 23q-2 5 -8 10t-14 7q-26 8 -38.5 2.5t-29.5 -21.5q-7 -6 -16 -15t-12 -17q-3 -9 -4.5 -22t-5.5 -27q-5 -19 -6.5 -35
t-3.5 -39q-1 -16 -5.5 -32t-6.5 -33q-2 -14 -1.5 -28.5t-0.5 -29.5q-2 -26 -6 -50.5t-2 -50.5q1 -35 0 -70.5t-1 -70t2.5 -68.5t11.5 -66q3 -10 5 -22t6 -16q3 -4 8 -5t10 -4q6 -3 9.5 -6.5t8.5 -3.5q11 4 19 6t16 7q14 9 22 22.5t13 29.5t8.5 34t8.5 36q13 4 16.5 -5.5
t3 -24t-4 -29t-5.5 -21.5q-2 -8 -6.5 -18t-10.5 -19.5t-13.5 -17.5t-14.5 -12q-10 -5 -26 -8.5t-33 -4.5q-6 -1 -11 -2t-8 0q-6 0 -11.5 4t-12.5 6q-6 1 -12.5 -0.5t-11.5 0.5q-9 2 -14.5 7.5l-11.5 11.5t-12.5 11.5t-16.5 8.5q-9 35 -16 76t-11 85t-5 89t3 89q1 12 3 25.5
t0 30.5q2 5 -1.5 5t-3.5 3q-1 33 6 62.5t10 61.5q1 7 0 14.5t0 15.5q2 14 6 29t9 29q10 33 22.5 59t35.5 44q9 3 18 8t17.5 10t17.5 9.5t19 6.5q17 2 30 -1t24 -8.5t21.5 -12t22.5 -10.5z" />
    <glyph glyph-name="D" unicode="D" horiz-adv-x="387" 
d="M266 587q12 -27 19.5 -60.5t12 -71t6.5 -78.5t2 -81q0 -33 -2 -66t-7 -63.5t-13.5 -57t-21.5 -45.5q-4 -6 -7 -12.5t-6 -10.5q-7 -10 -16.5 -14.5t-14.5 -15.5q-14 -8 -26.5 -16.5t-25.5 -16.5q-10 0 -16.5 -3.5t-12.5 -8.5q-17 -1 -34.5 -7.5t-36.5 -4.5q-5 1 -8.5 3.5
t-8.5 2.5q-8 1 -16.5 0t-17 -1t-15.5 2t-13 8q4 13 15.5 10t20.5 -4q7 8 6 18.5t-2 23.5q-2 60 -2 124.5v130.5q1 118 2 235t-5 229q-5 6 -12.5 5t-14 -2t-11.5 -0.5t-6 9.5q4 5 10 6t12 0.5t12 -1.5t11 1q2 1 10.5 2.5t15.5 0.5q9 -1 18 -5.5t17 -3.5q4 1 7.5 4t7.5 2
q5 -1 9 -8t8 -10q5 -4 12 -5.5t13 -4.5q17 -11 30.5 -27t27.5 -27q5 -1 7 2t7 1q4 -13 15 -22.5t17 -20.5q5 -8 10.5 -20.5t10.5 -24.5zM223 216q1 30 -1 65t-3 72q-2 61 -5.5 111.5t-7.5 103.5q-3 38 -7 59t-19 38q-5 5 -12.5 10.5t-14.5 13.5q-7 5 -16.5 11.5t-14.5 10.5
q0 -2 -1 -2.5t-1 -2.5q6 -55 8 -114.5t1.5 -121t-2 -125t-2.5 -125.5q-1 -33 1 -65t2 -64v-50t8 -45q31 3 50.5 33.5t24.5 70.5q3 23 7 55t5 61z" />
    <glyph glyph-name="E" unicode="E" horiz-adv-x="347" 
d="M267 31q6 -2 9 -10.5t4 -19.5t0 -23t-3 -20q-20 -2 -43 -4t-48 -4q-24 -1 -49.5 1.5t-45.5 -2.5q-5 -1 -8 -3.5t-7 -2.5q-12 -2 -23.5 2t-26.5 -1q-4 -1 -10.5 -4t-13.5 -4.5t-13 0t-7 10.5q-2 10 6.5 17t12.5 9q7 5 14.5 6.5t15.5 3.5q2 110 -3 222t-5 226q0 39 0.5 78
t-1.5 77t2 75.5t-3 73.5q-4 2 -11.5 2t-15 1.5t-13 5t-4.5 12.5q1 5 10 11t15 8q12 3 26 2t28.5 -1.5t29 -0.5t28.5 4q4 1 7.5 4t6.5 4q22 5 46.5 2t46.5 1q12 2 21 6.5t17 -3.5q0 -16 1.5 -34.5t-5.5 -29.5q-7 -2 -11.5 2t-7.5 10.5t-5 14t-5 13.5q-26 2 -51.5 -2t-48.5 -9
q-10 -107 -5 -217.5t10 -213.5q12 -2 22.5 -2t20.5 2q14 3 26.5 11t27.5 4q6 -10 5 -28t-9 -22q-8 -3 -12.5 3t-12.5 8t-17 1t-18.5 -2t-17.5 -2t-14 1q-1 -49 0.5 -100.5t5.5 -101.5q2 -32 -0.5 -64.5t6.5 -60.5q25 -2 48 0t45 3q5 5 7 15.5t4 20t6 16t13 3.5z" />
    <glyph glyph-name="F" unicode="F" horiz-adv-x="391" 
d="M301 732q-32 10 -69.5 7t-72.5 -6q-8 -92 -8 -191t1 -193q12 -1 27 0t31 1.5t31.5 1t29.5 -1.5q5 -7 4 -15.5t-8 -10.5q-6 -2 -11 1t-10 5q-10 3 -23 3.5t-26 -0.5t-24.5 -2.5t-19.5 -3.5q3 -76 0 -154t2 -158q2 -3 8.5 -4l13 -2t12.5 -2.5t6 -7.5q0 -7 -12.5 -9t-29 -2
t-33 1.5t-22.5 1.5q-5 0 -14.5 -1.5t-15.5 -1.5q-6 1 -9 2t-8 1q-4 0 -11.5 -1.5t-15.5 -2.5t-15 0t-10 7q-1 6 -0.5 11.5t4.5 7.5q4 3 7 2.5t6 -2l6 -3t8 -0.5q9 14 9 36v43q2 74 5.5 152t-1.5 156q-6 84 -1.5 164.5t-0.5 162.5q-2 2 -7 2t-10.5 0.5t-9.5 2.5t-4 8
q0 10 13.5 11t24.5 3q20 4 41 8.5t41 5.5q8 1 16 -1t16 -2q23 0 50 1.5t48 5.5q8 -2 14 -2t13 -2q8 2 12 5t9 3q14 1 23 -14t5 -31q-2 -9 -7.5 -13.5t-11.5 -4.5t-11 5.5t-5 16.5z" />
    <glyph glyph-name="G" unicode="G" horiz-adv-x="436" 
d="M285 701q-2 31 -13 47.5t-31 21.5q-8 -6 -18 -3.5t-19 0.5q-8 -1 -15 -6.5t-15 -1.5q-23 -22 -32 -64t-15 -91q-2 -19 -4.5 -38t-3.5 -36q-2 -48 -1 -97.5t1 -97.5q0 -8 -2 -15.5t-2 -15.5q-3 -59 0 -126t4 -124q0 -11 -1 -20.5t0 -18.5q1 -10 4 -22t8 -22.5t11 -18
t14 -7.5q7 -1 22 1t21 5q8 5 13 15.5t13 16.5q11 32 9.5 72t2.5 83q2 20 3 41l2 42q1 38 1 70t-11 54q-9 -5 -17.5 -1t-12.5 14q1 8 5 10t8.5 1t9.5 -2.5t9 -1.5q3 0 6 2t7 3q12 2 24.5 1.5t24.5 -0.5t22.5 1.5t18.5 7.5q3 -3 7.5 -3.5t8.5 -1.5t7.5 -3.5t4.5 -9.5
q-3 -6 -7.5 -8t-10 -3t-10.5 -2.5t-9 -6.5q7 -29 5.5 -69t-5.5 -72q-2 -14 -4 -28.5t-3 -28.5q-1 -17 -0.5 -31t-2.5 -30q-6 -31 -16 -56.5t-23 -46.5q-8 -14 -13.5 -22.5t-16.5 -15.5q-10 0 -18.5 -3.5t-16.5 -7t-16 -6.5t-17 -3q-8 1 -16 0.5t-16 -0.5q-18 -2 -29 5
q-4 2 -8 7.5t-10 8.5q-4 2 -8 2t-8 2q-12 5 -19.5 15.5t-18.5 17.5q-7 18 -14 37t-12 41q-5 23 -7.5 46.5t-6.5 47.5q-3 20 -3 52.5t1 59.5q2 58 6.5 118t10.5 111q3 26 4.5 50t6.5 45q8 31 18.5 60.5t19.5 53.5q17 20 33 42t35 40q7 0 14 2.5l14 5t13.5 3t13.5 -5.5
q9 6 18 5t18 -4t18 -6.5t18 -4.5q4 -8 11 -12t12 -15q2 -6 3 -15.5t4 -19.5q2 -8 5 -14t3 -12q0 -11 -4.5 -24.5t-12.5 -12.5q-5 1 -7 6.5t-1.5 13t2.5 15t4 12.5z" />
    <glyph glyph-name="H" unicode="H" horiz-adv-x="521" 
d="M156 764q-1 -19 -18.5 -21t-37.5 -3q-6 -17 -2 -33t5 -32q2 -33 2.5 -66.5t2.5 -67.5q1 -12 3 -24l4 -24q4 -33 4 -66t4 -65q18 -5 38.5 -5t42.5 1t43 1t39 -5q0 25 6 52.5t1 53.5q-1 5 -4 8.5t-3 8.5q-2 9 1 20.5t5 23.5q5 45 4.5 92.5t2.5 94.5q-4 2 -9.5 5t-10 6.5
t-6.5 7.5t1 10q5 6 14 4.5t16 -0.5q5 1 10.5 2.5t10.5 1.5q13 2 26 1t27 -2.5l28 -3t28 0.5q4 -2 8.5 -4t9.5 -3q0 -10 6.5 -13.5t8.5 -11.5q-2 -3 -5.5 -2.5t-8 1t-8 0t-4.5 -4.5q-3 8 -15.5 10t-23.5 -1q-6 -8 -7 -19t1 -22q1 -5 3 -8.5t3 -7.5q1 -6 -0.5 -11.5
t-2.5 -13.5q-1 -9 0 -19t0 -19q-1 -13 -5 -25t-4 -26q0 -19 -2 -40.5t-4 -43.5q-2 -19 -1 -38t-1 -39q-1 -17 -3 -33t-3 -33q-2 -32 -2.5 -63.5t-4.5 -63.5q-5 -38 -6 -75.5t-6 -69.5q-3 -22 0 -44q4 -4 14.5 -6t21.5 -4.5t18.5 -7.5t4.5 -15q-4 -11 -16 -7t-22 5
q-21 2 -51.5 5t-51.5 -1q-8 0 -15 -3.5t-14 -1.5q-10 2 -12 11.5t-10 10.5q8 6 20 8.5t25 4.5q7 81 13 161t5 168q-17 5 -36.5 5.5t-40.5 -1t-42 -2.5t-42 1q1 -29 2.5 -61t3.5 -64q2 -34 2 -66t2 -61q2 -14 5.5 -24.5t12.5 -17.5q0 -3 -2.5 -4t-5.5 -1t-5.5 -1t-1.5 -5
q5 -4 14.5 -4.5t19 -2t15.5 -5t3 -12.5q-2 -5 -14.5 -7t-22.5 -4q-20 -2 -45 -0.5t-45 -0.5q-5 0 -11 -2l-12 -4t-11 -3.5t-8 -0.5q-7 1 -11 8.5t-3 11.5q2 8 11 9.5t15 3.5q8 3 12.5 5t12.5 4q-8 82 -10.5 171.5t-5 180t-6 180t-12.5 173.5q-9 1 -22.5 -0.5t-26.5 -1
t-21.5 5t-8.5 16.5q4 6 11.5 7.5t15.5 3.5q7 2 14 4.5t13 3.5q8 2 16.5 0t17.5 -1q15 1 31.5 5t32.5 6t31 0.5t27 -10.5z" />
    <glyph glyph-name="I" unicode="I" horiz-adv-x="355" 
d="M27 769q7 2 7.5 -1.5t2.5 -6.5q56 -10 115.5 -20t119.5 -15q4 -5 9.5 -9t4.5 -15q-12 -3 -25 -2.5t-27 2t-28.5 3t-27.5 0.5q-5 -65 -6.5 -132.5t-2.5 -135t-2.5 -135t-7.5 -133.5q-1 -7 -2.5 -13.5t-2.5 -13.5q-2 -29 0 -56.5t0 -54.5q11 0 28.5 1t35 0t30.5 -6.5
t14 -18.5q-14 -2 -34 -4.5t-34 -1.5q-25 1 -47.5 -2t-43.5 -8t-41.5 -11.5t-42.5 -10.5q-8 5 -9 13t2 19q0 3 11 7t23 7t20.5 4.5t5.5 -1.5q-1 -1 -0.5 4.5t1.5 13.5t2.5 17l2.5 15q5 26 2 53t-2 53q2 45 2.5 88.5t2.5 88.5q2 94 4.5 185.5t6.5 184.5q-11 0 -21 4.5t-19 3.5
q-6 -1 -10.5 -6.5t-12.5 -7.5t-14.5 -1.5t-14.5 -2.5q-6 7 -5.5 13t2.5 15q1 5 0.5 8t0.5 5q5 8 14 9t13 8z" />
    <glyph glyph-name="J" unicode="J" horiz-adv-x="400" 
d="M348 753q-2 -20 -2 -39v-39q-8 -7 -15.5 -4t-12.5 11q-2 8 0.5 15.5t4.5 15.5q0 10 -6 14t-15 5t-20 0t-21 -1q-5 -87 -9 -181t-7 -191q-1 -15 -1.5 -30.5t-1.5 -30.5q-2 -16 -1.5 -31t-0.5 -29q-1 -5 -2.5 -10t-2.5 -10q-4 -30 -3 -61t-1 -63q-2 -28 -7 -56.5t-10 -51.5
q-2 -8 -5.5 -21t-8.5 -26t-11 -23.5t-12 -13.5q-3 -2 -7 -2t-8 -2q-3 -1 -5.5 -3.5t-5.5 -4.5q-5 -2 -9.5 -2.5t-9.5 -2.5q-14 -5 -31 -6t-32 4q-6 2 -13.5 6.5t-18.5 1.5q-16 9 -27 31.5t-16.5 51.5t-5.5 60.5t5 57.5q4 19 9 29t26 2q8 -15 0.5 -29.5t-18.5 -19.5
q-2 -21 -1.5 -45.5t4 -47t10.5 -41.5t19 -30q17 -7 29.5 -1t24.5 14q20 27 23.5 68t6.5 83q5 54 3.5 112.5t2.5 118.5q2 36 3 69.5t2 75.5q0 34 4 67t5 65q2 38 0 74.5t0 72.5q-10 5 -22.5 5.5t-28.5 0.5h-20.5t-18.5 -3q-9 -4 -12.5 -13.5t-6 -20t-5 -19t-9.5 -9.5
q-8 -2 -11.5 1.5t-4.5 9t-1 12.5v12q-1 14 -3.5 23.5t4.5 20.5q23 10 54.5 8.5t63.5 -2.5q11 -1 21 0.5t19 0.5t15.5 -2.5t16.5 0.5q8 2 13.5 3t10.5 6q13 -8 30 -7.5t35 3t34 3t28 -8.5z" />
    <glyph glyph-name="K" unicode="K" horiz-adv-x="477" 
d="M181 775q-7 -9 -22 -8.5t-26 -4.5q-2 -84 1.5 -164.5t1.5 -168.5q10 2 16 11.5t11 17.5q32 55 65.5 107t65.5 114q4 7 11.5 20.5t6.5 18.5q-2 8 -10 9.5t-13 6.5q-2 5 -2 11.5v13.5q9 5 18.5 0.5t20.5 -2.5q7 1 12.5 5.5t10.5 2.5q9 -2 8.5 -13t3.5 -21q-10 -6 -18.5 -17
t-15.5 -24.5t-13.5 -28t-12.5 -26.5q-32 -61 -69.5 -117.5t-70.5 -112.5q23 6 50 6.5t44 -10.5q28 -18 40 -54.5t16 -81.5t2.5 -93.5t0.5 -91.5q-5 -10 -4.5 -25.5t3.5 -32.5t8 -32t10 -24q9 0 15.5 -3t11.5 -8q6 7 14 15t14 18t8.5 20.5t-3.5 22.5q7 6 14.5 6.5t15 -3
t14 -9t11.5 -10.5q-1 -8 -8 -10t-15 -3q-9 -15 -17.5 -32.5t-20 -31t-27.5 -21t-41 -4.5q-7 3 -13.5 7t-16.5 1q-7 12 -20 16q-11 12 -17.5 29t-10.5 36t-6.5 39t-6.5 39q-2 27 -1.5 62.5t-1 72t-5.5 69.5t-15 54q-9 17 -27 23t-40 -3q-1 -50 -3.5 -101t-4 -103t-0.5 -103.5
t7 -102.5q5 -3 9.5 -1t10.5 0q5 -2 9 -8t3 -12q-1 -12 -12 -12t-20 -6q-13 4 -30.5 4t-36.5 -1t-38 -1t-36 3l-5 12.5t-2 12.5q4 3 11 3t13.5 -0.5t13 -0.5t9.5 4q7 80 3 162t-4 166q0 42 2.5 84.5t2.5 84.5q-1 78 -1 156t-9 156q-14 2 -24.5 0.5t-18.5 0.5v25
q22 12 59 11.5t72 -0.5q10 0 21 1.5t20.5 1.5t16 -4t7.5 -15z" />
    <glyph glyph-name="L" unicode="L" horiz-adv-x="378" 
d="M-23 749q38 -4 75.5 -9t70.5 -16q5 0 11 2t13 0q3 -1 6.5 -4t8.5 -5q11 -5 21 -4.5t12 -7.5t-4 -11t-14.5 -4.5t-16.5 -3.5t-10 -8h-10t-9 -2q-8 -75 -12.5 -151t-10.5 -154q-3 -38 -1 -76t3 -76q0 -8 -1.5 -14.5t-1.5 -14.5q2 -53 7.5 -106.5t4.5 -106.5q27 4 52.5 -0.5
t50.5 2.5q10 2 21 15t15 22q8 16 11.5 34t8.5 35q18 10 24 -2t7.5 -32.5t1 -43t3.5 -34.5q-13 -11 -32 -15t-42 -4.5t-48 -0.5t-49 -1q-21 -2 -47.5 -2.5t-50.5 -0.5q-20 0 -38.5 -3t-35.5 4q-5 15 6.5 20t25.5 6q6 1 8 7t13 3q2 11 4 22.5t0 22.5q0 4 -1.5 7.5t-2.5 7.5
q-2 11 0.5 24.5t3.5 27.5q5 66 4 138t-1 142q0 29 3 55.5t5 50.5q2 26 -0.5 50.5t-1.5 46.5q0 10 2 22.5t3.5 25.5t2 25t-2.5 22q-1 3 -6 7.5t-11.5 10t-13 9.5t-10.5 5q-8 2 -18 1t-16 3q4 10 2.5 21t7.5 16z" />
    <glyph glyph-name="M" unicode="M" horiz-adv-x="584" 
d="M455 14q8 -4 18 -5t18 -6q1 -10 -2.5 -15t-11 -7.5t-16.5 -3.5l-18 -2q-6 -1 -16 -2.5t-19.5 -1.5t-16 3t-5.5 11q1 6 8 8t15.5 3t15.5 3t9 8q2 32 3 69.5t3 69.5q0 6 -1 40t1 77q1 29 2 57t1 39q1 23 3 47.5t2 47.5q1 32 0.5 54t-0.5 27q1 39 -3.5 77t-5.5 78
q-9 -10 -13 -23t-10 -25q-11 -24 -22.5 -48.5t-22.5 -50.5q-5 -13 -8 -26.5t-8 -27.5q-11 -31 -23.5 -61.5t-23.5 -64.5q-9 -27 -18.5 -56.5t-20.5 -58.5q-8 5 -16.5 9t-13.5 12q3 25 -4 58.5t-15 59.5q-7 26 -12.5 50.5t-10.5 47.5q-6 25 -14 48t-14 46q-7 25 -12.5 49
t-14.5 47q-11 -74 -15 -152t-6.5 -158t-4.5 -160.5t-8 -158.5q-2 -23 -5 -44t6 -41l7.5 -7.5t6.5 -7.5q2 -3 8 -3.5t11 -1.5t8 -3.5t0 -9.5q-2 -3 -7.5 -5t-13 -2.5t-14 -1t-9.5 -0.5q-18 -3 -35.5 -7t-34.5 -8q-13 -2 -30.5 -4t-28.5 -8q-3 2 -9 8q7 12 14.5 14t17.5 11
q8 8 10.5 19t3.5 22q2 32 7.5 65.5t7.5 70.5q2 35 2 72.5t2 76.5q4 72 7.5 145t7.5 143q2 38 3 74t3 70q1 5 3.5 11.5t1.5 11.5q-2 19 -20.5 32.5t-41.5 13.5q1 7 -4 12t0 13q4 4 18.5 5t22.5 2q25 2 51.5 0.5t40.5 1.5q9 -5 15.5 -15.5t10.5 -23.5t7.5 -27l6.5 -26
q11 -38 20 -77t20 -77q4 -12 8.5 -31l9 -38t7.5 -33.5t5 -17.5q11 8 15.5 23.5t12.5 27.5q3 26 13.5 47.5t21.5 43.5q5 10 7 20.5t7 20.5q4 9 9 17.5t9 16.5q9 19 16 38.5t16 38.5q8 18 18 35t21 34q9 5 27 5.5t35 2.5q6 0 16 1t19.5 0.5t16 -5t5.5 -14.5q-1 -8 -9.5 -9
t-14.5 -6q-12 -11 -17 -34t-6 -44q-2 -26 -3 -41.5t1 -31.5q0 -3 0.5 -15.5t1 -27t0.5 -26.5v-15q0 -38 -0.5 -59t-1.5 -46q-2 -32 -2.5 -57.5t-1 -49t-1 -47.5t-1.5 -54t-2.5 -53.5t-3 -45.5t-3 -45t-2.5 -52z" />
    <glyph glyph-name="N" unicode="N" horiz-adv-x="450" 
d="M134 756q-1 -32 11 -60.5t21 -57.5q19 -60 35.5 -121t33.5 -124q4 -13 5 -26t4 -27q2 -14 7 -26.5t9 -25.5q12 -39 22.5 -78t25.5 -76q6 15 8.5 36.5t2.5 46.5t-1 50t-2 47q-1 30 -2.5 60.5t-2.5 60.5q-1 14 1 27.5t3 27.5q1 15 -0.5 28.5t-0.5 27.5q2 23 5 45t3 44
q0 8 -1.5 15t-1.5 15q1 18 2.5 36.5t-5.5 36.5q3 7 11 10t18 3.5t19.5 -0.5t16.5 -1q2 -6 -0.5 -9t-6 -5.5t-7.5 -4.5t-5 -6q-8 -39 -18 -83.5t-12 -94.5v-45q-1 -17 -0.5 -33.5t2.5 -31.5q3 -35 0.5 -72.5t0.5 -74.5q1 -12 0.5 -28.5t1.5 -31.5q0 -6 2 -11.5t2 -11.5
q2 -38 -4.5 -74.5t-4.5 -71.5q0 -9 1.5 -20t1.5 -22t-2 -21.5t-8 -18.5q-11 -3 -23 -6t-23 -2t-20 6.5t-14 18.5q-2 5 -2 11t-2 12q-10 35 -23.5 70.5t-27.5 73.5q-15 44 -26 90.5t-24 92.5q-6 23 -13.5 45.5t-12.5 45.5q-5 24 -9.5 47.5t-14.5 44.5q-2 20 -6 38t-11 34
q-9 -45 -12 -98.5t-3 -102.5q-7 -14 -6.5 -36t-1.5 -45q-3 -38 -4.5 -68t-6.5 -68q-4 -34 -6.5 -65t-4.5 -61.5t-3.5 -62.5t-1.5 -68q2 -4 4.5 -5l5 -2t4.5 -3t2 -6q1 -7 -6 -12.5t-15 -6.5q-7 -2 -13 1t-14 5q-5 1 -11 2t-10.5 2.5t-7 4t-0.5 7.5q1 5 5 6.5t9 1l10 -1
t10 1.5q2 7 0.5 15.5t-3.5 14.5q5 9 3 16.5t-2 18.5q1 25 5.5 52t7.5 54q2 17 4 29t3.5 23.5t2.5 24.5t1 31q-1 46 6.5 93t9.5 95q2 85 5.5 169t5.5 172q-11 2 -27.5 0t-26.5 6q-1 5 -1.5 9.5t0.5 10.5q15 4 32 4t33.5 -0.5t32 0t27.5 5.5q13 0 19 -8z" />
    <glyph glyph-name="O" unicode="O" horiz-adv-x="422" 
d="M301 682q6 2 13 6.5t12 15.5q3 8 4 17t3.5 16t7.5 9t16 -4q-2 -13 -2 -25.5t-4 -23.5q-5 -16 -20 -25.5t-24 -20.5q6 -56 4 -114.5t-7 -119.5q-4 -52 -9 -108t-8 -113q-3 -48 -9.5 -101t-18.5 -93q-6 -20 -20 -33t-31 -23q-14 -8 -24 -13.5t-33 -2.5q-32 5 -60 20t-41 38
q-5 8 -7 20t-7 25q-9 25 -19 58t-10 68q0 5 1.5 11t1.5 12q0 15 -3 30t-5 29q-4 45 1.5 90.5t7.5 90.5q1 19 2 36t3 34q5 32 12.5 67t14.5 68q2 9 3 17t4 16q3 6 7.5 11.5t6.5 13.5q5 13 8 26.5t9 26.5q6 11 14.5 19.5t15.5 19.5q10 1 18 4t15.5 6.5t15.5 5.5t19 2
q22 -1 42.5 -10.5t37 -24.5t28 -34t14.5 -40zM128 670q-19 -90 -26.5 -184t-12.5 -205q-2 -54 7 -106.5t17 -102.5q2 -18 4.5 -36t7.5 -31q2 -6 8.5 -12t11.5 -14q6 -8 10.5 -17t8.5 -11q7 -3 15 -1t15.5 6t13.5 9t9 8q5 5 9 13t6 15q8 20 13.5 44.5t7.5 47.5q7 63 9 132
t9 138q8 71 12.5 140.5t-2.5 132.5q-26 -7 -48 4t-33 25q-8 11 -10.5 23t-1.5 24.5t4 26t6 26.5q-23 7 -35.5 0t-19 -22t-9 -35t-6.5 -38zM231 751q-9 -11 -14 -26t-3 -29q1 -9 8 -17.5t17 -14t20.5 -6t18.5 5.5q-3 26 -13.5 51.5t-33.5 35.5z" />
    <glyph glyph-name="P" unicode="P" horiz-adv-x="392" 
d="M107 347q-4 -15 -5 -31.5l-2 -33t-3 -31.5t-7 -28q3 -47 0 -94t-3 -95q0 -15 1 -31t8 -23q8 -8 18 -5.5t25 -2.5q5 -1 7.5 -5.5t6.5 -8.5q6 -5 10.5 -5.5t3.5 -8.5q0 -9 -6.5 -13.5t-16 -6t-20 -1.5h-18.5q-21 -2 -40.5 -7t-39.5 -9.5t-40.5 -6.5t-42.5 3q0 3 2.5 11
t3.5 15q8 6 16 9t14 11q7 8 8 18t8 19q8 45 11.5 91t6 92.5t4.5 92.5t6 93q2 26 6.5 51.5t6.5 50.5q5 57 4 118.5t7 125.5q-6 1 -17 -0.5t-21.5 -2t-17 2.5t-4.5 14q1 5 6.5 7.5t12.5 3.5t13.5 1t10.5 1q8 2 17.5 8.5t20.5 8.5q8 3 16 4t16 3q5 2 10.5 4t10.5 3
q13 2 30.5 2.5t33.5 2.5q20 2 33.5 -1t30.5 -8q31 -9 44.5 -23.5t25.5 -43.5q5 -11 12 -24t10 -27q4 -18 2 -40.5t-5 -41.5q-7 -40 -23.5 -70.5t-44.5 -50.5q-11 -1 -18 -6t-16 -10q-5 -2 -9.5 -3.5t-9.5 -3.5q-5 -3 -9 -8.5t-9 -8.5q-4 -3 -9 -5t-10 -5q-5 -2 -8.5 -6
t-7.5 -6q-14 -8 -28.5 -11t-28.5 -14zM136 725q-10 -80 -16.5 -170t-10.5 -172q17 1 29 11.5t25 19.5q7 5 14.5 7t14.5 7q12 9 19.5 19t11 23.5t5.5 30.5t4 38q2 23 5 46t3 42q1 26 -3.5 47.5t0.5 44.5q-8 9 -20.5 12t-26.5 2.5t-28.5 -3.5t-25.5 -5z" />
    <glyph glyph-name="Q" unicode="Q" horiz-adv-x="426" 
d="M279 -69q-27 -20 -52.5 -33.5t-69.5 -13.5q-17 0 -33 7t-30.5 18t-26 24t-17.5 24t-10 26.5t-9 32.5q-4 15 -9 30t-8 30q-7 33 -9.5 69t-5.5 70q-2 24 1.5 44.5t3.5 40.5q0 11 -2.5 22t-2.5 23q-2 54 4 104.5t18 92.5q5 16 6 31.5t4 31.5q4 17 12 34.5t17 34.5
q16 29 30.5 51t42.5 36q4 2 7 2q20 0 42 -1.5t41.5 -5.5t35.5 -11t25 -18t17.5 -32t15.5 -41q6 -18 11.5 -40.5t8.5 -42.5q6 -40 9.5 -83t4.5 -87t0.5 -88t-2.5 -84q-2 -43 -7.5 -88t-14.5 -79q-2 -5 -5 -10.5t-5 -12.5q-2 -8 -2.5 -17t-2.5 -16q-3 -10 -8.5 -19t-5.5 -18
q0 -23 18 -40.5t35 -22.5q9 -2 19.5 -1t14.5 -8q3 -6 -4 -14.5t-15 -10.5q-5 -1 -14 2t-18 7t-17 8.5t-12 7.5q-10 8 -15.5 17t-10.5 17zM320 358q0 50 -2.5 99.5t-9 95.5t-19 86t-32.5 71q-12 4 -27.5 12.5t-31.5 4.5q-11 -2 -13 -6t-9 -13q-14 -18 -20.5 -37.5
t-13.5 -50.5q-9 -40 -17 -74.5t-16 -71.5q-4 -20 -4 -40.5t-1 -41.5q-2 -43 -2 -88v-89q0 -47 -1.5 -91.5t5.5 -81.5q2 -12 7 -24.5t10 -24.5q5 -14 9.5 -26.5t12.5 -19.5q7 10 15.5 21t19.5 20t24.5 14t30.5 4q11 -1 18.5 -6t20.5 -6q27 74 36.5 167.5t9.5 196.5zM179 -70
q26 -4 45 6.5t32 27.5q-11 7 -24 8t-25 -4t-20 -15t-8 -23z" />
    <glyph glyph-name="R" unicode="R" horiz-adv-x="465" 
d="M206 389q24 -9 41 -29.5t28 -48.5t16.5 -60.5t8.5 -65.5q2 -20 -0.5 -39.5t-2.5 -39.5q1 -39 8.5 -78.5t24.5 -62.5q24 5 36 24t17 46q2 11 2.5 23.5t10.5 11.5q4 0 7 -7t4 -16.5t1 -19t-1 -15.5q-3 -21 -17.5 -41t-31.5 -28q-4 -2 -4 -8t-4 -8q-6 -2 -8.5 2t-8.5 4
q-5 1 -9.5 -2t-9.5 -3q-22 1 -39.5 11.5t-31.5 20.5q-6 13 -14.5 21t-14.5 21q-11 24 -14.5 57.5t-4.5 70.5t-0.5 74t-3.5 69q-2 20 -5.5 41t-11.5 34q-3 6 -10.5 10.5t-16 6.5t-17.5 0.5t-16 -8.5q-1 -92 -5.5 -180t-0.5 -183v-21t-3 -21q11 -2 20.5 -6.5t18.5 2.5
q1 -7 2.5 -13t0.5 -15q-18 -5 -35.5 -5.5t-36.5 -2.5q-7 1 -8 -4t-6 -6q-10 5 -22.5 5.5t-24 2t-19.5 7t-8 21.5q6 5 13.5 3.5t14.5 1.5q8 97 9 195t5 197q2 39 0 79q-4 80 -2.5 160.5t3.5 160.5q-7 0 -12 -3t-9.5 -6.5t-9 -6t-10.5 -1.5q-5 7 -4 13t5 11.5t9 10.5t8 9
q3 2 7 2h8q5 6 14 12t19.5 9.5t22 3.5t21.5 -4q15 4 30.5 4.5t31 -1.5t30.5 -4.5t28 -2.5q17 -9 35 -15t32 -20q28 -27 40.5 -72t11 -93t-17 -91.5t-43.5 -66.5l-36 -16t-35 -18zM186 420q10 4 13 14.5t7 21.5q4 9 9.5 18t7.5 15q3 11 3.5 31.5t1.5 38.5q0 21 1 45.5t0 47
t-3.5 42t-8.5 31.5q-9 18 -27.5 27.5t-38.5 -1.5q1 9 -8.5 7.5t-17.5 0.5q-4 -2 -4 -5q1 -40 0 -84t-2.5 -89.5t-2.5 -90t0 -84.5q20 -4 37 2.5t33 11.5z" />
    <glyph glyph-name="S" unicode="S" horiz-adv-x="326" 
d="M252 758q1 -11 -2 -21.5t-8 -22.5q-1 -3 -3.5 -8.5t-5.5 -10.5t-7 -8.5t-7 -3.5q-6 0 -8.5 7t-4 15.5t-2.5 17t-4 12.5q-2 3 -10.5 9t-19.5 4q-4 -1 -7 -4.5t-8 -6.5q-7 -5 -13.5 -7t-11.5 -5q-8 -7 -13.5 -20.5t-9 -30.5t-5 -36t-0.5 -36t4.5 -37t8.5 -39
q4 -19 7.5 -37.5t8.5 -32.5q7 -19 16.5 -38t17.5 -41q8 -20 15.5 -40t15.5 -40t13.5 -42.5t12.5 -44.5q11 -35 19.5 -71t4.5 -81q-3 -39 -16 -74t-40 -58q-14 -11 -24 -18.5t-27 -17.5q-16 -9 -29.5 -16.5t-36.5 -9.5q-13 -2 -24.5 1.5t-24.5 1.5q-7 0 -11.5 -5.5
t-15.5 -3.5q-5 1 -7 5t-10 9q-3 18 -0.5 31.5t5.5 27.5q2 12 5.5 22t16.5 5q5 -2 7 -11t4 -16q5 -11 12 -19.5t9 -20.5q24 -5 51.5 2t41.5 27q8 11 18 29t12 29q2 14 1.5 36t-2.5 39q-2 16 -7 34t-10 38q-6 26 -10.5 52t-14.5 46q-4 7 -8.5 12.5t-7.5 11.5q-13 22 -22.5 45
t-19.5 49q-3 8 -5.5 16.5t-6.5 16.5q-2 5 -6.5 8.5t-6.5 8.5q-8 15 -12 38t-9 43q-6 30 -10 62t-3 63.5t7 59.5t20 49q7 11 19.5 26.5t22.5 22.5q4 3 14 6.5t21 6.5t22.5 5.5t20.5 3.5q8 2 18.5 2.5t18.5 -2.5q4 -2 7.5 -6t7.5 -8.5t8 -7.5t10 -3q4 0 8.5 3t8 6t7.5 3t9 -6z
" />
    <glyph glyph-name="T" unicode="T" horiz-adv-x="350" 
d="M308 757q2 -14 0 -32t-10 -31q-5 0 -11 2q-5 12 -7.5 26.5t-9.5 24.5q-17 -2 -34 -2t-34 1q-9 -147 -16.5 -301.5t-12.5 -314.5q-1 -22 0 -45t-1 -45q0 -5 -1.5 -8t-2.5 -8q-3 -18 -2 -37.5t-1 -35.5q-5 -5 -12 -4.5t-14 2t-14.5 2.5t-14.5 -3q-4 -2 -7.5 -8t-7 -10
t-7 -3.5t-6.5 11.5q-4 -5 -8.5 -11t-12.5 -1q4 30 4 61.5t2 68.5q1 21 3.5 44.5t3.5 45.5q0 13 -1.5 25t-0.5 23q1 5 3 9t3 9q2 12 2.5 28.5t1.5 32.5q1 23 1.5 46t0.5 41q0 8 -1 16t-1 15t1.5 12.5t6.5 8.5q3 82 6 169.5t1 166.5q-20 -1 -40 -2.5t-39 -5.5
q-2 -5 -2.5 -12.5t-1 -14.5t-2 -12.5t-5.5 -6.5q-5 -2 -7.5 3t-4 11.5t-2 13t-0.5 9.5q-1 5 -2.5 14t0.5 14q4 6 13.5 5t15.5 0q8 1 15 3.5t15 1.5q11 -1 22.5 1.5t22.5 0.5q10 -2 18.5 -2.5t19.5 0.5q14 1 27.5 0.5t27.5 1.5q17 2 35 3t35 2q5 0 9 -0.5t8 -0.5
q12 -2 21.5 -2.5t11.5 -15.5z" />
    <glyph glyph-name="U" unicode="U" horiz-adv-x="435" 
d="M369 740q2 -10 -4.5 -16t-13.5 -11q-4 -3 -7.5 -6t-4.5 -5q0 -5 0.5 -10t0.5 -10q1 -11 1 -20t-3 -17q3 -8 3 -16.5t-2 -17.5q0 -5 -0.5 -10.5t-0.5 -10.5v-23.5t2 -24.5q1 -11 2 -21.5t1 -21.5q0 -5 -0.5 -10t-0.5 -10q-1 -5 -1.5 -9.5t-0.5 -9.5v-61t-1 -70t-3.5 -73.5
t-6.5 -71.5q-2 -20 -5.5 -38t-7.5 -35q-2 -9 -3.5 -18.5t-3.5 -19.5q-1 -5 -1.5 -8.5t-0.5 -8.5q-2 -8 -3 -15.5t-3 -14.5q-3 -7 -8 -14q-2 -3 -3.5 -6t-3.5 -6q-1 -3 -1.5 -5.5t-0.5 -5.5q-2 -8 -4 -13q-3 -5 -10.5 -13t-16.5 -15.5t-18.5 -13.5t-15.5 -7h-8h-9q-3 1 -7 3
l-4 2q-3 1 -6.5 0.5t-6.5 -0.5q-9 -2 -15 0q-5 2 -10.5 4t-10.5 5l-2 1q-2 1 -5 2t-5 2q-6 1 -12 5q-4 2 -6.5 4.5l-4.5 4.5q-5 4 -10 7t-13 2h-2l-2 1q-28 23 -46 76l-2 6q-6 18 -11.5 40t-7.5 42q-2 17 -2 35t-1 37v24t-1 24q-2 46 -2 92.5t1 91.5q0 31 0.5 62t-0.5 62
q0 15 1.5 29t3.5 28q2 13 3 25.5t1 23.5v9t-1 8q-1 10 -1 19.5t3 19.5q-5 5 -18 5q-5 0 -10 0.5t-10 3.5l-2 2v2q-2 12 6 20q7 9 27 9q14 0 28 -3.5t19 -5.5q8 4 19 4q4 0 7.5 -0.5t8.5 -0.5q10 -2 18 -2h1q4 0 7.5 0.5t8.5 0.5q5 1 9 1h8q5 0 11.5 -1t11.5 -6q6 -7 4 -19
v-2l-2 -2q-8 -5 -21 -5q-5 -1 -8.5 -1t-7.5 -2q-6 -38 -4.5 -76.5t1.5 -76.5v-13q0 -14 -0.5 -27t-1.5 -26q-1 -10 -1.5 -20t-0.5 -21q0 -107 3 -208.5t9 -180.5q1 -7 1 -13v-12q1 -17 2.5 -31.5t6.5 -26.5q1 -4 7 -10t14 -11.5t16.5 -9.5t14.5 -5q11 -1 22 5t19 13
q6 5 12 16t12 25t11 28.5t8 26.5q2 9 4.5 20t4.5 22q10 57 16 117t6 110q0 12 -0.5 23t-0.5 22q-1 11 -1.5 22.5t-0.5 22.5q1 8 1 15t1 15t1.5 16.5t0.5 16.5q1 35 0.5 72t-1.5 75q0 4 -1.5 12.5t-3.5 16.5t-3.5 14.5t-2.5 8.5q-2 3 -4 4.5t-7 3.5q-1 0 -5 2l-2 1v1
q-2 4 -5 7t-6 7q-5 5 -9.5 11t-5.5 14v4l3 1q7 3 19 3h9.5t9.5 -1h18h12q2 1 8 3q5 1 8.5 2t7.5 1q12 0 14 -13z" />
    <glyph glyph-name="V" unicode="V" horiz-adv-x="415" 
d="M142 743q-9 -9 -21 -8t-28 -1q29 -143 65 -293.5t67 -300.5q7 8 9 20t4 23t3 22.5t3 22.5q4 23 8.5 46.5t8.5 47.5q4 23 5 46.5t5 46.5q3 20 10.5 38t9.5 37q1 7 0 13.5t0 11.5q2 13 6.5 28t7.5 32q2 15 5.5 31t7.5 28q2 8 7 18.5t4 18.5q-1 7 -7 14t-11.5 15t-7.5 17
t7 20q6 5 16 -0.5t22 -5.5q11 0 20 4t11 -8q1 -5 -1.5 -7.5t-5.5 -4l-7 -3.5t-6 -5q-11 -35 -19.5 -71t-18.5 -75q-5 -21 -8 -46t-8 -49q-4 -17 -6 -34t-5 -34q-2 -11 -6 -21t-5 -21q-1 -14 -2 -24.5t-4 -24.5q-10 -49 -17.5 -102t-12.5 -112q-2 -19 -8 -39t-8 -46
q-1 -11 -2 -23.5t-3 -23t-5.5 -18t-9.5 -10.5q-2 0 -8.5 -1t-14.5 -1.5t-15 -0.5h-8q-12 3 -16 14t-5.5 26t-3 30.5t-6.5 27.5q-3 7 -9.5 12.5t-8.5 11.5q-5 14 -4.5 29.5t-1.5 31.5q-5 30 -15 62.5t-18 64.5q-11 41 -19 78.5t-19 69.5q-2 7 1.5 9t1.5 8q-13 36 -21.5 77
t-16 83t-16 83.5t-20.5 78.5q-3 1 -10.5 1t-14.5 0.5t-11.5 3.5t-2.5 11t14 6.5t20 -1.5q29 2 70 1.5t72 1.5q5 0 11.5 1t12 0.5t9.5 -2.5t4 -7z" />
    <glyph glyph-name="W" unicode="W" horiz-adv-x="518" 
d="M430 800q12 -4 20 -4.5t19 -2.5q2 -11 -2.5 -17t-6.5 -14t-4 -18.5t-4 -20.5q-5 -17 -5.5 -30.5t-2.5 -33.5q-2 -26 -8.5 -55.5t-11.5 -58.5q-8 -57 -15 -117.5t-14 -122.5q-4 -31 -8 -61t-7 -59q-2 -22 -3 -42.5t-2 -43.5q-1 -29 -7.5 -57t-10.5 -56q-2 -14 -1 -29
t-10 -20q-4 3 -9.5 2.5t-11 -1.5t-11 -0.5t-9.5 5.5q-2 3 -3.5 10t-2.5 15.5l-2 17t-2 14.5q-2 15 -4 29.5t-5 27.5q-8 40 -15 84t-13.5 88.5t-12.5 88t-12 83.5q-6 -7 -6.5 -18t-1.5 -20q-3 -31 -8 -60t-10 -60q-5 -32 -6 -65t-6 -65q-2 -16 -7 -31t-3 -32
q-5 -16 -7.5 -36.5t-5 -40.5t-6 -39t-10.5 -32q-13 0 -22 5t-21 6q-6 14 -9 32t-5 36q-8 56 -14 116t-18 110q-8 63 -15 129t-13.5 132t-14.5 130.5t-18 124.5q-5 0 -11 -1t-12 -0.5t-10.5 3.5t-5.5 10q-2 9 3 14.5t12 9t14.5 5t11.5 2.5q7 1 15 0t16 0q20 3 43.5 8.5
t43.5 3.5q13 -2 25.5 -4.5t17.5 -18.5q-8 -11 -24 -10.5t-28 -4.5q12 -141 29 -273t36 -263q11 43 15.5 91t12.5 94q4 20 8.5 39t2.5 45q5 6 12 4.5t14 -1.5q14 1 28 7t28 -2q4 -40 12 -82.5t17 -81.5q8 -35 13.5 -69.5t13.5 -67.5q16 86 24 181.5t21 188.5q4 30 12 60
t12 61q4 32 2.5 60t-9.5 55q2 4 4 7.5t5 6.5z" />
    <glyph glyph-name="X" unicode="X" horiz-adv-x="436" 
d="M406 -64q1 -10 -2 -14.5t-9 -6.5t-15 -2t-19 -1q-16 -1 -34.5 -5t-36 -6.5t-32 0t-23.5 14.5q-1 4 1.5 6.5t6.5 5t7 5t4 5.5q2 7 -1 19t-8 24.5t-10 23.5t-7 17q-20 60 -39 126t-39 121q-24 -65 -46.5 -131t-48.5 -129q7 -9 14.5 -13t6.5 -13q-2 -11 -11 -11h-22
q-9 0 -20.5 -1.5t-21.5 -1t-16.5 4t-5.5 11.5q1 5 6.5 8t12 4.5t13.5 3t10 3.5q7 6 13 24t8 27q3 8 4.5 15.5t3.5 14.5t6 12t7 11q3 8 4.5 18.5t4.5 21.5q6 19 15.5 40.5t17.5 44.5q3 10 6.5 21.5t7.5 22.5q5 12 9 25t4 22q-1 11 -6 23.5t-10 26.5q-11 33 -23 73.5t-22 74.5
q-16 54 -28 105t-32 95q-11 -1 -24.5 -1.5t-23.5 2.5q-11 15 -4 21t22 7.5t34.5 0.5t35.5 1q13 1 23.5 4t20 4.5t18 0t16.5 -8.5q17 -58 34.5 -115.5t35.5 -114.5q9 11 14.5 24.5t10.5 27.5q16 41 30.5 83t34.5 80q2 8 -0.5 13.5t1.5 11.5q16 10 32.5 3t27.5 -16
q-2 -14 -13.5 -16t-21.5 -7q-29 -60 -51.5 -125.5t-48.5 -128.5q38 -132 78.5 -260t75.5 -262l22 -4t15 -10z" />
    <glyph glyph-name="Y" unicode="Y" horiz-adv-x="382" 
d="M280 770q8 11 24 7.5t23 -11.5q1 -10 -6 -15.5t-11 -12.5q-2 -4 -3.5 -8t-3.5 -8q-2 -3 -5 -4.5t-5 -5.5q-3 -6 -5.5 -15.5t-4.5 -17.5q-13 -43 -25 -83t-26 -82q-5 -17 -12 -33.5t-9 -30.5q-1 -5 0 -11t1 -11q-4 -97 -6.5 -202t2.5 -197q7 -1 15 -0.5t15 -0.5t12 -3.5
t6 -9.5q-13 -14 -35.5 -13.5t-47.5 0.5q-19 0 -35.5 -5.5t-30.5 -7.5q-11 -1 -22.5 1.5t-13.5 8.5q-2 8 1.5 12t9 6t11.5 3.5t8 5.5q2 3 3 14.5t1 25t-0.5 26.5t-0.5 19q0 17 -0.5 38t-1 42.5t-1 42t1.5 36.5q0 3 1.5 8.5t2.5 8.5q1 23 -1.5 52t-2.5 55q0 6 1.5 12.5
t0.5 11.5q-1 8 -6 18t-9 21q-21 62 -42 122.5t-44 120.5q-4 9 -6.5 19t-10.5 17q-3 1 -8 1.5t-9.5 2t-7.5 4.5t-3 9q1 9 9 11t19.5 1.5t23 -2t19.5 -0.5q9 1 19 5.5t21 5.5q14 2 27.5 -0.5t25.5 -1.5q6 0 10.5 1.5t9.5 -0.5q6 -6 4 -18q-4 -7 -14.5 -6t-18.5 -1
q17 -75 38.5 -143.5t42.5 -137.5q9 13 13.5 29t9.5 32q10 31 20.5 62t21.5 63l10 32t9 32q3 13 1 26t0 27z" />
    <glyph glyph-name="Z" unicode="Z" horiz-adv-x="426" 
d="M320 6q10 0 14.5 -12t4 -27t-5 -28t-13.5 -16q-5 1 -8.5 4t-8.5 5q-68 -14 -142 -22.5t-149 -10.5q-5 4 -10 6.5t-10 5.5q-3 9 -3 17t1 16q6 42 24 85t32 85q8 22 14 44t11 44q8 29 16 57.5t24 48.5q11 58 26.5 111.5t32 106.5t32 106.5t26.5 112.5q-17 7 -36.5 8.5
t-40.5 1l-42 -1t-39 3.5q2 -16 2 -35t-7 -35q-8 0 -12 5.5t-5.5 13t-2.5 17.5t-2 19q-1 7 -3.5 14.5t-3 13.5t2.5 10t14 6q12 2 29.5 0.5t35.5 -2.5q17 -1 34.5 1.5t31.5 0.5q11 -2 20.5 -5t18.5 -2q8 0 15 3t15 4q11 1 23.5 -2t25 -5.5t25 -4t22.5 2.5q10 -5 11 -16.5
t-2.5 -25t-9.5 -27t-10 -23.5q-7 -19 -15 -36.5t-14 -32.5q-14 -36 -24 -73.5t-24 -70.5q-7 -17 -15.5 -34t-14.5 -35q-8 -25 -14 -52.5t-14 -55.5q-14 -51 -31.5 -101.5t-34.5 -100.5q-5 -13 -8.5 -25.5t-8.5 -24.5q-11 -24 -17.5 -50t-16.5 -52q14 -4 28 -3.5t26.5 2.5
t25 5t23.5 5q26 4 53.5 4t55.5 5q3 6 4.5 14t3.5 15.5t5 12.5t9 5z" />
    <glyph glyph-name="bracketleft" unicode="[" horiz-adv-x="266" 
d="M15 589q0 6 -0.5 12t-0.5 11q0 19 0.5 37.5t0.5 36.5v59q0 8 1 9.5t6 3.5q0 1 0.5 1t0.5 1q2 8 3.5 10t7.5 0q5 0 7 -1q7 -4 9 1q2 2 6 0q5 -4 14 -4q5 4 13 4q8 1 15 1.5t15 2.5l10 1q5 0 7 1q4 1 7.5 1.5t8.5 -0.5q2 0 4 -0.5t4 -0.5q9 -2 13 -1h1q2 0 4 -1l4 -2
q0 -2 2 -2q2 -2 3 -4q0 -3 -2 -5q-1 0 -1 -0.5t-1 -0.5q-2 -2 -4 -3q-26 -9 -47 -9q-12 -1 -32 -3q1 -7 1 -13.5v-13.5q1 -5 1.5 -9.5t0.5 -9.5v-3q2 -11 2.5 -22t1.5 -22v-27v-16v-30q0 -5 -0.5 -10t0.5 -10q0 -10 0.5 -18.5t0.5 -18.5v-42v-13t1 -13v-24v-31v-18t1 -21
v-10.5t1 -10.5q0 -8 0.5 -15.5t0.5 -15.5v-46v-22v-9v-9v-36v-37v-17v-24v-26q-1 -6 -1 -12.5v-13.5v-35v-9q0 -9 0.5 -18t0.5 -17q0 -6 1 -10v-2v-1l1 -5v5q1 0 1 1h4h2q5 0 7 -1q5 -2 9.5 -2h9.5q10 0 20 -0.5t20 -0.5q4 0 9 -3q4 -4 4 -7v-3q-2 -8 -8 -8q-3 -1 -9 -1
q-4 0 -6 -1h-6q-3 -1 -5.5 -1.5t-5.5 -0.5h-6h-9t-9 1h-1q-6 0 -12 0.5t-13 0.5q-3 1 -6 1t-6 1q-1 1 -1.5 1t-1.5 1q-4 -2 -10 -4q-11 -2 -25 -1.5t-22 11.5q-8 10 -6 26.5t2 27.5q0 6 -0.5 11.5t-0.5 11.5q-1 11 -1.5 21.5t-1.5 21.5q-1 12 -1 24v23q-1 15 -1.5 31
t-0.5 32q-1 20 -1 39t-1 39q-1 8 -1.5 14.5t-1.5 14.5v38q0 14 1 27.5t1 27.5q1 17 0.5 33.5t0.5 33.5v34v20v13h-1v48h-3v29z" />
    <glyph glyph-name="backslash" unicode="\" horiz-adv-x="254" 
d="M5 718q-2 10 7 13q10 3 13 -7q2 -2 2 -5l1 -1q6 -19 11 -39t10 -43q1 -5 2.5 -10t2.5 -10l6 -24q2 -7 2.5 -13.5t1.5 -12.5t2 -12.5t2 -12.5q2 -12 5 -24l6 -24l2 -10l2 -10q0 -1 0.5 -1.5t0.5 -2.5q1 -2 1 -4t1 -4q0 -4 2 -12q1 -6 1.5 -12t2.5 -12q2 -3 2 -6.5t1 -6.5
q1 -6 2 -11t4 -10l2 -4l1 -9q2 -8 4 -20l2 -10q2 -8 4 -17t4 -17q1 -2 1 -4t1 -4q0 -10 5 -15q1 -2 1 -5v-1q0 -2 0.5 -2.5t0.5 -2.5q0 -4 2 -10t3 -11.5t2 -11.5q2 -6 2 -10q2 -10 2 -15q1 -4 1 -7t1 -6q2 -8 4 -15.5t4 -15.5l4 -18l4 -18l6 -30t6 -29q2 -8 2.5 -14.5
t2.5 -13.5t2.5 -13t2.5 -13q2 -6 3 -12.5t2 -12.5q1 -2 1 -7q-1 -5 -5 -9t-9 -4h-2q-7 1 -8 5.5t-2 7.5q0 5 -0.5 8t-0.5 6q-2 8 -3.5 16.5t-3.5 16.5l-6 27q0 2 -0.5 3.5t-0.5 3.5q0 4 -1 5q-1 5 -1.5 9.5t-1.5 9.5q-2 13 -5 25.5t-5 24.5l-6 24t-6 23q-2 10 -5 20t-5 21
q-7 29 -13.5 58.5t-12.5 58.5l-4 18q-5 23 -10.5 47.5t-10.5 49.5q-3 14 -5.5 27t-4.5 27l-2 14q-1 5 -1.5 10t-1.5 10q-2 9 -3.5 18.5t-3.5 18.5q-2 8 -3.5 15.5t-3.5 15.5q-3 15 -6.5 30.5t-8.5 30.5q-1 2 -1 3t-1 3q0 3 -1 5q-2 6 -3 10l-1 4q-2 2 0 4z" />
    <glyph glyph-name="bracketright" unicode="]" horiz-adv-x="266" 
d="M173 560h-3v-48v-13v-20v-34q1 -17 0 -33.5t0 -33.5q0 -14 1 -27.5t1 -27.5v-38q-1 -8 -1 -14.5t-1 -14.5q-1 -20 -1 -39t-1 -39q0 -16 -0.5 -32t-1.5 -31v-23t-1 -24q-1 -11 -1.5 -21.5t-1.5 -21.5q-1 -6 -1 -11.5v-11.5q0 -11 1.5 -27.5t-5.5 -26.5q-8 -11 -22.5 -11.5
t-25.5 1.5q-7 2 -9 4q-1 -1 -1.5 -1t-1.5 -1q-3 -1 -6 -1t-6 -1q-7 0 -13.5 -0.5t-12.5 -0.5h-1q-5 -1 -9 -1h-9h-6q-3 0 -5 0.5t-5 1.5h-6q-2 1 -6 1q-6 0 -9 1q-7 0 -9 8q0 1 1 3t1.5 3.5t2.5 3.5q4 3 9 3q10 0 19.5 0.5t19.5 0.5h9.5t9.5 2q2 1 8 1h2h4q0 -1 1 -1v-5l1 5
v1v2q1 4 1 10q0 8 0.5 17t0.5 18v9v35v13.5t-1 12.5v26v24v17v37v36v9v9v22v46q0 8 0.5 15.5t0.5 15.5q1 5 0.5 10.5t0.5 10.5q0 11 0.5 21t0.5 18v31v24q1 7 1 13v13v42v18.5t1 18.5v20v30v16q0 7 -0.5 13.5t0.5 13.5q0 11 1 22t3 22v3q0 5 0.5 9.5t1.5 9.5v13.5t1 13.5
q-18 1 -33 3q-22 0 -46 9q-2 1 -4 3q-1 0 -1 0.5t-1 0.5q-2 2 -2 5q1 2 3 4q2 0 2 2l4 2t4 1h1q3 -1 5.5 -0.5t6.5 1.5q2 0 4 0.5t4 0.5q5 1 8.5 0.5t7.5 -1.5q2 -1 7 -1l11 -1q8 -2 15 -2.5t14 -1.5q8 0 13 -4q9 0 14 4q4 2 6 0q2 -4 4.5 -3.5t5.5 2.5q2 1 7 1q6 2 7.5 0
t3.5 -10q0 -1 0.5 -1t0.5 -1q5 -2 5.5 -3.5t0.5 -9.5v-59q0 -18 0.5 -36.5t0.5 -37.5q0 -5 -0.5 -11t-0.5 -12v-29z" />
    <glyph glyph-name="asciicircum" unicode="^" horiz-adv-x="335" 
d="M253 451q-6 7 -9.5 15.5t-7.5 16.5q-2 4 -4 7.5t-4 7.5q-8 14 -16 27t-17 27q-5 8 -9.5 16.5t-9.5 17.5q-7 13 -14 25.5t-14 25.5q-3 5 -6.5 10.5t-6.5 10.5l-8 -14q-11 -20 -23.5 -39t-24.5 -39q-15 -24 -29.5 -48t-28.5 -50q-3 -6 -6.5 -11t-7.5 -10q-3 -5 -7 -5.5
t-6 6.5q-2 2 -2 5.5v5.5q0 5 3 8q5 11 11 21t11 20q10 16 19.5 31t18.5 30q5 8 9 16.5t9 16.5t10 17l10 18q8 14 14.5 28t14.5 28q5 9 11.5 10.5t12.5 -7.5q11 -17 20.5 -36t19.5 -38l2 -4l2 -4q12 -21 24 -41.5t24 -42.5q7 -12 13.5 -25t13.5 -26q7 -12 3 -23
q-6 -16 -15 -5z" />
    <glyph glyph-name="underscore" unicode="_" horiz-adv-x="278" 
d="M311 -155q2 -2 2 -5q-2 -8 -6.5 -10t-6.5 -2q-5 -2 -11 -2h-13h-8h-13t-13 -1q-7 0 -10 -1h-8q-4 0 -7 -0.5t-7 -0.5h-6h-21t-20 1h-17h-22l-1 1h-33.5t-33.5 -1q-5 0 -13 -2q-4 0 -7 -1h-4h-1h-14h-8h-8h-10.5t-11.5 2h-3h-5q-6 0 -9 3q-2 2 -2.5 5t4.5 8q8 8 19 8
q9 0 17.5 0.5t17.5 1.5q4 0 7 0.5t7 0.5h2h13q5 0 11 -0.5t11 -0.5h87h36h18q8 0 15 0.5t15 0.5h8.5t8.5 1h19h2q2 0 3 -1q13 -3 23 -3h1q3 0 5 -2h1v0z" />
    <glyph glyph-name="grave" unicode="`" horiz-adv-x="226" 
d="M109 853q1 -2 1.5 -2.5t1.5 -2.5l1 -1l-1 -2q-2 -4 -3.5 -8t-7.5 -6q-1 0 -2 -0.5t-2 -0.5q-4 0 -6.5 2t-4.5 4t-3 3.5t-3 3.5l-2 2q-2 4 -5 7q-2 3 -4.5 6.5t-5.5 6.5q-5 5 -9.5 10.5t-9.5 10.5t-9.5 10.5t-9.5 10.5l-6 8t-6 9q-3 4 -1 9t8 9q4 2 7 2q4 0 10 -6
q3 -4 6.5 -7.5t6.5 -7.5q6 -8 12 -14.5t13 -14.5q3 -3 6 -6.5t6 -6.5q4 -5 7.5 -8.5t7.5 -8.5q3 -3 7 -11z" />
    <glyph glyph-name="a" unicode="a" horiz-adv-x="374" 
d="M198 50l-10 -10q-17 -22 -40 -35t-49 -19t-48 3t-39 30q-4 4 -6 11q-6 11 -9.5 21.5t-7.5 24.5q-3 13 -3.5 28.5t0.5 29.5q1 20 5 39t12 36q16 34 48 52q26 14 54.5 21t57.5 12q11 2 23.5 -0.5t23.5 -7.5q2 3 1.5 7.5t-1.5 6.5q-2 17 -3.5 33.5t-4.5 33.5t-11.5 30.5
t-19.5 24.5q-10 11 -22.5 14.5t-26.5 1.5q-22 -1 -40 -19q-11 -11 -21 -22t-14 -27q-3 -11 2 -19q8 -14 -1 -28q-3 -4 -6 -7t-8 -2q-12 3 -13 14v12.5t1 12.5q3 15 7 30t13 29q9 11 18.5 21.5t23.5 18.5q11 6 22.5 10t23.5 7q8 2 14.5 0.5t14.5 -2.5q12 -1 23.5 -4t23.5 -7
q20 -6 33.5 -18.5t24.5 -29.5q12 -18 17.5 -38t6.5 -41q2 -20 2.5 -40t-0.5 -40q-2 -28 -4.5 -56t-4.5 -57q-2 -25 -4.5 -50t-4.5 -50q-1 -8 0.5 -15.5t3.5 -15.5q6 -19 24 -11q13 5 17 17q3 8 6 15t3 15q0 3 3 7t5 6t5.5 1.5t5.5 -2.5q6 -8 4 -14q-8 -23 -19 -43.5
t-37 -29.5q-14 -5 -27 -2t-25 10q-20 11 -29.5 27.5t-12.5 38.5v3.5t-1 6.5zM209 256q-1 5 -1 10t-6 7q-17 3 -31 2q-9 -1 -18 -3l-18 -4q-21 -5 -30 -22q-5 -8 -8.5 -16t-7.5 -16q-10 -23 -13 -47.5t-4 -49.5q0 -19 3 -38l6 -38q1 -7 5.5 -13t8.5 -13t14 -3q8 2 12 4
q16 7 25 16t13 11q8 6 13.5 13.5t12.5 14.5q14 13 11 31q2 24 3 45t3 41q3 18 3.5 34t3.5 34z" />
    <glyph glyph-name="b" unicode="b" horiz-adv-x="350" 
d="M287 322q1 -23 1 -46v-46q0 -8 -1 -14.5t-2 -14.5q-2 -14 -4 -27t-4 -27q-2 -7 -4 -13l-4 -12q-2 -5 -4 -10.5t-4 -11.5q-4 -13 -10 -24.5t-13 -22.5q-7 -12 -17 -19t-20 -13t-21 -12l-6 -3q-16 -1 -31 -1.5t-31 -0.5q-17 -1 -34.5 -2t-34.5 -5q-10 -3 -19.5 -3.5
t-19.5 -0.5q-5 0 -7.5 1.5t-7.5 7.5q3 9 12 12q5 2 10.5 3.5t10.5 3.5v25q1 23 1.5 46.5t0.5 46.5q-1 33 -1 65.5t-2 65.5q0 17 -1.5 33.5t-1.5 33.5t0.5 32.5t0.5 32.5q1 20 1 40.5v40.5q0 3 1 27t2 51t1.5 49.5t-0.5 22.5v92q0 5 -0.5 11t-1.5 12q-5 1 -8.5 2t-7.5 1
q-12 2 -16.5 7.5t-2.5 21.5q11 3 21 6t21 5q7 1 10 10q2 4 3.5 7.5t3.5 7.5q3 5 8 4t7 -7q1 -3 1 -6t1 -6q0 -9 8 -9q5 0 9.5 0.5t9.5 0.5q10 1 19 1.5t18 -0.5q6 0 10 -6q8 -9 -2 -14q-7 -6 -17 -9q-9 -5 -8 -15q0 -17 0.5 -33t0.5 -33q-1 -54 -3 -106t-1 -106
q0 -11 -0.5 -21.5t-1.5 -21.5q0 -2 0.5 -3.5t0.5 -3.5q7 2 11 6.5t9 9.5q14 12 28 21.5t32 10.5q8 0 15.5 1t15.5 -2q20 -6 31.5 -20.5t19.5 -35.5q16 -42 19 -91zM202 242q0 17 1 33t0 33q-1 19 -2.5 37.5t-4.5 37.5q-1 9 -3.5 18t-5.5 18q-2 7 -6 11.5t-10 3.5
q-14 -3 -23 -10q-6 -4 -11 -9l-10 -10q-11 -11 -18.5 -23.5t-6.5 -32.5q1 -21 -1 -42.5t-2 -42.5q-1 -13 0 -25t1 -25q0 -11 -1 -21t0 -21l2 -46l2 -46v-45q0 -10 7 -10q8 0 16.5 -0.5t16.5 0.5t14.5 6.5t13.5 10.5q18 13 20 40q0 19 3 39q2 21 3.5 41.5t3.5 41.5
q1 9 0.5 18.5t0.5 19.5z" />
    <glyph glyph-name="c" unicode="c" horiz-adv-x="301" 
d="M146 -16q-6 0 -12 -0.5t-12 -1.5q-13 -2 -28.5 3.5t-26.5 10.5q-2 0 -4 2q-13 14 -24.5 29.5t-16.5 38.5q-3 15 -7 28.5t-8 27.5q-1 3 -1.5 7t0.5 7q1 14 0 29q-4 19 -3.5 37.5t3.5 35.5q3 23 7 45.5t10 45.5q5 20 12 40t19 36q7 12 18 21q15 13 30 24.5t33 15.5l25 5
t26 3q5 -1 10 0.5t10 2.5q3 1 7 7q3 4 5 8l4 8q2 5 4.5 7.5t8.5 3.5q0 -5 1.5 -9.5t0.5 -8.5q-2 -17 -5 -35t-6 -35q-1 -4 -2.5 -7.5t-4.5 -1.5q-2 1 -4.5 4.5t-3.5 6.5q-1 4 -0.5 8t0.5 8q0 10 -2 13t-10 2q-12 -1 -23 -4.5t-21 -14.5q-11 -14 -20.5 -28t-16.5 -32
q-14 -39 -17 -80q-2 -23 -2.5 -46t-2.5 -46q-1 -22 -2 -43.5t0 -43.5q0 -17 1 -34.5t3 -35.5q2 -15 10 -23.5t18 -11.5q23 -7 44 14l20 20q13 13 13 32q1 12 6 19.5t11 14.5q8 8 10 -3q1 -5 1 -15q-1 -17 -1.5 -33t-2.5 -33q0 -6 0.5 -11.5t0.5 -11.5q0 -7 -3 -10
q-4 -2 -8 5q-2 4 -4.5 8t-4.5 9q-3 -3 -5 -4.5t-4 -3.5q-11 -14 -24.5 -19t-28.5 -7z" />
    <glyph glyph-name="d" unicode="d" horiz-adv-x="390" 
d="M206 510q2 15 3 35.5t2 35.5v10t1 10q2 16 2.5 31.5t2.5 31.5q1 11 1 20.5t2 20.5q2 15 3 29.5t3 29.5q1 5 1.5 9t1.5 8q2 11 5.5 15.5t14.5 5.5q11 0 15.5 0.5t15.5 0.5q10 0 19.5 -1t19.5 -2q7 0 5 -10q-2 -17 -4.5 -32.5t-5.5 -35.5q-1 -6 -2 -11.5t-2 -11.5
q-1 -9 -2 -17.5t-2 -17.5l-9 -75q-2 -12 -2 -23.5t-2 -23.5q-2 -14 -3.5 -27t-3.5 -27q-1 -8 -2 -16.5t-1 -16.5q-2 -17 -2.5 -33t-1.5 -33l-6 -57q0 -3 0.5 -6t-0.5 -6q-1 -11 -1.5 -20.5t-2.5 -19.5q-1 -8 -1.5 -14.5t-1.5 -13.5q-2 -14 -1.5 -29t-3.5 -30q-2 -5 -2 -10.5
v-11.5q-1 -17 -1 -34.5v-35.5q-1 -11 -0.5 -21t-1.5 -21q-1 -8 0.5 -14t3.5 -13v-8q0 -12 10 -16q6 -2 12.5 -0.5t9.5 6.5q2 5 4 9.5t5 8.5q8 11 10 23t4 25q2 8 1 12q0 8 -3 16q-5 10 -3 18q4 6 8 3q2 -2 4.5 -4t3.5 -5q4 -9 2 -18q-1 -14 -1.5 -27.5t-4.5 -26.5
q-5 -15 -9 -29.5t-15 -25.5q-6 -5 -12.5 -6.5t-13.5 -4.5q-14 -5 -25 0.5t-21 14.5q-12 10 -18.5 23.5t-10.5 28.5q0 2 -0.5 3t-0.5 3q0 -1 -2 3q-2 -5 -4 -9.5t-6 -7.5q-11 -11 -19 -25.5t-25 -21.5q-12 -4 -25 -6q-15 -2 -28.5 0t-27.5 7q-9 3 -16 8.5t-14 13.5
q-8 10 -14.5 21t-12.5 22q-5 8 -7.5 18t-3.5 20q-2 18 -3 36.5t-3 37.5q-1 14 -1.5 28.5t-0.5 28.5t1.5 26.5t3.5 25.5q4 28 12 57q4 13 8 25.5t9 25.5q6 14 14.5 26t21.5 21q8 5 14.5 9.5t13.5 9.5q5 2 9 3t9 3q3 1 6.5 1t6.5 1q18 8 34.5 3.5t33.5 -12.5q1 0 3 -2t9 -6
t9 -5q0 2 1 10q1 7 1.5 20.5t2.5 38.5zM189 380h-1v11q1 14 -5 24t-16 17q-6 5 -13.5 7t-15.5 4q-9 2 -16 -2.5t-12 -11.5q-4 -7 -7 -14t-5 -15q-4 -19 -8 -37.5t-6 -38.5q-2 -21 -2.5 -42t-1.5 -42q-1 -15 0.5 -29.5t1.5 -29.5q0 -11 -1 -22.5t-1 -22.5v-21.5t1 -21.5
q1 -15 1.5 -29.5t2.5 -28.5t7 -21.5t20 -5.5q11 1 21 5t17 15q8 11 15.5 21t14.5 21q4 5 7 11.5t3 14.5q-2 22 -2.5 43t-1.5 43q-1 11 -0.5 20.5t1.5 20.5q0 5 0.5 9t0.5 9q2 14 2 27t-2 27q-1 10 -1.5 19.5t-0.5 18.5q0 12 1 23.5t2 23.5z" />
    <glyph glyph-name="e" unicode="e" horiz-adv-x="328" 
d="M89 277q-6 -13 -6.5 -27.5t-2.5 -28.5q-3 -34 -0.5 -67t5.5 -67q2 -17 6 -34t11 -34q9 -21 27.5 -30t38.5 -2q23 9 34 33q8 18 13.5 37.5t4.5 39.5q-1 5 -1.5 8.5t-3.5 7.5q-2 2 -4 5l-4 6q-5 9 -2.5 16.5t13.5 9.5q14 2 22 -4.5t3 -24.5q-3 -12 -3 -25q-1 -20 -3 -39
t-7 -38q-4 -10 -7 -14q-8 -10 -15.5 -21.5t-18.5 -19.5q-24 -14 -51 -9q-2 0 -3 0.5t-3 0.5q-26 0 -46.5 11t-39.5 28q-4 4 -6.5 8t-4.5 9q-11 21 -18 44t-11 46q-2 16 -3 31.5t-3 31.5q-5 33 0 66q0 4 -1 7.5t-1 7.5q0 49 17 95q4 10 5 15q4 19 12 35t19 31q2 3 4 6.5
t4 6.5q2 2 3.5 4.5t3.5 4.5q11 8 21.5 16t21.5 15q13 8 27 9t28 -1q17 -2 32 -7t29 -13q24 -15 34 -41q5 -11 6 -22.5t1 -22.5q1 -19 1.5 -37.5t-4.5 -37.5t-23 -20h-9.5t-9.5 1q-14 3 -28 3t-28 -2l-24 -2t-24 -3q-7 -1 -13.5 -1t-14.5 -1zM210 419h-1q0 5 -0.5 9.5
t-0.5 9.5q-1 10 -3.5 13t-11.5 5q-5 1 -15 1q-4 1 -8 0.5t-8 0.5q-19 6 -28 -13l-9 -15q-13 -26 -19.5 -53t-10.5 -56q-2 -10 0 -12t11 -1q9 2 18.5 3.5t18.5 0.5q12 -1 24 0t24 0q9 -1 12 1.5t4 11.5q1 11 1.5 22t0.5 22q1 13 1 25.5v24.5z" />
    <glyph glyph-name="f" unicode="f" horiz-adv-x="290" 
d="M77 529q3 18 4.5 37.5t3.5 39.5q2 11 4.5 22t4.5 22q3 21 12.5 40t20.5 33q16 18 33 28.5t45 12.5q11 1 21.5 -3.5t15.5 -14.5q13 -24 14 -49q1 -15 0.5 -29t-3.5 -28q-2 -7 -2.5 -13.5t-1.5 -13.5q-2 -12 -11 -16q-5 -4 -9 -1t-4 11q0 12 5 20q3 4 3 7t1 8q2 6 3 11.5
t0 10.5q0 11 0.5 21t-1.5 21t-6 20t-13 14q-1 2 -6 2q-14 -1 -25.5 -15.5t-14.5 -37.5q-2 -9 -4.5 -17t-2.5 -16l-6 -102q-1 -14 -1.5 -28t-1.5 -28v-12q0 -2 0.5 -4.5t0.5 -4.5q-1 -9 -1 -17.5t-1 -17.5v-2q0 -11 1 -13t9 -1t17 2t18 3q8 2 12.5 -4.5t2.5 -16.5
q-1 -8 -2.5 -15t-6.5 -12q-4 2 -6 2q-7 1 -7 10q0 8 -6 8q-7 -1 -13 -0.5t-12 0.5t-7.5 -3t-1.5 -11t-0.5 -17t-0.5 -17q-1 -15 -1.5 -29.5t-0.5 -28.5q-1 -10 -0.5 -19.5t-0.5 -19.5q-3 -23 -1.5 -45t-0.5 -45q0 -4 0.5 -7.5t0.5 -6.5q0 -5 0.5 -10.5t-0.5 -11.5
q-1 -9 -0.5 -18t0.5 -18v-8v-66q-2 -7 5 -9q6 0 9 -1q7 -1 13.5 -2t13.5 -3l2 -1q5 -5 5 -7q0 -4 -4 -8q-2 -3 -5 -3q-5 -2 -11 -3.5t-11 -1.5q-17 -2 -33 -2.5t-33 -1.5h-54q-6 -2 -9 -2q-10 -3 -19 6q-2 2 -3.5 5t0.5 7q4 6 9 6q4 1 8 1h9l21 3q1 5 1.5 8.5t0.5 7.5
q0 13 0.5 25.5t0.5 26.5q1 20 0.5 39t-1.5 39q0 5 -0.5 9t0.5 9q1 20 1 39.5t2 39.5q2 23 2 43.5t-1 43.5q0 9 0.5 18.5t-0.5 18.5q0 5 0.5 8.5t-0.5 8.5q-1 7 -7 6q-5 -2 -10 -1.5t-10 2.5t-10.5 0.5t-10.5 -3.5q-5 -3 -5 -9q0 -8 -6 -11q-6 -1 -9 7q-1 2 -1 5t-1 6
q1 4 1 12q0 15 12 16h15.5t15.5 1q7 0 13.5 0.5t14.5 1.5q0 8 1 15t1 15q1 20 2.5 38.5t4.5 38.5z" />
    <glyph glyph-name="g" unicode="g" horiz-adv-x="331" 
d="M177 65q-6 -2 -10 -4q-21 -12 -47 -9q-3 0 -6 -1t-5 -1q-14 0 -27 3t-25 14q-3 3 -6.5 5t-7.5 4q-17 13 -25.5 32.5t-12.5 44.5q-2 11 -2 23t-1 24q-1 10 -1 20t-1 21q-3 42 12 80q3 12 7 19q2 8 2 13q-1 16 4.5 27.5t13.5 21.5q12 16 26 32q6 6 14 11q11 8 23 10.5
t25 4.5q4 1 8 -0.5t8 -2.5q5 -2 10 -2.5t10 -2.5q4 -1 6.5 -2t4.5 -2q6 2 10.5 4t9.5 4q14 5 27 4t27 0q6 1 12.5 -0.5t12.5 -2.5q13 -3 17 -18q-2 -4 -4.5 -8t-4.5 -7q-3 -4 -8 -4q-5 -1 -6.5 -2.5t-1.5 -8.5v-26q0 -29 -1 -57t-3 -57q-1 -9 -0.5 -18.5t1.5 -19.5v-43
v-57.5t-2 -57.5q-1 -18 -3.5 -36.5t-4.5 -36.5t-3.5 -36t-4.5 -36q-3 -25 -9 -47q-5 -15 -9.5 -29.5t-10.5 -28.5q-11 -25 -24.5 -45t-33.5 -33q-4 -3 -8 -4.5t-9 -3.5t-10 -3t-10 -3q-14 -6 -30 1l-18 8t-17 10q-32 24 -29 76q0 5 0.5 10t0.5 10q2 37 26 48q10 4 17 -9
q3 -5 4.5 -11t-1.5 -13q-2 -5 -6.5 -8.5t-9.5 -1.5q-4 0 -6 1q-5 -7 -5.5 -15t1.5 -16q7 -36 31 -60q8 -4 11 -4q11 -1 21.5 0.5t20.5 9.5q12 9 18 28q5 12 7 24t4 26q3 26 5.5 50.5t5.5 49.5l2 30l2 30l3 51q0 5 -1 9zM179 263v36v4q0 8 -0.5 14.5t-0.5 14.5q-1 8 -1.5 16
t-1.5 16q-1 6 -0.5 11.5t0.5 11.5q0 14 -10 26l-8 8t-10 0q-2 -1 -7 2q-8 4 -15.5 3.5t-15.5 -0.5q-10 0 -13 -14q-2 -13 -4.5 -25t-3.5 -25q-2 -19 -2.5 -37t-1.5 -37q-1 -26 -1.5 -51.5t-0.5 -51.5v-21t1 -20q2 -11 4 -20.5t4 -19.5q3 -13 10 -14l30 -9q8 -3 18 2
q5 2 10 4.5t10 6.5q10 5 11 18q0 11 0.5 23t0.5 24q0 26 -0.5 52t-1.5 52z" />
    <glyph glyph-name="h" unicode="h" horiz-adv-x="400" 
d="M110 327l-1 -22v-1q-3 -37 -5.5 -73t-4.5 -73q-2 -23 -3.5 -46t-2.5 -47q-1 -12 2 -23t14 -18q5 -4 8.5 -7.5l8.5 -8.5q-5 -7 -9.5 -6.5t-9.5 0.5h-10t-11 1l-36 3l-60 3q-5 1 -8.5 1.5t-7.5 5.5q2 6 5 8t8 4t9 3t8 3q11 3 11 17q1 20 1.5 39.5t1.5 39.5q0 6 0.5 12
t1.5 12q2 13 1 25.5t-1 24.5v33.5t1 33.5q0 4 -0.5 7.5t-0.5 7.5q1 11 0.5 21.5t-0.5 21.5q0 12 1 23.5t2 22.5q1 14 0.5 29.5t-0.5 29.5q2 29 2.5 58t1.5 58q2 27 3.5 54t2.5 54q0 13 -1 26t-1 26q0 5 0.5 10t1.5 10v13q0 4 0.5 8t-4.5 6t-8 2t-7 -4q-2 -4 -4.5 -7t-4.5 -8
q-5 -10 -11 -8q-4 2 -6.5 4.5t-2.5 8.5q-1 6 -0.5 12t0.5 12q0 5 5 8q3 2 6.5 2h5.5q5 1 9 0.5t8 0.5q20 7 40 6.5t40 -1.5q2 -1 4.5 -1t5.5 -1q3 0 6 -3q4 -8 7.5 -16t2.5 -19q-2 -15 -2 -30t-1 -30q-2 -25 -2 -49.5t-1 -48.5q-2 -29 -2.5 -57.5t-2.5 -57.5
q-1 -13 -0.5 -22t-1.5 -22v-40l6 10q8 14 16 28.5t16 28.5q11 17 27 27.5t33 14.5q25 3 46 -12q20 -15 30.5 -35.5t16.5 -45.5q8 -26 2 -51q-2 -8 -1.5 -15.5t-1.5 -15.5q-5 -27 -9.5 -53.5t-9.5 -52.5l-4 -26t-4 -27q-2 -21 -5.5 -42t-6.5 -42q-1 -10 -1 -20t2 -21
q4 -11 11 -4q18 15 28 43q5 14 10 26.5t10 26.5q2 7 2 14v15q0 13 8 20q5 5 10.5 4t7.5 -8q2 -4 2 -9t-2 -8q-5 -8 -6.5 -18t-3.5 -20q-4 -15 -7 -30.5t-11 -29.5q-8 -11 -15 -22.5t-15 -22.5q-10 -14 -24 -19t-29 -6q-12 -1 -24 10.5t-17 25.5q-11 29 -8 58l2 54t3 54
q0 6 1 12t3 11q2 19 5 38t5 37q5 30 8 49.5t3 44.5q0 13 -1 26t-3 26q-3 18 -13 22.5t-22 -6.5q-7 -5 -11.5 -11.5t-9.5 -14.5q-13 -20 -21.5 -36.5t-19.5 -41.5z" />
    <glyph glyph-name="i" unicode="i" horiz-adv-x="196" 
d="M55 588q-14 11 -18 31t4 35q5 11 19 16q9 1 16 3q15 0 21 -9q5 -8 6 -20t-1.5 -24t-8 -21.5t-12.5 -13.5q-15 -8 -26 3zM149 132q2 -6 2 -11q-1 -5 -1.5 -9.5t-0.5 -8.5q-2 -12 -3 -24t-7 -23q-2 -2 -3.5 -6.5t-2.5 -8.5q-6 -23 -17.5 -37t-25.5 -24q-6 -4 -15.5 -4
t-19 3.5t-17.5 10.5t-12 17q-5 16 -9.5 30.5t-5.5 31.5q-2 16 -4 30l-4 28q-1 11 -1.5 22t-0.5 22q0 4 0.5 8.5t-0.5 9.5l2 26t-1 25q-1 16 0.5 31.5t2.5 30.5q2 8 2 16.5t1 16.5q1 17 3 32l4 30q1 4 1 9q-1 14 1 28l4 28l77 -4q-2 -14 -3 -29t-3 -30q-1 -8 -2 -17l-2 -18
q-2 -28 -5 -55.5t-5 -56.5t-1.5 -59t0.5 -60q0 -22 1.5 -43t6.5 -41q1 -10 6 -19q8 -12 15 2l10 24t9 25q2 8 1.5 17.5t-0.5 17.5q0 4 -4 8q-5 6 -3 16q4 8 10 10q16 1 20 -18z" />
    <glyph glyph-name="j" unicode="j" horiz-adv-x="248" 
d="M141 430v-47v-17q-2 -17 -1 -34t1 -34v-116q0 -17 -0.5 -34t-0.5 -34q0 -2 -0.5 -5t-0.5 -5q-1 -7 -2 -13t-1 -13l-3 -48v-8q1 -17 -1 -32.5t-5 -32.5q-4 -23 -7 -45.5t-10 -43.5q-9 -30 -22.5 -56.5t-33.5 -43.5q-8 -8 -18 -8q-5 -1 -9.5 -2.5t-9.5 -0.5q-29 4 -48 27.5
t-23 68.5q-2 11 -2 22v22q-1 6 -1.5 11t-4.5 9q-1 1 -1.5 2.5t-1.5 3.5q6 9 15 10.5t16 -4.5q9 -9 2 -21q-7 -10 -5 -26q2 -18 5.5 -34t8.5 -33q3 -13 14 -19q7 -3 14 -4t15 -3q5 0 9 4q3 2 5 7t7 7q1 0 1.5 3t1.5 5q2 12 3 23.5t2 23.5q2 25 4 49.5t3 50.5q2 20 2 39t1 39
q1 18 1.5 36t1.5 35q0 8 -1 17t0 17q1 24 -0.5 48t-2.5 48v129v52q0 7 -2 8.5t-7 0.5q-6 -2 -12.5 -2.5t-13.5 -1.5q-4 0 -8.5 5.5t-4.5 10.5t4 11q2 2 3 2t3 1q21 8 42 10t43 0q14 -1 27 -0.5t26 0.5q12 0 18 -9q5 -6 2 -14q-2 -8 -7 -9q-7 -1 -13.5 -1.5t-12.5 -1.5z
M116 671q14 0 19 -9q5 -8 6 -20t-1.5 -24t-8 -21.5t-11.5 -13.5q-14 -7 -26 3q-12 11 -16 31t4 35q7 13 18 16q5 1 9 1.5t7 1.5z" />
    <glyph glyph-name="k" unicode="k" horiz-adv-x="392" 
d="M331 113q7 -4 4 -13q-4 -11 -6.5 -21.5t-6.5 -21.5q-4 -12 -7 -24.5t-11 -22.5q-11 -14 -23 -26q-5 -6 -12 -6.5t-14 1.5q-3 1 -6.5 2t-7.5 2q-11 3 -18 17q-11 18 -12 39q-2 17 -2.5 33t0.5 33q0 21 1 41.5t2 41.5q0 2 0.5 4t-0.5 4q-2 11 -0.5 22t0.5 22q0 17 -0.5 33
t-0.5 33v3q2 23 -5.5 42.5t-14.5 39.5q-2 5 -4.5 8.5t-5.5 7.5q-14 21 -38 10q-2 -1 -7 -4t-10.5 -7t-10 -8t-4.5 -6q0 -5 -0.5 -10.5t-0.5 -10.5q-1 -23 -1 -45t-1 -45q-2 -42 -4 -83t-1 -83v-79q0 -6 1 -10q11 2 18 -5.5t15 -13.5q3 -3 3 -5q-2 -6 -4 -6q-7 -2 -12.5 -4.5
t-12.5 -2.5q-16 -1 -31 -2.5t-31 -2.5q-10 0 -19.5 1t-19.5 2q-4 0 -7 0.5t-6 0.5q-5 1 -9 4.5t-3 8.5q0 7 5 12t10 4q8 -2 12 -2q6 0 7.5 1.5t1.5 9.5q0 11 -0.5 22t0.5 22q2 32 3 65t1 66v75q-1 26 -1 50.5t2 49.5q1 3 0.5 6t-0.5 6v132q1 36 1.5 71.5t1.5 71.5q1 20 1 41
t1 42q0 9 0.5 18t0.5 18q0 13 -0.5 25.5t-0.5 25.5q-4 2 -7 3t-7 2q-7 2 -11 -5q-4 -6 -9 -1l-8 6t-6 9q-4 10 0 15q3 4 10 4q20 3 36 2q19 0 37 2t36 -3q2 -1 4.5 -1t4.5 -2q5 -3 9 -8.5t3 -14.5q-1 -10 -1 -19.5t-1 -18.5q-1 -11 -1 -21v-21q1 -59 0 -117q0 -24 -1 -48.5
t-2 -49.5v-15t-1 -14v-20.5t-1 -20.5v-46q15 11 27.5 23.5t26.5 25.5q17 16 30.5 34.5t25.5 40.5q3 7 7 16.5t6 16.5q5 11 6 16t-1 13q-1 6 -5.5 7t-7.5 6q-9 11 4 13h7q5 0 10.5 0.5t10.5 0.5h6.5t6.5 -2q8 -4 5 -17q-1 -1 -1 -2t-1 -2q-8 -12 -9 -21t-6 -23t-16.5 -36.5
t-25.5 -38.5q-11 -14 -20 -23t-20 -23q-3 -4 -0.5 -6t8 -2.5t11 -0.5h7.5q32 0 53 -28q3 -4 9 -10q4 -4 5 -6q8 -17 13.5 -35.5t6.5 -38.5v-46.5t-5 -46.5q-3 -12 -3 -25t-2 -26q-2 -18 -3.5 -36t-3.5 -36q-2 -19 -4.5 -37.5t-0.5 -38.5v-10t4 -8t7.5 0.5t6.5 5.5q6 8 8 13
q5 14 9.5 27t4.5 28v14q0 9 5 9q6 0 14 -2z" />
    <glyph glyph-name="l" unicode="l" horiz-adv-x="288" 
d="M14 170q0 4 1 9.5t2 12.5q3 23 -1 44q-1 4 -2 7.5t0 6.5q4 18 2.5 36t-1.5 36q0 16 3 33q3 21 7 42l8 42q1 9 2 17.5t0 16.5q-1 21 2.5 41.5t7.5 40.5q2 14 5 27t6 27q1 6 1 12.5t2 13.5q2 12 5 24l6 24q2 12 5 24t6 25q2 8 5.5 16.5t6.5 17.5q3 7 12 7q8 0 16 0.5
t16 -0.5q26 -2 24 -25q-2 -15 -3.5 -29.5t-3.5 -29.5q-4 -23 -8.5 -46t-8.5 -46q-2 -17 -4 -34.5t-4 -35.5l-6 -58t-7 -58q-4 -28 -4.5 -55t-2.5 -54q-1 -19 -3.5 -37t-2.5 -37q-1 -22 0.5 -43.5t2.5 -43.5q1 -10 1.5 -20t2.5 -21q2 -17 4 -33t5 -33q2 -12 5 -23.5t5 -22.5
q1 -4 5 -12q2 -4 4.5 -8.5t9.5 -3.5q9 0 16 2t12 9q17 21 22.5 44t6.5 47q1 5 0 11q-1 8 -3 10t-10 4q-9 2 -14 9t-3 15q2 6 9.5 10.5t15.5 3.5q11 -2 14 -10q5 -11 9 -22t3 -24q0 -5 1 -10.5t1 -11.5q3 -22 -3 -42.5t-16 -40.5q-4 -7 -8.5 -12.5t-12.5 -9.5q-7 -3 -12.5 -7
t-11.5 -8q-15 -9 -35 -5q-20 5 -33.5 15.5t-24.5 26.5t-18 33.5t-13 34.5q-11 32 -16 65.5t-10 68.5z" />
    <glyph glyph-name="m" unicode="m" horiz-adv-x="601" 
d="M40 399q-8 3 -14 5.5t-12 5.5q-5 2 -6.5 7.5t-1.5 11.5q0 10 10 12q7 2 13.5 4.5t14.5 2.5q14 1 28.5 1.5t28.5 -0.5q31 -3 25 -41q-1 -6 -1.5 -12t-2.5 -12q1 0 3 -2q3 4 11 10q6 7 12 13l12 12q5 3 8.5 6.5t8.5 5.5q7 4 14 7t15 5q6 2 12.5 0.5t12.5 -3.5q8 -2 15 -5.5
t14 -7.5q5 -3 8.5 -6.5t8.5 -7.5q2 -2 4.5 -5.5t5.5 -5.5q8 -5 10.5 -13t3.5 -18q0 -5 1 -11t3 -12q8 4 10 10.5t4 12.5q5 17 14.5 30.5t21.5 24.5q5 5 10.5 9.5t13.5 1.5q2 -1 3 0t3 1q20 5 39.5 4t38.5 -12q2 -2 4 -2q15 -2 23.5 -13.5t11.5 -28.5q2 -12 3 -24.5t4 -23.5
q4 -17 3 -34.5t-2 -34.5q-2 -21 -3 -42t-3 -43q-1 -12 -1.5 -24.5t-2.5 -25.5q-1 -20 -2 -39.5t-3 -39.5v-9q0 -10 2.5 -12t10.5 -4l12 -2t12 -3q8 -3 8 -13q1 -11 -9 -14h-2q-14 -3 -28 -8t-28 -3q-15 2 -30 2h-29q-5 0 -10.5 0.5t-10.5 -0.5q-10 -1 -15.5 6t-10.5 15
q-6 11 5 14q5 2 10.5 3t11.5 1q11 2 14 12q2 7 3.5 13.5t1.5 13.5q2 28 4.5 56t4.5 56q1 17 1 35t1 35q0 9 0.5 17.5t-0.5 17.5q-1 12 -2.5 24t-3.5 24v17q-2 15 -6 27t-16 20q-10 6 -18 1q-15 -7 -21 -25q-6 -14 -11.5 -27.5t-11.5 -27.5q-2 -8 -5 -15t-5 -15
q-2 -5 -2 -10.5t-2 -10.5q-1 -7 -2.5 -13.5t-2.5 -13.5q-2 -11 -2.5 -22t-2.5 -22q-1 -17 -2 -35t-3 -36q0 -6 -1 -12.5t-2 -13.5q-1 -8 -1 -17t-1 -18q-1 -4 -2 -7.5t-2 -7.5q-3 -14 9 -17q12 -2 20 -4q2 0 3.5 -2t1.5 -4q-2 -7 -5 -9l-12 -4t-12 -3q-10 -1 -19.5 -1h-19.5
q-7 0 -10 -1q-9 -3 -17 -1t-16 5q-4 2 -7 7q-5 11 5 14q8 2 13 2q15 1 16 18v6v183q1 32 -2 62.5t-8 61.5q-3 15 -10 27t-21 17q-7 3 -15 -2q-5 -3 -10.5 -6.5t-10.5 -6.5q-8 -5 -13.5 -13t-9.5 -16q-7 -15 -12 -30t-10 -31q-1 -3 -1 -10q-1 -18 -1 -36.5v-36.5
q-1 -23 -2 -44.5t-2 -44.5q-1 -40 0 -82q0 -8 1.5 -9.5t8.5 -2.5q5 -1 10 -1.5t10 -2.5q9 -2 9 -10q0 -10 -9 -13q-8 -2 -16.5 -3t-16.5 -2q-5 0 -9.5 -1t-8.5 -4q-5 -4 -10 -2q-11 8 -23.5 6t-24.5 -4q-8 -2 -16 -0.5t-16 3.5q-1 0 -1.5 0.5t-1.5 0.5q-5 4 -8.5 8t-1.5 8
q2 6 5 8t8 3t10.5 1.5t10.5 2.5q8 3 8 13q1 20 1.5 41t2.5 42q5 51 5.5 102t0.5 103q0 14 -1 27.5t-2 27.5q0 4 -1 7z" />
    <glyph glyph-name="n" unicode="n" horiz-adv-x="405" 
d="M109 31q6 -2 11.5 -3t10.5 -2q7 -2 12 -4.5t7 -10.5q-4 -4 -8 -4h-9q-2 0 -3.5 1t-2.5 0q-13 -5 -25.5 -2t-24.5 3q-14 -1 -26.5 -1t-25.5 -2q-4 0 -7.5 -1.5t-8.5 -3.5q-13 -5 -18 9q-1 3 -2 5.5t-3 6.5q4 1 7 2t6 1q5 2 11 2.5t11 1.5q8 2 9.5 5t1.5 12q1 12 1 24v24
q1 26 2 50.5t2 49.5q0 9 -0.5 18t-0.5 18q-1 4 -1 11v42q0 8 1 15t1 14v67q0 10 -1 20t-1 20q-1 2 -1 3t-1 3q-8 1 -15 1.5t-15 0.5q-2 1 -4.5 0.5t-4.5 0.5q-4 2 -4 6q-2 4 3 7l10 4t11 1q9 -2 19 -0.5t20 1.5q5 0 10 -1l10 -2q5 0 9.5 -1t9.5 0q14 0 20.5 -5.5t9.5 -19.5
q0 -4 1 -7q8 8 16.5 15.5t16.5 15.5q23 23 55 27q15 2 29.5 0t28.5 -3q16 -2 34 -18.5t23 -42.5q7 -34 4 -72q-2 -22 -5 -42.5t-7 -41.5q-2 -8 -3.5 -16t-4.5 -16q-5 -15 -6.5 -31t-4.5 -32q-3 -14 -5.5 -28.5t-4.5 -29.5q-2 -16 -2 -32t3 -32q14 -3 22 9q6 8 9.5 17.5
t5.5 20.5q2 5 0.5 10t-2.5 10l-3 9q-5 15 8 13q9 0 18 -3q14 -4 8 -17q-6 -11 -8.5 -22.5t-4.5 -23.5q-3 -15 -15 -24q-6 -6 -8 -10q-16 -25 -43 -22q-20 2 -31 12.5t-19 33.5q-7 20 -7.5 39.5t1.5 39.5t3.5 39t3.5 39t4 39t4 39q2 14 2.5 28t1.5 28q0 14 0.5 27.5
t-0.5 27.5q-2 15 -8 30q-17 29 -50 15q-5 -2 -9 -6l-9 -9q-7 -8 -13.5 -16.5t-12.5 -17.5q-5 -7 -9.5 -14.5t-9.5 -15.5q-1 -2 -1 -4t-1 -4q0 -20 -0.5 -39.5t-1.5 -39.5q-1 -21 -1.5 -42t-1.5 -43q-2 -32 -3.5 -65t0.5 -66q1 -5 0.5 -10.5t-0.5 -12.5z" />
    <glyph glyph-name="o" unicode="o" horiz-adv-x="351" 
d="M265 424q8 5 11 11.5t6 13.5q7 14 19 10q10 -3 7 -13q-4 -22 -20 -41q-12 -17 -11 -36q3 -35 1 -70t-7 -70q-3 -19 -4.5 -38t-4.5 -38q-3 -14 -7 -28t-9 -28q-4 -11 -7.5 -22.5t-9.5 -20.5q-8 -13 -16 -25.5t-20 -22.5q-14 -11 -29 -16t-32 -3q-26 3 -48 17t-36 40
q-11 21 -19.5 43t-14.5 45q-1 3 -1.5 5.5t-1.5 5.5q-10 20 -3 36q4 9 0 20q-2 7 -2 13.5v14.5q2 9 1.5 18t0.5 17q1 21 4.5 41t11.5 39q5 8 6 16q3 19 13 31q3 6 5.5 12t5.5 12q7 13 16.5 24t20.5 20q8 7 18 11.5t20 8.5q12 4 24.5 6.5t25.5 4.5q38 5 63 -27q5 -6 8.5 -12.5
t7.5 -13.5q2 -2 3.5 -5t3.5 -6zM176 456q-2 1 -4 1q-1 0 -5 -2q-9 -5 -16.5 -12t-11.5 -18q-9 -19 -15 -41q-9 -26 -14 -52t-8 -52q-3 -21 -3 -41q1 -23 1.5 -45.5t2.5 -45.5l4 -36l4 -36q2 -11 5.5 -21t10.5 -18q5 -7 12 -12.5t16 -3.5q12 3 22.5 10t17.5 20q5 9 8.5 18
t7.5 19q12 32 20 63.5t8 66.5q0 8 -0.5 14.5t0.5 14.5q8 52 5 101q0 3 -0.5 6t-0.5 7q-4 -1 -7 -1.5t-6 -0.5t-6.5 -0.5t-6.5 0.5q-20 4 -33.5 21t-11.5 40q1 9 1.5 18t2.5 18zM209 452q-11 -24 -10 -46q0 -3 2 -5q6 -8 17 -9t18 7q1 2 2 3.5t1 3.5q-3 15 -9.5 26.5
t-20.5 19.5z" />
    <glyph glyph-name="p" unicode="p" horiz-adv-x="369" 
d="M127 429q7 4 7 5q5 12 14 16t20 6q6 1 12 1.5t11 2.5q22 5 44 -9q7 -5 13.5 -9t12.5 -9q13 -11 20 -24q12 -17 21.5 -36.5t11.5 -42.5q2 -8 2 -17v-17q0 -25 -2 -49.5t-6 -49.5q-4 -23 -11 -44t-17 -42q-11 -22 -25 -40t-31 -33q-9 -8 -19.5 -15t-22.5 -9
q-11 -2 -21.5 -3.5t-21.5 -3.5q-7 0 -17 2q-6 1 -7.5 -0.5t-1.5 -8.5q-3 -30 -3 -58q-2 -23 -2.5 -45t-1.5 -45q-1 -19 -2.5 -37.5t-2.5 -37.5q0 -8 0.5 -16.5t0.5 -16.5q1 -18 18 -18q8 -1 15.5 -2.5t12.5 -8.5q2 -2 4 -5t0 -6q-3 -4 -11 -6q-3 -2 -6.5 -1.5t-7.5 -0.5
q-14 0 -28.5 -0.5t-28.5 -0.5q-13 -1 -25.5 -0.5t-25.5 0.5q-3 -1 -6.5 -1t-6.5 -2q-7 -6 -14 -7.5t-15 -3.5q-2 0 -5.5 -0.5t-5.5 1.5q-3 2 -6 5.5t-3 8.5q1 6 4 8l6 4q17 8 35 16q4 2 6 7t2.5 11t1.5 11q1 26 1.5 51.5t2.5 51.5q2 25 3.5 50t2.5 50q1 9 0.5 18t-0.5 18v20
t1 20q1 23 2 45t2 45q0 8 -0.5 16.5t-0.5 17.5q1 15 2 30.5t2 31.5q1 8 1 16.5v16.5q1 10 1 20v20q-1 21 -1 41.5v41.5q-1 3 -0.5 6t0.5 6q0 4 -0.5 7.5t-0.5 7.5q-1 4 -1.5 7t-0.5 7q1 11 -8 10q-5 -2 -9 -3t-9 -2q-4 0 -7.5 -0.5t-6.5 1.5q-9 4 -9.5 14t7.5 18
q5 5 10.5 6.5t11.5 2.5q9 1 17.5 1.5t17.5 1.5q8 1 16.5 1.5t16.5 0.5q17 0 30 -4q16 -3 19 -22q1 -3 1 -6t1 -6zM120 137q0 -15 -0.5 -30.5t-1.5 -31.5q0 -6 -0.5 -12.5t-1.5 -12.5q-1 -9 7 -11h7q12 -2 24 2t23 9q11 4 23 16q5 5 9 11t5 14q2 19 5.5 37.5t5.5 37.5
q2 28 4.5 55t4.5 55q2 29 1.5 59t-3.5 59q0 11 -4 16q-9 11 -23.5 16t-27.5 -2q-5 -3 -10.5 -5.5t-10.5 -4.5l-6 -4l-6 -4q-7 -6 -11.5 -14t-3.5 -19t0 -21.5t-2 -21.5q0 -7 -0.5 -13t-1.5 -12q0 -6 0.5 -11.5t0.5 -11.5l-3 -57q-1 -23 -1.5 -44.5t-1.5 -43.5z" />
    <glyph glyph-name="q" unicode="q" horiz-adv-x="366" 
d="M184 54q-6 -4 -11.5 -7.5t-10.5 -5.5q-14 -6 -29 -10.5t-29 -4.5q-4 0 -5 -1q-7 -5 -11.5 -2t-9.5 7t-9 6.5t-9 5.5q-21 13 -35 40q-13 23 -20.5 48.5t-8.5 55.5q-1 13 -1.5 25t-1.5 25q0 19 1 37.5t5 37.5q5 28 14.5 53.5t20.5 49.5q8 15 21 26t26 18.5t27 12.5
q8 2 11 4q14 6 26.5 6t26.5 -3q7 -2 13.5 -1.5t13.5 0.5q11 -2 22 0q5 0 10 0.5t10 0.5l6 2t5 0q8 -2 14.5 -1t14.5 3q7 2 12.5 -2.5t8.5 -12.5q3 -7 1 -14t-7 -10q-2 0 -3 -1q-9 -5 -11 -8t-2 -17q-1 -39 -1.5 -78.5t-1.5 -78.5q0 -18 0.5 -36t0.5 -35q-1 -17 -2 -32.5
t-2 -31.5l-3 -99q-1 -12 -0.5 -24t0.5 -24v-3q-3 -24 -2.5 -48.5t0.5 -48.5q0 -26 -2 -50.5t-3 -50.5v-42q0 -9 1 -11t8 -4q5 -2 10.5 -3t10.5 -3q3 0 7 -4q7 -8 0 -15q-2 -2 -3.5 -2.5t-3.5 -1.5l-18 -8t-18 -6q-5 -2 -11 -1.5t-12 0.5q-3 0 -9 2q-28 9 -58 -5
q-7 -4 -13.5 -2.5t-13.5 4.5q-2 1 -6 9q-1 1 -0.5 2.5t-0.5 3.5q-1 14 0.5 16t11.5 4q5 1 10 2.5t10 1.5q8 0 10 1.5t2 12.5q1 19 1 37.5v36.5q1 17 1.5 32.5t0.5 32.5q1 29 2 58.5t2 58.5v63q0 4 -1 7zM80 189h1q-1 -16 -1.5 -31.5t-0.5 -31.5q0 -38 20 -57q25 -25 51 -4
q2 2 3.5 2.5t3.5 2.5q16 11 22 35q4 13 6 27t3 28q2 44 3 87t3 87q1 15 0.5 30t-0.5 30q0 6 0.5 12t0.5 12q0 12 -5 21t-15 9q-14 1 -34 -2q-10 -2 -20 -5.5t-19 -11.5q-8 -6 -9 -18q-1 -15 -3 -30t0 -30q0 -1 -1 -1q0 -9 -0.5 -17.5t-1.5 -17.5q-1 -11 -1 -23t-1 -23
q-2 -20 -3 -40z" />
    <glyph glyph-name="r" unicode="r" horiz-adv-x="266" 
d="M25 433q-6 -1 -11.5 -1.5t-10.5 -1.5q-2 0 -3.5 -0.5t-3.5 -0.5q-14 0 -14 14q0 20 13 20q14 0 27 -0.5t27 -0.5h26q2 0 4 -0.5t4 -0.5q14 -5 17 -9t5 -21q1 -3 1 -5.5t1 -6.5q9 5 17.5 8.5t16.5 8.5q34 16 59 -8q1 0 1.5 -0.5t2.5 -0.5q2 2 4 8q1 3 1.5 5.5t1.5 5.5
q4 15 11 13q5 -2 7 -7.5t1 -12.5l-3 -27v-33q-1 -8 -1 -15t-1 -15q-2 -16 -4 -24q-3 -17 -14 -5q-7 9 -7 20q-1 13 -1 25.5t-1 24.5q0 11 -3 16t-11 7q-22 7 -42.5 -6t-30.5 -39q0 -2 -0.5 -3.5t-0.5 -3.5v-71v-50q1 -14 0.5 -26.5t-0.5 -26.5q1 -14 1.5 -28.5t0.5 -29.5
q0 -23 -0.5 -47t-1.5 -48q0 -11 2 -13.5t10 -4.5q7 -1 16 -5q4 -1 8 -7q4 -5 2 -10t-7 -6q-9 -2 -18.5 -1.5t-18.5 3.5q-3 1 -6 1t-6 2q-21 8 -39 0q-4 -2 -11 -2q-6 -1 -12.5 -2t-13.5 -2h-9.5t-9.5 1q-4 1 -7.5 5t-2.5 7q4 8 8 11q5 2 11 3l12 2q6 2 8 3.5t2 9.5
q0 18 -0.5 36.5t-0.5 36.5q-1 12 -1 24.5v24.5t-0.5 23.5t-0.5 22.5v25t1 24q1 16 0.5 31.5t-1.5 31.5q-1 5 -0.5 11t1.5 12v13q-1 16 -1.5 31.5t-0.5 31.5q0 5 0.5 11t0.5 14z" />
    <glyph glyph-name="s" unicode="s" horiz-adv-x="296" 
d="M172 65q2 8 0 17.5t-6 19.5q-3 11 -7 22t-9 22q-8 18 -21 27q-9 8 -17.5 14.5t-17.5 13.5q-21 18 -37 47q-3 4 -5.5 8.5t-4.5 9.5q-14 23 -12 57v28.5t5 28.5q10 29 34 50q13 13 30 24q3 2 5.5 3t5.5 2q6 2 12.5 4t12.5 4q2 0 4 0.5t4 0.5q10 -2 19.5 -3.5t20.5 -3.5
q7 -2 12 6q3 5 6.5 9.5t7.5 9.5q5 9 13 6q8 -5 6 -15l-2 -12t-2 -13q-1 -5 -1.5 -10t-1.5 -10q-1 -10 -3.5 -18t-8.5 -16q-2 -2 -3.5 -5t-6.5 -1q-7 2 -7 10q-1 5 -1 9v8q1 15 -4 20.5t-20 7.5q-37 5 -53 -28q-5 -10 -8 -19.5t-1 -20.5q2 -8 1.5 -17t-0.5 -17q1 -4 1 -7.5
t2 -6.5q6 -14 13 -26.5t17 -23.5q14 -16 28 -31.5t28 -31.5q11 -13 17.5 -28.5t11.5 -32.5v-1q6 -17 6.5 -35t-0.5 -35q-1 -32 -23 -58q-6 -8 -13 -14.5t-16 -11.5q-16 -10 -32 -17t-35 -8q-25 -1 -46 8.5t-37 31.5q-2 2 -3 5.5t-3 6.5q-3 5 -6 10.5t-5 11.5q-10 23 -26 38
q-2 1 -2.5 4t-0.5 5q2 5 10 3q23 -4 49 2q2 0 4 0.5t4 -0.5q7 -3 12 -8q3 -4 1 -7t-5 -6q-5 -5 -8.5 -10.5t-3.5 -13.5q0 -11 2 -20.5t9 -17.5q10 -12 22.5 -18t29.5 -3l22 6t21 12q8 8 13 17t3 20v11z" />
    <glyph glyph-name="t" unicode="t" horiz-adv-x="307" 
d="M152 474q10 0 19 0.5t18 0.5h14.5t14.5 -1q12 0 15 -15q1 -5 2.5 -10.5t-2.5 -10.5q-5 -5 -9 -1l-7 7q-8 8 -17 7.5t-18 -2.5q-7 -2 -13 -1.5t-13 -0.5q-8 0 -8 -9q-4 -33 -4 -58t-1 -58q0 -15 -1.5 -30t-1.5 -30q1 -11 1.5 -21t0.5 -21q2 -16 1.5 -38.5t0.5 -38.5
q0 -2 0.5 -2.5t0.5 -2.5q0 -23 -1 -45.5t0 -45.5q1 -12 3.5 -23.5t4.5 -22.5q0 -2 2.5 -4t4.5 -4q15 -8 28 2q5 5 9.5 11t8.5 12q7 10 10 26q2 9 2.5 18.5t1.5 18.5q0 2 -0.5 3t0.5 3q4 25 -15 42q-6 5 0 14q7 8 15 11t17 5q2 0 5 -2.5t5 -4.5q6 -6 -2 -12q-5 -5 -3 -15
q2 -17 0.5 -33.5t-3.5 -33.5q-2 -11 -3.5 -23t-6.5 -23q-6 -13 -13 -26q-7 -14 -24 -17q-21 -5 -40 -1t-36 23q-14 15 -20.5 33t-12.5 37q-5 20 -7.5 40t-4.5 40q-4 26 -6 55q-2 15 -1.5 29.5t-0.5 29.5v9q-2 26 -1 51t3 51q0 15 -0.5 29.5t-0.5 29.5q0 8 -7 8q-4 0 -8 0.5
t-8 0.5q-9 -1 -17 -4t-14 -12q-9 -13 -17 -3q-3 3 -5 9q0 2 0.5 3.5t0.5 3.5q0 14 4 18.5t17 6.5q14 2 26.5 3t26.5 2q0 11 0.5 20t0.5 18q1 8 1 16.5t1 17.5v7.5t1 8.5q1 17 2 32.5t3 32.5q2 19 4 38.5t8 37.5q1 4 1 11q1 20 18 35q14 13 29.5 21.5t31.5 16.5q9 4 15.5 -1
t5.5 -16q-2 -10 -3.5 -19t-3.5 -19q-10 -41 -13 -88q-2 -31 -5 -61l-6 -60q-1 -8 -1 -17v-19z" />
    <glyph glyph-name="u" unicode="u" horiz-adv-x="381" 
d="M217 95q-5 -8 -8.5 -15t-7.5 -14q-8 -13 -14.5 -26.5t-15.5 -24.5q-15 -19 -34 -27t-43 -2q-12 4 -20.5 12.5t-15.5 19.5q-11 18 -16 38.5t-12 40.5q-3 8 -3 16.5t-1 16.5q-1 27 -2 54.5t-2 54.5q0 11 -1 22.5t-1 22.5q1 26 2.5 50.5t2.5 50.5v43h-13q-5 1 -10.5 0.5
t-10.5 0.5q-10 2 -13 6t-3 16l4 2l4 2q14 2 26.5 4t26.5 0q16 -3 29 4q11 6 21 2q3 -2 7 0q8 4 15 0.5t14 -5.5q8 -4 8 -15q-1 -11 -1.5 -20.5t-0.5 -20.5q-1 -24 -3 -47.5t-5 -46.5t-5.5 -46t0.5 -46q1 -5 0 -10.5t-1 -10.5q0 -17 -0.5 -33t0.5 -33q2 -22 3.5 -44t6.5 -43
q8 -26 26 -9q6 7 11.5 14t11.5 14q4 6 6 8q14 15 22 34t14 39q0 2 0.5 3.5t0.5 3.5q1 21 1.5 42.5t1.5 42.5q1 66 6 132q1 14 2 28.5t3 29.5q3 24 27 21q5 0 9.5 -1t9.5 1q9 3 16.5 1.5t15.5 -2.5q16 -3 15 -20q-1 -10 -2 -19.5t-3 -18.5q-3 -17 -6 -33t-5 -33
q-2 -6 -2 -11.5t-2 -11.5q-6 -21 -8 -43.5t-5 -44.5q-5 -31 -9 -62t-9 -62l-3 -42v-9t1 -9q1 -11 4.5 -15.5t14.5 -6.5q15 -3 23 11q5 8 7.5 15t-1.5 16q-3 11 6 17q5 4 10.5 -1t5.5 -13q-2 -26 -19 -47.5t-42 -26.5q-7 -2 -13 -0.5t-11 8.5q-28 38 -31 82q0 7 -1 14t-6 15z
" />
    <glyph glyph-name="v" unicode="v" horiz-adv-x="349" 
d="M112 431q2 -14 4 -27l4 -26l24 -126q6 -28 11.5 -56t10.5 -56q2 -8 2.5 -15.5t2.5 -15.5q0 -7 3 -17q5 11 8 20.5t6 18.5q6 22 12.5 43.5t11.5 43.5q9 33 17.5 67t16.5 68q2 5 2.5 9.5t2.5 9.5q5 18 -1 39q-1 2 -1.5 5t-2.5 5q-4 11 1 18q2 4 5.5 4h7.5q8 -1 16 -1.5
t16 -0.5q2 -1 5 -0.5t5 -0.5q6 -4 7 -7q2 -4 0 -6l-4 -4q-6 -6 -10 -13q-5 -7 -8.5 -14l-7.5 -15q-2 -3 -2.5 -6t-2.5 -7l-36 -144q-7 -24 -13.5 -48.5t-13.5 -49.5q-8 -28 -16 -55.5t-16 -56.5q0 -1 -0.5 -2t-0.5 -3q-12 -33 -40 -26q-2 0 -3.5 0.5t-3.5 0.5q-7 -4 -11 0
t-7 11t-5 14t-2 15q-2 30 -12 55q-10 26 -13 56q-2 11 -4.5 20.5t-4.5 20.5q-6 25 -13.5 49.5t-9.5 50.5q-2 20 -5.5 40t-10.5 40q-4 13 -7.5 26.5t-3.5 27.5q0 8 -4 18q-3 8 -9 9t-11 1q-3 0 -6 -1t-5 -2q-12 -3 -14 7q-2 5 0 11.5t6 8.5q5 4 10.5 7t11.5 1q7 -2 13 -1
t12 3q8 3 15 -2q4 -4 8 -2l16 2l16 2q15 1 30 0q8 0 15 -1t15 1q11 5 11 -11q2 -9 -3 -15.5t-14 -7.5q-5 -2 -9.5 -2.5t-9.5 -1.5q-1 0 -4 -3z" />
    <glyph glyph-name="w" unicode="w" horiz-adv-x="495" 
d="M141 36q2 6 4.5 12t4.5 13q7 23 13.5 46t13.5 46q2 8 3.5 15t3.5 15q2 5 2.5 11t1.5 11q3 9 5.5 18t5.5 19q4 13 8.5 26t8.5 27q2 6 3 12.5t2 13.5q0 8 8 8q11 1 20.5 2t19.5 1q7 1 13.5 -2t11.5 -8q2 -2 2.5 -6.5t0.5 -8.5q1 -14 0.5 -29t0.5 -29q0 -10 0.5 -19.5
t0.5 -19.5q1 -14 1.5 -26.5t1.5 -26.5q3 -27 5.5 -54t6.5 -54q2 -11 6.5 -20.5t8.5 -19.5q4 -9 14 -6q19 6 25 24q10 31 14 60q3 16 4 32t3 33q1 2 1 6q-3 15 -1.5 29.5t2.5 28.5q2 27 -0.5 53t-4.5 52q-1 8 0 14.5t2 14.5t-0.5 15t-9.5 14q-6 5 -10 11t-8 13q-2 2 -2 4.5
t2 3.5q8 6 13 7q2 0 5 -1l6 -2q9 -2 18 -2t19 2q4 1 12 1q10 0 10 -9q0 -6 -8 -8q-15 -1 -18 -20l-4 -28t0 -28q1 -17 1 -34v-34q0 -16 -0.5 -32t-0.5 -32q-1 -16 -1 -32t-1 -32q-2 -17 -3.5 -33.5t-4.5 -33.5q-2 -11 -4.5 -21t-5.5 -21q-3 -10 -9 -18t-13 -16q-3 -4 -7 -6
t-9 -4q-29 -12 -51.5 -0.5t-34.5 36.5q-8 17 -14.5 34.5t-10.5 36.5q-5 23 -7 47t-3 48q-1 15 -2 30.5t-2 31.5q0 2 -3 5q-1 -2 -2 -4.5t-2 -4.5q-5 -25 -11.5 -49.5t-11.5 -50.5q-5 -25 -11.5 -49t-14.5 -47q-10 -25 -26 -51q-5 -9 -14 -13t-19 -7q-6 -2 -12 -0.5t-11 3.5
q-10 2 -17.5 8t-15.5 12q-2 1 -4 5q-8 15 -14 30.5t-8 32.5q-2 19 -3 37t-2 37q0 20 1 39t1 39q0 17 -1 33.5t-1 33.5q-1 20 -1 39v39q0 5 -0.5 9t-0.5 9q-2 9 -8 6q-7 -2 -13.5 -2t-13.5 -3q-7 -4 -14 1t-8 13q0 8 3 16q2 8 10 8q14 0 28.5 1t28.5 1q8 0 17 -1.5t18 -2.5
q10 -1 19 -1h19q11 -1 22.5 -1.5t22.5 -0.5q9 0 14 -8q7 -12 -6 -14q-5 -1 -10.5 -0.5t-10.5 0.5q-8 -1 -9.5 -2t-2.5 -9q-3 -17 -5.5 -33.5t-1.5 -34.5q1 -12 0.5 -24.5t0.5 -25.5q0 -21 0.5 -42.5t1.5 -43.5q1 -19 1 -38t1 -38q1 -10 1 -19.5t1 -18.5q0 -6 2 -10.5t4 -9.5
h3z" />
    <glyph glyph-name="x" unicode="x" horiz-adv-x="419" 
d="M223 17q-16 38 -29.5 74.5t-30.5 73.5q-2 -2 -4 -3t-3 -3q-13 -20 -25 -40t-23 -40q-7 -12 -12.5 -24.5t-11.5 -25.5q-2 -5 -2.5 -8.5t4.5 -7.5q1 -1 3 -5q6 -12 -6 -16q-10 -2 -17 -2q-10 2 -19.5 2.5t-18.5 -2.5q-7 -2 -13 5q-9 11 4 15q11 3 20 10.5t17 15.5q4 4 4 10
q-1 6 2 9.5t5 7.5q8 11 15 22.5t15 23.5l16 26t18 25q5 7 8.5 15t7.5 16q2 4 1.5 7t-2.5 7q-7 15 -13 30.5t-13 30.5q-8 21 -16.5 42t-17.5 42q-5 12 -11 23.5t-12 23.5q-4 11 -17 13q-10 0 -19 3q-14 5 -25 14q-7 5 -4.5 13t11.5 10q8 2 15 2h15q11 -1 22.5 -3t23.5 -2
t23.5 0.5t23.5 2.5q7 1 13.5 2t13.5 3t13.5 0.5t12.5 -3.5q3 -2 9 -8q5 -7 2 -13q-4 -8 -11 -6q-5 2 -9.5 1.5t-8.5 -1.5q-4 -2 -7 -4q12 -34 23.5 -67t25.5 -67q26 30 43.5 65t35.5 70q-2 2 -3.5 2.5t-3.5 2.5q-1 1 -2 1.5t-2 1.5q-10 8 -8 18q4 9 16 6q8 -1 16.5 -2
t16.5 -1q11 0 21.5 -4t20.5 -9q2 -1 3.5 -3.5t1.5 -4.5t-2 -4t-4 -3q-8 -2 -15 -3t-15 -2q-9 -2 -14 -7q-12 -12 -22 -26t-18 -31q-20 -45 -43 -82q-8 -13 -8.5 -18t4.5 -19q8 -22 16.5 -43.5t17.5 -42.5q9 -24 18.5 -47.5t19.5 -46.5q3 -7 6 -13t6 -13q1 -3 6 -5q3 -1 6 -1
t6 -1q6 -2 7 -3q4 -3 4 -7t-5 -6t-10.5 -4t-11.5 -4q-9 -3 -18 -3q-8 -1 -15 -2t-14 -3q-8 -2 -14 1q-21 6 -39 -6q-4 -2 -7 -2t-6 3q-6 4 -6 8q1 5 7 9q5 4 10 7t11 7z" />
    <glyph glyph-name="y" unicode="y" horiz-adv-x="390" 
d="M200 83q-5 -9 -10 -17t-10 -15q-14 -17 -29 -29q-17 -12 -34 -1q-11 6 -21 3q-12 -1 -19 9q-42 51 -49 119q-3 36 -3 72q0 20 -0.5 40t-0.5 40l2 42l2 42q1 6 1 11.5v11.5q-8 2 -14.5 2.5t-14.5 1.5q-2 1 -3.5 1t-3.5 2q-5 3 -4.5 7.5t5.5 6.5t8.5 4.5t8.5 4.5q7 4 14 4
h15q20 -1 39.5 -1.5t39.5 -0.5q5 -1 9 -2.5t8 -6.5q7 -10 -4 -15q-2 -2 -5.5 -2t-6.5 -1t-10 -1q-1 -18 -2 -34.5t-2 -33.5l-6 -126q-1 -21 -2.5 -42.5t-2.5 -42.5q-1 -11 0 -22.5t2 -22.5q0 -4 0.5 -8t-0.5 -8q-1 -9 3 -15q7 -9 15.5 -12t17.5 -3q15 1 24.5 11t17.5 23
q18 33 24 73q3 17 5 34t2 35v33.5t2 33.5q2 24 1 48.5t0 48.5q1 3 0.5 6.5t-0.5 8.5q-8 -2 -13.5 1t-11.5 6q-7 4 -7 12q1 5 7 11q8 4 12 4q9 0 17.5 -0.5t17.5 -0.5q2 0 4 -0.5t4 -0.5q19 1 37.5 2t37.5 2q5 0 13 -6q1 0 4 -5q2 -7 -1.5 -11.5t-4.5 -11.5q0 -2 -2.5 -3
t-4.5 -2h-3q-11 -1 -12.5 -3t-2.5 -16l-2 -54t-2 -55q-1 -8 -2 -16.5t-2 -16.5q-1 -14 -1 -27t-1 -27q0 -21 0.5 -42t-1.5 -42q-2 -32 -4 -63t-7 -62q-2 -17 -3.5 -33.5t-3.5 -33.5q-3 -31 -10 -60t-22 -55q-3 -5 -4.5 -11.5t-3.5 -12.5q-2 -4 -2.5 -7.5t-2.5 -6.5
q-5 -13 -15 -10q-3 1 -5.5 -1t-5.5 -4q-18 -11 -37.5 -16.5t-39.5 0.5q-31 9 -43 45q-11 30 -15 63q0 4 -0.5 7.5t-0.5 7.5q1 7 0 13t-6 11q-5 3 -3 10q2 4 8 4q5 1 11 1t11 2q8 2 14.5 -9t1.5 -20q-8 -15 -6.5 -30t4.5 -30q1 -13 8 -28q4 -13 12 -20t22 -1q41 17 49 73
q2 12 3 24.5t2 24.5q0 8 -0.5 15t0.5 15q2 27 3 53.5t3 52.5q1 18 1 35.5v34.5q0 2 -0.5 3t-1.5 4z" />
    <glyph glyph-name="z" unicode="z" horiz-adv-x="354" 
d="M40 331q-3 0 -6.5 -0.5t-6.5 -0.5q-6 1 -10.5 7t-3.5 14q0 11 0.5 23t0.5 23q0 8 0.5 14.5t-0.5 14.5q-2 9 3.5 15t9.5 13q2 3 5.5 1t5.5 -4q4 -10 10.5 -10.5t14.5 1.5q11 4 21.5 2t21.5 -2q16 -1 32 -0.5t32 -0.5q5 0 10.5 -0.5t10.5 -0.5q22 2 43.5 1t43.5 4
q12 2 18 -7q5 -9 -1 -19q-8 -11 -15.5 -22.5t-15.5 -23.5q-14 -20 -26.5 -40t-23.5 -42q-14 -26 -28 -50.5t-28 -49.5q-4 -7 -7.5 -13.5t-6.5 -13.5q-34 -64 -68 -130q-2 -3 -3 -6.5t-3 -6.5q6 -5 13 -5.5t13 -0.5q11 1 21 0t21 -2q19 -1 38 -1.5t38 -0.5q7 -1 13.5 -0.5
t13.5 0.5q7 1 8.5 2.5t3.5 9.5q3 21 9 41q2 5 4 9t9 4q7 -1 7.5 -6t1.5 -10q1 -8 0.5 -16.5t0.5 -16.5q0 -2 -0.5 -4.5t-0.5 -4.5q0 -14 -1.5 -18t-13.5 -11q-2 -2 -4 -2q-14 0 -28.5 0.5t-28.5 0.5h-9t-9 -2q-19 -5 -38 -5.5t-39 1.5q-5 1 -11 1h-11q-12 1 -23.5 2t-22.5 1
q-8 0 -16 -0.5t-16 -1.5h-13.5t-13.5 5q-13 11 1 20q6 4 6 10q1 4 1 8t2 8l54 117q14 29 29.5 57.5t30.5 57.5q5 10 8.5 20t7.5 20q9 23 19 46t22 45l4 8q-5 2 -8.5 4t-7.5 2q-15 2 -30 3l-30 2q-15 0 -30 -3q-11 -1 -14 -15q-1 -5 -1.5 -11t-0.5 -11l-1 -1q-6 -11 -5.5 -23
t-2.5 -23z" />
    <glyph glyph-name="braceleft" unicode="{" horiz-adv-x="220" 
d="M141 757q2 -1 4 -3t3 -5q0 -8 -5 -11q-13 -7 -22.5 -17.5t-18.5 -21.5t-17.5 -21.5t-14.5 -21.5q-3 -4 -5 -8t-4 -9l-2 -4q-8 -16 -10.5 -34.5t-0.5 -39.5q1 -14 3.5 -27.5t5.5 -26.5l6 -24l1 -5q2 -10 3.5 -19.5t0.5 -20.5q2 -33 -17 -63l-1 -1q0 -1 -1 -1
q-4 -7 -3.5 -9t6.5 -7l9 -9t8 -9q13 -18 13 -39q0 -14 -1 -29t-3 -29q-2 -9 -3.5 -17t-3.5 -16q-2 -5 -2.5 -9t-1.5 -9q-2 -11 -5 -22.5t-5 -23.5q-1 -4 -3 -14q-2 -5 -2.5 -10.5t-2.5 -10.5q-4 -17 -1 -32q1 -4 1 -11v-6q0 -3 0.5 -6.5t0.5 -6.5l3 -36q5 -33 35 -53l2 -1
q2 -2 5 -3.5t5 -3.5q8 -5 6 -13q-3 -9 -11 -9h-2h-1q-2 1 -5 1.5t-5 2.5l-9 6q-6 5 -12 9.5t-11 10.5q-31 37 -32 82v10q0 5 -0.5 9t-0.5 9q0 3 0.5 6t0.5 7t1 6v6q2 8 0 11q-2 4 1 7v1l20 87q1 4 1.5 7.5t0.5 8.5q0 3 0.5 6t1.5 7q0 2 0.5 3.5t0.5 3.5q1 5 1 11t1 11l3 27
q2 16 -2 27q-7 19 -22 32q-1 1 -2.5 1.5t-3.5 1.5q-2 0 -6 2q-7 3 -9 8q-5 8 4 15q2 2 3 2l2 2q1 1 1.5 1t1.5 1q4 3 6 6q19 24 14 52q-3 15 -7.5 29t-9.5 28q-9 24 -8 47v10q-2 16 3 33l2 7l6 20t7 20q5 12 10.5 25.5t12.5 27.5q7 13 16 24q6 8 14 17.5t17 18.5
q15 13 33 15q1 1 3 1q3 0 5 -2z" />
    <glyph glyph-name="bar" unicode="|" horiz-adv-x="143" 
d="M66 17q0 -3 0.5 -6t1.5 -8q1 -3 0.5 -8t-7.5 -7q-1 -1 -4 -1q-10 0 -14 9q-1 3 -1 8q0 6 -0.5 12t-0.5 13v12.5t-1 12.5v14.5t-1 13.5q-1 15 -1 30t-1 29v18.5t1 18.5v31q0 3 -0.5 6.5t-0.5 6.5q-2 10 -2 15v10v23q1 2 0.5 4.5t-0.5 5.5v5l-1 1q0 3 1 6q3 5 1 15v7v35v10
q-1 5 -1 10v10v9q0 1 -0.5 1.5t0.5 2.5q2 5 2 10v11q-1 4 -1 14q1 5 0.5 11t-1.5 13v12q-1 2 -0.5 3.5t0.5 3.5v5v10t-1 10v47q0 7 -1 13t-1 12q-1 7 -1 13v13q0 6 -0.5 12t0.5 12v21q-1 44 3 83v1q0 4 1 5q1 10 11 10q10 -2 10 -11q1 -1 1 -4v-4q0 -3 -0.5 -5.5t-0.5 -5.5
v-4v-7q-2 -15 -2 -30.5v-31.5q1 -15 0 -30q0 -19 3 -37q0 -5 0.5 -10t0.5 -10l1 -14q1 -13 1.5 -26.5t1.5 -27.5q1 -24 1 -48.5v-47.5v-18q0 -29 0.5 -59t-0.5 -60v-41q-1 -12 -1 -24v-23q0 -13 0.5 -25.5t0.5 -25.5q1 -5 1 -9v-9q0 -4 1 -5v-7q0 -7 0.5 -14t0.5 -14v-32v0z
" />
    <glyph glyph-name="braceright" unicode="}" horiz-adv-x="220" 
d="M11 757q4 2 5 2q2 0 3 -1q19 -2 33 -15q9 -9 17 -18.5t14 -17.5q9 -11 16 -24q8 -14 13.5 -27.5t10.5 -25.5q4 -10 7 -20l6 -20l2 -7q2 -8 2.5 -16.5t0.5 -16.5v-10q0 -25 -9 -47q-5 -14 -9.5 -28t-7.5 -29q-5 -28 14 -52l6 -6q1 -1 1.5 -1t1.5 -1l2 -2q1 0 3 -2
q10 -7 5 -15q-4 -5 -9 -8q-4 -2 -6 -2q-5 -2 -6 -3q-15 -13 -22 -32q-3 -7 -3 -13.5t1 -13.5t1.5 -13.5t0.5 -13.5q1 -5 1.5 -11t1.5 -11q0 -5 1 -7q1 -4 1.5 -7t0.5 -6q0 -11 1 -16l21 -87v-1q2 -2 0 -7t0 -11q0 -2 0.5 -3t0.5 -3v-6q1 -5 1 -13v-18q0 -2 -0.5 -5t-0.5 -5
q-2 -47 -32 -82q-5 -6 -11 -10.5t-12 -9.5q-2 -2 -4 -3t-4 -3t-5 -2.5t-5 -1.5h-1h-2q-10 0 -11 9q-2 8 6 13q2 2 4.5 3.5t4.5 3.5l2 1q30 20 35 53q3 18 3 36q1 3 1 6.5v6.5q1 2 1 6v11q3 15 -1 32q-1 5 -2 10.5t-2 10.5q-2 10 -3 14q-2 12 -5 23.5t-5 22.5q-1 5 -2 9t-2 9
l-4 16t-4 17q-2 14 -2.5 29t-0.5 29q0 23 13 39q5 8 17 18q5 5 5.5 7t-3.5 9l-1 1v1q-20 32 -17 63q-2 11 0 20.5t4 19.5l1 5q2 6 2.5 12t2.5 12q3 13 5.5 26.5t4.5 27.5q3 41 -12 74l-1 4q-2 5 -4.5 9t-4.5 8q-8 11 -15.5 21.5t-16.5 21.5t-18.5 21.5t-22.5 17.5
q-7 3 -5 11q0 3 2 5t4 3z" />
    <glyph glyph-name="asciitilde" unicode="~" horiz-adv-x="328" 
d="M243 414q1 -9 0 -18q-4 -31 -20 -49q-17 -21 -44 -25q-3 -1 -8 -1q-16 0 -29 13t-21 25q-12 15 -20 29q-6 8 -14 9q-3 1 -5.5 1.5t-5.5 0.5q-13 0 -21 -6.5t-13 -14.5q-11 -16 -14 -36v-1v-3q-2 -6 -5 -7.5t-5 -1.5q-5 0 -9 4q-3 4 -6 9t-1 13q1 3 2 6.5t2 6.5
q1 2 1.5 3.5t1.5 3.5q2 8 6 14.5t9 13.5q1 2 2 3t2 3q6 7 14 11q4 3 11 5q2 1 2.5 1t2.5 1h3h2q11 0 21 -1.5t21 -6.5q2 -2 3.5 -3t3.5 -3l12 -15q12 -14 19 -26q6 -9 16 -14.5t21 -5.5q2 0 4.5 0.5t4.5 0.5q7 2 13 8q19 19 17 47v3v7q0 12 11 12q4 0 8.5 -3.5t4.5 -8.5v-4z
" />
    <glyph glyph-name="exclamdown" unicode="&#xa1;" horiz-adv-x="234" 
d="M167 -237q-25 -12 -57.5 -7.5t-66.5 4.5q-6 0 -15 -1.5t-18 -2t-16.5 0.5t-9.5 6q-3 7 2.5 12.5t13 10.5t15 9.5t9.5 9.5q8 21 3.5 51t-6.5 54q-3 64 -2.5 132.5t1.5 136t1.5 132t-3.5 119.5q-11 3 -24.5 3.5t-14.5 11.5t11 13t23 -3q29 6 64.5 1.5t65.5 -6.5
q3 -6 8 -11.5t3 -11.5q-6 -3 -12 -2.5t-12 2t-12 2.5t-12 -1q-6 -8 -4.5 -15.5t2.5 -15.5q4 -68 3.5 -138.5t-1.5 -140.5t0 -139t9 -133q-5 -10 -1.5 -22t6.5 -22q7 -4 15 -6.5t15 -6.5t12 -10t5 -16zM97 562q-10 -9 -22 -10t-23 3t-19 12.5t-10 19.5q-1 7 1.5 16.5t7 17.5
t11 13.5t13.5 6.5q12 1 21 -6t14.5 -19t7 -26.5t-1.5 -27.5z" />
    <glyph glyph-name="cent" unicode="&#xa2;" horiz-adv-x="317" 
d="M6 169q-1 17 -2 33l-2 32t-0.5 31t2.5 30q1 7 1.5 14t1.5 15q2 10 4 14q2 9 5.5 18t5.5 18q4 9 9 17l10 16q8 11 16.5 17t19.5 11q10 5 19.5 9t20.5 5q8 2 15 3t15 -1q5 -3 5 5v26q1 5 1.5 10t1.5 10q0 4 3 6q2 2 5 2q1 0 1.5 -1.5t1.5 -2.5t1 -3q0 -12 1 -23.5t0 -22.5
q0 -5 1.5 -7.5t7.5 -3.5q10 -2 21 -6q6 -2 10.5 -5t9.5 -8q1 -1 2 -1.5t2 -1.5q3 1 3 2.5v3.5v24q0 6 5 7q7 0 10 -6q2 -8 2 -13q1 -2 0.5 -5t0.5 -6q1 -18 1.5 -35t-1.5 -34v-12q0 -8 -5 -11.5t-13 -0.5q-5 2 -5 8q1 5 1 10.5v10.5q1 10 -1.5 18t-6.5 16q-2 5 -5 9t-5 7
q-5 8 -12.5 11t-15.5 4q-8 2 -8 -6q0 -11 -0.5 -22.5t-0.5 -22.5v-15.5t2 -15.5q1 -11 -0.5 -22t0.5 -22q1 -11 0 -21t-1 -21q-1 -6 -0.5 -11.5t1.5 -11.5q0 -8 1 -15.5t1 -15.5v-41v-7.5t-1 -8.5v-5q1 -12 1 -24v-25q0 -8 0.5 -15t0.5 -15v-7.5t-1 -8.5q0 -5 5 -6
q12 -3 21.5 0.5t19.5 11.5q9 7 13.5 16t8.5 20q2 5 2 9v9q-2 17 2 30q0 2 2 6q2 5 6 2q3 -2 6 -3.5t4 -5.5l3 -6q2 -11 2.5 -21t-1.5 -21q-4 -9 -5 -17q-6 -25 -27 -38q-4 -2 -7 -5q-7 -8 -15.5 -12.5t-17.5 -7.5q-8 -2 -14 -4t-6 -7v-30q0 -5 -0.5 -9.5t-1.5 -9.5
q-1 -4 -1.5 -7t-0.5 -6q-1 -7 -8 -7t-7 7v47v17h-7q-4 0 -5 1q-5 5 -11.5 5t-12.5 2q-5 2 -9 3.5t-7 3.5q-10 7 -19 13.5t-18 13.5q-2 1 -6 5q-2 4 -4.5 7.5t-5.5 7.5q-8 11 -14 22t-11 23q-11 25 -15 47q-2 3 -2 10zM81 318q-2 -23 -3 -46t1 -46q2 -19 3 -37t3 -37
q3 -33 18 -63q8 -16 20 -26t30 -12q2 2 2 5v6v53v51v9q1 8 1 16.5v16.5t-0.5 16t-1.5 16v20q-1 10 -1.5 19t-0.5 19q-1 11 -1 21.5v21.5v15v53v14q0 2 -0.5 3l-1.5 3q-4 -2 -7.5 -2.5t-5.5 -2.5q-5 -4 -9 -7.5t-9 -8.5q-7 -7 -11.5 -15.5t-9.5 -17.5q-13 -26 -16 -57z" />
    <glyph glyph-name="sterling" unicode="&#xa3;" horiz-adv-x="400" 
d="M257 743q11 -8 16 -19t8 -24q10 -28 7 -53q0 -9 1 -18t1 -17q0 -6 0.5 -11.5t0.5 -11.5q-1 -3 -1.5 -5.5t-2.5 -5.5q-2 -4 -6.5 -4t-7.5 4q-2 3 -2 9q-2 20 1 34q1 5 0.5 11t-0.5 11q2 17 0 32t-7 31q-6 18 -22 27q-5 2 -7.5 4.5t-6.5 4.5q-5 3 -9 2q-2 -1 -4 -0.5
t-4 0.5q-5 3 -11 -3q-6 -5 -12 -11l-12 -12q-3 -3 -6 -7t-5 -8q-5 -7 -6 -14t-2 -15q-2 -17 -2.5 -33t3.5 -33v-1q-2 -16 1.5 -30.5t2.5 -30.5q0 -10 1 -19t1 -19q-1 -7 -0.5 -13t1.5 -12q0 -8 0.5 -15.5t0.5 -15.5q1 -12 1 -24v-25q0 -7 1.5 -8.5t9.5 -1.5q5 0 11 -0.5
t11 -0.5q12 0 23.5 1t23.5 1q9 1 14 -8q2 -5 -0.5 -8.5t-8.5 -3.5q-11 1 -21.5 1.5t-21.5 0.5h-15t-15 -1q-7 0 -8.5 -2.5t-0.5 -7.5q2 -10 3 -19.5t3 -18.5v-6q-1 -3 -1 -6.5v-6.5q0 -4 -0.5 -7.5t-0.5 -7.5q1 -5 1 -9.5t1 -9.5q0 -2 0.5 -3t0.5 -3v-27.5t-3 -27.5
q-1 -4 0 -7.5t2 -7.5q5 -26 0 -53q-2 -12 -2.5 -24t-2.5 -24q-1 -7 -1.5 -13.5t-0.5 -13.5q-1 -3 -1 -8q2 -7 0.5 -13.5t-2.5 -13.5q-2 -10 -4 -19.5t-4 -20.5q-1 -2 -1.5 -5t-1.5 -5q-1 -8 7 -9q6 0 12.5 -0.5t12.5 -0.5q12 -1 23.5 -1.5t23.5 -0.5q11 0 20.5 -0.5
t19.5 -0.5q4 0 5 -1q8 -3 16.5 -3.5t17.5 -1.5q8 -2 8 6q3 23 0 47q-1 11 -1.5 22.5t-2.5 22.5q0 8 8 6q9 -2 16 -6q3 -1 3 -7q-1 -8 -1 -14.5t-1 -14.5q-1 -11 -2 -20.5t-3 -20.5v-13t-1 -13q-1 -6 -3 -7.5t-9 -2.5q-12 0 -24 -0.5t-24 -0.5q-5 0 -11 0.5t-13 0.5
q-11 2 -21 2.5t-21 1.5q-14 2 -26.5 3t-26.5 1h-39t-39 2q-12 1 -23.5 -0.5t-22.5 -3.5q-2 -1 -5 -1.5t-5 -2.5q-6 -2 -10 1q-7 3 -4 9q1 1 1.5 2t1.5 2q7 7 10.5 15t8.5 16q2 4 2 8q2 5 3.5 9t3.5 9q4 10 7.5 19.5t7.5 18.5q1 2 1 7q-2 26 6 50q6 18 6 36q0 6 1 12t1 12v19
v30t-1 29q-1 11 0 21t2 21q0 6 -1 11.5t0 11.5q0 9 2 19q2 7 1.5 13.5t-1.5 13.5q0 6 -8 6q-17 -2 -35 -2.5t-35 -0.5q-3 1 -6 0.5t-6 0.5t-7 3q-5 7 2 8q4 2 12 2q13 1 25.5 1.5t24.5 1.5q6 1 11.5 1.5t11.5 0.5q5 1 5.5 1.5t0.5 5.5q-2 15 -4 29.5t-1 29.5q1 11 1.5 21
t0.5 21v24v10q2 8 0.5 17t-2.5 17t-1 16.5t3 16.5v6v16.5t-2 16.5q-1 19 5 38q7 32 30 58q10 13 26 19q19 7 38.5 9.5t39.5 -0.5q5 -1 9 -0.5t9 -0.5q11 0 19.5 -6t16.5 -12z" />
    <glyph glyph-name="currency" unicode="&#xa4;" horiz-adv-x="347" 
d="M24 433q-6 11 -11 22.5t-8 24.5q-6 24 -4 51q0 8 -0.5 14.5t1.5 13.5q0 10 2.5 19.5t4.5 18.5q2 11 6.5 20.5t8.5 19.5q7 20 20 31q2 2 2.5 3t2.5 3q-1 1 -1.5 2t-1.5 2q-6 5 -13 15q-2 4 -5.5 6.5t-7.5 6.5q-5 3 -8 8q-3 3 -1 5t4 1q5 -2 9.5 -3t8.5 -6l24 -27
q3 -5 8 -2q8 5 16.5 7t17.5 4q27 7 53 5t51 -15q6 -2 12 2q7 6 13.5 12t14.5 11l6 4l6 4h5q1 -5 -4 -12q-9 -12 -24 -25q-3 0 -3 -2q-9 -5 0 -11q13 -13 20 -28q2 -5 4.5 -11t4.5 -11q5 -9 7 -14.5t4 -15.5q2 -18 2.5 -35t-0.5 -35q-1 -10 -3 -20l-4 -20q-2 -7 -3 -13
t-3 -13q0 -1 -2 -7q-1 -1 -3 -5q-4 -16 -21 -31q-1 -1 -1 -2t-1 -1l18 -18q5 -5 9.5 -10.5t9.5 -10.5q2 -2 2 -6t-3 -5q-1 -1 -5 1q-3 3 -3 4q-7 11 -16.5 19t-19.5 16q-4 4 -10 2q-10 -4 -20 -4t-21 -2q-6 -1 -12 -1.5t-13 -1.5q-32 -3 -69 7q-2 0 -6 2q-5 2 -6.5 1.5
t-5.5 -5.5q-6 -8 -12.5 -15t-12.5 -15q-1 -1 -1.5 -2t-1.5 -2q-3 -3 -8 0q-4 3 -1 8q1 1 1.5 2t1.5 2q5 9 11.5 17.5t13.5 17.5q-2 2 -2.5 3t-2.5 2q-13 6 -21 23zM77 607q-1 -12 -0.5 -23.5t1.5 -22.5q2 -22 5 -43.5t6 -43.5q2 -13 4 -25t6 -25q3 -9 12 -12
q16 -5 31.5 -3.5t30.5 6.5q4 0 6 6q2 5 3 10.5t2 10.5q2 14 2.5 28t1.5 28q1 16 1.5 31.5t0.5 31.5v1v45q0 9 -0.5 18t-2.5 17q-2 10 -5.5 18t-10.5 16q-6 6 -11 6t-9 0.5t-9 1.5q-7 0 -13.5 -1t-11.5 -6q-9 -7 -18 -17q-11 -11 -16 -24.5t-6 -28.5z" />
    <glyph glyph-name="yen" unicode="&#xa5;" horiz-adv-x="403" 
d="M233 722q8 1 15.5 1.5t15.5 1.5h32h4q5 3 10 3t10 1q10 1 19 -0.5t19 -1.5q7 -1 10 -7l6 -9q3 -3 3 -4q3 -7 -4 -7q-5 0 -13 2q-6 3 -10 -4q-8 -11 -14 -21t-11 -21q-4 -8 -7 -12q-7 -9 -13.5 -18t-12.5 -18q-8 -11 -15.5 -23t-14.5 -23q-8 -12 -14.5 -24t-14.5 -23
l-24 -36q-2 -2 -3.5 -4.5t0.5 -6.5q1 0 2 -0.5t3 -0.5q8 1 15 1h14q4 0 7.5 -0.5t7.5 -2.5q2 -1 5.5 -0.5t5.5 0.5q2 -1 4 -0.5t4 -0.5q9 0 9 -8q1 -2 -1.5 -4t-5.5 -4q-2 0 -4.5 -0.5t-4.5 -0.5h-46q-3 1 -11 1q-5 0 -5 -4q-1 -12 -2.5 -24.5t0.5 -24.5l1 -1q2 -1 6 -1
l33 -3q2 0 4.5 0.5t4.5 -0.5t3.5 -1t3.5 -2q5 -3 3.5 -7t-6.5 -5q-6 -2 -9 -2h-17.5t-16.5 1h-3q-7 0 -8 -1.5t0 -7.5v-27q0 -14 -0.5 -29t-1.5 -30q0 -13 -1 -25t-1 -24v-27t1 -26v-21v-44v-74v-5q0 -7 7 -8q8 -2 15.5 -3t15.5 -3q3 0 5 -2t4 -3t2 -4q0 -4 -6 -8
q-13 -6 -26 -5q-9 1 -18.5 1.5t-19.5 1.5q-1 0 -1.5 0.5t-2.5 -0.5q-10 -2 -20 -0.5t-21 1.5q-4 0 -8 -1l-8 -2q-7 0 -13.5 -0.5t-12.5 -0.5q-5 0 -8 2q-4 1 -7 6.5t-1 10.5q1 1 1 2q5 2 10 5.5t11 2.5q4 0 7 0.5t7 0.5q6 0 6 5v47v2q0 26 -0.5 51t-0.5 50q0 14 1 27.5
t1 27.5q1 5 0.5 9t-0.5 9v43.5t1 42.5q0 8 0.5 15.5t1.5 15.5v7q-4 1 -7.5 0.5t-6.5 -0.5q-11 -2 -21.5 -3t-21.5 -1q-7 -1 -9 7q-1 4 2 7.5t7 4.5q11 1 21.5 1.5t21.5 2.5q6 0 9 -1q6 0 6 5q0 8 -0.5 16.5t-0.5 17.5v8q-1 6 -6 5h-10t-10 -2q-8 -1 -15 -1.5t-15 -0.5
q-5 0 -9 0.5t-7 0.5q-4 1 -6 8q0 4 3.5 7.5t7.5 3.5h30q8 1 17 1t18 1q1 3 -1 9l-10 24l-10 24q-14 30 -29 61l-39 81q-4 6 -6 12t-7 11q-1 1 -1 3.5t-2 4.5q-5 0 -8 -1q-16 -2 -29 2q-9 3 -9 12q-2 8 6 9h11q5 0 9 2q11 5 27 3q3 0 6.5 0.5t6.5 -0.5h10t10 -1t10.5 -1.5
t10.5 -2.5q3 -1 6.5 -2.5t2.5 -5.5q0 -5 -3.5 -6t-6.5 -2q-7 -1 -13.5 -1.5t-12.5 -1.5q0 -4 1 -6q3 -11 7.5 -21.5t8.5 -21.5q3 -6 5 -12t4 -11q6 -11 11.5 -21.5t10.5 -21.5l8 -18t9 -19l21 -51q1 -4 4 -8q2 2 2.5 3t1.5 2q8 15 16 29.5t16 28.5q7 11 13.5 23t13.5 23
l14 22t15 22q5 8 11 17l12 18q2 4 4 8.5t4 9.5q1 2 1 3t1 3q-5 1 -10 1.5t-10 0.5q-3 1 -6 1t-5 1q-8 2 -8 9q0 5 8 7l1 1v0z" />
    <glyph glyph-name="brokenbar" unicode="&#xa6;" horiz-adv-x="197" 
d="M78 432q-8 1 -11 6t-3 11t0.5 13t0.5 13q-2 49 -5.5 105t-1.5 109q1 19 0 37t-3 35q-1 8 -3 16t5 15q11 -2 17 -8t12 -11q-4 -53 -3 -104.5t2 -106.5q1 -26 3 -50t1 -47q-1 -8 -2.5 -17t-8.5 -16zM68 375q9 0 11.5 -3.5t2.5 -8v-9.5t4 -8q-3 -7 -2.5 -15t-1.5 -19
q0 -5 -1.5 -10.5t-0.5 -8.5q2 -4 7.5 -6.5t7.5 -5.5q2 -4 0 -9.5t-3 -11.5q-3 -15 -4 -32t-1 -31q-1 -30 -3.5 -62t-1.5 -64q1 -33 0.5 -65.5t1.5 -64.5q-5 -2 -13 -2t-12 2q3 36 3 72t2 74q0 11 1 24t-1 24q-1 3 -3.5 6t-3.5 6q-4 19 -1 44t4 45q1 35 0.5 70.5t4.5 66.5
q0 2 3 2z" />
    <glyph glyph-name="section" unicode="&#xa7;" horiz-adv-x="336" 
d="M27 676q15 25 39 37q27 14 61 14h10t10 1q24 0 43 -10q4 -2 7.5 -3.5t7.5 -3.5q24 -11 38 -35q4 -8 5 -16l2 -16q1 -9 0 -18q0 -5 -2 -11q-5 -11 -15 -4q-11 8 -9 24q1 5 2.5 9.5t5.5 8.5q3 4 0 10q-7 15 -22 26q-7 5 -13.5 9t-14.5 8q-5 2 -11 3.5t-12 3.5q-5 1 -16 -1
q-6 -1 -11.5 -1.5t-11.5 -0.5q-11 -1 -20 -4.5t-17 -8.5q-5 -3 -8 -9t-5 -12q-3 -8 -3.5 -16t-1.5 -16q-2 -14 1 -27t7 -26q3 -9 11 -19q16 -20 41 -36q10 -5 20.5 -11.5t21.5 -11.5q5 -2 9 -4t9 -5q11 -6 19 -14.5t16 -19.5q11 -12 17 -26.5t11 -30.5q3 -9 3 -19
q1 -11 1 -22.5t-2 -22.5q-5 -24 -18 -45q-12 -18 -22 -30q-4 -5 -8.5 -8.5t-9.5 -8.5q-6 -4 0 -9q8 -6 15.5 -11.5t15.5 -12.5q11 -9 21 -19t20 -21q11 -13 17.5 -28t10.5 -32t4.5 -34.5t-0.5 -35.5q-2 -23 -6 -43q-8 -28 -27 -49q-10 -13 -26 -24q-11 -8 -22.5 -12.5
t-23.5 -9.5q-11 -4 -20.5 -5t-20.5 -1q-4 0 -7.5 -0.5t-7.5 -0.5q-5 0 -10 0.5t-10 1.5q-18 3 -30 14l-21 18q-4 4 -7 10q-7 16 -11.5 32t-5.5 33v18.5t3 18.5q2 8 3 15.5t1 15.5q1 5 3 10.5t4 10.5q0 1 5 4q2 1 2.5 1t2.5 1q10 3 10 -7v-15q-1 -3 -1 -9q2 -8 0 -14.5
t-4 -13.5q-3 -10 -5.5 -20t-5.5 -21q-2 -3 0 -6q2 -14 5.5 -26.5t9.5 -24.5q2 -2 3 -4.5t3 -4.5q5 -5 11 -8.5t12 -7.5q9 -6 19.5 -7t21.5 1l10 2l10 2q7 2 12.5 5.5t10.5 8.5q13 13 20 28q5 14 9.5 28t5.5 29q0 8 -5 20q-2 4 -3.5 8.5t-3.5 9.5q-5 16 -13.5 29.5
t-18.5 26.5l-20 26t-20 25q-16 22 -35 36q-23 18 -47 38q-20 17 -27 39q-10 31 -15 65q-2 11 -0.5 23t3.5 23q3 14 7 27t12 24q11 15 29 28q-4 5 -7.5 9t-8.5 7q-8 6 -13 13l-10 14q-5 9 -10.5 18.5t-9.5 19.5q-9 25 -3 50q4 19 10.5 36t14.5 33zM72 437q-6 -16 -2 -31
q2 -6 3 -12.5t3 -13.5q1 -9 5 -15.5t10 -13.5q8 -8 15 -16.5t15 -16.5q7 -8 14 -15l15 -15q5 -6 11 1q2 2 4 6q8 14 11 29t5 31q1 11 -4 25q-5 9 -9 18t-9 17q-4 7 -8 13t-11 11q-10 6 -20 12.5t-21 12.5q0 1 -2 1q-6 3 -10 -2q-11 -13 -15 -26z" />
    <glyph glyph-name="dieresis" unicode="&#xa8;" horiz-adv-x="326" 
d="M144 828q13 0 22 -10t9 -22q-1 -14 -8.5 -22t-20.5 -8h-1q-14 0 -22 9.5t-9 26.5q0 8 7 17q10 10 21 9h2zM33 828q13 0 22 -10t9 -22q-1 -14 -8.5 -22t-20.5 -8h-1q-14 0 -22 9.5t-9 26.5q0 8 7 17q10 10 21 9h2z" />
    <glyph glyph-name="copyright" unicode="&#xa9;" horiz-adv-x="586" 
d="M319 125q-15 -12 -32.5 -14.5t-34.5 -0.5q-19 3 -35.5 11t-28.5 25q-18 24 -32 53q-5 12 -8 25t-5 27t-4.5 28t-3.5 29q-3 35 1 66q1 5 1 10.5v10.5q1 15 1.5 30t2.5 29q2 13 3.5 25.5t5.5 25.5q5 13 10 25t13 23q4 7 10 13l18 18q13 11 28 16t33 6q5 0 8.5 0.5t8.5 0.5
t10.5 -1t11.5 -2q2 -1 3 -1t3 -1q4 0 5 5q0 3 0.5 5.5t1.5 5.5q0 6 5 7q8 0 11 -6q1 -2 2 -5t1 -6q3 -14 5 -28.5t1 -28.5q0 -5 -1 -8q0 -6 -2 -16q0 -3 -1 -5q-2 -9 -7 -9q-8 0 -10 8q-1 5 -1.5 9.5t-1.5 9.5l-3 42q0 6 -7 10q-20 7 -35 -9q-13 -13 -16 -32q-2 -9 -4 -17.5
t-4 -16.5q-2 -11 -2 -21t-1 -20q0 -7 -0.5 -13t-0.5 -13q-1 -2 -0.5 -4.5t0.5 -4.5v-20v-27v-45v-39q1 -7 1 -13.5t1 -14.5q2 -14 3 -29.5t2 -30.5q2 -17 4.5 -33t7.5 -33q2 -6 4 -12.5t4 -13.5q2 -5 2.5 -6t5.5 -1q14 -2 24 7q5 4 9 7t8 7q6 5 9 11t5 12q11 32 14 61
q0 9 1 18.5t-1 19.5q0 4 1 7.5t2 7.5q0 2 5 2q9 -2 9 -11v-20q1 -9 0.5 -18t-2.5 -18q-1 -5 -1 -8.5t-1 -7.5q-2 -9 -6 -18q-5 -16 -11 -30q-4 -8 -10 -14.5t-13 -12.5zM276 3q-14 0 -27.5 2t-27.5 5q-10 2 -19.5 5t-19.5 6q-14 4 -26 10l-24 12q-19 11 -33.5 26t-27.5 32
q-5 7 -9.5 13.5t-9.5 13.5q-13 18 -19.5 37.5t-11.5 39.5q-4 17 -7 34.5t-7 35.5q-2 8 -2.5 17t1.5 18q1 5 0.5 8t-0.5 8q1 11 1.5 21t0.5 19q1 9 0 17t-1 16v18t1 17v17q1 26 3.5 52t7.5 52q1 2 1 3.5t1 3.5q5 16 10 31.5t9 31.5q1 3 2 5.5t1 5.5q1 6 4 11t8 10
q8 10 19 16.5t23 12.5q9 5 17.5 9t18.5 6q11 4 22 7.5t22 7.5q11 3 22 3.5t23 -0.5q14 -1 27.5 -1t27.5 -1q5 0 9 -0.5t9 -1.5q8 -2 15 -3.5t15 -0.5q4 0 6 -2q3 -5 8 -7l10 -4t10.5 -4.5t10.5 -5.5q11 -7 20.5 -15t19.5 -16t18.5 -18t14.5 -21q9 -16 17 -31.5t13 -32.5
q4 -11 6 -21.5t4 -20.5q2 -14 4 -27t4 -27q1 -8 0 -16t1 -15q2 -13 2.5 -25t2.5 -25v-20q0 -7 0.5 -15.5t0.5 -16.5v-16t-1 -17l-2 -28t-3 -28t-5 -27.5t-8 -26.5q-2 -7 -4 -13.5t-4 -13.5q-4 -16 -11 -30t-15 -29q-4 -7 -7 -13.5t-8 -13.5q-6 -12 -19 -21q-7 -5 -13 -9
t-11 -8q-11 -8 -22 -12.5t-22 -7.5q-11 -2 -21 -4t-21 -5h-13q-3 0 -6 1t-6 0zM178 43q8 -6 18.5 -8.5t21.5 -4.5q6 -1 11.5 -1.5t11.5 -1.5q8 -1 15 -2.5t14 -0.5q18 2 35 5t34 11q3 1 6 3t4 5q11 17 20.5 35t14.5 38q4 12 6.5 24.5t3.5 24.5q1 8 2 15.5t2 14.5q2 14 3 28
t3 27v32q2 14 3 27.5t2 27.5q1 16 1.5 33t0.5 34q0 9 -0.5 19t-1.5 19q0 8 -0.5 14.5t-0.5 14.5q-1 18 -3.5 35.5t-5.5 35.5q-2 11 -3.5 22.5t-6.5 22.5q-9 22 -22 45q-5 11 -11.5 20t-15.5 17q-10 8 -21 11q-6 2 -11 4.5t-10 4.5q-3 1 -6 1t-6 1q-2 0 -5 -0.5t-5 -0.5
q-9 0 -18.5 1.5t-19.5 0.5h-13t-13 -2q-5 -2 -9 -3t-9 -2q-9 -1 -17 -5t-16 -9q-9 -6 -14 -18q-7 -14 -13 -27.5t-10 -28.5q-3 -14 -6.5 -27t-5.5 -26q-3 -22 -4.5 -43t-2.5 -41q-2 -25 -2.5 -50t1.5 -51q1 -23 1 -45t1 -45q0 -8 0.5 -16t1.5 -16q1 -13 3 -26l4 -26
q2 -10 3 -20t3 -19q4 -18 7 -36t11 -35q0 -8 4.5 -12.5t9.5 -8.5q6 -4 12.5 -7.5t12.5 -8.5z" />
    <glyph glyph-name="ordfeminine" unicode="&#xaa;" horiz-adv-x="262" 
d="M63 504q-22 7 -35.5 23t-19.5 39q-5 18 -4.5 35t1.5 34l2 16t4 16q5 9 10 17.5t13 16.5q18 20 43 27q9 3 19 3t20 -1q7 -1 14 -2.5t15 -3.5q13 -3 23 -10q5 -4 8 -8.5t5 -9.5q3 -8 3 -15v-14v-50h1v-62q0 -8 2.5 -16.5t5.5 -16.5q2 -4 8 -10q4 -6 -1 -10q-8 -4 -13 -4
q-20 -3 -37 4q-5 2 -8.5 5t-7.5 6q-5 3 -6 3.5t-5 -1.5q-16 -11 -39 -14q-5 -2 -10.5 -0.5t-10.5 3.5zM20 598q2 -14 6.5 -26.5t11.5 -23.5q4 -7 7.5 -12.5t8.5 -10.5q10 -9 18 -10.5t21 3.5q5 2 10 5.5t10 6.5q7 3 7 10q0 6 0.5 11.5t0.5 10.5v114q0 5 0.5 10.5t1.5 10.5
q0 2 -0.5 3t-0.5 3q0 8 -1.5 10t-10.5 2h-1q-26 0 -48 -13q-26 -18 -36 -51q-3 -11 -4 -20.5t-1 -20.5v-12z" />
    <glyph glyph-name="guillemotleft" unicode="&#xab;" horiz-adv-x="286" 
d="M115 355q12 -9 23.5 -18t24.5 -16q11 -6 20.5 -12.5t19.5 -12.5q6 -3 5 -8q-3 -5 -5 -5q-4 -2 -7 1q-9 5 -18 11.5t-18 11.5q-15 9 -29 19t-28 21q-4 2 -5 4q-3 6 2 10q18 14 35 26q13 9 25.5 19t24.5 22l1 1q6 6 10 2q5 -5 0 -11q-6 -5 -11.5 -10.5t-11.5 -10.5
q-11 -8 -22.5 -16t-22.5 -16q-3 -3 -6.5 -5.5t-6.5 -6.5zM24 354q12 -9 23.5 -18t24.5 -16q11 -6 20.5 -12t19.5 -12q6 -4 5 -8t-5 -6q-3 -1 -7 1q-9 5 -18 11.5t-18 11.5q-15 9 -29 19t-28 21q-2 1 -5 4q-3 6 2 10q8 7 17 13.5t18 13.5q13 9 26 18.5t24 21.5q0 1 0.5 1
t0.5 1q7 5 10 1q5 -5 0 -10q-6 -6 -11.5 -11t-11.5 -10l-45 -33q-3 -2 -6.5 -5t-6.5 -7z" />
    <glyph glyph-name="logicalnot" unicode="&#xac;" horiz-adv-x="377" 
d="M285 381q6 -4 9 -10q2 -2 1.5 -4t-0.5 -4v-2q0 -2 -1 -4v-5q0 -11 -1 -22.5t-3 -25.5q0 -2 -0.5 -4t-0.5 -5q0 -5 -0.5 -10t-3.5 -11q-2 -2 -2 -7q0 -2 -0.5 -3t-0.5 -3q-1 -2 -1 -4t-2 -4q-4 -4 -10 -4q-4 0 -5 1q-9 3 -7 14t3 21.5t3 21.5q1 4 1 12v2v32q0 3 -1 3h-2
h-21h-9h-2h-26h-32t-32 -2q-23 -2 -45 -2t-41 -1h-9.5t-9.5 -1q-3 0 -5.5 -0.5t-5.5 -0.5t-5.5 -0.5t-5.5 0.5q-8 0 -11 6q-3 5 1 13q4 5 8 8t12 3q5 -1 8.5 -0.5t8.5 0.5q4 1 13 1h26q5 -1 11 -1h11h1q5 0 10.5 0.5t10.5 0.5l31 1q11 0 21 1t21 1h1q4 0 6 -1h5q6 0 10 1h12
h1h15q3 -1 6.5 -1h6.5h1h11q2 1 7 1h1h2h2q1 0 3 -2z" />
    <glyph glyph-name="uni00AD" unicode="&#xad;" horiz-adv-x="322" 
d="M234 328q2 0 5.5 -1t4.5 -5q2 -5 -2 -11q-3 -5 -7.5 -6t-8.5 -1h-1q-14 -2 -27 0q-10 2 -15 2h-14t-15 -1h-8q-7 0 -10 -1h-6.5t-7.5 -1h-40h-34h-9t-9 -1h-17q-8 0 -11 4t-1 12q2 5 5.5 6t5.5 2q4 0 8 0.5t8 0.5l7 1q2 0 3 -1h1q5 1 13 1q2 0 3 0.5t3 -0.5q5 -1 16 -1
t16 1h15q14 0 27 1l26 2h14q2 0 3 -0.5t3 -0.5h8q12 0 24 -0.5t24 -1.5z" />
    <glyph glyph-name="registered" unicode="&#xae;" horiz-adv-x="665" 
d="M419 552q0 -3 0.5 -5.5t0.5 -4.5q1 -9 1.5 -18t-1.5 -18q-3 -27 -14 -52q-3 -7 -7 -12.5t-8 -10.5q-16 -21 -43 -39l-4 -3l2.5 -2.5t2.5 -1.5l10 -10t7 -11q10 -20 15.5 -40.5t7.5 -42.5q1 -8 1.5 -16t0.5 -16v-52v-11.5t-1 -10.5q0 -2 0.5 -5t-0.5 -5v-24q-1 -7 5 -10
q5 -3 8 -8q4 -6 -3 -8q-3 0 -6 -0.5t-6 0.5q-5 2 -8.5 1.5t-8.5 -0.5q-2 -1 -6 -1q-8 2 -15 1t-15 -2h-18q-2 0 -3.5 0.5t-3.5 0.5q-9 0 -12 8q-3 6 3 9q6 2 10 2q5 1 5.5 1.5t1.5 5.5q1 11 2 21.5t2 21.5q1 18 1.5 36.5t0.5 36.5q0 8 0.5 15t0.5 15q-1 17 -2.5 33t-7.5 31
q-5 19 -17 30q-9 11 -23 11q-3 0 -5.5 0.5t-5.5 0.5q-6 0 -4 -6v-20q1 -11 1 -21.5v-21.5q1 -19 0.5 -37.5t1.5 -36.5q1 -17 2 -33t1 -33q0 -5 0.5 -11t1.5 -11q0 -7 1 -13.5t-1 -13.5q-1 -8 6 -10q4 0 7 -3q7 -4 -1 -8q-6 -5 -18 -5q-4 -1 -8 -0.5t-9 0.5q-4 1 -8 1h-8h-9
q-18 3 -33 -1h-2q-7 -2 -10 0t-7 10q4 7 12 7q3 1 11 1q5 1 5 6v6q-2 8 -2 15v15q0 5 0.5 10.5t0.5 10.5q1 14 1 28t-2 28q0 8 -1 17t-2 17q0 3 1 5.5t0 5.5q2 19 -2 32q-3 11 -3 21t1 21q2 11 2 23t-1 24v13t-1 14v27q0 1 -0.5 1.5t-0.5 1.5q0 12 -1 24.5t-1 24.5
q-1 16 -1 31.5v31.5v2q0 5 -0.5 6.5t-5.5 2.5q-6 0 -9 6q-6 7 1 9q6 3 14 5q5 1 5.5 1.5t0.5 5.5q0 2 0.5 4t0.5 4q0 5 3 5q5 0 6 -4q2 -3 2.5 -6t2.5 -7h5q9 1 18 0q5 0 8.5 0.5t7.5 0.5q6 2 12 2.5t13 2.5h4h31q5 -1 9.5 -1.5t9.5 -0.5q4 -1 13 -1t18.5 -2.5t17.5 -9.5
q5 -3 9 -5.5t8 -5.5l10 -8t8 -10q1 -2 2 -3.5t3 -3.5q4 -4 5 -8.5t2 -9.5zM355 525q1 7 0.5 13.5t-1.5 13.5q0 8 -3.5 15t-5.5 13q-3 7 -8.5 11t-10.5 9q-1 1 -1.5 1t-1.5 1q-8 3 -17 3.5t-17 2.5h-2q-8 -1 -15 -2t-15 -2q-5 -2 -5 -6v-8q0 -11 0.5 -21t0.5 -21q0 -3 1 -6
t1 -6q1 -5 1.5 -10t-0.5 -10q-1 -11 -0.5 -21t0.5 -21q0 -9 0.5 -17.5t1.5 -17.5q0 -8 0.5 -15t0.5 -14q0 -2 0.5 -3t0.5 -3h5q8 1 14.5 3t13.5 4q11 3 19.5 10t15.5 16q6 11 12 21.5t9 23.5q4 11 4.5 21.5t1.5 21.5zM502 82q-7 -8 -13 -15t-13 -13q-14 -13 -31 -20t-35 -12
q-6 -2 -12 -3t-11 -3q-12 -5 -24 -7.5t-23 -5.5q-12 -3 -24 -4t-24 -1q-13 1 -25 0.5t-24 2.5h-3q-14 5 -29 7.5t-29 9.5h-3q-11 1 -19.5 6.5t-16.5 10.5q-26 19 -47 47q-5 7 -10 15.5t-10 16.5q-3 5 -5 10t-5 10q-6 11 -10.5 23t-9.5 24q-3 9 -6 18.5t-7 18.5q-2 8 -4.5 16
t-4.5 16q-3 14 -6 27t-5 27q-2 5 -2 13q0 5 -1.5 8.5t-1.5 7.5q-2 9 -3 18t1 18q0 3 -0.5 6t-0.5 7q-1 16 -2 31.5t-1 31.5q0 15 1.5 30t3.5 30q2 19 7 37l10 36q2 9 6.5 17t8.5 17q2 5 4.5 9t4.5 9q11 34 45 57q12 8 31 13q5 2 9 3.5t9 4.5q5 2 9.5 3.5t9.5 3.5
q11 2 21.5 3t21.5 3l24 3q11 1 22 1.5t22 1.5v-1q13 -1 25.5 -1t25.5 -1q8 -1 15 -2l14 -2q12 -2 24 -5t23 -6q4 0 5 -1q5 -6 12.5 -9t14.5 -7q11 -5 20 -12l18 -14q10 -8 18.5 -17.5t16.5 -20.5q5 -7 8 -14q7 -11 12.5 -21.5t10.5 -21.5q4 -9 6.5 -18t5.5 -19q1 -2 1.5 -4
t1.5 -4q7 -11 11 -22.5t7 -23.5l6 -24t5 -23q1 -3 1 -6t1 -5v-31q1 -4 0.5 -7.5t-0.5 -7.5q-1 -7 -1 -13.5v-12.5q0 -3 -0.5 -6t-0.5 -6q-1 -12 -1 -24t-1 -25q0 -9 -1 -18.5t-1 -18.5q0 -8 -2 -15t-4 -15q-2 -7 -2.5 -14t-2.5 -15q0 -2 -1 -4q-5 -12 -10 -25t-13 -24
q-4 -6 -6.5 -12t-6.5 -11q-5 -10 -11.5 -18.5t-13.5 -16.5zM472 375q0 2 0.5 4t0.5 4v7.5t-1 8.5q0 2 -0.5 5t0.5 6q1 5 0.5 10.5t-1.5 10.5q0 2 -0.5 4.5t-0.5 4.5q-2 14 -2.5 26.5t-1.5 26.5l-3 51q-1 11 -1 21.5t-2 21.5q-6 23 -13 41q-5 11 -11 20t-14 17t-15.5 13.5
t-18.5 9.5q-8 2 -15 5t-15 5q-11 4 -22 5.5t-22 3.5q-11 1 -22 1.5t-22 2.5q-8 1 -14.5 0t-14.5 -1q-8 -1 -15.5 -2t-15.5 -2q-24 -2 -44 -10l-6 -3q-5 -4 -9 -7t-8 -8q-25 -25 -31 -56q-5 -20 -7 -40.5t-4 -40.5q-1 -21 0 -41q1 -6 1.5 -12.5t0.5 -12.5q1 -15 1.5 -30
t-1.5 -30v-7t1 -8q2 -11 2.5 -21t0.5 -21q0 -4 -0.5 -8t0.5 -8q0 -9 2 -18t3 -18q2 -11 2 -22.5t2 -22.5q1 -7 1.5 -14t2.5 -15q1 -8 1 -15t2 -15t2 -15.5v-15.5q0 -17 6 -32q4 -10 3 -17q0 -1 0.5 -2t0.5 -3q1 -3 2 -5.5t2 -5.5q4 -13 8.5 -25t11.5 -24q5 -10 13 -15
q3 -2 7 -4t7 -4q5 -2 9 -3.5t9 -3.5q10 -4 19.5 -7t20.5 -4q8 -1 17 -2t17 -2h16.5t16.5 1t14.5 2t14.5 3q14 2 26.5 7t26.5 10l6 3q16 9 32 27q3 3 6 7l6 8q2 2 3.5 5.5t3.5 5.5q4 8 5 13t1.5 11t1.5 12q2 10 3 20l2 20q2 11 3 22.5t2 22.5q1 8 1.5 16t0.5 16q1 5 1 8v8v24
q2 12 -1 20q-1 4 -1 7.5v6.5q0 5 0.5 8.5t0.5 7.5q0 11 0.5 20.5t1.5 20.5z" />
    <glyph glyph-name="macron" unicode="&#xaf;" horiz-adv-x="383" 
d="M277 876q2 0 5 -2q5 -3 5 -8q0 -4 -1.5 -7.5t-3.5 -5.5t-4.5 -2.5t-5.5 -1.5l-8 -1q-7 -1 -14 -1.5t-15 -0.5h-2q-12 0 -25 3q-5 1 -9.5 1.5t-11.5 0.5q-10 0 -15 -1h-12q-5 -1 -11 -1h-11h-5q-14 0 -29 -0.5t-29 -0.5h-9.5t-9.5 1h-9l-6 1h-15q-9 0 -15 9q-5 6 -3 14
q1 2 3 4t7 4q6 2 12.5 2.5t13.5 1.5h16h2l5 1q3 -1 6 -1t6 -1q6 -1 12.5 -1.5t12.5 -0.5h7q9 0 18 0.5t19 0.5h28h10q5 0 8.5 0.5t8.5 0.5q11 0 24 -1t27 -3q3 -1 5.5 -1t4.5 -1q4 -1 7 -1t6 -1z" />
    <glyph glyph-name="degree" unicode="&#xb0;" horiz-adv-x="197" 
d="M72 704q5 -2 10 -3.5t10 -3.5q8 -3 11.5 -8.5t6.5 -12.5q2 -7 4 -13.5t3 -13.5q1 -11 -1.5 -22.5t-12.5 -19.5q-6 -6 -13 -9q-4 -2 -7.5 -2.5t-7.5 -3.5q-2 -1 -3.5 -0.5t-3.5 0.5q-5 2 -10 4.5t-10 4.5q-8 2 -13.5 7t-10.5 10q-4 5 -7.5 10.5t-5.5 12.5q-2 8 -3 13
q0 17 9 31q5 8 12.5 14t19.5 8q11 1 23 -3zM65 616q1 9 1 17t1 16q0 20 -5 34q-2 9 -12 5q-8 -2 -13 -8.5t-9 -14.5q-2 -5 -3.5 -11t0.5 -12q5 -12 13.5 -19t19.5 -11q5 -3 7 4z" />
    <glyph glyph-name="plusminus" unicode="&#xb1;" horiz-adv-x="309" 
d="M212 229q3 -7 -1 -14q-3 -3 -10.5 -4.5t-16.5 -1.5t-17 0.5t-11 0.5l-32 -1h-1v-16v-12.5t1 -12.5q0 -7 1 -14t1 -14q1 -7 1 -13.5v-14.5v-5q0 -2 -1 -6t-7 -6q-1 -1 -5 -1q-6 0 -11 5q-6 6 -6 15q0 8 -0.5 16.5t0.5 17.5l1 14v2q-3 5 -3 9.5v8.5v8q0 8 1 12v4v1h-1h-5
q-4 0 -12 -0.5t-16 -0.5t-16 -0.5t-12 -0.5h-2h-6q-16 0 -16.5 11t14.5 13q8 1 27 1.5t27 1.5q5 1 8.5 1t8.5 1h2v3v20v21q0 2 0.5 4t0.5 4v8v11q-1 3 -1 9v9v4q0 5 5 5h1q16 0 18 -16q2 -13 2 -25.5v-25.5v-28v-2h3h9h57q2 0 3 0.5t2 0.5q10 0 15 -7zM234 61q2 0 5.5 -1
t4.5 -5q1 -6 -2 -11t-7.5 -6t-8.5 -2h-1q-7 -1 -14 -0.5t-13 1.5q-5 1 -15 1q-7 1 -14 0.5t-15 -0.5h-8q-3 -1 -10 -1q-4 -1 -14 -1h-40h-17.5t-16.5 -1h-18h-17q-7 -1 -11 4q-3 4 -1 12q2 5 5.5 6t5.5 1q4 1 8 1t8 1l7 1q1 0 1.5 -0.5t1.5 -0.5h1q4 0 7 0.5t6 0.5h6
q5 -1 16 -1h16q4 0 7.5 0.5t7.5 0.5q14 0 27 0.5t26 1.5q8 2 14 0h6h8q12 0 24 -0.5t24 -1.5z" />
    <glyph glyph-name="uni00B2" unicode="&#xb2;" horiz-adv-x="222" 
d="M15 621q-8 7 -9 18q-5 15 0 32q2 8 4 14.5t6 13.5q5 8 11 12t14 8q8 5 17.5 6.5t20.5 3.5q7 2 14 0t14 -3q4 -2 8 -3.5t7 -5.5q0 -3 3 -3q11 -6 15.5 -15.5t6.5 -20.5q1 -11 -1 -22t-4 -21q-5 -23 -13 -44t-22 -39q-2 -3 -4 -5.5t-4 -5.5q-5 -6 -8.5 -12t-5.5 -14
q2 -3 4.5 -3h5.5q6 1 12.5 1t12.5 1q8 1 15.5 1t15.5 1q5 0 7 -1q4 -1 4 -7q0 -1 -0.5 -1.5t-0.5 -1.5q0 -8 -2 -9.5t-9 -1.5q-8 1 -15 0.5t-14 -0.5q-2 0 -4 -0.5t-4 0.5q-18 2 -35 0t-34 -3q-10 -1 -24 4q-4 2 -6.5 5t-4.5 6q-2 4 1 7q17 20 25 39q1 3 3.5 5.5t3.5 5.5
q12 16 22 31.5t13 35.5q3 25 -3 52q-2 7 -7 8q-8 4 -16.5 5t-16.5 -4q-5 -2 -6 -5q-2 -5 -4 -15q-2 -9 -2.5 -18t1.5 -18q1 -3 -2 -8q-3 -2 -6 -6z" />
    <glyph glyph-name="uni00B3" unicode="&#xb3;" horiz-adv-x="239" 
d="M11 653q-13 6 -10 22q2 6 5 9.5t6 7.5q4 3 7 7q8 9 18 13t21 7q2 1 4 1t4 1q17 5 33 0.5t30 -15.5q25 -19 18 -49q-4 -17 -13 -33q0 -1 -0.5 -1.5t-0.5 -1.5q-2 -5 -1.5 -6.5t5.5 -3.5q23 -7 27 -32q3 -15 0 -31q-3 -20 -16 -33q-2 -2 -5 -3.5t-6 -3.5q-19 -8 -43 -13
q-14 -4 -30 -1q-9 1 -16 3.5t-14 5.5q-13 6 -23 20q-4 4 -2 8q2 2 5.5 3t5.5 -1q2 -1 2.5 -1.5t2.5 -1.5q5 -4 9 -7l8 -6q11 -8 27 -10q7 -2 11 1t9 8q21 19 13 49q-2 8 -11 15t-17 8q-5 1 -11 1.5t-11 -1.5q-9 -2 -18 5q-5 4 0 9q3 2 9 4q5 2 9.5 3t9.5 1q2 -1 4 0.5t4 3.5
q5 5 7.5 11.5t4.5 13.5l3 15q1 9 -0.5 17t-8.5 13q-4 4 -5 6q-10 8 -24 5t-22 -15q-2 -5 -5 -9.5t-4 -10.5q-1 -3 -5 -7z" />
    <glyph glyph-name="acute" unicode="&#xb4;" horiz-adv-x="189" 
d="M13 785q4 8 7 11q4 5 7.5 9t7.5 8q3 3 6 6.5t6 6.5q7 7 13 14t12 15q3 4 6 7.5t7 7.5q4 6 10 6q1 0 7 -2q7 -5 8 -9q1 -3 -1 -9q-3 -5 -6 -9t-6 -7q-5 -6 -9.5 -11.5t-9.5 -10.5t-9.5 -10.5t-9.5 -10.5q-3 -3 -5.5 -6.5t-4.5 -6.5q-2 -2 -3 -3.5t-3 -3.5l-1 -2
q-2 -2 -3 -3.5t-3 -3.5t-4.5 -4t-6.5 -2q-1 0 -2 0.5t-2 0.5q-6 2 -8 6t-3 8l-1 2l1 1q1 2 1.5 2.5t1.5 2.5z" />
    <glyph glyph-name="mu" unicode="&#xb5;" horiz-adv-x="397" 
d="M329 33q6 -2 6 -9t-8 -7q-11 -1 -21 -1t-21 -1h-5q-17 0 -17 17q0 5 0.5 10.5t-1.5 11.5q-2 -2 -4.5 -3t-4.5 -3q-8 -8 -16.5 -12t-18.5 -10q-11 -6 -23 -8t-23 -4t-21 -1.5t-20 1.5q-4 0 -8 1.5t-8 3.5h-3q-1 0 -1 1q-4 -4 -2 -12q2 -9 1 -17.5t-2 -17.5q-1 -6 -1 -11.5
v-11.5q-1 -17 -1 -32.5v-31.5q0 -11 -0.5 -20t-0.5 -19q0 -5 0.5 -8.5t0.5 -7.5q-1 -9 -1.5 -18.5t-0.5 -17.5q0 -7 0.5 -13t1.5 -13q0 -4 0.5 -8.5t0.5 -9.5q1 -5 2 -6t6 -2h25q6 0 6 -6q2 -6 -5 -9q-4 -1 -12 -1q-5 0 -9 -0.5t-8 -2.5q-4 -3 -10 0q-3 2 -10 2
q-11 0 -22 0.5t-22 0.5q-6 0 -12.5 -0.5t-13.5 -0.5q-8 0 -16 -0.5t-16 -0.5q-7 0 -7 7t6 9q4 1 8 1t8 1h6q7 2 8 4t-1 7v12q0 12 0.5 25t0.5 25q1 7 0.5 13t-0.5 13q-1 5 -0.5 10t-0.5 10v33t-1 33v32q0 16 -0.5 31t-0.5 32q0 11 -0.5 22.5t-0.5 22.5q0 16 0.5 32t0.5 33
q1 5 1 9.5v9.5q0 4 -0.5 8.5t-0.5 9.5q0 16 0.5 31.5t0.5 31.5q0 14 0.5 28.5t-0.5 28.5q-1 23 -1 45v45q1 8 0.5 16.5t-1.5 16.5q-3 1 -5.5 1t-4.5 1q-9 1 -9 9t8 11q11 4 24 4h14q5 -1 10 -0.5t10 0.5h1h44h10.5t11.5 -1q6 0 8 -6q1 -6 -5 -9q-11 -5 -24 -7q-5 0 -8 -1
q1 -8 1 -16.5t1 -16.5v-25v-56q-1 -7 0.5 -13.5t3.5 -12.5q2 -10 2 -19v-18v-33q0 -5 0.5 -9t0.5 -9v-35q-1 -6 -0.5 -12.5t-1.5 -13.5q-1 -6 -0.5 -12.5t1.5 -12.5v-5q-2 -8 -1 -15.5t2 -15.5v-24q0 -7 6 -10q4 -2 7.5 -2.5t8.5 -2.5h6.5t5.5 2q3 2 6 2.5t6 2.5
q11 5 18 12.5t12 17.5t9.5 19.5t6.5 20.5q1 7 1.5 12.5t1.5 11.5q1 11 1.5 21t1.5 21q1 9 1.5 17.5t0.5 17.5q1 15 0.5 31t0.5 32q0 15 0.5 30t0.5 30v60q0 5 -0.5 11t-0.5 11q0 4 -5 5q-5 0 -10 -0.5t-10 0.5q-10 0 -10 8q-3 8 5 10q5 2 9 2t9 2q7 1 12.5 2t12.5 1q5 0 9 1
t7 0q8 -1 14 0t13 1q8 2 16.5 2.5t16.5 -1.5q5 0 11.5 -1t12.5 -1q8 -2 8 -9t-7 -8q-5 -1 -10.5 -1h-10.5q-2 -1 -3 -0.5t-3 0.5q-1 -4 -1 -7.5v-6.5q1 -6 1 -12.5v-13.5v-32q-2 -17 -2.5 -32.5t-1.5 -32.5v-7v-5q0 -32 -0.5 -63t-1.5 -61q-1 -12 -2 -23.5t-2 -23.5
q-1 -14 -1.5 -28.5t-0.5 -28.5v-5q1 -4 1.5 -4.5t5.5 -0.5q8 -1 14.5 -1h14.5q2 0 4 -0.5t4 -0.5z" />
    <glyph glyph-name="paragraph" unicode="&#xb6;" horiz-adv-x="441" 
d="M245 -26q-2 -9 -9 -8q-10 0 -15 -5q-2 -2 -5 -2h-6q-6 1 -12 1h-11q-11 1 -20.5 1t-19.5 1h-9q-2 0 -8 2q-3 1 -3 5q0 2 1 3t2 3q1 0 2 1q9 2 18.5 5t18.5 5q5 2 6 3t1 6v28v2q-5 14 -3 27.5t2 27.5v22t-1 22q0 6 -1 12t-1 12q0 4 -0.5 7.5t-2.5 7.5q-1 1 -1 5
q1 8 1 17.5v18.5q1 20 1.5 38.5t1.5 37.5q2 8 2 14q1 5 1.5 11t0.5 12q1 22 2 43t0 42q0 17 -1.5 33t-3.5 33v17v9q-3 -1 -5.5 -1t-4.5 -1q-24 -10 -48 -2q-2 -1 -7 2q-6 4 -12 5t-13 3q-18 5 -32 10q-5 1 -9 6q-3 3 -5.5 6.5t-6.5 6.5q-26 24 -33 59q-2 13 -4 25.5t0 26.5
q3 18 7.5 34.5t12.5 33.5q5 8 11 15t12 13q5 5 11 9.5t11 8.5q5 5 11 8q15 7 30 11.5t32 6.5q11 2 21.5 3t21.5 -3q3 -1 6 0.5t6 1.5t6 -1.5t5 -0.5q8 5 20 2q12 -2 24 -2h24q13 0 25 0.5t25 0.5q12 0 24.5 -0.5t24.5 -0.5l2 -1q10 0 10 -7t-10 -9q-4 -1 -8 -1h-8
q-5 -1 -11 -1t-11 -1q-6 0 -6 -6q-2 -5 0 -9v-4v-26t-1 -25q-1 -11 -1.5 -23t-0.5 -23q-1 -11 -0.5 -21.5t0.5 -21.5q0 -6 -1 -11.5t-1 -12.5q0 -13 -0.5 -25t-0.5 -25v-3q3 -14 2.5 -26.5t0.5 -26.5q0 -10 0.5 -20.5t0.5 -21.5v-32q1 -8 1.5 -17.5t0.5 -17.5q0 -2 1 -3
t-1 -3q-5 -10 -4.5 -19.5t0.5 -19.5q-1 -16 -1 -31.5t-1 -31.5q0 -13 -0.5 -25t-1.5 -25q0 -2 0.5 -4t-0.5 -4q-8 -37 -3 -74v-8q-1 -20 -1 -38.5t-1 -38.5q0 -14 0.5 -27.5t1.5 -27.5q0 -7 8 -6q22 2 40 -1l4 -2t2 -2q1 -3 -3 -9q-1 -2 -2.5 -4t-3.5 -4q-3 -3 -4 -3
q-9 -3 -20 -3h-14t-14 1h-21q-2 0 -2.5 -0.5t-2.5 0.5q-3 1 -5.5 1.5t-4.5 3.5q-1 3 1 7.5t5 6.5q3 3 8 3q6 2 10 3v26q0 15 -0.5 30.5t1.5 30.5q1 2 0.5 5t-0.5 6q-1 15 -1 30v31q0 28 -0.5 55t1.5 54q1 12 0.5 23t-0.5 22q0 14 0.5 27.5t0.5 27.5q0 3 1 5q5 9 4 17.5
t-2 18.5v6q2 8 1.5 17t-0.5 18q-1 19 -0.5 38t1.5 38q0 6 -0.5 12t-0.5 12q1 11 1.5 22.5t0.5 22.5v82q0 11 -0.5 23.5t-0.5 24.5q-1 14 -1 27.5t-1 26.5q0 7 -6 7q-13 0 -25.5 -0.5t-24.5 -0.5q-4 0 -7 0.5t-7 0.5q-7 1 -13.5 1h-14.5q-5 0 -6 -6v-4q-1 -32 -1 -64.5
t-1 -65.5q-1 -16 -1.5 -32t-0.5 -33q0 -19 0.5 -37t1.5 -37v-45q1 -11 1 -23.5v-24.5q0 -4 1 -6q4 -10 2 -23q0 -23 -0.5 -47t-1.5 -48v-93q0 -18 -0.5 -36t0.5 -35q2 -21 1.5 -42.5t-0.5 -42.5v-21q1 -8 3.5 -10.5t10.5 -2.5h26q3 0 5 -1q7 -1 6 -7z" />
    <glyph glyph-name="periodcentered" unicode="&#xb7;" horiz-adv-x="238" 
d="M49 327q-7 1 -13 6.5t-10.5 13.5t-7 16.5t-1.5 16.5q2 10 10 18.5t18.5 12.5t22 2.5t21.5 -9.5q3 -13 1.5 -27t-7 -25.5t-14 -18.5t-20.5 -6z" />
    <glyph glyph-name="cedilla" unicode="&#xb8;" horiz-adv-x="209" 
d="M53 -159q24 0 39 -17q14 -19 11 -42q-3 -17 -11 -26q-15 -20 -41 -20q-7 0 -10 1q-5 1 -8.5 1.5t-7.5 1.5q-5 1 -10 9q-3 9 -2 13q3 11 17 8h2q5 -1 11 -2t11 -1q3 -1 6 0t5 2q11 5 14 15q1 10 -8 20q-8 7 -17 7q-4 -1 -13 -1q-5 -1 -10 -1t-10 -1h-3q-8 -2 -12 3
q-3 4 -3 10t3 10l3 6q3 4 7 10q2 5 4 9t4 9q3 4 4 8q2 4 2 5q5 9 11 9q4 0 5 -1q14 -8 8 -21q-2 -3 -3 -5.5t-3 -5.5q-2 -2 -2.5 -4.5t-2.5 -4.5l-2 -4h2h1h4h5v0z" />
    <glyph glyph-name="uni00B9" unicode="&#xb9;" horiz-adv-x="209" 
d="M3 677q-1 1 -2 1t-2 2q4 6 5 7q5 6 10.5 11.5t11.5 10.5q12 10 27 7q7 -1 13.5 -1t13.5 -1h3q9 -1 11.5 -3.5t2.5 -12.5q1 -13 1.5 -25t1.5 -25q1 -9 1 -19t1 -19q0 -6 0.5 -11.5t0.5 -11.5v-24q1 -8 1.5 -16t0.5 -16q0 -3 5 -5q4 -1 7 -1.5t7 -1.5q5 0 6.5 -2.5
t3.5 -5.5t0.5 -6t-5.5 -4h-5q-8 1 -15.5 1.5t-15.5 1.5h-42q-4 0 -8 -0.5t-8 -0.5q-9 -1 -15.5 2.5t-12.5 9.5q-4 4 1 7q7 4 15 2q3 0 5.5 -0.5t5.5 -0.5q6 0 6 7v36q0 16 -0.5 31.5t-0.5 31.5q0 14 0.5 29.5t0.5 29.5v8q-3 -2 -7 -4l-9 -9t-8 -9q-6 -6 -13 -1z" />
    <glyph glyph-name="ordmasculine" unicode="&#xba;" horiz-adv-x="232" 
d="M64 497q-20 5 -31.5 18t-18.5 30q-8 20 -10 40.5t0 40.5q0 13 4 25q7 18 13 31q4 7 11 14q13 13 30 16q14 4 28 2.5t28 -6.5q9 -1 14 -10q5 -8 8.5 -15t6.5 -15q5 -14 6.5 -27.5t2.5 -27.5v-11q0 -11 -0.5 -20.5t-1.5 -19.5q-2 -27 -19 -47q-4 -5 -10 -8.5t-13 -6.5
q-11 -7 -23.5 -6.5t-24.5 3.5zM35 673q-9 -14 -12 -29.5t-3 -35.5q1 -5 1.5 -13t1.5 -17q2 -14 6.5 -27.5t15.5 -25.5q12 -12 29 -15q4 -1 6 2q1 1 4 6q2 7 3.5 13t3.5 13q1 5 1.5 11.5t0.5 12.5t-1 12t-1 12q-1 5 -1 10.5v10.5q-1 8 -1.5 15t-2.5 13q-2 8 -3 15.5t-3 15.5
q-2 4 -4.5 8t-4.5 9t-3.5 6t-7.5 -1q-9 -3 -14.5 -8.5t-10.5 -12.5z" />
    <glyph glyph-name="guillemotright" unicode="&#xbb;" horiz-adv-x="286" 
d="M100 355q-3 4 -6.5 6.5t-6.5 5.5q-11 8 -22.5 16t-22.5 16q-6 5 -11.5 10.5t-11.5 10.5q-5 6 0 11q4 4 10 -2l1 -1q12 -12 24.5 -22t25.5 -19q17 -12 35 -26q5 -4 2 -10q-1 -2 -5 -4q-14 -11 -28 -21t-29 -19q-9 -5 -18 -11.5t-18 -11.5q-3 -3 -7 -1q-3 0 -5 5q-1 4 5 8
q10 6 19.5 12.5t20.5 12.5q13 7 24.5 16t23.5 18zM191 354q-5 6 -13 12l-45 33q-6 5 -11.5 10t-11.5 11q-5 5 0 10q3 4 10 -1q0 -1 0.5 -1t0.5 -1q11 -12 24 -21.5t26 -18.5q9 -7 18 -13.5t17 -13.5q5 -4 2 -10q-3 -3 -5 -4q-14 -11 -28 -21t-29 -19q-9 -5 -18 -11.5
t-18 -11.5q-5 -2 -7 -1q-4 2 -5 6t5 8q10 6 19.5 12t20.5 12q13 7 24.5 16t23.5 18z" />
    <glyph glyph-name="onequarter" unicode="&#xbc;" horiz-adv-x="410" 
d="M124 145q2 9 4.5 17.5t4.5 17.5q3 13 6 30q2 8 2 12q1 4 1 7.5t1 7.5q2 8 2 10q2 5 3 10.5t3 11.5q1 2 1 4.5t1 5.5v4v1q0 3 2 5q2 3 3 7l2 8q0 2 0.5 4t0.5 4q2 8 3.5 16.5t3.5 16.5l2 9q2 8 4 20l2 8q0 2 1 4q4 5 4.5 10t2.5 11q0 4 2 12q2 6 3 12t2 11q0 4 2 12
q0 4 2 8q0 3 1 4q2 12 4 19q2 12 4.5 23.5t4.5 23.5q2 6 2.5 12t1.5 12l2 12t3 13q2 6 2.5 12t2.5 11l2 10t3 10q5 23 10 42t11 37v1q1 2 1 3t1 2q4 11 13 7t6 -13q1 -1 1 -4l-2 -3q-1 -4 -3 -10q0 -3 -1 -5q0 -2 -0.5 -3t-0.5 -3q-5 -14 -8 -29t-7 -30q-2 -8 -3.5 -15
t-3.5 -15q-2 -9 -3 -18t-3 -18q0 -5 -1 -9.5t-2 -9.5l-1 -14q-2 -13 -4.5 -26t-5.5 -26q-5 -24 -11 -47.5t-10 -46.5l-3 -18q-5 -29 -12 -56.5t-15 -56.5q-2 -11 -4.5 -20.5t-4.5 -19.5q-3 -11 -6 -22.5t-5 -23.5q-2 -11 -5 -23.5t-5 -24.5q-2 -5 -2.5 -9t-1.5 -9
q0 -3 -1 -5v-7q-1 -7 -2 -13.5t-3 -12.5q-2 -8 -3.5 -16t-3.5 -16q-1 -3 -1 -6t-1 -8q0 -3 -1.5 -7t-8.5 -5h-1q-11 0 -13 12q-1 2 -0.5 3.5t0.5 3.5q2 6 2.5 12.5t2.5 11.5q1 7 1.5 13t2.5 12q1 7 3 13.5t3 14.5q2 14 5 28t6 29zM6 665q-1 1 -2 1t-2 1q4 6 5 7q8 11 22 23
q10 9 27 6q7 -1 13 -1t13 -1h3q10 -1 12.5 -3.5t2.5 -12.5q1 -13 1 -25t2 -25q0 -9 0.5 -19t0.5 -19q1 -6 1 -11.5v-11.5v-24q1 -8 1.5 -16t0.5 -16q0 -3 5 -5l15 -3q7 0 9 -8q2 -3 0.5 -6t-4.5 -4h-5q-8 1 -15.5 1.5t-15.5 1.5h-43q-4 0 -8 -0.5t-7 -0.5q-16 -1 -29 12
q-2 5 1 7q6 4 16 2q3 0 5.5 -0.5t5.5 -0.5q5 0 5 7v36q0 16 -0.5 31.5t-0.5 31.5q0 14 0.5 29.5t0.5 29.5v8q-2 -2 -6 -4l-9 -9t-9 -8q-6 -7 -12 -1zM321 8q-5 0 -10.5 0.5t-10.5 1.5q-3 0 -6.5 0.5t-7.5 0.5q-13 1 -14 14q0 11 -1 23.5t-2 24.5q0 4 0.5 8t0.5 8q0 6 -6 6
h-10t-10 -1q-17 -2 -32 3q-14 3 -11 19q3 8 5.5 15.5t5.5 15.5q2 5 3 11.5t3 12.5q3 9 6 18.5t7 19.5q2 5 7 7q11 4 9 -9q-2 -9 -4.5 -17.5t-4.5 -16.5q-4 -16 -8.5 -31t-6.5 -32q6 -2 9 -2q7 0 14.5 0.5t15.5 0.5q6 0 7 1t1 8q1 9 0.5 18.5t-0.5 18.5v29q-1 5 -1 10t-1 10
q0 9 6 9q16 4 25 1q3 -1 6 -0.5t5 -0.5q6 0 9 -1q7 -2 9 -4.5t2 -10.5q1 -10 1 -20t1 -21q1 -8 1 -17t1 -17q1 -6 1 -13v-14q0 -8 0.5 -16t0.5 -17q0 -7 -0.5 -14t-1.5 -15q0 -8 -1 -13q-1 -12 -12 -12z" />
    <glyph glyph-name="onehalf" unicode="&#xbd;" horiz-adv-x="438" 
d="M125 152q2 9 4.5 17.5t4.5 17.5q2 7 3.5 14.5t3.5 15.5q0 3 1 6t1 6q0 10 1 15q2 8 2 10q2 5 3 10.5t3 11.5q1 2 1 4.5t1 5.5v4v1q0 3 2 5q2 3 3 7l2 8q0 2 0.5 4t0.5 4q5 17 8 33l2 9q2 5 2 10t1 10l2 8q0 2 1 4q4 5 4.5 10t2.5 11q0 4 2 12q2 6 3 12l2 12q0 3 2 11
q0 4 2 8q0 3 1 4q2 12 4 19q2 12 4.5 23.5t4.5 23.5q2 6 2 12t2 12l2 12t3 13q2 6 2.5 12t2.5 11t2.5 10t2.5 10q5 23 10 42t11 37v1q1 2 1 3t1 2q4 11 13 7t6 -13q1 -1 1 -4l-1 -3q-1 -4 -3 -10q0 -3 -1 -5q0 -2 -0.5 -3t-0.5 -3q-5 -14 -8.5 -29t-7.5 -30q-2 -8 -3.5 -15
t-3.5 -15q-2 -9 -3 -18l-2 -18q-1 -5 -1.5 -9.5t-1.5 -9.5l-2 -14q-2 -13 -4.5 -26t-5.5 -26q-5 -24 -10 -47.5t-10 -46.5l-4 -18q-6 -28 -12.5 -56t-13.5 -57q-3 -11 -5 -20.5t-5 -19.5q-7 -23 -11 -45q-6 -24 -9 -49q-2 -5 -2.5 -9t-1.5 -9q0 -3 -1 -5v-7q-2 -7 -3 -13.5
t-3 -12.5q-2 -8 -3.5 -16t-3.5 -16q-1 -3 -1 -6t-1 -8q0 -3 -1.5 -7t-8.5 -5h-1q-11 0 -13 12q-1 2 -0.5 3.5t0.5 3.5q2 6 2.5 12.5t2.5 11.5q1 7 2.5 13t2.5 12q2 7 3 13.5t2 14.5q3 14 5.5 28t5.5 29zM327 20q-17 2 -34 0t-34 -3q-14 0 -23 4q-7 2 -12 11q-2 3 1 6
q8 9 14 19t11 20q2 3 4 5.5t4 5.5q11 15 20.5 31t12.5 36q4 24 -2 51q-4 8 -8 9q-8 4 -16 5t-16 -4q-5 -2 -6 -6t-2.5 -7.5t-1.5 -7.5q-5 -17 0 -35q0 -4 -3 -8l-3 -3l-3 -3q-6 7 -9 17q-3 17 0 32q2 8 4 15t7 14q8 12 23 19q9 5 18.5 7t19.5 4q8 1 14.5 -0.5t13.5 -3.5
q5 -2 8.5 -3.5t5.5 -6.5q2 -2 5 -2q20 -11 22 -36q1 -11 -1.5 -21.5t-4.5 -20.5q-5 -23 -14 -43t-21 -40q-2 -3 -3.5 -5.5t-3.5 -5.5q-9 -9 -14 -26q2 -3 4.5 -3h4.5q7 1 13 1t13 1t14.5 1t15.5 1q4 0 6 -1q6 -2 4 -6v-3q-1 -8 -3 -9.5t-8 -1.5q-8 1 -15 0.5t-14 -0.5
q-2 0 -4 -0.5t-4 0.5zM7 672q-1 1 -2 1t-2 1q4 6 5 7q5 6 10.5 12t11.5 11q12 9 27 6q7 -1 13.5 -1t12.5 -1h3q10 0 12.5 -2.5t2.5 -13.5q1 -13 1.5 -25t1.5 -25q1 -9 1 -19t1 -19q0 -6 0.5 -11.5t0.5 -11.5v-24q1 -8 1.5 -16t0.5 -16q0 -3 4 -5l15 -3q7 0 10 -8
q2 -3 0.5 -6t-5.5 -4h-5q-8 1 -15.5 1.5t-15.5 1.5h-43q-4 0 -7.5 -0.5t-7.5 -0.5q-9 -1 -15.5 2.5t-12.5 10.5q-3 3 1 6q5 4 15 2q3 0 5.5 -0.5t5.5 -0.5q6 0 6 7v36q0 16 -0.5 31.5t-0.5 31.5q0 14 0.5 29.5t0.5 29.5v8q-3 -2 -7 -4l-9 -9t-9 -8q-5 -7 -12 -1z" />
    <glyph glyph-name="threequarters" unicode="&#xbe;" horiz-adv-x="410" 
d="M90 493q-15 -4 -31 -1q-17 1 -30 9q-13 5 -23 19q-4 5 0 9q0 2 3.5 3t5.5 -1q4 -2 5 -3q5 -4 9 -7.5t9 -6.5q10 -7 26 -9q7 -2 11.5 1t8.5 7q20 20 14 49q-2 9 -11 15.5t-17 7.5q-6 1 -11.5 1.5t-11.5 -1.5q-8 -3 -17 5q-6 4 0 9q6 4 8 5q5 1 9.5 2t9.5 1q2 -1 4 0.5
t4 3.5q9 10 12 25q2 5 4 15q1 9 -0.5 16.5t-9.5 13.5q-1 2 -5 6q-10 8 -24 5q-15 -3 -22 -16q-2 -5 -5 -9t-4 -10q0 -2 -1.5 -3.5t-2.5 -3.5q-13 6 -10 21q2 6 5 10l6 8q4 4 6 7q8 8 18 12.5t21 6.5q2 1 4.5 1t4.5 1q17 5 32.5 0.5t29.5 -15.5q26 -18 17 -48q-2 -9 -4.5 -17
t-6.5 -16q-1 -1 -1 -1.5t-1 -1.5q-2 -5 -1 -6.5t6 -3.5q22 -6 27 -32q2 -14 0 -31q-3 -19 -17 -33q-5 -5 -10 -6q-11 -5 -21.5 -8t-21.5 -5zM331 132q1 -7 1 -13.5v-13.5q0 -8 0.5 -16t0.5 -17q0 -8 -0.5 -14.5t-1.5 -14.5q0 -9 -1 -14q-1 -11 -12 -11q-5 0 -10.5 0.5
t-10.5 1.5q-3 0 -6.5 0.5t-7.5 0.5q-13 1 -14 13q0 12 -1 24t-2 25q0 4 0.5 7.5t0.5 7.5q0 7 -6 7h-10t-10 -1q-17 -2 -32 3q-14 3 -11 18q3 8 5.5 15.5t5.5 15.5q2 6 3 12.5t3 12.5q3 9 6 18.5t7 19.5q2 4 7 6t7.5 -0.5t1.5 -7.5q-2 -9 -4.5 -17.5t-4.5 -16.5
q-4 -16 -8.5 -31t-6.5 -32q6 -2 9 -2q7 0 14.5 0.5t15.5 0.5q6 0 7 1t1 7q1 10 0.5 19.5t-0.5 18.5v28q-1 5 -0.5 10.5t-1.5 10.5q0 8 6 8q16 4 25 1q3 -1 6 -0.5t5 -0.5q6 0 9 -1q8 -2 9.5 -4t1.5 -10q1 -11 1 -20.5t1 -20.5q1 -8 1 -17t1 -17zM157 314q0 2 0.5 3.5
t0.5 3.5q2 8 4 16.5t4 16.5l1 10q2 5 2.5 9.5t1.5 9.5l2 9q0 2 1 4q4 5 4.5 10t2.5 10q0 5 2 13q2 6 3 11.5t2 11.5q0 4 2 12q0 4 2 8q0 3 1 4q1 5 1.5 9.5t2.5 9.5q2 11 4.5 23t4.5 23q2 6 2.5 12.5t1.5 12.5l2 12t3 13q2 6 2.5 11.5t2.5 11.5q2 5 2.5 10t2.5 10
q5 23 10 42t11 37v1q1 2 1 3t1 2q3 9 13 7q9 -4 6 -13q1 -1 1 -4l-2 -4q-1 -3 -1.5 -5t-1.5 -4q0 -3 -1 -5v-6q-5 -14 -8.5 -29.5t-7.5 -29.5q-2 -8 -3.5 -15t-3.5 -15q-2 -9 -3 -18.5t-3 -17.5q0 -5 -1 -10l-2 -10l-1 -13q-2 -14 -4.5 -26.5t-5.5 -25.5q-5 -24 -10.5 -48
t-10.5 -47l-3 -17q-5 -29 -12.5 -57t-14.5 -56q-3 -11 -5 -21t-4 -19q-3 -11 -6 -22.5t-5 -23.5q-2 -11 -5 -23.5t-5 -24.5q-2 -7 -4 -19v-5v-6q-2 -7 -3 -13.5t-3 -12.5q-2 -8 -3.5 -16t-3.5 -16q-1 -3 -1 -6t-1 -8q0 -3 -1.5 -7.5t-8.5 -5.5h-1q-11 0 -13 13
q-1 2 -0.5 3.5t0.5 3.5q2 5 2.5 11.5t2.5 12.5q1 7 2 12.5t2 12.5q2 7 3.5 13.5t2.5 13.5q2 14 5 28.5t6 29.5q2 8 4.5 17t4.5 17t3 15.5t3 15.5q2 6 2 12q1 4 1 7.5t1 7.5q1 3 1.5 5t0.5 4q2 6 3 11.5t3 11.5q1 2 1 4t1 5v5v1q0 3 2 5q2 3 3 7z" />
    <glyph glyph-name="questiondown" unicode="&#xbf;" horiz-adv-x="291" 
d="M211 -28q4 -4 4 -9q2 -10 3.5 -20t0.5 -21q-2 -9 -2.5 -17t-5.5 -16q-2 -4 -3.5 -7.5t-3.5 -7.5q-15 -24 -37 -36q-12 -5 -22 -8q-5 -2 -9 -3t-9 -1q-16 -2 -29.5 3t-26.5 13q-11 8 -20.5 15.5t-17.5 17.5q-6 8 -11 16t-7 18q-3 9 -5 18.5t-4 19.5q-1 4 -1 8t-1 9
q0 4 -0.5 6.5t-0.5 5.5q0 5 0.5 8.5t0.5 7.5v8q1 4 1 7.5t1 6.5q2 5 3 9t3 8q2 6 5 12t5 13q4 11 9.5 21t12.5 19q5 6 9.5 11.5t9.5 9.5t9.5 7.5t10.5 5.5q1 0 2 1q6 5 16 5q1 3 1 6q0 6 -0.5 11.5t-0.5 11.5v48q-1 8 -0.5 14.5t0.5 13.5q0 14 -0.5 29.5t-0.5 30.5v21v51v6
q-4 9 4 9q2 1 4.5 0.5t5.5 -0.5q1 0 1.5 -0.5t2.5 -0.5q9 2 18 1t18 2q9 2 16 -2q3 -3 2 -6q-2 -3 0 -6q2 -5 1.5 -9.5t-0.5 -9.5v-5q3 -10 2 -19t-1 -18q-1 -6 -0.5 -12t0.5 -12v-6q1 -14 1 -28t1 -28q1 -8 1 -14.5v-14.5l2 -34t1 -34q1 -5 1 -10t1 -10q3 -12 -9 -12
q-16 -1 -29 -7.5t-25 -17.5q-28 -26 -39 -68q-5 -20 -5 -37q0 -5 0.5 -10t1.5 -10q2 -12 4.5 -24.5t8.5 -23.5q2 -5 6.5 -8t6.5 -8q4 -2 5 -4q10 -14 27 -18q13 -5 24 -6q19 -2 29 16q6 8 10.5 17t6.5 19q3 15 2 28q0 4 -3 9q-8 12 -6 23q0 2 1 4t4 3q6 1 8 -5zM105 478
q0 3 0.5 5.5t0.5 5.5v10q0 5 -1 7q-3 6 1 10q2 2 3 2.5t2 1.5q2 2 3 4t3 4q7 15 26 15q5 0 8.5 -1t8.5 -3t8 -6.5t6 -9.5q3 -8 3 -15t-2 -15q-2 -17 -10 -32q-4 -9 -10.5 -16t-15.5 -9q-10 -3 -19 5q-8 7 -11 16.5t-4 20.5z" />
    <glyph glyph-name="Agrave" unicode="&#xc0;" 
d="M330 -37q4 0 11 0.5t12.5 -0.5t8.5 -4.5t0 -11.5q-3 -7 -15 -10t-27 -4t-31 -1.5t-26 -1.5q-14 -2 -27.5 -8t-22.5 -1q-11 7 -8 20.5t14 14.5q-8 57 -17 110t-17 108q-16 2 -33 1t-34 -2.5t-34.5 -2.5t-34.5 1q-10 -39 -16 -82.5t-13 -87.5q7 -3 14 -3t8 -8t-4 -11.5
t-13 -4t-18 0t-18 -0.5q-8 0 -15.5 -0.5t-8.5 7.5q-1 7 2.5 10.5t8.5 5t11 2t11 1.5q9 29 13.5 60.5t10.5 63.5q5 31 10.5 63.5t8.5 64.5q3 33 9.5 65.5t11.5 64.5q4 24 8.5 47t9.5 49q2 17 5 36.5t6 40.5q3 22 6.5 39.5t8.5 43.5q2 11 4 23.5t0 18.5q-1 3 -5.5 6t-9 5.5
t-8 5.5t-2.5 8q1 6 13.5 8t28 2t30 -0.5t20.5 0.5q5 1 13.5 1.5t9.5 -8.5q2 -8 -4.5 -11t-8.5 -8q-1 -6 3 -23t6 -28q6 -36 15.5 -69t15.5 -69q5 -25 7.5 -50t6.5 -50q3 -25 8.5 -48t10.5 -46q5 -26 9.5 -52t10.5 -52t11 -51.5t10 -50.5q6 -36 11.5 -70.5t17.5 -66.5z
M103 516q-12 -78 -28 -161.5t-23 -161.5q14 -4 29.5 -4t32 2t33.5 4.5t32 4.5q-18 103 -29 209.5t-31 205.5q-7 -20 -9.5 -47t-6.5 -52zM156 783q1 -2 1.5 -2.5t1.5 -2.5l1 -1l-1 -2q-1 -4 -3 -8t-8 -6q-1 0 -2 -0.5t-2 -0.5q-4 0 -6.5 2t-4.5 4t-3 3.5t-3 3.5l-1 2
q-2 2 -3 3.5t-3 3.5q-2 3 -4.5 6.5t-5.5 6.5q-5 5 -9.5 10.5t-9.5 10.5t-9.5 10.5t-9.5 11.5q-3 3 -6 7t-6 9q-2 6 -1 9q1 4 8 9q6 2 7 2q6 0 10 -6q4 -4 7 -7.5t6 -7.5q6 -8 12 -15t13 -14q3 -3 6 -6.5t6 -6.5q4 -4 7.5 -8t7.5 -9q3 -3 7 -11z" />
    <glyph glyph-name="Aacute" unicode="&#xc1;" 
d="M330 -37q4 0 11 0.5t12.5 -0.5t8.5 -4.5t0 -11.5q-3 -7 -15 -10t-27 -4t-31 -1.5t-26 -1.5q-14 -2 -27.5 -8t-22.5 -1q-11 7 -8 20.5t14 14.5q-8 57 -17 110t-17 108q-16 2 -33 1t-34 -2.5t-34.5 -2.5t-34.5 1q-10 -39 -16 -82.5t-13 -87.5q7 -3 14 -3t8 -8t-4 -11.5
t-13 -4t-18 0t-18 -0.5q-8 0 -15.5 -0.5t-8.5 7.5q-1 7 2.5 10.5t8.5 5t11 2t11 1.5q9 29 13.5 60.5t10.5 63.5q5 31 10.5 63.5t8.5 64.5q3 33 9.5 65.5t11.5 64.5q4 24 8.5 47t9.5 49q2 17 5 36.5t6 40.5q3 22 6.5 39.5t8.5 43.5q2 11 4 23.5t0 18.5q-1 3 -5.5 6t-9 5.5
t-8 5.5t-2.5 8q1 6 13.5 8t28 2t30 -0.5t20.5 0.5q5 1 13.5 1.5t9.5 -8.5q2 -8 -4.5 -11t-8.5 -8q-1 -6 3 -23t6 -28q6 -36 15.5 -69t15.5 -69q5 -25 7.5 -50t6.5 -50q3 -25 8.5 -48t10.5 -46q5 -26 9.5 -52t10.5 -52t11 -51.5t10 -50.5q6 -36 11.5 -70.5t17.5 -66.5z
M103 516q-12 -78 -28 -161.5t-23 -161.5q14 -4 29.5 -4t32 2t33.5 4.5t32 4.5q-18 103 -29 209.5t-31 205.5q-7 -20 -9.5 -47t-6.5 -52zM123 785q4 8 7 11q4 5 7.5 9t7.5 8q3 3 6 6.5t6 6.5q7 7 13 14t12 15q3 4 6 7.5t7 7.5q4 6 10 6q1 0 7 -2q7 -5 8 -9q1 -3 -1 -9
q-3 -5 -6 -9t-6 -7q-5 -6 -9.5 -11.5t-9.5 -10.5t-9.5 -10.5t-9.5 -10.5q-3 -3 -5.5 -6.5t-4.5 -6.5q-2 -2 -3 -3.5t-3 -3.5l-1 -2q-2 -2 -3 -3.5t-3 -3.5t-4.5 -4t-6.5 -2q-1 0 -2 0.5t-2 0.5q-6 2 -8 6t-3 8l-1 2l1 1q1 2 1.5 2.5t1.5 2.5z" />
    <glyph glyph-name="Acircumflex" unicode="&#xc2;" 
d="M330 -37q4 0 11 0.5t12.5 -0.5t8.5 -4.5t0 -11.5q-3 -7 -15 -10t-27 -4t-31 -1.5t-26 -1.5q-14 -2 -27.5 -8t-22.5 -1q-11 7 -8 20.5t14 14.5q-8 57 -17 110t-17 108q-16 2 -33 1t-34 -2.5t-34.5 -2.5t-34.5 1q-10 -39 -16 -82.5t-13 -87.5q7 -3 14 -3t8 -8t-4 -11.5
t-13 -4t-18 0t-18 -0.5q-8 0 -15.5 -0.5t-8.5 7.5q-1 7 2.5 10.5t8.5 5t11 2t11 1.5q9 29 13.5 60.5t10.5 63.5q5 31 10.5 63.5t8.5 64.5q3 33 9.5 65.5t11.5 64.5q4 24 8.5 47t9.5 49q2 17 5 36.5t6 40.5q3 22 6.5 39.5t8.5 43.5q2 11 4 23.5t0 18.5q-1 3 -5.5 6t-9 5.5
t-8 5.5t-2.5 8q1 6 13.5 8t28 2t30 -0.5t20.5 0.5q5 1 13.5 1.5t9.5 -8.5q2 -8 -4.5 -11t-8.5 -8q-1 -6 3 -23t6 -28q6 -36 15.5 -69t15.5 -69q5 -25 7.5 -50t6.5 -50q3 -25 8.5 -48t10.5 -46q5 -26 9.5 -52t10.5 -52t11 -51.5t10 -50.5q6 -36 11.5 -70.5t17.5 -66.5z
M103 516q-12 -78 -28 -161.5t-23 -161.5q14 -4 29.5 -4t32 2t33.5 4.5t32 4.5q-18 103 -29 209.5t-31 205.5q-7 -20 -9.5 -47t-6.5 -52zM210 764q0 -1 0.5 -1.5t0.5 -1.5l1 -2l-2 -2q-5 -4 -12 -4q-3 0 -7 1.5t-8 8.5q-2 3 -6 11q-3 5 -5.5 9t-5.5 9q-5 8 -10.5 17t-12.5 20
q-1 1 -1 2l-1 1q-2 0 -3 -3q-8 -11 -14.5 -22t-13.5 -22l-1 -2q-2 -3 -4 -6.5t-4 -6.5t-3.5 -6t-3.5 -6q-1 -2 -3 -4.5t-6 -2.5q-5 0 -9 6q-3 4 -2 7.5t2 5.5l4 7q3 6 6 11.5t6 11.5l2 3q6 13 13 25.5t16 23.5q2 2 3 4l1 2t3 5t6 3q2 0 8 -4l3 -3q5 -4 9 -8t8 -11
q3 -7 9 -13q2 -3 8 -11q5 -9 11 -19t11 -20l4 -6q2 -4 3 -7z" />
    <glyph glyph-name="Atilde" unicode="&#xc3;" 
d="M330 -37q4 0 11 0.5t12.5 -0.5t8.5 -4.5t0 -11.5q-3 -7 -15 -10t-27 -4t-31 -1.5t-26 -1.5q-14 -2 -27.5 -8t-22.5 -1q-11 7 -8 20.5t14 14.5q-8 57 -17 110t-17 108q-16 2 -33 1t-34 -2.5t-34.5 -2.5t-34.5 1q-10 -39 -16 -82.5t-13 -87.5q7 -3 14 -3t8 -8t-4 -11.5
t-13 -4t-18 0t-18 -0.5q-8 0 -15.5 -0.5t-8.5 7.5q-1 7 2.5 10.5t8.5 5t11 2t11 1.5q9 29 13.5 60.5t10.5 63.5q5 31 10.5 63.5t8.5 64.5q3 33 9.5 65.5t11.5 64.5q4 24 8.5 47t9.5 49q2 17 5 36.5t6 40.5q3 22 6.5 39.5t8.5 43.5q2 11 4 23.5t0 18.5q-1 3 -5.5 6t-9 5.5
t-8 5.5t-2.5 8q1 6 13.5 8t28 2t30 -0.5t20.5 0.5q5 1 13.5 1.5t9.5 -8.5q2 -8 -4.5 -11t-8.5 -8q-1 -6 3 -23t6 -28q6 -36 15.5 -69t15.5 -69q5 -25 7.5 -50t6.5 -50q3 -25 8.5 -48t10.5 -46q5 -26 9.5 -52t10.5 -52t11 -51.5t10 -50.5q6 -36 11.5 -70.5t17.5 -66.5z
M103 516q-12 -78 -28 -161.5t-23 -161.5q14 -4 29.5 -4t32 2t33.5 4.5t32 4.5q-18 103 -29 209.5t-31 205.5q-7 -20 -9.5 -47t-6.5 -52zM275 832q5 -3 8 -8q1 -2 2 -4.5t-1 -5.5q-2 -8 -5 -11q-2 -3 -4 -5.5t-4 -5.5q-5 -6 -10 -12.5t-11 -11.5q-13 -9 -29 -12q-4 -1 -10 -1
h-4h-1q-48 3 -78 33l-1 1q-5 5 -9.5 9t-10.5 6q-10 4 -17 4q-12 0 -22.5 -6t-15.5 -16q-2 -4 -5 -8t-5 -8q-2 -2 -4 -4.5t-5 -2.5q-5 0 -9 6q-9 10 -2 20q6 8 10 14l2 4q19 28 53 28q29 0 48 -19q19 -21 44 -30q5 -2 11 -3t13 -1q33 0 48 23q2 2 2.5 4t2.5 4t3.5 5t3.5 5
q0 2 1 2q2 7 8 7h3z" />
    <glyph glyph-name="Adieresis" unicode="&#xc4;" 
d="M330 -37q4 0 11 0.5t12.5 -0.5t8.5 -4.5t0 -11.5q-3 -7 -15 -10t-27 -4t-31 -1.5t-26 -1.5q-14 -2 -27.5 -8t-22.5 -1q-11 7 -8 20.5t14 14.5q-8 57 -17 110t-17 108q-16 2 -33 1t-34 -2.5t-34.5 -2.5t-34.5 1q-10 -39 -16 -82.5t-13 -87.5q7 -3 14 -3t8 -8t-4 -11.5
t-13 -4t-18 0t-18 -0.5q-8 0 -15.5 -0.5t-8.5 7.5q-1 7 2.5 10.5t8.5 5t11 2t11 1.5q9 29 13.5 60.5t10.5 63.5q5 31 10.5 63.5t8.5 64.5q3 33 9.5 65.5t11.5 64.5q4 24 8.5 47t9.5 49q2 17 5 36.5t6 40.5q3 22 6.5 39.5t8.5 43.5q2 11 4 23.5t0 18.5q-1 3 -5.5 6t-9 5.5
t-8 5.5t-2.5 8q1 6 13.5 8t28 2t30 -0.5t20.5 0.5q5 1 13.5 1.5t9.5 -8.5q2 -8 -4.5 -11t-8.5 -8q-1 -6 3 -23t6 -28q6 -36 15.5 -69t15.5 -69q5 -25 7.5 -50t6.5 -50q3 -25 8.5 -48t10.5 -46q5 -26 9.5 -52t10.5 -52t11 -51.5t10 -50.5q6 -36 11.5 -70.5t17.5 -66.5z
M103 516q-12 -78 -28 -161.5t-23 -161.5q14 -4 29.5 -4t32 2t33.5 4.5t32 4.5q-18 103 -29 209.5t-31 205.5q-7 -20 -9.5 -47t-6.5 -52zM194 828q13 0 22 -10t9 -22q-1 -14 -8.5 -22t-20.5 -8h-1q-14 0 -22 9.5t-9 26.5q0 8 7 17q10 10 21 9h2zM83 828q13 0 22 -10t9 -22
q-1 -14 -8.5 -22t-20.5 -8h-1q-14 0 -22 9.5t-9 26.5q0 8 7 17q10 10 21 9h2z" />
    <glyph glyph-name="Aring" unicode="&#xc5;" 
d="M330 -37q4 0 11 0.5t12.5 -0.5t8.5 -4.5t0 -11.5q-3 -7 -15 -10t-27 -4t-31 -1.5t-26 -1.5q-14 -2 -27.5 -8t-22.5 -1q-11 7 -8 20.5t14 14.5q-8 57 -17 110t-17 108q-16 2 -33 1t-34 -2.5t-34.5 -2.5t-34.5 1q-10 -39 -16 -82.5t-13 -87.5q7 -3 14 -3t8 -8t-4 -11.5
t-13 -4t-18 0t-18 -0.5q-8 0 -15.5 -0.5t-8.5 7.5q-1 7 2.5 10.5t8.5 5t11 2t11 1.5q9 29 13.5 60.5t10.5 63.5q5 31 10.5 63.5t8.5 64.5q3 33 9.5 65.5t11.5 64.5q4 24 8.5 47t9.5 49q2 17 5 36.5t6 40.5q3 22 6.5 39.5t8.5 43.5q2 11 4 23.5t0 18.5q-1 3 -5.5 6t-9 5.5
t-8 5.5t-2.5 8q1 6 13.5 8t28 2t30 -0.5t20.5 0.5q5 1 13.5 1.5t9.5 -8.5q2 -8 -4.5 -11t-8.5 -8q-1 -6 3 -23t6 -28q6 -36 15.5 -69t15.5 -69q5 -25 7.5 -50t6.5 -50q3 -25 8.5 -48t10.5 -46q5 -26 9.5 -52t10.5 -52t11 -51.5t10 -50.5q6 -36 11.5 -70.5t17.5 -66.5z
M103 516q-12 -78 -28 -161.5t-23 -161.5q14 -4 29.5 -4t32 2t33.5 4.5t32 4.5q-18 103 -29 209.5t-31 205.5q-7 -20 -9.5 -47t-6.5 -52zM161 845q10 -8 18 -18q9 -9 7 -21q-2 -23 -25 -33q-8 -4 -19 -4q-20 0 -35 12.5t-17 31.5q-2 21 19 33q27 16 52 -1zM117 815
q-1 -9 4 -16q6 -6 15 -6q16 0 22 12q4 6 2 14q-3 6 -12 9q-2 1 -6 1q-6 0 -16 -4q-8 -3 -9 -10z" />
    <glyph glyph-name="AE" unicode="&#xc6;" horiz-adv-x="491" 
d="M443 67q-11 -8 -24.5 -5.5t-27.5 0.5l-5 -2.5t-6 -2.5q-15 -3 -31.5 0t-30.5 -3q2 -11 6 -21.5t8 -21.5q2 -10 6 -15q5 -4 10.5 -6.5t3.5 -10.5q3 -5 9 -7.5t6 -10.5q0 -4 -6.5 -9t-11.5 -5q-2 -1 -5.5 0.5t-6.5 1.5q-8 2 -18 2h-18q-2 0 -6 -1.5t-8 -2.5
q-7 -2 -13.5 -2.5t-12.5 -2.5q-7 -1 -13 -2t-13 -2q-6 -1 -14.5 -2t-15.5 -1t-11.5 2.5t-4.5 8.5q1 5 6.5 8t8.5 5q4 5 7.5 7t6.5 6q1 3 -0.5 6t-0.5 7l2 4t1 4q2 11 -1 23t-5 24q-2 5 -2.5 11t-1.5 12q-6 35 -10 73t-14 70q-7 2 -14 1.5t-15 -1.5q-7 -1 -13.5 -2t-13.5 -3
q-20 -2 -40 -1t-41 -3q-6 -18 -8 -40t-4 -45q-1 -8 -3 -16t-1 -16q0 -3 1.5 -5.5t1.5 -4.5q1 -5 0 -10t1 -10q1 -11 7.5 -19t8.5 -19q-10 -5 -24.5 -3t-28.5 0q-6 -1 -10.5 -3.5t-9.5 0.5q1 12 12 18.5t16 15.5q2 7 2.5 17.5t0.5 20.5q0 6 1 12.5t3 13.5q5 40 10 79.5
t10 79.5q0 7 2 14t2 12q-1 3 -2.5 6t-1.5 6q-1 5 0.5 10.5t3.5 11.5q5 38 9.5 80t12.5 80q7 31 13 63.5t11 67.5q1 5 1 11.5t2 12.5q1 6 2.5 11t1.5 10q-1 8 -7 14.5t-11.5 13.5t-8.5 14t3 17q9 2 17.5 1t18.5 -2q9 0 18 1t18 0q5 0 9.5 -1t9.5 -1q13 0 26 1.5t27 3.5
q44 4 85 1.5t85 -4.5q11 -1 21 -0.5t20 -2.5q1 -5 -1.5 -6.5t-4.5 -6.5q-2 -11 0.5 -27t0.5 -26q-1 -4 -5 -9t-9 -4t-6 5t-3 10l-2 4l-2 4q-4 14 -5 26t-7 22q-9 2 -18 0.5t-18 -2.5q-8 -2 -17.5 -3.5t-17.5 -0.5q-4 0 -7 2t-7 3q-15 2 -30 -3t-30 -4q-3 0 -5.5 1t-5.5 1
q-8 1 -14.5 -0.5t-13.5 -3.5q5 -23 5.5 -46.5t5.5 -47.5q2 -7 4.5 -13t4.5 -13q5 -20 8 -42.5t6 -45.5q1 -7 3 -13t3 -13q2 -20 5 -39.5t8 -39.5q8 -2 13 1t12 5q9 2 18.5 2t19.5 1t20 0t18 2q5 1 8.5 6t7 9.5t8 6.5t11.5 -2q2 -5 1 -10t0 -10q1 -13 4.5 -25.5t0.5 -23.5
q-9 -3 -13.5 1t-7.5 10t-5.5 12.5t-7.5 8.5q-6 2 -16.5 0.5t-18.5 -2.5l-69 -9q16 -72 28.5 -147t29.5 -144q12 -3 26 -1.5t27 2.5q8 2 19 1t18 2q4 3 11 15.5t9 17.5q1 3 0.5 6.5t1.5 5.5q3 3 4 6.5t6 3.5q10 1 9.5 -8t-0.5 -17q0 -12 2 -24t0 -19zM51 217q33 -2 67 0.5
t63 10.5q-6 38 -15.5 75t-17.5 75t-16.5 76t-16.5 76q0 3 3.5 3t2.5 4q-5 16 -8 33t-10 31q-1 -4 -3 -6t-4 -5q-2 -5 -2 -12t-1 -13q-1 -3 -2.5 -5.5t-2.5 -5.5q0 -4 0.5 -7.5t-0.5 -7.5q0 -6 -2 -12l-4 -12q-2 -10 -1.5 -19.5t-1.5 -17.5q-2 -3 -3.5 -5.5t-1.5 -4.5
q-3 -9 -2.5 -18.5t0.5 -18.5q-1 -13 -3.5 -23t-3.5 -21q-4 -43 -8 -85.5t-6 -84.5z" />
    <glyph glyph-name="Ccedilla" unicode="&#xc7;" horiz-adv-x="357" 
d="M264 796q14 -2 18 -12.5t4.5 -24.5t-0.5 -28.5t2 -23.5q-7 -11 -4.5 -26t-2.5 -26q-12 0 -15 9t-3 22t0.5 26.5t-2.5 22.5q-2 5 -7.5 10.5t-14.5 7.5q-26 8 -38.5 2.5t-28.5 -21.5q-7 -7 -16.5 -15.5t-11.5 -16.5q-4 -9 -5.5 -22t-4.5 -26q-5 -19 -7 -35t-4 -39
q-2 -16 -5 -32t-6 -33q-2 -14 -2 -28.5t-1 -28.5q-2 -25 -5.5 -49.5t-1.5 -50.5q1 -35 0 -70.5t-1 -70t2.5 -68t11.5 -65.5q2 -9 4 -21t6 -16q3 -4 8.5 -5t10.5 -4q6 -3 9.5 -6.5t8.5 -3.5q10 3 18 5.5t16 7.5q13 8 21 21.5t13 30t9 34.5t9 35q13 4 16.5 -5.5t3 -23.5
t-4 -29t-5.5 -22q-5 -17 -18 -37t-27 -28q-10 -5 -25.5 -8t-33.5 -5q-2 -1 -4.5 -1t-4.5 -1q-1 -2 -2 -4.5t-3 -5.5l-2 -4l-2 -4q-2 -2 -2 -4l1 -1h1h5q1 0 2 0.5t2 0.5q25 -1 40 -19q16 -19 11 -43q-1 -14 -10 -26q-8 -11 -18.5 -15.5t-23.5 -4.5h-11q-5 1 -9 1.5t-8 2.5
q-4 0 -10 8q-3 8 -2 14q3 11 18 8h1l12 -2t12 -1q3 -1 6 0t5 2q13 5 14 15q1 12 -8 21q-9 7 -17 6h-13q-6 -1 -11.5 -1t-10.5 -1q-2 0 -3 -1q-9 0 -12 4t-3 10t3 11l3 6q4 6 7 11l9 18q0 1 2 5q-2 1 -3 1t-3 1q-6 2 -12.5 0t-11.5 0q-9 2 -14.5 7.5t-11 11.5t-12.5 11.5
t-17 7.5q-9 35 -16 76t-11 84.5t-5 88.5t3 89q1 11 3 25t0 30q2 5 -1.5 5t-3.5 3q-1 33 6 62.5t10 60.5q1 7 0 14.5t0 15.5q2 13 6 28.5t9 29.5q10 32 22.5 57.5t35.5 44.5q18 5 35 17.5t37 15.5q16 3 29 0t24 -8.5t21.5 -12t22.5 -10.5q3 6 1 16t3 15z" />
    <glyph glyph-name="Egrave" unicode="&#xc8;" horiz-adv-x="347" 
d="M267 31q6 -2 9 -10.5t4 -19.5t0 -23t-3 -20q-20 -2 -43 -4t-48 -4q-24 -1 -49.5 1.5t-45.5 -2.5q-5 -1 -8 -3.5t-7 -2.5q-12 -2 -23.5 2t-26.5 -1q-4 -1 -10.5 -4t-13.5 -4.5t-13 0t-7 10.5q-2 10 6.5 17t12.5 9q7 5 14.5 6.5t15.5 3.5q2 110 -3 222t-5 226q0 39 0.5 78
t-1.5 77t2 75.5t-3 73.5q-4 2 -11.5 2t-15 1.5t-13 5t-4.5 12.5q1 5 10 11t15 8q12 3 26 2t28.5 -1.5t29 -0.5t28.5 4q4 1 7.5 4t6.5 4q22 5 46.5 2t46.5 1q12 2 21 6.5t17 -3.5q0 -16 1.5 -34.5t-5.5 -29.5q-7 -2 -11.5 2t-7.5 10.5t-5 14t-5 13.5q-26 2 -51.5 -2t-48.5 -9
q-10 -107 -5 -217.5t10 -213.5q12 -2 22.5 -2t20.5 2q14 3 26.5 11t27.5 4q6 -10 5 -28t-9 -22q-8 -3 -12.5 3t-12.5 8t-17 1t-18.5 -2t-17.5 -2t-14 1q-1 -49 0.5 -100.5t5.5 -101.5q2 -32 -0.5 -64.5t6.5 -60.5q25 -2 48 0t45 3q5 5 7 15.5t4 20t6 16t13 3.5zM136 853
q1 -2 1.5 -2.5t1.5 -2.5l1 -1l-1 -2q-1 -4 -3 -8t-8 -6q-1 0 -2 -0.5t-2 -0.5q-4 0 -6.5 2t-4.5 4t-3 3.5t-3 3.5l-1 2q-2 2 -3 3.5t-3 3.5q-2 3 -4.5 6.5t-5.5 6.5q-5 5 -9.5 10.5t-9.5 10.5t-9.5 10.5t-9.5 11.5q-3 3 -6 7t-6 9q-2 6 -1 9q1 4 8 9q6 2 7 2q6 0 10 -6
q4 -4 7 -7.5t6 -7.5q6 -8 12 -15t13 -14q3 -3 6 -6.5t6 -6.5q4 -4 7.5 -8t7.5 -9q3 -3 7 -11z" />
    <glyph glyph-name="Eacute" unicode="&#xc9;" horiz-adv-x="347" 
d="M267 31q-9 3 -13 -3.5t-6 -16t-4 -20t-7 -15.5q-22 -1 -45 -3t-48 0q-9 28 -6.5 60.5t0.5 64.5q-4 50 -5.5 101.5t-0.5 100.5q6 -2 14 -1t17.5 2t18.5 2t17 -1t12.5 -8t12.5 -3q8 4 9 22t-5 28q-15 4 -27.5 -4t-26.5 -11q-10 -2 -20.5 -2t-22.5 2q-5 103 -10 213.5
t5 217.5q23 5 48.5 9t51.5 2q3 -6 5 -13.5t5 -14t7.5 -10.5t11.5 -2q7 11 5.5 29.5t-1.5 34.5q-8 8 -17 3.5t-21 -6.5q-22 -4 -46.5 -1t-46.5 -2q-3 -1 -6.5 -4t-7.5 -4q-14 -4 -28.5 -4t-29 0.5t-28.5 1.5t-26 -2q-6 -2 -15 -8t-10 -11q-1 -9 4.5 -12.5t13 -5t15 -1.5
t11.5 -2q7 -36 3 -73.5t-2 -75.5t1.5 -77t-0.5 -78q0 -114 5 -226t3 -222q-8 -2 -15.5 -3.5t-14.5 -6.5q-4 -2 -12.5 -9t-6.5 -17q1 -9 7 -10.5t13 0t13.5 4.5t10.5 4q15 5 26.5 1t23.5 -2q4 0 7 2.5t8 3.5q20 5 45.5 2.5t49.5 -1.5q25 2 48 4t43 4q2 8 3 20t0 23t-4 19.5
t-9 10.5zM113 855q4 8 7 11q4 5 7.5 9t7.5 8q3 3 6 6.5t6 6.5q7 7 13 14t12 15q3 4 6 7.5t7 7.5q4 6 10 6q1 0 7 -2q7 -5 8 -9q1 -3 -1 -9q-3 -5 -6 -9t-6 -7q-5 -6 -9.5 -11.5t-9.5 -10.5t-9.5 -10.5t-9.5 -10.5q-3 -3 -5.5 -6.5t-4.5 -6.5q-2 -2 -3 -3.5t-3 -3.5l-1 -2
q-2 -2 -3 -3.5t-3 -3.5t-4.5 -4t-6.5 -2q-1 0 -2 0.5t-2 0.5q-6 2 -8 6t-3 8l-1 2l1 1q1 2 1.5 2.5t1.5 2.5z" />
    <glyph glyph-name="Ecircumflex" unicode="&#xca;" horiz-adv-x="347" 
d="M267 31q6 -2 9 -10.5t4 -19.5t0 -23t-3 -20q-20 -2 -43 -4t-48 -4q-24 -1 -49.5 1.5t-45.5 -2.5q-5 -1 -8 -3.5t-7 -2.5q-12 -2 -23.5 2t-26.5 -1q-4 -1 -10.5 -4t-13.5 -4.5t-13 0t-7 10.5q-2 10 6.5 17t12.5 9q7 5 14.5 6.5t15.5 3.5q2 110 -3 222t-5 226q0 39 0.5 78
t-1.5 77t2 75.5t-3 73.5q-4 2 -11.5 2t-15 1.5t-13 5t-4.5 12.5q1 5 10 11t15 8q12 3 26 2t28.5 -1.5t29 -0.5t28.5 4q4 1 7.5 4t6.5 4q22 5 46.5 2t46.5 1q12 2 21 6.5t17 -3.5q0 -16 1.5 -34.5t-5.5 -29.5q-7 -2 -11.5 2t-7.5 10.5t-5 14t-5 13.5q-26 2 -51.5 -2t-48.5 -9
q-10 -107 -5 -217.5t10 -213.5q12 -2 22.5 -2t20.5 2q14 3 26.5 11t27.5 4q6 -10 5 -28t-9 -22q-8 -3 -12.5 3t-12.5 8t-17 1t-18.5 -2t-17.5 -2t-14 1q-1 -49 0.5 -100.5t5.5 -101.5q2 -32 -0.5 -64.5t6.5 -60.5q25 -2 48 0t45 3q5 5 7 15.5t4 20t6 16t13 3.5zM200 844
q0 -1 0.5 -1.5t0.5 -1.5l1 -2l-2 -2q-5 -4 -12 -4q-3 0 -7 1.5t-8 8.5q-2 3 -6 11q-3 5 -5.5 9t-5.5 9q-5 8 -10.5 17t-12.5 20q-1 1 -1 2l-1 1q-2 0 -3 -3q-8 -11 -14.5 -22t-13.5 -22l-1 -2q-2 -3 -4 -6.5t-4 -6.5t-3.5 -6t-3.5 -6q-1 -2 -3 -4.5t-6 -2.5q-5 0 -9 6
q-3 4 -2 7.5t2 5.5l4 7q3 6 6 11.5t6 11.5l2 3q6 13 13 25.5t16 23.5q2 2 3 4l1 2t3 5t6 3q2 0 8 -4l3 -3q5 -4 9 -8t8 -11q3 -7 9 -13q2 -3 8 -11q5 -9 11 -19t11 -20l4 -6q2 -4 3 -7z" />
    <glyph glyph-name="Edieresis" unicode="&#xcb;" horiz-adv-x="347" 
d="M267 31q6 -2 9 -10.5t4 -19.5t0 -23t-3 -20q-20 -2 -43 -4t-48 -4q-24 -1 -49.5 1.5t-45.5 -2.5q-5 -1 -8 -3.5t-7 -2.5q-12 -2 -23.5 2t-26.5 -1q-4 -1 -10.5 -4t-13.5 -4.5t-13 0t-7 10.5q-2 10 6.5 17t12.5 9q7 5 14.5 6.5t15.5 3.5q2 110 -3 221.5t-5 226.5
q0 39 0.5 78t-1.5 77t2 75.5t-3 73.5q-4 2 -11.5 2t-15 1.5t-13 5t-4.5 12.5q1 5 10 11t15 8q12 3 26 2t28.5 -1.5t29 -0.5t28.5 4q4 1 7.5 4t6.5 4q22 5 46.5 2t46.5 1q12 2 21 6.5t17 -3.5q0 -16 1.5 -34.5t-5.5 -29.5q-7 -2 -11.5 2t-7.5 10.5t-5 14t-5 13.5
q-26 2 -51.5 -2t-48.5 -9q-10 -107 -5 -217.5t10 -213.5q12 -2 22.5 -2t20.5 2q14 3 26.5 11t27.5 4q6 -10 5 -28t-9 -22q-8 -3 -12.5 3t-12.5 8t-17 1t-18.5 -2t-17.5 -2t-14 1q-1 -49 0.5 -100.5t5.5 -101.5q2 -32 -0.5 -64.5t6.5 -60.5q25 -2 48 0t45 3q5 5 7 15.5t4 20
t6 16t13 3.5zM174 908q13 0 22 -10t9 -22q-1 -14 -8.5 -22t-20.5 -8h-1q-14 0 -22 9.5t-9 26.5q0 8 7 17q10 10 21 9h2zM63 908q13 0 22 -10t9 -22q-1 -14 -8.5 -22t-20.5 -8h-1q-14 0 -22 9.5t-9 26.5q0 8 7 17q10 10 21 9h2z" />
    <glyph glyph-name="Igrave" unicode="&#xcc;" horiz-adv-x="355" 
d="M27 769q7 2 7.5 -1.5t2.5 -6.5q56 -10 115.5 -20t119.5 -15q4 -5 9.5 -9t4.5 -15q-12 -3 -25 -2.5t-27 2t-28.5 3t-27.5 0.5q-5 -65 -6.5 -132.5t-2.5 -135t-2.5 -135t-7.5 -133.5q-1 -7 -2.5 -13.5t-2.5 -13.5q-2 -29 0 -56.5t0 -54.5q11 0 28.5 1t35 0t30.5 -6.5
t14 -18.5q-14 -2 -34 -4.5t-34 -1.5q-25 1 -47.5 -2t-43.5 -8t-41.5 -11.5t-42.5 -10.5q-8 5 -9 13t2 19q0 3 11 7t23 7t20.5 4.5t5.5 -1.5q-1 -1 -0.5 4.5t1.5 13.5t2.5 17l2.5 15q5 26 2 53t-2 53q2 45 2.5 88.5t2.5 88.5q2 94 4.5 185.5t6.5 184.5q-11 0 -21 4.5t-19 3.5
q-6 -1 -10.5 -6.5t-12.5 -7.5t-14.5 -1.5t-14.5 -2.5q-6 7 -5.5 13t2.5 15q1 5 0.5 8t0.5 5q5 8 14 9t13 8zM166 803q1 -2 1.5 -2.5t1.5 -2.5l1 -1l-1 -2q-1 -4 -3 -8t-8 -6q-1 0 -2 -0.5t-2 -0.5q-4 0 -6.5 2t-4.5 4t-3 3.5t-3 3.5l-1 2q-2 2 -3 3.5t-3 3.5q-2 3 -4.5 6.5
t-5.5 6.5q-5 5 -9.5 10.5t-9.5 10.5t-9.5 10.5t-9.5 11.5q-3 3 -6 7t-6 9q-2 6 -1 9q1 4 8 9q6 2 7 2q6 0 10 -6q4 -4 7 -7.5t6 -7.5q6 -8 12 -15t13 -14q3 -3 6 -6.5t6 -6.5q4 -4 7.5 -8t7.5 -9q3 -3 7 -11z" />
    <glyph glyph-name="Iacute" unicode="&#xcd;" horiz-adv-x="355" 
d="M27 769q7 2 7.5 -1.5t2.5 -6.5q56 -10 115.5 -20t119.5 -15q4 -5 9.5 -9t4.5 -15q-12 -3 -25 -2.5t-27 2t-28.5 3t-27.5 0.5q-5 -65 -6.5 -132.5t-2.5 -135t-2.5 -135t-7.5 -133.5q-1 -7 -2.5 -13.5t-2.5 -13.5q-2 -29 0 -56.5t0 -54.5q11 0 28.5 1t35 0t30.5 -6.5
t14 -18.5q-14 -2 -34 -4.5t-34 -1.5q-25 1 -47.5 -2t-43.5 -8t-41.5 -11.5t-42.5 -10.5q-8 5 -9 13t2 19q0 3 11 7t23 7t20.5 4.5t5.5 -1.5q-1 -1 -0.5 4.5t1.5 13.5t2.5 17l2.5 15q5 26 2 53t-2 53q2 45 2.5 88.5t2.5 88.5q2 94 4.5 185.5t6.5 184.5q-11 0 -21 4.5t-19 3.5
q-6 -1 -10.5 -6.5t-12.5 -7.5t-14.5 -1.5t-14.5 -2.5q-6 7 -5.5 13t2.5 15q1 5 0.5 8t0.5 5q5 8 14 9t13 8zM143 805q4 8 7 11q4 5 7.5 9t7.5 8q3 3 6 6.5t6 6.5q7 7 13 14t12 15q3 4 6 7.5t7 7.5q4 6 10 6q1 0 7 -2q7 -5 8 -9q1 -3 -1 -9q-3 -5 -6 -9t-6 -7
q-5 -6 -9.5 -11.5t-9.5 -10.5t-9.5 -10.5t-9.5 -10.5q-3 -3 -5.5 -6.5t-4.5 -6.5q-2 -2 -3 -3.5t-3 -3.5l-1 -2q-2 -2 -3 -3.5t-3 -3.5t-4.5 -4t-6.5 -2q-1 0 -2 0.5t-2 0.5q-6 2 -8 6t-3 8l-1 2l1 1q1 2 1.5 2.5t1.5 2.5z" />
    <glyph glyph-name="Icircumflex" unicode="&#xce;" horiz-adv-x="355" 
d="M27 769q7 2 7.5 -1.5t2.5 -6.5q56 -10 115.5 -20t119.5 -15q4 -5 9.5 -9t4.5 -15q-12 -3 -25 -2.5t-27 2t-28.5 3t-27.5 0.5q-5 -65 -6.5 -132.5t-2.5 -135t-2.5 -135t-7.5 -133.5q-1 -7 -2.5 -13.5t-2.5 -13.5q-2 -29 0 -56.5t0 -54.5q11 0 28.5 1t35 0t30.5 -6.5
t14 -18.5q-14 -2 -34 -4.5t-34 -1.5q-25 1 -47.5 -2t-43.5 -8t-41.5 -11.5t-42.5 -10.5q-8 5 -9 13t2 19q0 3 11 7t23 7t20.5 4.5t5.5 -1.5q-1 -1 -0.5 4.5t1.5 13.5t2.5 17l2.5 15q5 26 2 53t-2 53q2 45 2.5 88.5t2.5 88.5q2 94 4.5 185.5t6.5 184.5q-11 0 -21 4.5t-19 3.5
q-6 -1 -10.5 -6.5t-12.5 -7.5t-14.5 -1.5t-14.5 -2.5q-6 7 -5.5 13t2.5 15q1 5 0.5 8t0.5 5q5 8 14 9t13 8zM220 804q0 -1 0.5 -1.5t0.5 -1.5l1 -2l-2 -2q-5 -4 -12 -4q-3 0 -7 1.5t-8 8.5q-2 3 -6 11q-3 5 -5.5 9t-5.5 9q-5 8 -10.5 17t-12.5 20q-1 1 -1 2l-1 1q-2 0 -3 -3
q-8 -11 -14.5 -22t-13.5 -22l-1 -2q-2 -3 -4 -6.5t-4 -6.5t-3.5 -6t-3.5 -6q-1 -2 -3 -4.5t-6 -2.5q-5 0 -9 6q-3 4 -2 7.5t2 5.5l4 7q3 6 6 11.5t6 11.5l2 3q6 13 13 25.5t16 23.5q2 2 3 4l1 2t3 5t6 3q2 0 8 -4l3 -3q5 -4 9 -8t8 -11q3 -7 9 -13q2 -3 8 -11q5 -9 11 -19
t11 -20l4 -6q2 -4 3 -7z" />
    <glyph glyph-name="Idieresis" unicode="&#xcf;" horiz-adv-x="355" 
d="M27 769q7 2 7.5 -1.5t2.5 -6.5q56 -10 115.5 -20t119.5 -15q4 -5 9.5 -9t4.5 -15q-12 -3 -25 -2.5t-27 2t-28.5 3t-27.5 0.5q-5 -65 -6.5 -132.5t-2.5 -135t-2.5 -135t-7.5 -133.5q-1 -7 -2.5 -13.5t-2.5 -13.5q-2 -29 0 -56.5t0 -54.5q11 0 28.5 1t35 0t30.5 -6.5
t14 -18.5q-14 -2 -34 -4.5t-34 -1.5q-25 1 -47.5 -2t-43.5 -8t-41.5 -11.5t-42.5 -10.5q-8 5 -9 13t2 19q0 3 11 7t23 7t20.5 4.5t5.5 -1.5q-1 -1 -0.5 4.5t1.5 13.5t2.5 17l2.5 15q5 26 2 53t-2 53q2 45 2.5 88.5t2.5 88.5q2 94 4.5 185.5t6.5 184.5q-11 0 -21 4.5t-19 3.5
q-6 -1 -10.5 -6.5t-12.5 -7.5t-14.5 -1.5t-14.5 -2.5q-6 7 -5.5 13t2.5 15q1 5 0.5 8t0.5 5q5 8 14 9t13 8zM204 878q13 0 22 -10t9 -22q-1 -14 -8.5 -22t-20.5 -8h-1q-14 0 -22 9.5t-9 26.5q0 8 7 17q10 10 21 9h2zM93 878q13 0 22 -10t9 -22q-1 -14 -8.5 -22t-20.5 -8h-1
q-14 0 -22 9.5t-9 26.5q0 8 7 17q10 10 21 9h2z" />
    <glyph glyph-name="Eth" unicode="&#xd0;" horiz-adv-x="475" 
d="M38 762q3 1 13.5 2.5t20.5 0.5q11 -1 22 -5.5t21 -3.5q5 1 10 4t10 2q6 -1 11 -7.5t10 -10.5q8 -5 16 -5.5t16 -4.5q22 -10 39.5 -26.5t34.5 -27.5q6 -1 8.5 1.5t9.5 1.5q5 -14 19 -24t22 -21q7 -8 13 -20.5t13 -24.5q15 -27 25 -61.5t16 -73t8.5 -80t2.5 -82.5
q0 -33 -3 -67t-9.5 -65t-17.5 -58t-27 -47q-5 -6 -8.5 -12.5t-7.5 -11.5q-9 -9 -21 -14t-18 -16q-19 -8 -34.5 -17t-32.5 -17q-12 0 -20.5 -3.5t-15.5 -8.5q-22 -1 -45 -7.5t-46 -4.5q-5 1 -10.5 3t-10.5 3q-11 1 -22 0t-21.5 -1t-19.5 2t-16 8q2 7 7 9t11.5 1.5t13.5 -2.5
t13 -2q8 8 6.5 18.5t-2.5 24.5q-4 62 -3 127.5t2 133.5v64q-18 -4 -38 -6q-8 -2 -16 -5t-14 -1q-5 2 -8.5 11t-4.5 18q3 7 7.5 7.5t9.5 1.5q28 7 64 12q2 95 1.5 188t-6.5 182q-6 6 -15 5t-17.5 -2t-15 -0.5t-7.5 9.5q6 5 13 6t14.5 0.5t15 -1.5t14.5 1zM163 719
q0 -2 -1 -2.5t0 -2.5q11 -78 12 -163.5t-2 -173.5q5 -1 8.5 -1t7.5 -1q11 -1 24 -0.5t25 -4.5q4 -2 7.5 -5.5t1.5 -11.5q-1 -2 -7 -7t-8 -5q-6 -3 -13.5 -2.5t-15.5 0.5q-15 -1 -31 0q-1 -31 -2 -61t-1 -60q-1 -34 1 -66.5t2 -65.5v-50.5t11 -46.5q39 4 64 35t31 71
q4 25 9.5 57t6.5 62q1 31 -1 66.5t-4 73.5q-2 62 -6 113.5t-11 105.5q-5 38 -9.5 60t-23.5 39q-6 5 -15.5 10.5t-19.5 13.5q-8 5 -20.5 12t-19.5 11z" />
    <glyph glyph-name="Ntilde" unicode="&#xd1;" horiz-adv-x="450" 
d="M134 756q-1 -32 11 -60.5t21 -57.5q19 -60 35.5 -121t33.5 -124q4 -13 5 -26t4 -27q2 -14 7 -26.5t9 -25.5q12 -39 22.5 -78t25.5 -76q6 15 8.5 36.5t2.5 46.5t-1 50t-2 47q-1 30 -2.5 60.5t-2.5 60.5q-1 14 1 27.5t3 27.5q1 15 -0.5 28.5t-0.5 27.5q2 23 5 45t3 44
q0 8 -1.5 15t-1.5 15q1 18 2.5 36.5t-5.5 36.5q3 7 11 10t18 3.5t19.5 -0.5t16.5 -1q2 -6 -0.5 -9t-6 -5.5t-7.5 -4.5t-5 -6q-8 -39 -18 -83.5t-12 -94.5v-45q-1 -17 -0.5 -33.5t2.5 -31.5q3 -35 0.5 -72.5t0.5 -74.5q1 -12 0.5 -28.5t1.5 -31.5q0 -6 2 -11.5t2 -11.5
q2 -38 -4.5 -74.5t-4.5 -71.5q0 -9 1.5 -20t1.5 -22t-2 -21.5t-8 -18.5q-11 -3 -23 -6t-23 -2t-20 6.5t-14 18.5q-2 5 -2 11t-2 12q-10 35 -23.5 70.5t-27.5 73.5q-15 44 -26 90.5t-24 92.5q-6 23 -13.5 45.5t-12.5 45.5q-5 24 -9.5 47.5t-14.5 44.5q-2 20 -6 38t-11 34
q-9 -45 -12 -98.5t-3 -102.5q-7 -14 -6.5 -36t-1.5 -45q-3 -38 -4.5 -68t-6.5 -68q-4 -34 -6.5 -65t-4.5 -61.5t-3.5 -62.5t-1.5 -68q2 -4 4.5 -5l5 -2t4.5 -3t2 -6q1 -7 -6 -12.5t-15 -6.5q-7 -2 -13 1t-14 5q-5 1 -11 2t-10.5 2.5t-7 4t-0.5 7.5q1 5 5 6.5t9 1l10 -1
t10 1.5q2 7 0.5 15.5t-3.5 14.5q5 9 3 16.5t-2 18.5q1 25 5.5 52t7.5 54q2 17 4 29t3.5 23.5t2.5 24.5t1 31q-1 46 6.5 93t9.5 95q2 85 5.5 169t5.5 172q-11 2 -27.5 0t-26.5 6q-1 5 -1.5 9.5t0.5 10.5q15 4 32 4t33.5 -0.5t32 0t27.5 5.5q13 0 19 -8zM333 880q4 -1 5.5 -3
t2.5 -4t2 -5t0 -6q-2 -2 -3 -5t-3 -5l-4 -6t-4 -5q-9 -14 -21 -24t-29 -13h-10h-4h-1q-47 0 -78 33h-1q-5 5 -9.5 9t-9.5 7q-9 3 -18 3q-12 0 -22.5 -5.5t-15.5 -15.5q-2 -4 -5 -8t-5 -9q-4 -6 -9 -6t-9 6q-8 10 -1 20q2 3 4.5 6.5t4.5 7.5l2 4q20 29 53 28q30 0 48 -20
q18 -19 44 -29q9 -4 24 -4q34 0 48 23q4 6 5 7q2 3 3.5 5.5t3.5 5.5q0 1 1 2q1 2 2.5 4.5t5.5 2.5q1 0 1.5 -0.5t1.5 -0.5z" />
    <glyph glyph-name="Ograve" unicode="&#xd2;" horiz-adv-x="422" 
d="M301 682q6 2 13 6.5t12 15.5q3 8 4 17t3.5 16t7.5 9t16 -4q-2 -13 -2 -25.5t-4 -23.5q-5 -16 -20 -25.5t-24 -20.5q6 -56 4 -114.5t-7 -119.5q-4 -52 -9 -108t-8 -113q-3 -48 -9.5 -101t-18.5 -93q-6 -20 -20 -33t-31 -23q-14 -8 -24 -13.5t-33 -2.5q-32 5 -60 20t-41 38
q-5 8 -7 20t-7 25q-9 25 -19 58t-10 68q0 5 1.5 11t1.5 12q0 15 -3 30t-5 29q-4 45 1.5 90.5t7.5 90.5q1 19 2 36t3 34q5 32 12.5 67t14.5 68q2 9 3 17t4 16q3 6 7.5 11.5t6.5 13.5q5 13 8 26.5t9 26.5q6 11 14.5 19.5t15.5 19.5q10 1 18 4t15.5 6.5t15.5 5.5t19 2
q22 -1 42.5 -10.5t37 -24.5t28 -34t14.5 -40zM128 670q-19 -90 -26.5 -184t-12.5 -205q-2 -54 7 -106.5t17 -102.5q2 -18 4.5 -36t7.5 -31q2 -6 8.5 -12t11.5 -14q6 -8 10.5 -17t8.5 -11q7 -3 15 -1t15.5 6t13.5 9t9 8q5 5 9 13t6 15q8 20 13.5 44.5t7.5 47.5q7 63 9 132
t9 138q8 71 12.5 140.5t-2.5 132.5q-26 -7 -48 4t-33 25q-8 11 -10.5 23t-1.5 24.5t4 26t6 26.5q-23 7 -35.5 0t-19 -22t-9 -35t-6.5 -38zM231 751q-9 -11 -14 -26t-3 -29q1 -9 8 -17.5t17 -14t20.5 -6t18.5 5.5q-3 26 -13.5 51.5t-33.5 35.5zM217 855q1 -1 3 -5l1 -1v-2
l-4 -8t-8 -6h-4q-4 0 -6.5 1.5t-4.5 3.5t-3 3.5t-3 3.5l-1 2q-2 2 -3 3.5t-3 3.5q-5 7 -10 13q-5 5 -9.5 10.5t-9.5 11.5q-5 5 -9.5 10.5t-9.5 10.5q-6 6 -11 16q-3 5 -2 9t8 9q6 2 8 2q5 0 9 -6q4 -4 7 -7.5t6 -7.5q7 -8 12.5 -15t12.5 -14q3 -3 6 -6.5t6 -6.5q4 -4 7.5 -8
t7.5 -9q3 -3 7 -11z" />
    <glyph glyph-name="Oacute" unicode="&#xd3;" horiz-adv-x="422" 
d="M301 682q6 2 13 6.5t12 15.5q3 8 4 17t3.5 16t7.5 9t16 -4q-2 -13 -2 -25.5t-4 -23.5q-5 -16 -20 -25.5t-24 -20.5q6 -56 4 -114.5t-7 -119.5q-4 -52 -9 -108t-8 -113q-3 -48 -9.5 -101t-18.5 -93q-6 -20 -20 -33t-31 -23q-14 -8 -24 -13.5t-33 -2.5q-32 5 -60 20t-41 38
q-5 8 -7 20t-7 25q-9 25 -19 58t-10 68q0 5 1.5 11t1.5 12q0 15 -3 30t-5 29q-4 45 1.5 90.5t7.5 90.5q1 19 2 36t3 34q5 32 12.5 67t14.5 68q2 9 3 17t4 16q3 6 7.5 11.5t6.5 13.5q5 13 8 26.5t9 26.5q6 11 14.5 19.5t15.5 19.5q10 1 18 4t15.5 6.5t15.5 5.5t19 2
q22 -1 42.5 -10.5t37 -24.5t28 -34t14.5 -40zM128 670q-19 -90 -26.5 -184t-12.5 -205q-2 -54 7 -106.5t17 -102.5q2 -18 4.5 -36t7.5 -31q2 -6 8.5 -12t11.5 -14q6 -8 10.5 -17t8.5 -11q7 -3 15 -1t15.5 6t13.5 9t9 8q5 5 9 13t6 15q8 20 13.5 44.5t7.5 47.5q7 63 9 132
t9 138q8 71 12.5 140.5t-2.5 132.5q-26 -7 -48 4t-33 25q-8 11 -10.5 23t-1.5 24.5t4 26t6 26.5q-23 7 -35.5 0t-19 -22t-9 -35t-6.5 -38zM231 751q-9 -11 -14 -26t-3 -29q1 -9 8 -17.5t17 -14t20.5 -6t18.5 5.5q-3 26 -13.5 51.5t-33.5 35.5zM171 859q4 8 7 11q4 5 7.5 8.5
t7.5 8.5q3 3 6 6.5t6 6.5q7 8 13 14.5t12 14.5q3 4 6.5 7.5t6.5 7.5q6 6 10 6q3 0 7 -2q6 -4 8 -9t-1 -9q-5 -10 -12 -17q-5 -5 -9.5 -10.5t-9.5 -10.5t-9.5 -10.5t-9.5 -10.5q-2 -3 -5 -6.5t-5 -6.5q-2 -2 -2.5 -3.5t-2.5 -3.5l-2 -2q-2 -5 -6 -7q-2 -2 -4.5 -4t-5.5 -2
q-2 0 -2.5 0.5t-2.5 0.5q-5 2 -7 6l-4 8l-1 2l1 1q1 2 1.5 2.5t1.5 2.5z" />
    <glyph glyph-name="Ocircumflex" unicode="&#xd4;" horiz-adv-x="422" 
d="M301 682q6 2 13 6.5t12 15.5q3 8 4 17t3.5 16t7.5 9t16 -4q-2 -13 -2 -25.5t-4 -23.5q-5 -16 -20 -25.5t-24 -20.5q6 -56 4 -114.5t-7 -119.5q-4 -52 -9 -108t-8 -113q-3 -48 -9.5 -101t-18.5 -93q-6 -20 -20 -33t-31 -23q-14 -8 -24 -13.5t-33 -2.5q-32 5 -60 20t-41 38
q-5 8 -7 20t-7 25q-9 25 -19 58t-10 68q0 5 1.5 11t1.5 12q0 15 -3 30t-5 29q-4 45 1.5 90.5t7.5 90.5q1 19 2 36t3 34q5 32 12.5 67t14.5 68q2 9 3 17t4 16q3 6 7.5 11.5t6.5 13.5q5 13 8 26.5t9 26.5q6 11 14.5 19.5t15.5 19.5q10 1 18 4t15.5 6.5t15.5 5.5t19 2
q22 -1 42.5 -10.5t37 -24.5t28 -34t14.5 -40zM128 670q-19 -90 -26.5 -184t-12.5 -205q-2 -54 7 -106.5t17 -102.5q2 -18 4.5 -36t7.5 -31q2 -6 8.5 -12t11.5 -14q6 -8 10.5 -17t8.5 -11q7 -3 15 -1t15.5 6t13.5 9t9 8q5 5 9 13t6 15q8 20 13.5 44.5t7.5 47.5q7 63 9 132
t9 138q8 71 12.5 140.5t-2.5 132.5q-26 -7 -48 4t-33 25q-8 11 -10.5 23t-1.5 24.5t4 26t6 26.5q-23 7 -35.5 0t-19 -22t-9 -35t-6.5 -38zM231 751q-9 -11 -14 -26t-3 -29q1 -9 8 -17.5t17 -14t20.5 -6t18.5 5.5q-3 26 -13.5 51.5t-33.5 35.5zM259 837q0 -2 1 -3l1 -3l-2 -1
q-7 -5 -12 -5q-3 0 -7 2t-8 8q-4 8 -7 12q-2 5 -4.5 9t-5.5 8q-5 8 -10.5 17.5t-12.5 20.5l-3 3l-1 -1q0 -1 -0.5 -1t-0.5 -1q-8 -11 -15 -22.5t-14 -22.5l-1 -1l-3.5 -7t-3.5 -6t-4 -6.5t-4 -6.5q-1 -1 -3 -3.5t-5 -2.5q-6 0 -10 6q-2 3 -1.5 6.5t2.5 6.5l4 7q3 6 6 11.5
t6 11.5l1 3q7 13 13.5 25.5t16.5 22.5q1 1 1 2t1 2q0 1 1 2q4 8 10 8q4 0 7 -3l4 -3q11 -9 16 -19q2 -4 4.5 -7t4.5 -6t4 -5.5t4 -5.5q7 -9 12.5 -19t10.5 -20l3 -6q2 -2 2.5 -3.5t1.5 -3.5z" />
    <glyph glyph-name="Otilde" unicode="&#xd5;" horiz-adv-x="422" 
d="M301 682q6 2 13 6.5t12 15.5q3 8 4 17t3.5 16t7.5 9t16 -4q-2 -13 -2 -25.5t-4 -23.5q-5 -16 -20 -25.5t-24 -20.5q6 -56 4 -114.5t-7 -119.5q-4 -52 -9 -108t-8 -113q-3 -48 -9.5 -101t-18.5 -93q-6 -20 -20 -33t-31 -23q-14 -8 -24 -13.5t-33 -2.5q-32 5 -60 20t-41 38
q-5 8 -7 20t-7 25q-9 25 -19 58t-10 68q0 5 1.5 11t1.5 12q0 15 -3 30t-5 29q-4 45 1.5 90.5t7.5 90.5q1 19 2 36t3 34q5 32 12.5 67t14.5 68q2 9 3 17t4 16q3 6 7.5 11.5t6.5 13.5q5 13 8 26.5t9 26.5q6 11 14.5 19.5t15.5 19.5q10 1 18 4t15.5 6.5t15.5 5.5t19 2
q22 -1 42.5 -10.5t37 -24.5t28 -34t14.5 -40zM128 670q-19 -90 -26.5 -184t-12.5 -205q-2 -54 7 -106.5t17 -102.5q2 -18 4.5 -36t7.5 -31q2 -6 8.5 -12t11.5 -14q6 -8 10.5 -17t8.5 -11q7 -3 15 -1t15.5 6t13.5 9t9 8q5 5 9 13t6 15q8 20 13.5 44.5t7.5 47.5q7 63 9 132
t9 138q8 71 12.5 140.5t-2.5 132.5q-26 -7 -48 4t-33 25q-8 11 -10.5 23t-1.5 24.5t4 26t6 26.5q-23 7 -35.5 0t-19 -22t-9 -35t-6.5 -38zM231 751q-9 -11 -14 -26t-3 -29q1 -9 8 -17.5t17 -14t20.5 -6t18.5 5.5q-3 26 -13.5 51.5t-33.5 35.5zM318 902q3 -2 4.5 -4t2.5 -4
q1 -1 2 -4t0 -6q-2 -3 -3 -6t-3 -5t-4 -5l-4 -6q-5 -6 -9.5 -12t-11.5 -11q-12 -10 -29 -13q-7 0 -10 -1h-4q-49 3 -79 33l-1 1l-9 9t-10 6q-8 4 -18 4q-12 0 -22.5 -6t-15.5 -15q-2 -5 -5 -9t-5 -8q-2 -2 -4 -4.5t-5 -2.5q-5 0 -9 6q-9 10 -1 20q2 4 4.5 7t4.5 7l2 4
q19 28 53 28q29 0 48 -19q20 -21 44 -29q5 -2 11.5 -3t12.5 -1q34 0 48 23q2 2 2.5 3.5t2.5 3.5q2 3 3.5 5.5t3.5 5.5l1 1q2 7 8 7h4z" />
    <glyph glyph-name="Odieresis" unicode="&#xd6;" horiz-adv-x="422" 
d="M301 682q6 2 13 6.5t12 15.5q3 8 4 17t3.5 16t7.5 9t16 -4q-2 -13 -2 -25.5t-4 -23.5q-5 -16 -20 -25.5t-24 -20.5q6 -56 4 -114.5t-7 -119.5q-4 -52 -9 -108t-8 -113q-3 -48 -9.5 -101t-18.5 -93q-6 -20 -20 -33t-31 -23q-14 -8 -24 -13.5t-33 -2.5q-32 5 -60 20t-41 38
q-5 8 -7 20t-7 25q-9 25 -19 58t-10 68q0 5 1.5 11t1.5 12q0 15 -3 30t-5 29q-4 45 1.5 90.5t7.5 90.5q1 19 2 36t3 34q5 32 12.5 67t14.5 68q2 9 3 17t4 16q3 6 7.5 11.5t6.5 13.5q5 13 8 26.5t9 26.5q6 11 14.5 19.5t15.5 19.5q10 1 18 4t15.5 6.5t15.5 5.5t19 2
q22 -1 42.5 -10.5t37 -24.5t28 -34t14.5 -40zM128 670q-19 -90 -26.5 -184t-12.5 -205q-2 -54 7 -106.5t17 -102.5q2 -18 4.5 -36t7.5 -31q2 -6 8.5 -12t11.5 -14q6 -8 10.5 -17t8.5 -11q7 -3 15 -1t15.5 6t13.5 9t9 8q5 5 9 13t6 15q8 20 13.5 44.5t7.5 47.5q7 63 9 132
t9 138q8 71 12.5 140.5t-2.5 132.5q-26 -7 -48 4t-33 25q-8 11 -10.5 23t-1.5 24.5t4 26t6 26.5q-23 7 -35.5 0t-19 -22t-9 -35t-6.5 -38zM231 751q-9 -11 -14 -26t-3 -29q1 -9 8 -17.5t17 -14t20.5 -6t18.5 5.5q-3 26 -13.5 51.5t-33.5 35.5zM244 898q13 0 22 -10t9 -22
q-1 -14 -8.5 -22t-20.5 -8h-1q-14 0 -22 9.5t-9 26.5q0 8 7 17q10 10 21 9h2zM133 898q13 0 22 -10t9 -22q-1 -14 -8.5 -22t-20.5 -8h-1q-14 0 -22 9.5t-9 26.5q0 8 7 17q10 10 21 9h2z" />
    <glyph glyph-name="multiply" unicode="&#xd7;" horiz-adv-x="276" 
d="M190 328q5 -5 5.5 -9t-1.5 -7q-2 -4 -2 -5q-1 -2 -1.5 -4t-1.5 -4q-1 -1 -3 -3.5t-6 -2.5t-8 4q-4 3 -10 9q-4 3 -7 6t-7 6l-6 6t-7 5l-6 6l-8 7l-18 15q-1 1 -1.5 1t-1.5 1q-1 0 -3 -2l-6 -6q-4 -3 -7 -6l-6 -6q-11 -10 -22.5 -19.5t-20.5 -17.5q-2 -2 -3.5 -2.5
t-3.5 -2.5h-1q-8 -4 -10 -4q-5 0 -12 7q-2 2 -2 4q0 9 10 12q5 2 9 5.5t9 8.5q2 1 2.5 2t2.5 2l1 2q11 10 21.5 20t21.5 21l-8 7q-6 5 -12 11t-13 11q-7 6 -14 11t-14 11l-8 7q-6 4 -7.5 11t1.5 13q5 7 12 7q2 0 4.5 -0.5t5.5 -3.5l4 -4l4 -4l6.5 -6.5t7.5 -6.5
q24 -23 48 -42q0 -1 1 -1l1 -1q1 0 3 2q5 5 10 11t10 11q4 5 8 9t8 9l11 11l6 6q2 3 5 5.5t5 4.5q4 4 11 6q10 4 13 -3q4 -8 0 -15q-2 -2 -4.5 -5t-4.5 -5l-2 -3l-3 -3q-1 0 -3 -2q-1 -2 -1.5 -2.5t-1.5 -2.5l-7 -7q-5 -6 -11 -11.5t-11 -11.5l-18 -18q0 -1 -2 -3l2 -2
q21 -12 46 -33q5 -5 11 -9t11 -8z" />
    <glyph glyph-name="Oslash" unicode="&#xd8;" horiz-adv-x="460" 
d="M355 608q-9 -7 -15 -20q2 -8 2 -12q7 -41 10.5 -85t4.5 -89t0 -90t-3 -86q-2 -44 -7.5 -89.5t-14.5 -80.5q-2 -5 -5 -11t-5 -13q-2 -8 -3 -17t-3 -16q-2 -11 -7.5 -19.5t-5.5 -18.5l-20 -38q-14 -11 -26.5 -19.5t-27 -15.5t-31.5 -10.5t-40 -3.5q-17 0 -33.5 7.5
t-31 18.5t-26.5 24.5t-18 24.5h-1l-26 -64t-28 -62q-5 -2 -11 -4.5t-12 1.5q7 38 25 70.5t28 69.5q3 14 11 30q-4 11 -5 19q-5 16 -10 31t-8 30q-8 34 -10.5 70.5t-4.5 71.5q-2 25 1.5 45.5t3.5 41.5q0 11 -2.5 22.5t-2.5 22.5q-2 56 4.5 107.5t17.5 93.5q5 17 6.5 33
t4.5 32q4 18 12 36.5t17 35.5q16 29 31 51t44 36q4 2 7 2q21 0 43 -1.5t42.5 -5.5t36.5 -11t25 -18t18 -33t16 -42q3 -10 6.5 -21.5t5.5 -23.5q5 8 10 14t7 17q9 11 14.5 24.5t13.5 24.5q2 2 3.5 3t3.5 3q11 13 15.5 28.5t15.5 29.5q8 2 14 5t11 -6q-12 -23 -26 -44.5
t-22 -48.5q-15 -6 -24 -24t-15 -33zM103 212q0 -17 -0.5 -34t-0.5 -34q4 8 7.5 15.5t7.5 15.5q20 38 37.5 77.5t39.5 78.5q8 14 12 28t12 25q2 2 4 3.5t4 3.5q6 9 9.5 19.5t10.5 19.5q0 3 -0.5 5.5t-0.5 4.5q17 34 32.5 67.5t33.5 66.5q-8 42 -20 78.5t-31 65.5
q-12 3 -28 12t-32 5q-11 -2 -13 -6t-10 -13q-14 -19 -21 -38.5t-14 -51.5q-9 -41 -16.5 -76.5t-15.5 -72.5q-5 -21 -4.5 -42t-0.5 -42q-2 -45 -2 -90.5v-90.5zM278 -13q28 75 37.5 170.5t9.5 201.5q0 46 -2 92t-7 89q-8 -14 -12 -27q-8 -14 -16.5 -27.5t-10.5 -32.5
q-11 -15 -17 -32t-14 -34q-14 -31 -32.5 -60.5t-32.5 -60.5q-6 -13 -10.5 -26.5t-12.5 -24.5q-2 -3 -4.5 -5t-4.5 -5q-4 -7 -6 -14.5t-7 -13.5q-2 -6 -2 -10q-10 -16 -17.5 -35t-15.5 -38q1 -16 2 -30t3 -28q2 -12 7.5 -25t10.5 -26q5 -14 9.5 -26.5t12.5 -20.5l1 2
q5 -8 14 -16t24 -3q25 -2 43 8.5t31 26.5z" />
    <glyph glyph-name="Ugrave" unicode="&#xd9;" horiz-adv-x="435" 
d="M369 740q2 -10 -4.5 -16t-13.5 -11q-4 -3 -7.5 -6t-4.5 -5q0 -5 0.5 -10t0.5 -10q1 -11 1 -20t-3 -17q3 -8 3 -16.5t-2 -17.5q0 -5 -0.5 -10.5t-0.5 -10.5v-23.5t2 -24.5q1 -11 2 -21.5t1 -21.5q0 -5 -0.5 -10t-0.5 -10q-1 -5 -1.5 -9.5t-0.5 -9.5v-61t-1 -70t-3.5 -73.5
t-6.5 -71.5q-2 -20 -5.5 -38t-7.5 -35q-2 -9 -3.5 -18.5t-3.5 -19.5q-1 -5 -1.5 -8.5t-0.5 -8.5q-2 -8 -3 -15.5t-3 -14.5q-3 -7 -8 -14q-2 -3 -3.5 -6t-3.5 -6q-1 -3 -1.5 -5.5t-0.5 -5.5q-2 -8 -4 -13q-3 -5 -10.5 -13t-16.5 -15.5t-18.5 -13.5t-15.5 -7h-8h-9q-3 1 -7 3
l-4 2q-3 1 -6.5 0.5t-6.5 -0.5q-9 -2 -15 0q-5 2 -10.5 4t-10.5 5l-2 1q-2 1 -5 2t-5 2q-6 1 -12 5q-4 2 -6.5 4.5l-4.5 4.5q-5 4 -10 7t-13 2h-2l-2 1q-28 23 -46 76l-2 6q-6 18 -11.5 40t-7.5 42q-2 17 -2 35t-1 37v24t-1 24q-2 46 -2 92.5t1 91.5q0 31 0.5 62t-0.5 62
q0 15 1.5 29t3.5 28q2 13 3 25.5t1 23.5v9t-1 8q-1 10 -1 19.5t3 19.5q-5 5 -18 5q-5 0 -10 0.5t-10 3.5l-2 2v2q-2 12 6 20q7 9 27 9q14 0 28 -3.5t19 -5.5q8 4 19 4q4 0 7.5 -0.5t8.5 -0.5q10 -2 18 -2h1q4 0 7.5 0.5t8.5 0.5q5 1 9 1h8q5 0 11.5 -1t11.5 -6q5 -9 4 -19
v-2l-2 -2q-8 -5 -21 -5q-5 -1 -8.5 -1t-7.5 -2q-6 -38 -4.5 -76.5t1.5 -76.5v-13q0 -14 -0.5 -27t-1.5 -26q-1 -10 -1.5 -20t-0.5 -21q0 -107 3 -208.5t9 -180.5q1 -7 1 -13v-12q1 -17 2.5 -31.5t6.5 -26.5q1 -4 7 -10t14 -11.5t16.5 -9.5t14.5 -5q11 -1 22 5t19 13
q6 5 12 16t12 25t11 28.5t8 26.5q2 9 4.5 20t4.5 22q10 57 16 117t6 110q0 12 -0.5 23t-0.5 22q-1 11 -1.5 22.5t-0.5 22.5q1 8 1 15t1 15t1.5 16.5t0.5 16.5q1 35 0.5 72t-1.5 75q0 4 -1.5 12.5t-3.5 16.5t-3.5 14.5t-2.5 8.5q-2 3 -4 4.5t-7 3.5q-1 0 -5 2l-2 1v1
q-2 4 -5 7t-6 7q-5 5 -9.5 11t-5.5 14v4l3 1q7 3 19 3h9.5t9.5 -1h18h12q2 1 8 3q5 1 8.5 2t7.5 1q12 0 14 -13zM219 833q1 -2 1.5 -2.5t1.5 -2.5l1 -1l-1 -2q-2 -4 -3.5 -8t-7.5 -6q-1 0 -2 -0.5t-2 -0.5q-4 0 -6.5 2t-4.5 4t-3 3.5t-3 3.5l-2 2q-2 4 -5 7q-2 3 -4.5 6.5
t-5.5 6.5q-5 5 -9.5 10.5t-9.5 10.5t-9.5 10.5t-9.5 10.5l-6 8t-6 9q-3 4 -1 9t8 9q4 2 7 2q4 0 10 -6q3 -4 6.5 -7.5t6.5 -7.5q6 -8 12 -14.5t13 -14.5q3 -3 6 -6.5t6 -6.5q4 -5 7.5 -8.5t7.5 -8.5q3 -3 7 -11z" />
    <glyph glyph-name="Uacute" unicode="&#xda;" horiz-adv-x="435" 
d="M369 740q-2 13 -14 13q-4 0 -7.5 -1t-8.5 -2q-6 -2 -8 -3h-12h-18q-5 1 -9.5 1h-9.5q-12 0 -19 -3l-3 -1v-4q1 -8 5.5 -14t9.5 -11q3 -4 6 -7t5 -7v-1l2 -1q4 -2 5 -2q5 -2 7 -3.5t4 -4.5q1 -2 2.5 -8.5t3.5 -14.5t3.5 -16.5t1.5 -12.5q1 -38 1.5 -75t-0.5 -72
q0 -8 -0.5 -16.5t-1.5 -16.5t-1 -15t-1 -15q0 -11 0.5 -22.5t1.5 -22.5q0 -11 0.5 -22t0.5 -23q0 -50 -6 -110t-16 -117q-2 -11 -4.5 -22t-4.5 -20q-3 -12 -8 -26.5t-11 -28.5t-12 -25t-12 -16q-8 -7 -19 -13t-22 -5q-6 1 -14.5 5t-16.5 9.5t-14 11.5t-7 10q-5 12 -6.5 26.5
t-2.5 31.5v12t-1 13q-6 79 -9 180.5t-3 208.5q0 11 0.5 21t1.5 20q1 13 1.5 26t0.5 27v13q0 38 -1.5 76.5t4.5 76.5q4 2 7.5 2t8.5 1q13 0 21 5l2 2v2q1 10 -4 19q-5 5 -11.5 6t-11.5 1h-8t-9 -1q-5 0 -8.5 -0.5t-7.5 -0.5h-1q-8 0 -18 2q-5 0 -8.5 0.5t-7.5 0.5
q-11 0 -19 -4q-5 2 -19 5.5t-28 3.5q-20 0 -27 -9q-8 -8 -6 -20v-2l2 -2q5 -3 10 -3.5t10 -0.5q13 0 18 -5q-3 -10 -3 -19.5t1 -19.5q1 -4 1 -8v-9q0 -11 -1 -23.5t-3 -25.5q-2 -14 -3.5 -28t-1.5 -29q1 -31 0.5 -62t-0.5 -62q-1 -45 -1 -91.5t2 -92.5q1 -12 1 -24v-24
q1 -19 1 -37t2 -35q2 -20 7.5 -42t11.5 -40l2 -6q18 -53 46 -76l2 -1h2q8 1 13 -2t10 -7l4.5 -4.5t6.5 -4.5q6 -4 12 -5q2 -1 5 -2t5 -2l2 -1q5 -3 10.5 -5t10.5 -4q6 -2 15 0q3 0 6.5 0.5t6.5 -0.5l4 -2t7 -3h9h8q6 1 15.5 7t18.5 13.5t16.5 15.5t10.5 13q2 5 4 13
q0 3 0.5 5.5t1.5 5.5q2 3 3.5 6t3.5 6q5 7 8 14q2 7 3 14.5t3 15.5q0 5 0.5 8.5t1.5 8.5q2 10 3.5 19.5t3.5 18.5q4 17 7.5 35t5.5 38q4 34 6.5 71.5t3.5 73.5t1 70v61q0 5 0.5 9.5t1.5 9.5q0 5 0.5 10t0.5 10q0 11 -1 21.5t-2 21.5q-2 12 -2 24.5v23.5q0 5 0.5 10.5
t0.5 10.5q2 9 2 17.5t-3 16.5q3 8 3 17t-1 20q0 5 -0.5 10t-0.5 10q1 2 4.5 5t7.5 6q7 5 13.5 11t4.5 16zM199 826q4 8 7 11q4 5 8 9l8 8q3 4 6 7l6 6q6 8 12 15l12 14q4 4 7 7.5t6 7.5q6 6 10 6q3 0 7 -2q7 -3 9 -9q1 -3 -2 -9q-2 -5 -5 -8.5t-6 -7.5q-5 -5 -9.5 -10.5
t-9.5 -10.5q-10 -10 -19 -22q-3 -3 -5.5 -6t-5.5 -7q-2 -4 -5 -7l-1 -2l-3.5 -3.5l-3.5 -3.5t-4 -3.5t-6 -1.5q-3 0 -5 1q-5 2 -7 5.5t-4 8.5v1l1 2q1 1 1 2t1 2z" />
    <glyph glyph-name="Ucircumflex" unicode="&#xdb;" horiz-adv-x="435" 
d="M369 740q2 -10 -4.5 -16t-13.5 -11q-4 -3 -7.5 -6t-4.5 -5q0 -5 0.5 -10t0.5 -10q1 -11 1 -20t-3 -17q3 -8 3 -16.5t-2 -17.5q0 -5 -0.5 -10.5t-0.5 -10.5v-23.5t2 -24.5q1 -11 2 -21.5t1 -21.5q0 -5 -0.5 -10t-0.5 -10q-1 -5 -1.5 -9.5t-0.5 -9.5v-61t-1 -70t-3.5 -73.5
t-6.5 -71.5q-2 -20 -5.5 -38t-7.5 -35q-2 -9 -3.5 -18.5t-3.5 -19.5q-1 -5 -1.5 -8.5t-0.5 -8.5q-2 -8 -3 -15.5t-3 -14.5q-3 -7 -8 -14q-2 -3 -3.5 -6t-3.5 -6q-1 -3 -1.5 -5.5t-0.5 -5.5q-2 -8 -4 -13q-3 -5 -10.5 -13t-16.5 -15.5t-18.5 -13.5t-15.5 -7h-8h-9q-3 1 -7 3
l-4 2q-3 1 -6.5 0.5t-6.5 -0.5q-9 -2 -15 0q-5 2 -10.5 4t-10.5 5l-2 1q-2 1 -5 2t-5 2q-6 1 -12 5q-4 2 -6.5 4.5l-4.5 4.5q-5 4 -10 7t-13 2h-2l-2 1q-28 23 -46 76l-2 6q-6 18 -11.5 40t-7.5 42q-2 17 -2 35t-1 37v24t-1 24q-2 46 -2 92.5t1 91.5q0 31 0.5 62t-0.5 62
q0 15 1.5 29t3.5 28q2 13 3 25.5t1 23.5v9t-1 8q-1 10 -1 19.5t3 19.5q-5 5 -18 5q-5 0 -10 0.5t-10 3.5l-2 2v2q-2 12 6 20q7 9 27 9q14 0 28 -3.5t19 -5.5q8 4 19 4q4 0 7.5 -0.5t8.5 -0.5q10 -2 18 -2h1q4 0 7.5 0.5t8.5 0.5q5 1 9 1h8q5 0 11.5 -1t11.5 -6q5 -9 4 -19
v-2l-2 -2q-8 -5 -21 -5q-5 -1 -8.5 -1t-7.5 -2q-6 -38 -4.5 -76.5t1.5 -76.5v-13q0 -14 -0.5 -27t-1.5 -26q-1 -10 -1.5 -20t-0.5 -21q0 -107 3 -208.5t9 -180.5q1 -7 1 -13v-12q1 -17 2.5 -31.5t6.5 -26.5q1 -4 7 -10t14 -11.5t16.5 -9.5t14.5 -5q11 -1 22 5t19 13
q6 5 12 16t12 25t11 28.5t8 26.5q2 9 4.5 20t4.5 22q10 57 16 117t6 110q0 12 -0.5 23t-0.5 22q-1 11 -1.5 22.5t-0.5 22.5q1 8 1 15t1 15t1.5 16.5t0.5 16.5q1 35 0.5 72t-1.5 75q0 4 -1.5 12.5t-3.5 16.5t-3.5 14.5t-2.5 8.5q-2 3 -4 4.5t-7 3.5q-1 0 -5 2l-2 1v1
q-2 4 -5 7t-6 7q-5 5 -9.5 11t-5.5 14v4l3 1q7 3 19 3h9.5t9.5 -1h18h12q2 1 8 3q5 1 8.5 2t7.5 1q12 0 14 -13zM262 831q0 -1 0.5 -1.5t0.5 -1.5l1 -2l-2 -2q-7 -5 -12 -5q-3 0 -7 2t-8 9q-2 3 -6 11q-3 5 -5.5 9t-5.5 9q-5 8 -10.5 17t-12.5 20q-2 3 -3 3l-1 -1
q0 -1 -0.5 -1t-0.5 -1q-8 -11 -14.5 -22.5t-14.5 -22.5l-1 -1q-2 -3 -3.5 -6.5t-3.5 -6.5t-3.5 -6l-3.5 -7l-3.5 -3.5t-5.5 -2.5q-5 0 -9 6q-3 4 -2.5 7.5t2.5 5.5l4 7q3 6 6 11.5t6 11.5l2 3q6 13 12.5 25.5t16.5 23.5q2 0 2 3q1 1 1 2q4 8 10 8q3 0 8 -3l3 -3q5 -4 9 -8
t7 -11q4 -8 10 -13q2 -3 3.5 -5.5t3.5 -5.5q6 -10 12 -19.5t11 -19.5l4 -6q2 -4 3 -7z" />
    <glyph glyph-name="Udieresis" unicode="&#xdc;" horiz-adv-x="435" 
d="M369 740q2 -10 -4.5 -16t-13.5 -11q-4 -3 -7.5 -6t-4.5 -5q0 -5 0.5 -10t0.5 -10q1 -11 1 -20t-3 -17q3 -8 3 -16.5t-2 -17.5q0 -5 -0.5 -10.5t-0.5 -10.5v-23.5t2 -24.5q1 -11 2 -21.5t1 -21.5q0 -5 -0.5 -10t-0.5 -10q-1 -5 -1.5 -9.5t-0.5 -9.5v-61t-1 -70t-3.5 -73.5
t-6.5 -71.5q-2 -20 -5.5 -38t-7.5 -35q-2 -9 -3.5 -18.5t-3.5 -19.5q-1 -5 -1.5 -8.5t-0.5 -8.5q-2 -8 -3 -15.5t-3 -14.5q-3 -7 -8 -14q-2 -3 -3.5 -6t-3.5 -6q-1 -3 -1.5 -5.5t-0.5 -5.5q-2 -8 -4 -13q-3 -5 -10.5 -13t-16.5 -15.5t-18.5 -13.5t-15.5 -7h-8h-9q-3 1 -7 3
l-4 2q-3 1 -6.5 0.5t-6.5 -0.5q-9 -2 -15 0q-5 2 -10.5 4t-10.5 5l-2 1q-2 1 -5 2t-5 2q-6 1 -12 5q-4 2 -6.5 4.5l-4.5 4.5q-5 4 -10 7t-13 2h-2l-2 1q-28 23 -46 76l-2 6q-6 18 -11.5 40t-7.5 42q-2 17 -2 35t-1 37v24t-1 24q-2 46 -2 92.5t1 91.5q0 31 0.5 62t-0.5 62
q0 15 1.5 29t3.5 28q2 13 3 25.5t1 23.5v9t-1 8q-1 10 -1 19.5t3 19.5q-5 5 -18 5q-5 0 -10 0.5t-10 3.5l-2 2v2q-2 12 6 20q7 9 27 9q14 0 28 -3.5t19 -5.5q8 4 19 4q4 0 7.5 -0.5t8.5 -0.5q10 -2 18 -2h1q4 0 7.5 0.5t8.5 0.5q5 1 9 1h8q5 0 11.5 -1t11.5 -6q5 -9 4 -19
v-2l-2 -2q-8 -5 -21 -5q-5 -1 -8.5 -1t-7.5 -2q-6 -38 -4.5 -76.5t1.5 -76.5v-13q0 -14 -0.5 -27t-1.5 -26q-1 -10 -1.5 -20t-0.5 -21q0 -107 3 -208.5t9 -180.5q1 -7 1 -13v-12q1 -17 2.5 -31.5t6.5 -26.5q1 -4 7 -10t14 -11.5t16.5 -9.5t14.5 -5q11 -1 22 5t19 13
q6 5 12 16t12 25t11 28.5t8 26.5q2 9 4.5 20t4.5 22q10 57 16 117t6 110q0 12 -0.5 23t-0.5 22q-1 11 -1.5 22.5t-0.5 22.5q1 8 1 15t1 15t1.5 16.5t0.5 16.5q1 35 0.5 72t-1.5 75q0 4 -1.5 12.5t-3.5 16.5t-3.5 14.5t-2.5 8.5q-2 3 -4 4.5t-7 3.5q-1 0 -5 2l-2 1v1
q-2 4 -5 7t-6 7q-5 5 -9.5 11t-5.5 14v4l3 1q7 3 19 3h9.5t9.5 -1h18h12q2 1 8 3q5 1 8.5 2t7.5 1q12 0 14 -13zM254 888q13 0 22 -10t9 -22q-1 -14 -8.5 -22t-20.5 -8h-1q-14 0 -22 9.5t-9 26.5q0 8 7 17q10 10 21 9h2zM143 888q13 0 22 -10t9 -22q-1 -14 -8.5 -22
t-20.5 -8h-1q-14 0 -22 9.5t-9 26.5q0 8 7 17q10 10 21 9h2z" />
    <glyph glyph-name="Yacute" unicode="&#xdd;" horiz-adv-x="382" 
d="M280 770q-2 -14 0 -27t-1 -26q-4 -16 -9 -32l-10 -32q-11 -32 -21.5 -63t-20.5 -62q-5 -16 -9.5 -32t-13.5 -29q-21 69 -42.5 137.5t-38.5 143.5q8 2 18.5 1t14.5 6q2 12 -4 18q-5 2 -9.5 0.5t-10.5 -1.5q-12 -1 -25.5 1.5t-27.5 0.5q-11 -1 -21 -5.5t-19 -5.5
q-8 -1 -19.5 0.5t-23 2t-19.5 -1.5t-9 -11q0 -6 3 -9t7.5 -4.5t9.5 -2t8 -1.5q8 -7 10.5 -17t6.5 -19q23 -60 44 -120.5t42 -122.5q4 -11 9 -21t6 -18q1 -5 -0.5 -11.5t-1.5 -12.5q0 -26 2.5 -55t1.5 -52q-1 -3 -2.5 -8.5t-1.5 -8.5q-2 -16 -1.5 -36.5t1 -42t1 -42.5
t0.5 -38q0 -6 0.5 -19t0.5 -26.5t-1 -25t-3 -14.5q-2 -4 -8 -5.5t-11.5 -3.5t-9 -6t-1.5 -12q2 -6 13.5 -8.5t22.5 -1.5q14 2 30.5 7.5t35.5 5.5q25 0 47.5 -0.5t35.5 13.5q-1 7 -6 9.5t-12 3.5t-15 0.5t-15 0.5q-5 92 -2.5 197t6.5 202q0 5 -1 11t0 11q2 14 9 30.5t12 33.5
q14 42 26 82t25 83q2 8 4.5 17.5t5.5 15.5q2 4 5 5.5t5 4.5q2 4 3.5 8t3.5 8q4 7 11 12.5t6 15.5q-7 8 -23 11.5t-24 -7.5zM179 846q4 8 7 11q4 5 8 9l8 8q3 4 6 7l6 6q6 8 12 15l12 14q4 4 7 7.5t6 7.5q6 6 10 6q3 0 7 -2q7 -3 9 -9q1 -3 -2 -9q-2 -5 -5 -8.5t-6 -7.5
q-5 -5 -9.5 -10.5t-9.5 -10.5q-10 -10 -19 -22q-3 -3 -5.5 -6t-5.5 -7q-2 -4 -5 -7l-1 -2l-3.5 -3.5l-3.5 -3.5t-4 -3.5t-6 -1.5q-3 0 -5 1q-5 2 -7 5.5t-4 8.5v1l1 2q1 1 1 2t1 2z" />
    <glyph glyph-name="Thorn" unicode="&#xde;" horiz-adv-x="426" 
d="M338 212q-2 -6 -5 -12t-5 -12q-6 -17 -19 -27q-4 -2 -7 -5t-7 -5q-8 -4 -11 -5q-5 -1 -9 -1t-9 -2q-14 -5 -29 -6.5t-30 -2.5h-23.5t-22.5 2q-7 1 -8 -6q-1 -5 -1 -9.5v-9.5v-32v-83q0 -1 0.5 -1.5t-0.5 -2.5q0 -7 7 -7t17 -2q6 0 12 -3q4 -2 4 -7t-5 -5q-16 -8 -32 -8
q-8 1 -15.5 0.5t-15.5 -0.5q-7 0 -14 -0.5t-15 -0.5h-22t-22 -1q-14 -1 -29 2q-4 2 -8 3.5t-8 4.5q-2 1 -4 8q-2 3 3 5q5 0 9 2.5t9 5.5q3 2 6 2h6h6q1 1 1 2q-7 3 -8 8.5t0 11.5q1 8 1 15t1 15q0 12 -0.5 24.5t0.5 24.5q1 20 0.5 40.5t-0.5 40.5q0 8 1 15l2 14q0 2 0.5 4.5
t0.5 5.5q0 22 -0.5 43t-0.5 44q0 13 -0.5 25.5t1.5 26.5q2 13 1.5 26.5t0.5 27.5v50q0 4 2 12q2 10 1 20t-1 20q1 14 0 27.5t-1 27.5q-1 5 0 10.5t1 10.5q-2 20 -2.5 40.5t-3.5 40.5q-2 14 -2.5 28.5t2.5 28.5q1 3 1 5.5t1 5.5q0 7 -7 7h-31q-5 0 -8.5 0.5t-7.5 1.5
q-6 2 -8 4q-2 4 -2 7q0 2 6 7.5t9 5.5q8 1 15.5 1t16.5 1q3 0 6.5 -0.5t6.5 -0.5h16.5t16.5 2q7 1 13.5 1.5t13.5 -1.5q9 -1 17.5 -2t18.5 -2q6 -2 11 -4q4 -1 6 -10q2 -16 3 -32.5t1 -32.5q1 -23 1 -46t1 -46q0 -8 1 -11q3 -1 7 -1q19 2 37.5 3t38.5 1q26 0 48 -7
q31 -10 47 -42q10 -19 15.5 -39t5.5 -41q0 -17 0.5 -34t1.5 -34q0 -11 -0.5 -22t-0.5 -22q0 -18 -2 -36t-4 -37q-2 -11 -4 -23t-4 -23q0 -3 -1 -6t-3 -7zM253 344q0 16 0.5 31t1.5 27q-3 31 -3 52q-1 5 -1 11t-1 11l-2 18t-1 19q-2 13 -6 27q-7 20 -29 22q-12 1 -24 0
t-23 -3q-6 0 -7 -2t-1 -8q0 -14 0.5 -28t0.5 -29q1 -16 1 -32v-32v-21q-1 -19 -2 -37t-1 -36q-1 -19 -0.5 -38t0.5 -37q0 -10 -0.5 -20t-0.5 -20q-1 -5 -0.5 -10t0.5 -10v-29q0 -6 5 -7t11 -2t11 -2h49q3 0 4 1q8 0 8 7q1 5 1 9.5t1 9.5q2 21 2.5 42.5t2.5 42.5q1 19 1.5 37
t1.5 36z" />
    <glyph glyph-name="germandbls" unicode="&#xdf;" horiz-adv-x="681" 
d="M614 256v-39t-5 -38q-4 -14 -8 -28.5t-8 -28.5q-6 -25 -17.5 -46t-25.5 -41q-4 -5 -8.5 -9t-7.5 -9q-8 -11 -18 -15q-7 -4 -13.5 -7.5t-13.5 -6.5q-5 -2 -9.5 -3t-9.5 -2q-14 -1 -27 -3l-26 -4q-8 -2 -16 -1t-16 3q-9 2 -17.5 5t-17.5 5q-20 5 -37.5 14.5t-34.5 23.5
q-3 2 -6 6t-6 7q-2 2 -3 2.5t-3 2.5q-2 -6 -2 -7v-31v-12t-2 -12q0 -4 -6 -4q-2 -1 -5 1.5t-4 5.5v4v39.5t-1 39.5q0 9 -1 18l-2 18q0 4 -0.5 8t0.5 8q0 7 3 11.5t7 8.5q3 3 8 -0.5t6 -9.5q1 -8 1 -15v-15q0 -6 -0.5 -12t-0.5 -12q0 -4 2 -8q6 -8 12 -15t14 -12
q12 -7 23.5 -15t24.5 -13q15 -6 34 -9q15 -2 30 -2.5t30 1.5q27 3 36 34q6 18 9.5 36.5t5.5 38.5q3 23 5 45t3 45q1 19 0.5 37.5t-2.5 37.5q-1 7 -1 14t-1 15q-2 17 -3.5 32.5t-5.5 31.5q-8 29 -26 47q-4 3 -7 5t-8 1q-12 -2 -24 -4.5t-23 -7.5q-14 -7 -27.5 -13.5
t-26.5 -17.5q-11 -9 -20 -20q-4 -4 -5.5 -4.5t-6.5 2.5q-5 2 -5 5t1 7q3 11 6 22.5t7 22.5q6 20 14.5 39t18.5 37l42 75q7 13 15 25t14 26q8 17 17.5 33.5t17.5 33.5q4 6 7.5 12.5t7.5 12.5q2 2 3 4.5t3 6.5q-11 2 -20 3.5t-18 2.5q-23 3 -45.5 4t-45.5 1h-33.5t-33.5 -1
q-11 -1 -20.5 -2t-20.5 -3q-8 -2 -15 -7.5t-13 -12.5q-14 -15 -24 -33t-13 -41q-3 -20 -8 -39t-8 -39q-2 -15 -3.5 -30.5t-3.5 -30.5l-6 -75q-2 -18 -2.5 -36.5t-1.5 -37.5q-1 -10 -1 -19t-1 -19v-21q-1 -14 -1 -28v-28q1 -15 1.5 -30t2.5 -30q1 -14 2 -28.5t2 -28.5
q2 -18 2.5 -36.5t1.5 -36.5q1 -8 1 -14.5t1 -14.5q0 -13 13 -12q10 2 17 2q5 1 7 -5q2 -3 3 -5.5t3 -5.5q3 -10 -5 -10q-5 0 -9.5 0.5t-9.5 0.5q-11 2 -21 1.5t-21 -1.5l-18 -2t-18 -3q-3 -1 -5.5 -1.5t-6.5 -1.5q1 -4 1 -11q0 -6 -2 -8t-6 0q-4 4 -9 5.5t-8 7.5q0 1 -4 1
q-8 -2 -16.5 -3t-16.5 -3q-15 -4 -27 9q-7 9 3 12q4 1 14 3l21 6l4 2l4 2q-5 17 -5.5 35t-1.5 35q-1 21 -2 41.5t-2 41.5q-1 5 -1 10.5v10.5q1 16 -1 31t-4 31q-1 9 -2 17.5t-1 17.5q-1 17 -1.5 33t-0.5 33q0 26 0.5 52t1.5 52q1 41 9 82q3 19 7 37t9 36q4 15 9.5 28
t12.5 25q2 4 4 7.5t4 7.5q23 41 62 68q5 4 11 6.5t12 4.5q3 2 6.5 3.5t5.5 3.5q5 5 13 7q11 2 23 3.5t23 2.5q3 1 6 0.5t7 -0.5t7.5 0.5t6.5 0.5h46.5t46.5 -1q29 0 56 -3q11 -1 20.5 -2.5t19.5 -2.5q11 -1 21.5 -1.5t21.5 -1.5q6 0 9 -4t0 -11q-6 -16 -12.5 -32.5
t-15.5 -31.5q-14 -25 -29 -49.5t-29 -50.5q-11 -21 -22.5 -43t-20.5 -46q-9 -22 -20 -46q-1 -3 -5 -7q-8 -6 -9 -21q5 3 8.5 6t8.5 6q19 12 40 23q13 6 25.5 7.5t25.5 2.5q14 2 28.5 0t28.5 -5q3 -2 6.5 -2.5t6.5 -2.5q4 -2 7.5 -4t8.5 0q4 0 6 -2q11 -9 21 -18t19 -19
q11 -11 18 -25t12 -30q11 -37 13 -80z" />
    <glyph glyph-name="agrave" unicode="&#xe0;" horiz-adv-x="374" 
d="M198 50l-10 -10q-17 -22 -40 -35t-49 -19t-48 3t-39 30q-4 4 -6 11q-6 11 -9.5 21.5t-7.5 24.5q-3 13 -3.5 28.5t0.5 29.5q1 20 5 39t12 36q16 34 48 52q26 14 54.5 21t57.5 12q11 2 23.5 -0.5t23.5 -7.5q2 3 1.5 7.5t-1.5 6.5q-2 17 -3.5 33.5t-4.5 33.5t-11.5 30.5
t-19.5 24.5q-10 11 -22.5 14.5t-26.5 1.5q-22 -1 -40 -19q-11 -11 -21 -22t-14 -27q-3 -11 2 -19q8 -14 -1 -28q-3 -4 -6 -7t-8 -2q-12 3 -13 14v12.5t1 12.5q3 15 7 30t13 29q9 11 18.5 21.5t23.5 18.5q11 6 22.5 10t23.5 7q8 2 14.5 0.5t14.5 -2.5q12 -1 23.5 -4t23.5 -7
q20 -6 33.5 -18.5t24.5 -29.5q12 -18 17.5 -38t6.5 -41q2 -20 2.5 -40t-0.5 -40q-2 -28 -4.5 -56t-4.5 -57q-2 -25 -4.5 -50t-4.5 -50q-1 -8 0.5 -15.5t3.5 -15.5q6 -19 24 -11q13 5 17 17q3 8 6 15t3 15q0 3 3 7t5 6t5.5 1.5t5.5 -2.5q6 -8 4 -14q-8 -23 -19 -43.5
t-37 -29.5q-14 -5 -27 -2t-25 10q-20 11 -29.5 27.5t-12.5 38.5v3.5t-1 6.5zM209 256q-1 5 -1 10t-6 7q-17 3 -31 2q-9 -1 -18 -3l-18 -4q-21 -5 -30 -22q-5 -8 -8.5 -16t-7.5 -16q-10 -23 -13 -47.5t-4 -49.5q0 -19 3 -38l6 -38q1 -7 5.5 -13t8.5 -13t14 -3q8 2 12 4
q16 7 25 16t13 11q8 6 13.5 13.5t12.5 14.5q14 13 11 31q2 24 3 45t3 41q3 18 3.5 34t3.5 34zM181 542q1 -2 1.5 -2.5t1.5 -2.5l1 -1l-1 -2q-1 -4 -3 -8t-8 -6q-1 0 -2 -0.5t-2 -0.5q-4 0 -6.5 2t-4.5 4t-3 3.5t-3 3.5l-1 2q-2 2 -3 3.5t-3 3.5q-2 3 -4.5 6.5t-5.5 6.5
q-5 5 -9.5 10.5t-9.5 10.5t-9.5 10.5t-9.5 11.5q-3 3 -6 7t-6 9q-2 6 -1 9q1 4 8 9q6 2 7 2q6 0 10 -6q4 -4 7 -7.5t6 -7.5q6 -8 12 -15t13 -14q3 -3 6 -6.5t6 -6.5q4 -4 7.5 -8t7.5 -9q3 -3 7 -11z" />
    <glyph glyph-name="aacute" unicode="&#xe1;" horiz-adv-x="374" 
d="M198 50l-10 -10q-17 -22 -40 -35t-49 -19t-48 3t-39 30q-4 4 -6 11q-6 11 -9.5 21.5t-7.5 24.5q-3 13 -3.5 28.5t0.5 29.5q1 20 5 39t12 36q16 34 48 52q26 14 54.5 21t57.5 12q11 2 23.5 -0.5t23.5 -7.5q2 3 1.5 7.5t-1.5 6.5q-2 17 -3.5 33.5t-4.5 33.5t-11.5 30.5
t-19.5 24.5q-10 11 -22.5 14.5t-26.5 1.5q-22 -1 -40 -19q-11 -11 -21 -22t-14 -27q-3 -11 2 -19q8 -14 -1 -28q-3 -4 -6 -7t-8 -2q-12 3 -13 14v12.5t1 12.5q3 15 7 30t13 29q9 11 18.5 21.5t23.5 18.5q11 6 22.5 10t23.5 7q8 2 14.5 0.5t14.5 -2.5q12 -1 23.5 -4t23.5 -7
q20 -6 33.5 -18.5t24.5 -29.5q12 -18 17.5 -38t6.5 -41q2 -20 2.5 -40t-0.5 -40q-2 -28 -4.5 -56t-4.5 -57q-2 -25 -4.5 -50t-4.5 -50q-1 -8 0.5 -15.5t3.5 -15.5q6 -19 24 -11q13 5 17 17q3 8 6 15t3 15q0 3 3 7t5 6t5.5 1.5t5.5 -2.5q6 -8 4 -14q-8 -23 -19 -43.5
t-37 -29.5q-14 -5 -27 -2t-25 10q-20 11 -29.5 27.5t-12.5 38.5v3.5t-1 6.5zM209 256q-1 5 -1 10t-6 7q-17 3 -31 2q-9 -1 -18 -3l-18 -4q-21 -5 -30 -22q-5 -8 -8.5 -16t-7.5 -16q-10 -23 -13 -47.5t-4 -49.5q0 -19 3 -38l6 -38q1 -7 5.5 -13t8.5 -13t14 -3q8 2 12 4
q16 7 25 16t13 11q8 6 13.5 13.5t12.5 14.5q14 13 11 31q2 24 3 45t3 41q3 18 3.5 34t3.5 34zM126 542q4 8 7 11q4 5 7.5 9t7.5 8q3 3 6 6.5t6 6.5q7 7 13 14t12 15q3 4 6 7.5t7 7.5q4 6 10 6q1 0 7 -2q7 -5 8 -9q1 -3 -1 -9q-3 -5 -6 -9t-6 -7q-5 -6 -9.5 -11.5t-9.5 -10.5
t-9.5 -10.5t-9.5 -10.5q-3 -3 -5.5 -6.5t-4.5 -6.5q-2 -2 -3 -3.5t-3 -3.5l-1 -2q-2 -2 -3 -3.5t-3 -3.5t-4.5 -4t-6.5 -2q-1 0 -2 0.5t-2 0.5q-6 2 -8 6t-3 8l-1 2l1 1q1 2 1.5 2.5t1.5 2.5z" />
    <glyph glyph-name="acircumflex" unicode="&#xe2;" horiz-adv-x="374" 
d="M198 50l-10 -10q-17 -22 -40 -35t-49 -19t-48 3t-39 30q-4 4 -6 11q-6 11 -9.5 21.5t-7.5 24.5q-3 13 -3.5 28.5t0.5 29.5q1 20 5 39t12 36q16 34 48 52q26 14 54.5 21t57.5 12q11 2 23.5 -0.5t23.5 -7.5q2 3 1.5 7.5t-1.5 6.5q-2 17 -3.5 33.5t-4.5 33.5t-11.5 30.5
t-19.5 24.5q-10 11 -22.5 14.5t-26.5 1.5q-22 -1 -40 -19q-11 -11 -21 -22t-14 -27q-3 -11 2 -19q8 -14 -1 -28q-3 -4 -6 -7t-8 -2q-12 3 -13 14v12.5t1 12.5q3 15 7 30t13 29q9 11 18.5 21.5t23.5 18.5q11 6 22.5 10t23.5 7q8 2 14.5 0.5t14.5 -2.5q12 -1 23.5 -4t23.5 -7
q20 -6 33.5 -18.5t24.5 -29.5q12 -18 17.5 -38t6.5 -41q2 -20 2.5 -40t-0.5 -40q-2 -28 -4.5 -56t-4.5 -57q-2 -25 -4.5 -50t-4.5 -50q-1 -8 0.5 -15.5t3.5 -15.5q6 -19 24 -11q13 5 17 17q3 8 6 15t3 15q0 3 3 7t5 6t5.5 1.5t5.5 -2.5q6 -8 4 -14q-8 -23 -19 -43.5
t-37 -29.5q-14 -5 -27 -2t-25 10q-20 11 -29.5 27.5t-12.5 38.5v3.5t-1 6.5zM209 256q-1 5 -1 10t-6 7q-17 3 -31 2q-9 -1 -18 -3l-18 -4q-21 -5 -30 -22q-5 -8 -8.5 -16t-7.5 -16q-10 -23 -13 -47.5t-4 -49.5q0 -19 3 -38l6 -38q1 -7 5.5 -13t8.5 -13t14 -3q8 2 12 4
q16 7 25 16t13 11q8 6 13.5 13.5t12.5 14.5q14 13 11 31q2 24 3 45t3 41q3 18 3.5 34t3.5 34zM216 527q0 -1 0.5 -1.5t0.5 -1.5l1 -2l-2 -2q-5 -4 -12 -4q-3 0 -7 1.5t-8 8.5q-2 3 -6 11q-3 5 -5.5 9t-5.5 9q-5 8 -10.5 17t-12.5 20q-1 1 -1 2l-1 1q-2 0 -3 -3
q-8 -11 -14.5 -22t-13.5 -22l-1 -2q-2 -3 -4 -6.5t-4 -6.5t-3.5 -6t-3.5 -6q-1 -2 -3 -4.5t-6 -2.5q-5 0 -9 6q-3 4 -2 7.5t2 5.5l4 7q3 6 6 11.5t6 11.5l2 3q6 13 13 25.5t16 23.5q2 2 3 4l1 2t3 5t6 3q2 0 8 -4l3 -3q5 -4 9 -8t8 -11q3 -7 9 -13q2 -3 8 -11q5 -9 11 -19
t11 -20l4 -6q2 -4 3 -7z" />
    <glyph glyph-name="atilde" unicode="&#xe3;" horiz-adv-x="374" 
d="M198 50l-10 -10q-17 -22 -40 -35t-49 -19t-48 3t-39 30q-4 4 -6 11q-6 11 -9.5 21.5t-7.5 24.5q-3 13 -3.5 28.5t0.5 29.5q1 20 5 39t12 36q16 34 48 52q26 14 54.5 21t57.5 12q11 2 23.5 -0.5t23.5 -7.5q2 3 1.5 7.5t-1.5 6.5q-2 17 -3.5 33.5t-4.5 33.5t-11.5 30.5
t-19.5 24.5q-10 11 -22.5 14.5t-26.5 1.5q-22 -1 -40 -19q-11 -11 -21 -22t-14 -27q-3 -11 2 -19q8 -14 -1 -28q-3 -4 -6 -7t-8 -2q-12 3 -13 14v12.5t1 12.5q3 15 7 30t13 29q9 11 18.5 21.5t23.5 18.5q11 6 22.5 10t23.5 7q8 2 14.5 0.5t14.5 -2.5q12 -1 23.5 -4t23.5 -7
q20 -6 33.5 -18.5t24.5 -29.5q12 -18 17.5 -38t6.5 -41q2 -20 2.5 -40t-0.5 -40q-2 -28 -4.5 -56t-4.5 -57q-2 -25 -4.5 -50t-4.5 -50q-1 -8 0.5 -15.5t3.5 -15.5q6 -19 24 -11q13 5 17 17q3 8 6 15t3 15q0 3 3 7t5 6t5.5 1.5t5.5 -2.5q6 -8 4 -14q-8 -23 -19 -43.5
t-37 -29.5q-14 -5 -27 -2t-25 10q-20 11 -29.5 27.5t-12.5 38.5v3.5t-1 6.5zM209 256q-1 5 -1 10t-6 7q-17 3 -31 2q-9 -1 -18 -3l-18 -4q-21 -5 -30 -22q-5 -8 -8.5 -16t-7.5 -16q-10 -23 -13 -47.5t-4 -49.5q0 -19 3 -38l6 -38q1 -7 5.5 -13t8.5 -13t14 -3q8 2 12 4
q16 7 25 16t13 11q8 6 13.5 13.5t12.5 14.5q14 13 11 31q2 24 3 45t3 41q3 18 3.5 34t3.5 34zM284 593q5 -3 8 -8q1 -2 2 -4.5t-1 -5.5q-2 -8 -5 -11q-2 -3 -4 -5.5t-4 -5.5q-5 -6 -10 -12.5t-11 -11.5q-13 -9 -29 -12q-4 -1 -10 -1h-4h-1q-48 3 -78 33l-1 1q-5 5 -9.5 9
t-10.5 6q-10 4 -17 4q-12 0 -22.5 -6t-15.5 -16q-2 -4 -5 -8t-5 -8q-2 -2 -4 -4.5t-5 -2.5q-5 0 -9 6q-9 10 -2 20q6 8 10 14l2 4q19 28 53 28q29 0 48 -19q19 -21 44 -30q5 -2 11 -3t13 -1q33 0 48 23q2 2 2.5 4t2.5 4t3.5 5t3.5 5q0 2 1 2q2 7 8 7h3z" />
    <glyph glyph-name="adieresis" unicode="&#xe4;" horiz-adv-x="374" 
d="M198 50l-10 -10q-17 -22 -40 -35t-49 -19t-48 3t-39 30q-4 4 -6 11q-6 11 -9.5 21.5t-7.5 24.5q-3 13 -3.5 28.5t0.5 29.5q1 20 5 39t12 36q16 34 48 52q26 14 54.5 21t57.5 12q11 2 23.5 -0.5t23.5 -7.5q2 3 1.5 7.5t-1.5 6.5q-2 17 -3.5 33.5t-4.5 33.5t-11.5 30.5
t-19.5 24.5q-10 11 -22.5 14.5t-26.5 1.5q-22 -1 -40 -19q-11 -11 -21 -22t-14 -27q-3 -11 2 -19q8 -14 -1 -28q-3 -4 -6 -7t-8 -2q-12 3 -13 14v12.5t1 12.5q3 15 7 30t13 29q9 11 18.5 21.5t23.5 18.5q11 6 22.5 10t23.5 7q8 2 14.5 0.5t14.5 -2.5q12 -1 23.5 -4t23.5 -7
q20 -6 33.5 -18.5t24.5 -29.5q12 -18 17.5 -38t6.5 -41q2 -20 2.5 -40t-0.5 -40q-2 -28 -4.5 -56t-4.5 -57q-2 -25 -4.5 -50t-4.5 -50q-1 -8 0.5 -15.5t3.5 -15.5q6 -19 24 -11q13 5 17 17q3 8 6 15t3 15q0 3 3 7t5 6t5.5 1.5t5.5 -2.5q6 -8 4 -14q-8 -23 -19 -43.5
t-37 -29.5q-14 -5 -27 -2t-25 10q-20 11 -29.5 27.5t-12.5 38.5v3.5t-1 6.5zM209 256q-1 5 -1 10t-6 7q-17 3 -31 2q-9 -1 -18 -3l-18 -4q-21 -5 -30 -22q-5 -8 -8.5 -16t-7.5 -16q-10 -23 -13 -47.5t-4 -49.5q0 -19 3 -38l6 -38q1 -7 5.5 -13t8.5 -13t14 -3q8 2 12 4
q16 7 25 16t13 11q8 6 13.5 13.5t12.5 14.5q14 13 11 31q2 24 3 45t3 41q3 18 3.5 34t3.5 34zM205 582q13 0 22 -10t9 -22q-1 -14 -8.5 -22t-20.5 -8h-1q-14 0 -22 9.5t-9 26.5q0 8 7 17q10 10 21 9h2zM94 582q13 0 22 -10t9 -22q-1 -14 -8.5 -22t-20.5 -8h-1q-14 0 -22 9.5
t-9 26.5q0 8 7 17q10 10 21 9h2z" />
    <glyph glyph-name="aring" unicode="&#xe5;" horiz-adv-x="374" 
d="M198 50l-10 -10q-17 -22 -40 -35t-49 -19t-48 3t-39 30q-4 4 -6 11q-6 11 -9.5 21.5t-7.5 24.5q-3 13 -3.5 28.5t0.5 29.5q1 20 5 39t12 36q16 34 48 52q26 14 54.5 21t57.5 12q11 2 23.5 -0.5t23.5 -7.5q2 3 1.5 7.5t-1.5 6.5q-2 17 -3.5 33.5t-4.5 33.5t-11.5 30.5
t-19.5 24.5q-10 11 -22.5 14.5t-26.5 1.5q-22 -1 -40 -19q-11 -11 -21 -22t-14 -27q-3 -11 2 -19q8 -14 -1 -28q-3 -4 -6 -7t-8 -2q-12 3 -13 14v12.5t1 12.5q3 15 7 30t13 29q9 11 18.5 21.5t23.5 18.5q11 6 22.5 10t23.5 7q8 2 14.5 0.5t14.5 -2.5q12 -1 23.5 -4t23.5 -7
q20 -6 33.5 -18.5t24.5 -29.5q12 -18 17.5 -38t6.5 -41q2 -20 2.5 -40t-0.5 -40q-2 -28 -4.5 -56t-4.5 -57q-2 -25 -4.5 -50t-4.5 -50q-1 -8 0.5 -15.5t3.5 -15.5q6 -19 24 -11q13 5 17 17q3 8 6 15t3 15q0 3 3 7t5 6t5.5 1.5t5.5 -2.5q6 -8 4 -14q-8 -23 -19 -43.5
t-37 -29.5q-14 -5 -27 -2t-25 10q-20 11 -29.5 27.5t-12.5 38.5v3.5t-1 6.5zM209 256q-1 5 -1 10t-6 7q-17 3 -31 2q-9 -1 -18 -3l-18 -4q-21 -5 -30 -22q-5 -8 -8.5 -16t-7.5 -16q-10 -23 -13 -47.5t-4 -49.5q0 -19 3 -38l6 -38q1 -7 5.5 -13t8.5 -13t14 -3q8 2 12 4
q16 7 25 16t13 11q8 6 13.5 13.5t12.5 14.5q14 13 11 31q2 24 3 45t3 41q3 18 3.5 34t3.5 34zM179 589q10 -8 18 -18q9 -9 7 -21q-2 -23 -25 -33q-8 -4 -19 -4q-20 0 -35 12.5t-17 31.5q-2 21 19 33q27 16 52 -1zM135 559q-1 -9 4 -16q6 -6 15 -6q16 0 22 12q4 6 2 14
q-3 6 -12 9q-2 1 -6 1q-6 0 -16 -4q-8 -3 -9 -10z" />
    <glyph glyph-name="ae" unicode="&#xe6;" horiz-adv-x="543" 
d="M492 376q1 -19 1.5 -37.5t-4.5 -37.5t-23 -20h-9.5t-9.5 1q-14 3 -28 3t-28 -2l-24 -2t-24 -3q-7 -1 -13.5 -1t-14.5 -1q-6 -13 -6.5 -27.5t-2.5 -28.5q-3 -33 -0.5 -66t5.5 -67q2 -17 6 -34t11 -34q9 -21 27.5 -30t38.5 -2q23 7 34 33q8 18 13.5 37.5t4.5 39.5
q-1 5 -1.5 8.5t-3.5 7.5q-2 2 -4 5l-4 6q-5 9 -2.5 16.5t13.5 9.5q14 2 22 -4.5t3 -24.5q-3 -12 -3 -25q-1 -20 -3 -39t-7 -38q-4 -10 -7 -14q-8 -10 -15.5 -22t-18.5 -19q-11 -8 -24 -9.5t-27 0.5q-2 0 -3 0.5t-3 0.5q-26 0 -46.5 11t-39.5 28q-4 4 -6 8t-5 9
q-10 20 -18 44q-2 -2 -3 -2.5t-2 -2.5q-7 -9 -13.5 -17t-14.5 -16q-20 -21 -44 -37.5t-52 -24.5q-26 -7 -47.5 2.5t-38.5 32.5q-5 4 -6 12q-6 12 -9.5 23t-7.5 26q-3 14 -3.5 31t0.5 31q0 21 4 41.5t12 39.5q14 36 46 56q26 16 54 23t57 13q11 2 23 -0.5t23 -7.5q2 3 1.5 8
t-1.5 7q-2 18 -3.5 36t-5.5 36q-3 17 -11.5 31.5t-19.5 27.5q-10 11 -22 14.5t-26 1.5q-12 -1 -21.5 -6.5t-17.5 -13.5q-11 -12 -21 -24t-14 -29q-2 -13 3 -21q8 -15 -1 -30q-3 -4 -6 -7t-8 -2q-12 3 -13 14v14t1 13q2 17 6 33.5t13 30.5q8 12 18 23.5t23 19.5
q11 7 22.5 11.5t22.5 7.5q8 2 14.5 0t14.5 -2q12 -1 23.5 -4t23.5 -8q18 -6 31.5 -18.5t24.5 -29.5q2 2 2.5 4t2.5 4q2 3 4 6.5t4 6.5q4 6 7 9q11 8 21.5 16t21.5 15q13 8 27 9t28 -1q17 -2 32 -7t29 -13q24 -15 34 -41q5 -11 6 -22.5t1 -22.5zM214 174q2 20 3 36.5t3 36.5
q-1 5 -1 10.5t-6 7.5q-16 3 -30 2q-9 -1 -18 -3.5t-18 -4.5q-20 -4 -29 -24q-4 -8 -8 -16.5t-8 -17.5q-9 -26 -12 -52t-3 -52q-1 -20 2.5 -41t6.5 -41q2 -7 6 -13.5t8 -14.5q4 -7 14 -3q4 1 12 5q15 8 24 17.5t13 11.5q8 7 13.5 15t12.5 15q13 14 10 34q2 26 2.5 48t2.5 44z
M435 368q1 13 1 25.5v24.5h-1q0 5 -0.5 9.5t-0.5 9.5q-1 10 -3.5 13t-11.5 5q-5 1 -15 1q-4 1 -8 0.5t-8 0.5q-17 5 -28 -13q-2 -4 -4.5 -7.5t-4.5 -7.5q-13 -26 -19 -53t-11 -56q-1 -10 0.5 -12t10.5 -1q9 2 18.5 3.5t18.5 0.5q12 -1 24 0t24 0q9 -1 12 1.5t4 11.5
q1 11 1.5 22t0.5 22z" />
    <glyph glyph-name="ccedilla" unicode="&#xe7;" horiz-adv-x="301" 
d="M212 424q-1 4 -0.5 8t0.5 8q0 10 -2 12.5t-10 2.5q-12 -2 -23.5 -5t-20.5 -14q-12 -14 -21 -28t-16 -32q-14 -39 -17 -80q-2 -23 -2.5 -46t-2.5 -46q-1 -22 -2 -43.5t0 -42.5q0 -17 1 -34.5t3 -35.5q2 -15 10 -23.5t18 -11.5q23 -7 44 14l20 20q11 11 13 32
q0 12 5.5 19.5t11.5 14.5q3 3 6 2t4 -5q1 -5 1 -15q-1 -17 -1.5 -33t-2.5 -33q0 -6 0.5 -11.5t0.5 -11.5q0 -7 -3 -10q-4 -2 -8 5q-2 4 -4.5 8t-4.5 9q-3 -3 -5 -4.5t-4 -3.5q-20 -26 -53 -26h-6q-2 -6 -4 -9l-2 -4l-2 -4q-2 -2 -2 -4q0 -1 1 -1h1h5q1 0 2 0.5t2 0.5
q23 -1 38 -18q14 -19 10 -41q-1 -14 -9 -25t-18 -15t-22 -4h-11q-10 2 -16 4q-5 0 -10 7q-3 8 -2 14q3 10 18 7h1q5 -1 11 -2t11 -1q3 -1 6 0t5 2q13 5 13 15q2 11 -7 20q-7 6 -17 6h-12q-6 -1 -11 -1t-10 -1q-2 0 -3 -1q-8 0 -11 3q-3 4 -3 10t3 11q2 2 2 5q4 6 7 11
q2 3 3.5 6.5t3.5 6.5q-11 2 -23.5 5.5t-20.5 8.5q-2 0 -4 2q-13 14 -24.5 29.5t-16.5 38.5q-3 15 -7 28t-8 27q-1 3 -1.5 7t0.5 7q1 14 0 29q-4 19 -3 37.5t3 35.5q4 23 8 45.5t9 45.5q5 20 12 40t19 36q7 12 18 21q15 13 30 24t33 16l25 5t26 3q5 -1 10 0.5t10 2.5q3 1 7 7
q3 4 5 7.5t4 8.5q2 4 4.5 6.5t8.5 3.5q0 -4 1 -8.5t1 -8.5q-3 -17 -5.5 -35t-5.5 -35q-1 -4 -2.5 -7.5t-4.5 -1.5q-2 1 -4.5 4.5t-3.5 6.5z" />
    <glyph glyph-name="egrave" unicode="&#xe8;" horiz-adv-x="328" 
d="M89 277q-6 -13 -6.5 -27.5t-2.5 -28.5q-3 -34 -0.5 -67t5.5 -67q2 -17 6 -34t11 -34q9 -21 27.5 -30t38.5 -2q23 9 34 33q8 18 13.5 37.5t4.5 39.5q-1 5 -1.5 8.5t-3.5 7.5q-2 2 -4 5l-4 6q-5 9 -2.5 16.5t13.5 9.5q14 2 22 -4.5t3 -24.5q-3 -12 -3 -25q-1 -20 -3 -39
t-7 -38q-4 -10 -7 -14q-8 -10 -15.5 -21.5t-18.5 -19.5q-24 -14 -51 -9q-2 0 -3 0.5t-3 0.5q-26 0 -46.5 11t-39.5 28q-4 4 -6.5 8t-4.5 9q-11 21 -18 44t-11 46q-2 16 -3 31.5t-3 31.5q-5 33 0 66q0 4 -1 7.5t-1 7.5q0 49 17 95q4 10 5 15q4 19 12 35t19 31q2 3 4 6.5
t4 6.5q2 2 3.5 4.5t3.5 4.5q11 8 21.5 16t21.5 15q13 8 27 9t28 -1q17 -2 32 -7t29 -13q24 -15 34 -41q5 -11 6 -22.5t1 -22.5q1 -19 1.5 -37.5t-4.5 -37.5t-23 -20h-9.5t-9.5 1q-14 3 -28 3t-28 -2l-24 -2t-24 -3q-7 -1 -13.5 -1t-14.5 -1zM210 419h-1q0 5 -0.5 9.5
t-0.5 9.5q-1 10 -3.5 13t-11.5 5q-5 1 -15 1q-4 1 -8 0.5t-8 0.5q-19 6 -28 -13l-9 -15q-13 -26 -19.5 -53t-10.5 -56q-2 -10 0 -12t11 -1q9 2 18.5 3.5t18.5 0.5q12 -1 24 0t24 0q9 -1 12 1.5t4 11.5q1 11 1.5 22t0.5 22q1 13 1 25.5v24.5zM181 552q1 -2 1.5 -2.5t1.5 -2.5
l1 -1l-1 -2q-1 -4 -3 -8t-8 -6q-1 0 -2 -0.5t-2 -0.5q-4 0 -6.5 2t-4.5 4t-3 3.5t-3 3.5l-1 2q-2 2 -3 3.5t-3 3.5q-2 3 -4.5 6.5t-5.5 6.5q-5 5 -9.5 10.5t-9.5 10.5t-9.5 10.5t-9.5 11.5q-3 3 -6 7t-6 9q-2 6 -1 9q1 4 8 9q6 2 7 2q6 0 10 -6q4 -4 7 -7.5t6 -7.5
q6 -8 12 -15t13 -14q3 -3 6 -6.5t6 -6.5q4 -4 7.5 -8t7.5 -9q3 -3 7 -11z" />
    <glyph glyph-name="eacute" unicode="&#xe9;" horiz-adv-x="328" 
d="M89 277q-6 -13 -6.5 -27.5t-2.5 -28.5q-3 -34 -0.5 -67t5.5 -67q2 -17 6 -34t11 -34q9 -21 27.5 -30t38.5 -2q23 9 34 33q8 18 13.5 37.5t4.5 39.5q-1 5 -1.5 8.5t-3.5 7.5q-2 2 -4 5l-4 6q-5 9 -2.5 16.5t13.5 9.5q14 2 22 -4.5t3 -24.5q-3 -12 -3 -25q-1 -20 -3 -39
t-7 -38q-4 -10 -7 -14q-8 -10 -15.5 -21.5t-18.5 -19.5q-24 -14 -51 -9q-2 0 -3 0.5t-3 0.5q-26 0 -46.5 11t-39.5 28q-4 4 -6.5 8t-4.5 9q-11 21 -18 44t-11 46q-2 16 -3 31.5t-3 31.5q-5 33 0 66q0 4 -1 7.5t-1 7.5q0 49 17 95q4 10 5 15q4 19 12 35t19 31q2 3 4 6.5
t4 6.5q2 2 3.5 4.5t3.5 4.5q11 8 21.5 16t21.5 15q13 8 27 9t28 -1q17 -2 32 -7t29 -13q24 -15 34 -41q5 -11 6 -22.5t1 -22.5q1 -19 1.5 -37.5t-4.5 -37.5t-23 -20h-9.5t-9.5 1q-14 3 -28 3t-28 -2l-24 -2t-24 -3q-7 -1 -13.5 -1t-14.5 -1zM210 419h-1q0 5 -0.5 9.5
t-0.5 9.5q-1 10 -3.5 13t-11.5 5q-5 1 -15 1q-4 1 -8 0.5t-8 0.5q-19 6 -28 -13l-9 -15q-13 -26 -19.5 -53t-10.5 -56q-2 -10 0 -12t11 -1q9 2 18.5 3.5t18.5 0.5q12 -1 24 0t24 0q9 -1 12 1.5t4 11.5q1 11 1.5 22t0.5 22q1 13 1 25.5v24.5zM136 552q4 8 7 11q4 5 7.5 9
t7.5 8q3 3 6 6.5t6 6.5q7 7 13 14t12 15q3 4 6 7.5t7 7.5q4 6 10 6q1 0 7 -2q7 -5 8 -9q1 -3 -1 -9q-3 -5 -6 -9t-6 -7q-5 -6 -9.5 -11.5t-9.5 -10.5t-9.5 -10.5t-9.5 -10.5q-3 -3 -5.5 -6.5t-4.5 -6.5q-2 -2 -3 -3.5t-3 -3.5l-1 -2q-2 -2 -3 -3.5t-3 -3.5t-4.5 -4t-6.5 -2
q-1 0 -2 0.5t-2 0.5q-6 2 -8 6t-3 8l-1 2l1 1q1 2 1.5 2.5t1.5 2.5z" />
    <glyph glyph-name="ecircumflex" unicode="&#xea;" horiz-adv-x="328" 
d="M89 277q-6 -13 -6.5 -27.5t-2.5 -28.5q-3 -34 -0.5 -67t5.5 -67q2 -17 6 -34t11 -34q9 -21 27.5 -30t38.5 -2q23 9 34 33q8 18 13.5 37.5t4.5 39.5q-1 5 -1.5 8.5t-3.5 7.5q-2 2 -4 5l-4 6q-5 9 -2.5 16.5t13.5 9.5q14 2 22 -4.5t3 -24.5q-3 -12 -3 -25q-1 -20 -3 -39
t-7 -38q-4 -10 -7 -14q-8 -10 -15.5 -21.5t-18.5 -19.5q-24 -14 -51 -9q-2 0 -3 0.5t-3 0.5q-26 0 -46.5 11t-39.5 28q-4 4 -6.5 8t-4.5 9q-11 21 -18 44t-11 46q-2 16 -3 31.5t-3 31.5q-5 33 0 66q0 4 -1 7.5t-1 7.5q0 49 17 95q4 10 5 15q4 19 12 35t19 31q2 3 4 6.5
t4 6.5q2 2 3.5 4.5t3.5 4.5q11 8 21.5 16t21.5 15q13 8 27 9t28 -1q17 -2 32 -7t29 -13q24 -15 34 -41q5 -11 6 -22.5t1 -22.5q1 -19 1.5 -37.5t-4.5 -37.5t-23 -20h-9.5t-9.5 1q-14 3 -28 3t-28 -2l-24 -2t-24 -3q-7 -1 -13.5 -1t-14.5 -1zM210 419h-1q0 5 -0.5 9.5
t-0.5 9.5q-1 10 -3.5 13t-11.5 5q-5 1 -15 1q-4 1 -8 0.5t-8 0.5q-19 6 -28 -13l-9 -15q-13 -26 -19.5 -53t-10.5 -56q-2 -10 0 -12t11 -1q9 2 18.5 3.5t18.5 0.5q12 -1 24 0t24 0q9 -1 12 1.5t4 11.5q1 11 1.5 22t0.5 22q1 13 1 25.5v24.5zM226 537q0 -1 0.5 -1.5t0.5 -1.5
l1 -2l-2 -2q-5 -4 -12 -4q-3 0 -7 1.5t-8 8.5q-2 3 -6 11q-3 5 -5.5 9t-5.5 9q-5 8 -10.5 17t-12.5 20q-1 1 -1 2l-1 1q-2 0 -3 -3q-8 -11 -14.5 -22t-13.5 -22l-1 -2q-2 -3 -4 -6.5t-4 -6.5t-3.5 -6t-3.5 -6q-1 -2 -3 -4.5t-6 -2.5q-5 0 -9 6q-3 4 -2 7.5t2 5.5l4 7
q3 6 6 11.5t6 11.5l2 3q6 13 13 25.5t16 23.5q2 2 3 4l1 2t3 5t6 3q2 0 8 -4l3 -3q5 -4 9 -8t8 -11q3 -7 9 -13q2 -3 8 -11q5 -9 11 -19t11 -20l4 -6q2 -4 3 -7z" />
    <glyph glyph-name="edieresis" unicode="&#xeb;" horiz-adv-x="328" 
d="M89 277q-6 -13 -6.5 -27.5t-2.5 -28.5q-3 -34 -0.5 -67t5.5 -67q2 -17 6 -34t11 -34q9 -21 27.5 -30t38.5 -2q23 9 34 33q8 18 13.5 37.5t4.5 39.5q-1 5 -1.5 8.5t-3.5 7.5q-2 2 -4 5l-4 6q-5 9 -2.5 16.5t13.5 9.5q14 2 22 -4.5t3 -24.5q-3 -12 -3 -25q-1 -20 -3 -39
t-7 -38q-4 -10 -7 -14q-8 -10 -15.5 -21.5t-18.5 -19.5q-24 -14 -51 -9q-2 0 -3 0.5t-3 0.5q-26 0 -46.5 11t-39.5 28q-4 4 -6.5 8t-4.5 9q-11 21 -18 44t-11 46q-2 16 -3 31.5t-3 31.5q-5 33 0 66q0 4 -1 7.5t-1 7.5q0 49 17 95q4 10 5 15q4 19 12 35t19 31q2 3 4 6.5
t4 6.5q2 2 3.5 4.5t3.5 4.5q11 8 21.5 16t21.5 15q13 8 27 9t28 -1q17 -2 32 -7t29 -13q24 -15 34 -41q5 -11 6 -22.5t1 -22.5q1 -19 1.5 -37.5t-4.5 -37.5t-23 -20h-9.5t-9.5 1q-14 3 -28 3t-28 -2l-24 -2t-24 -3q-7 -1 -13.5 -1t-14.5 -1zM210 419h-1q0 5 -0.5 9.5
t-0.5 9.5q-1 10 -3.5 13t-11.5 5q-5 1 -15 1q-4 1 -8 0.5t-8 0.5q-19 6 -28 -13l-9 -15q-13 -26 -19.5 -53t-10.5 -56q-2 -10 0 -12t11 -1q9 2 18.5 3.5t18.5 0.5q12 -1 24 0t24 0q9 -1 12 1.5t4 11.5q1 11 1.5 22t0.5 22q1 13 1 25.5v24.5zM215 592q13 0 22 -10t9 -22
q-1 -14 -8.5 -22t-20.5 -8h-1q-14 0 -22 9.5t-9 26.5q0 8 7 17q10 10 21 9h2zM104 592q13 0 22 -10t9 -22q-1 -14 -8.5 -22t-20.5 -8h-1q-14 0 -22 9.5t-9 26.5q0 8 7 17q10 10 21 9h2z" />
    <glyph glyph-name="igrave" unicode="&#xec;" horiz-adv-x="196" 
d="M149 132q2 -6 2 -11q-1 -5 -1.5 -9.5t-0.5 -8.5q-2 -12 -3 -24t-7 -23q-2 -2 -3.5 -6.5t-2.5 -8.5q-6 -23 -17.5 -37t-25.5 -24q-6 -4 -15.5 -4t-19 3.5t-17.5 10.5t-12 17q-5 16 -9.5 30.5t-5.5 31.5q-2 16 -4 30l-4 28q-1 11 -1.5 22t-0.5 22q0 4 0.5 8.5t-0.5 9.5
l2 26t-1 25q-1 16 0.5 31.5t2.5 30.5q2 8 2 16.5t1 16.5q1 17 3 32l4 30q1 4 1 9q-1 14 1 28l4 28l77 -4q-2 -14 -3 -29t-3 -30q-1 -8 -2 -17l-2 -18q-2 -28 -5 -55.5t-5 -56.5t-1.5 -59t0.5 -60q0 -22 1.5 -43t6.5 -41q1 -10 6 -19q8 -12 15 2l10 24t9 25q2 8 1.5 17.5
t-0.5 17.5q0 4 -4 8q-5 6 -3 16q4 8 10 10q16 1 20 -18zM94 565q1 -2 1.5 -2.5t1.5 -2.5l1 -1l-1 -2q-1 -4 -3 -8t-8 -6q-1 0 -2 -0.5t-2 -0.5q-4 0 -6.5 2t-4.5 4t-3 3.5t-3 3.5l-1 2q-2 2 -3 3.5t-3 3.5q-2 3 -4.5 6.5t-5.5 6.5q-5 5 -9.5 10.5t-9.5 10.5t-9.5 10.5
t-9.5 11.5q-3 3 -6 7t-6 9q-2 6 -1 9q1 4 8 9q6 2 7 2q6 0 10 -6q4 -4 7 -7.5t6 -7.5q6 -8 12 -15t13 -14q3 -3 6 -6.5t6 -6.5q4 -4 7.5 -8t7.5 -9q3 -3 7 -11z" />
    </font>
</defs>
</svg>
